<svg width="41" height="41" viewBox="0 0 41 41" fill="none" xmlns="http://www.w3.org/2000/svg">
<g clip-path="url(#clip0_1899_497)">
<path d="M40.5476 18.5413C37.607 14.2579 31.5276 20.5617 20.4326 21.8429C16.3246 22.3167 12.6232 25.747 7.85125 25.4202C5.89464 25.2858 3.16245 19.6563 1.117 20.5537C0.06467 21.0161 -0.418219 22.5593 0.663726 23.7187L12.6767 38.0527C12.6767 38.0527 13.2872 38.7566 15.344 38.2691C15.8508 38.4183 23.47 35.365 27.8752 29.2525C28.9298 27.7891 30.1871 26.5705 31.4889 25.5523C35.7153 22.4272 40.3096 21.3384 40.3096 21.3384C40.8973 20.8532 41.0351 20.3373 41.0032 19.8897C41.0419 19.1426 40.5476 18.5413 40.5476 18.5413Z" fill="#5C913B"/>
<path d="M13.0707 11.7007C8.76226 17.6799 1.21712 20.5123 1.21712 20.5123C-0.190543 21.7047 0.998457 23.1101 0.998457 23.1101L12.8862 37.1856C12.8862 37.1856 13.4807 37.8883 15.4828 37.4009C15.4828 37.4009 23.028 34.5742 27.3353 28.595C31.7758 22.4336 39.7833 20.4884 39.7833 20.4884C41.1898 19.296 40.002 17.8883 40.002 17.8883L28.1143 3.81505C28.1143 3.81505 27.5198 3.11121 25.5176 3.59638C25.5176 3.59638 17.5112 5.53705 13.0707 11.7007Z" fill="#A7D28B"/>
<path d="M25.0549 22.2084C28.5144 22.2084 31.3188 19.404 31.3188 15.9446C31.3188 12.4851 28.5144 9.68066 25.0549 9.68066C21.5955 9.68066 18.791 12.4851 18.791 15.9446C18.791 19.404 21.5955 22.2084 25.0549 22.2084Z" fill="#77B255"/>
<path d="M14.6619 36.3638C13.6585 36.3638 13.2907 35.9903 13.2406 35.9333L2.52475 23.4249C2.50425 23.401 1.961 22.7792 2.02705 21.9888C2.06691 21.5093 2.31519 21.0822 2.76391 20.7189L2.83566 20.6756C2.90513 20.6483 9.85463 17.792 13.7496 12.6294C17.8701 7.16726 24.9779 4.82343 25.0486 4.80065C27.0359 4.33826 27.6862 4.99882 27.7557 5.07626L38.3303 17.6542C38.3496 17.6747 38.8917 18.2988 38.8257 19.0903C38.7858 19.5686 38.5376 19.9957 38.0888 20.359L37.9761 20.4148C37.9066 20.4319 30.9958 22.1493 26.9926 27.4543C23.0077 32.7387 16.0513 36.1577 15.9819 36.1907C15.4534 36.316 15.0184 36.3638 14.6619 36.3638ZM13.6699 35.5586C13.6711 35.5586 14.1847 36.0324 15.7939 35.6588C15.8031 35.6463 22.6375 32.2855 26.5405 27.1126C30.4549 21.925 37.0467 20.072 37.7779 19.8795C38.071 19.6267 38.2312 19.35 38.2585 19.0493C38.3064 18.5026 37.9032 18.0323 37.8998 18.0277L27.3252 5.44868C27.3229 5.44868 26.8127 4.97604 25.2023 5.3496C25.1556 5.36554 18.2152 7.65699 14.2052 12.9722C10.3717 18.0528 3.683 20.9387 3.09191 21.187C2.78669 21.4451 2.62079 21.728 2.59422 22.0355C2.54866 22.5776 2.94955 23.0457 2.95297 23.0502L13.6699 35.5586Z" fill="#5C913B"/>
<path d="M24.2314 25.2446L24.2246 32.0096L24.7906 32.6816C25.8942 31.6748 26.9545 30.5427 27.8713 29.2695C28.7922 28.0004 29.8749 26.8571 31.0921 25.8687L30.542 25.2139L24.2314 25.2446Z" fill="#FFAC33"/>
<path d="M30.519 25.1902L16.2761 8.31982C15.119 9.27194 14.0074 10.3824 13.0621 11.6955C12.1385 12.9779 11.0634 14.1065 9.94727 15.1019L11.6123 17.0733L11.6112 17.0745L24.2244 32.0099C25.3798 30.9857 26.4204 29.8389 27.3278 28.5898C28.2731 27.2778 29.3835 26.1685 30.5395 25.2164L30.519 25.1902Z" fill="#FFE8B6"/>
<path d="M16.4899 25.6877C14.7166 23.5876 10.9628 26.9951 9.89228 25.7275C9.37409 25.1137 9.70778 24.3176 10.3888 23.7436C11.5334 22.7755 12.3591 23.3393 12.8773 22.9008C13.2452 22.591 13.2258 22.2118 13.0071 21.951C12.4992 21.3508 11.2009 21.664 10.1918 22.2471L9.70095 21.6663C9.55184 21.5003 9.34396 21.3988 9.12135 21.3834C8.89873 21.368 8.67886 21.4399 8.50831 21.5838C8.33776 21.7277 8.22993 21.9323 8.20765 22.1543C8.18537 22.3764 8.25039 22.5984 8.38895 22.7733L8.89689 23.3757C8.12587 24.3985 7.86392 25.756 8.77617 26.8345C10.4799 28.8504 14.2804 25.4998 15.4763 26.9165C15.8908 27.4085 15.7746 28.347 14.9023 29.0827C13.5948 30.1886 12.4104 29.6704 11.8785 30.1191C11.6188 30.3366 11.5721 30.7512 11.8489 31.0803C12.2896 31.6008 13.6939 31.4892 15.0435 30.6487L15.0458 30.6555L15.6004 31.3115C15.672 31.4016 15.761 31.4764 15.862 31.5314C15.963 31.5865 16.0741 31.6207 16.1886 31.6321C16.3031 31.6434 16.4188 31.6317 16.5286 31.5975C16.6385 31.5634 16.7404 31.5075 16.8283 31.4333C16.9162 31.359 16.9884 31.2679 17.0404 31.1652C17.0924 31.0626 17.1233 30.9506 17.1313 30.8358C17.1392 30.721 17.124 30.6058 17.0866 30.4969C17.0492 30.3881 16.9904 30.2879 16.9135 30.2022L16.3589 29.5462L16.3373 29.528C17.2472 28.4142 17.5547 26.9462 16.4899 25.6877Z" fill="#5C913B"/>
<path d="M36.9642 37.1142L36.9961 37.0903C37.0735 37.0128 37.1339 36.924 37.2022 36.8386C37.2501 36.7793 37.3036 36.7224 37.348 36.662C37.3879 36.6051 37.4209 36.547 37.4573 36.4889C39.0746 33.9982 38.0154 29.7752 34.814 26.5726C31.6126 23.3701 27.3873 22.3109 24.8977 23.9293C24.8384 23.9646 24.7804 23.9976 24.7234 24.0386C24.6631 24.083 24.605 24.1365 24.548 24.1832C24.4638 24.2527 24.3749 24.3119 24.2963 24.3905C24.2865 24.4011 24.2781 24.4118 24.2713 24.4224C24.2588 24.4349 24.2439 24.4429 24.2303 24.4566L24.2371 24.4623C23.0982 25.6718 23.0846 27.543 24.2303 28.6898C25.3783 29.8378 27.2483 29.8219 28.459 28.683L28.4715 28.6967C28.4476 28.7194 28.4214 28.7342 28.3986 28.757C27.1925 29.9631 27.1641 31.8867 28.3314 33.0563C29.4999 34.2237 31.4258 34.1952 32.6307 32.9891C32.6535 32.9663 32.6683 32.9402 32.6911 32.9162L32.7036 32.9299C31.5647 34.1394 31.5499 36.0106 32.6979 37.1586C33.8448 38.3043 35.7148 38.2906 36.9243 37.1518L36.9312 37.1586C36.9418 37.1426 36.9528 37.1278 36.9642 37.1142Z" fill="#E1E8ED"/>
<path d="M24.233 28.7355C25.2649 29.7661 26.8764 29.8504 28.0711 29.0327C28.5711 28.1785 28.7146 27.3665 28.7146 27.1125C26.201 28.9871 23.9574 27.1228 23.4552 26.0078C23.2468 26.9713 23.4996 28.0009 24.233 28.7355ZM32.5458 33.1088C32.8852 32.6316 33.1483 32.1703 33.2713 31.8583C31.6711 33.3252 28.6121 32.2512 27.685 29.9245C27.2773 31.0064 27.4857 32.2523 28.3353 33.102C29.4765 34.2431 31.3351 34.234 32.5458 33.1088ZM36.9351 37.2031L36.9681 37.1621C36.9802 37.1537 36.9909 37.1454 37 37.137C37.0786 37.0596 37.1389 36.9708 37.2061 36.8865C37.2551 36.8261 37.3075 36.7703 37.3519 36.7088C37.3929 36.653 37.4259 36.5938 37.4624 36.5357C37.5364 36.4218 37.5763 36.2874 37.6389 36.1667C34.7598 37.4548 32.6107 35.2693 32.0082 34.1793C31.6723 35.2237 31.8909 36.3933 32.7018 37.2054C33.8475 38.3522 35.7176 38.3386 36.9282 37.1985L36.9351 37.2031Z" fill="#CCD6DD"/>
<path d="M15.8941 14.2338L15.926 14.2088C16.0045 14.1313 16.0649 14.0425 16.1321 13.9582C16.1799 13.899 16.2323 13.8432 16.2767 13.7817C16.3177 13.7248 16.3508 13.6667 16.3872 13.6086C18.0044 11.1178 16.9441 6.89371 13.7427 3.69229C10.5413 0.490876 6.31715 -0.570569 3.8264 1.04665C3.76832 1.0831 3.7091 1.11613 3.65215 1.15713C3.59065 1.20154 3.53485 1.25393 3.47562 1.30176C3.39135 1.3701 3.30251 1.42932 3.22507 1.5079L3.20001 1.53979L3.15901 1.57396L3.16471 1.57965C2.02582 2.78915 2.01215 4.66035 3.15901 5.80721C4.30587 6.95407 6.17707 6.9404 7.38657 5.80151L7.3991 5.81404C7.37518 5.83568 7.34898 5.85163 7.32621 5.8744C6.12012 7.08049 6.09165 9.00407 7.26015 10.1737C8.42865 11.3433 10.3534 11.3137 11.5595 10.1077C11.5822 10.0849 11.597 10.0587 11.6198 10.0348L11.6323 10.0473C10.4935 11.2568 10.4787 13.128 11.6267 14.2748C12.7735 15.4217 14.6436 15.408 15.8531 14.268L15.8588 14.2748L15.8941 14.2338Z" fill="#E1E8ED"/>
<path d="M3.15882 5.80853C4.19065 6.84036 5.80218 6.92464 6.99687 6.10464C7.49684 5.25047 7.6392 4.43959 7.6392 4.18561C5.12682 6.05909 2.88207 4.19359 2.38096 3.07861C2.17254 4.04325 2.42537 5.07395 3.15882 5.80853ZM11.4738 10.1796C11.8121 9.70239 12.0752 9.24342 12.197 8.93136C10.5958 10.3983 7.53671 9.32314 6.61079 6.99639C6.20307 8.07834 6.41148 9.32428 7.25996 10.1739C8.4034 11.3162 10.2632 11.3059 11.4738 10.1796ZM15.8597 14.2762C15.8719 14.2633 15.8832 14.2496 15.8939 14.2352L15.9258 14.2101C16.0043 14.1327 16.0647 14.0438 16.1319 13.9596C16.1797 13.9003 16.2321 13.8445 16.2765 13.783C16.3175 13.7261 16.3506 13.668 16.387 13.6099C16.461 13.496 16.5009 13.3605 16.5635 13.2398C13.6844 14.5279 11.5353 12.3435 10.9329 11.2536C10.5969 12.2979 10.8156 13.4676 11.6265 14.2784C12.7733 15.4253 14.6434 15.4116 15.8529 14.2716L15.8597 14.2762Z" fill="#CCD6DD"/>
</g>
<defs>
<clipPath id="clip0_1899_497">
<rect width="41" height="41" fill="white"/>
</clipPath>
</defs>
</svg>
