<svg width="36" height="38" viewBox="0 0 36 38" fill="none" xmlns="http://www.w3.org/2000/svg">
<path d="M24.25 31.5C24.25 33.1576 23.5915 34.7473 22.4194 35.9194C21.2473 37.0915 19.6576 37.75 18 37.75C16.3424 37.75 14.7527 37.0915 13.5806 35.9194C12.4085 34.7473 11.75 33.1576 11.75 31.5C11.75 29.8424 12.4085 28.2527 13.5806 27.0806C14.7527 25.9085 16.3424 25.25 18 25.25C19.6576 25.25 21.2473 25.9085 22.4194 27.0806C23.5915 28.2527 24.25 29.8424 24.25 31.5Z" fill="url(#paint0_linear_339_323)"/>
<path d="M17.9999 0.25C14.2702 0.25 10.6934 1.73158 8.05616 4.36881C5.41893 7.00604 3.93735 10.5829 3.93735 14.3125V21.8156L0.924853 29.3594C0.8305 29.5963 0.795566 29.8527 0.8231 30.1062C0.850634 30.3597 0.939799 30.6027 1.08281 30.8138C1.22583 31.0249 1.41834 31.1978 1.64356 31.3174C1.86878 31.4371 2.11984 31.4997 2.37485 31.5H33.6249C33.8799 31.4997 34.1309 31.4371 34.3561 31.3174C34.5814 31.1978 34.7739 31.0249 34.9169 30.8138C35.0599 30.6027 35.1491 30.3597 35.1766 30.1062C35.2041 29.8527 35.1692 29.5963 35.0748 29.3594L32.0623 21.8125V14.3125C32.0623 10.5829 30.5808 7.00604 27.9435 4.36881C25.3063 1.73158 21.7295 0.25 17.9999 0.25Z" fill="url(#paint1_linear_339_323)"/>
<defs>
<linearGradient id="paint0_linear_339_323" x1="18.0406" y1="29.9375" x2="18.0406" y2="37.75" gradientUnits="userSpaceOnUse">
<stop offset="0.152" stop-color="#EB4824"/>
<stop offset="1" stop-color="#FFCD0F" stop-opacity="0.988"/>
</linearGradient>
<linearGradient id="paint1_linear_339_323" x1="35.2374" y1="31.4875" x2="5.12172" y2="4.39063" gradientUnits="userSpaceOnUse">
<stop stop-color="#FF6F47"/>
<stop offset="1" stop-color="#FFCD0F"/>
</linearGradient>
</defs>
</svg>
