<svg width="16" height="16" viewBox="0 0 16 16" fill="none" xmlns="http://www.w3.org/2000/svg">
<path d="M7.9502 14.85C4.4627 14.85 0.700195 12.6625 0.700195 7.8625C0.700195 3.0625 4.4627 0.875 7.9502 0.875C9.8877 0.875 11.6752 1.5125 13.0002 2.675C14.4377 3.95 15.2002 5.75 15.2002 7.8625C15.2002 9.975 14.4377 11.7625 13.0002 13.0375C11.6752 14.2 9.8752 14.85 7.9502 14.85Z" fill="url(#paint0_radial_635_214)"/>
<path d="M13.9365 3.70898C14.6027 4.78398 14.9502 6.06398 14.9502 7.48773C14.9502 9.60023 14.1877 11.3877 12.7502 12.6627C11.4252 13.8252 9.62523 14.4752 7.70023 14.4752C5.44273 14.4752 3.07523 13.5565 1.67773 11.6077C3.02273 13.8152 5.55273 14.8502 7.95023 14.8502C9.87523 14.8502 11.6752 14.2002 13.0002 13.0377C14.4377 11.7627 15.2002 9.97523 15.2002 7.86273C15.2002 6.27023 14.7665 4.85523 13.9365 3.70898Z" fill="#EB8F00"/>
<path d="M4.29601 12.0927C5.09601 10.7039 6.78101 10.1327 7.99976 10.1327C9.21851 10.1327 10.9035 10.7039 11.7035 12.0927C11.816 12.2902 12.1373 12.2039 12.101 11.9789C11.7935 10.1039 9.72601 9.04768 7.99976 8.97893C6.17476 8.91268 4.25851 10.2089 3.89851 11.9789C3.85476 12.2002 4.18351 12.2902 4.29601 12.0927ZM5.49976 5.11768C4.97601 5.11768 4.49976 5.56018 4.49976 6.29518C4.49976 7.03018 4.97601 7.47143 5.49976 7.47143C6.02476 7.47143 6.49976 7.02893 6.49976 6.29518C6.49976 5.56143 6.02976 5.11768 5.49976 5.11768Z" fill="#422B0D"/>
<path d="M5.45667 5.60857C5.37108 5.56785 5.27287 5.56261 5.18343 5.59398C5.09399 5.62536 5.02057 5.69081 4.97917 5.77607C4.91292 5.91482 4.94292 6.08107 5.05417 6.18857C5.23167 6.27357 5.44542 6.19857 5.53167 6.02107C5.59792 5.88232 5.56792 5.71607 5.45667 5.60857Z" fill="#896024"/>
<path d="M10.2998 5.11768C9.77605 5.11768 9.2998 5.56018 9.2998 6.29518C9.2998 7.03018 9.77605 7.47143 10.2998 7.47143C10.8236 7.47143 11.2998 7.02893 11.2998 6.29518C11.2998 5.56143 10.8236 5.11768 10.2998 5.11768Z" fill="#422B0D"/>
<path d="M10.2496 5.60857C10.1641 5.56785 10.0658 5.56261 9.9764 5.59398C9.88696 5.62536 9.81354 5.69081 9.77214 5.77607C9.70589 5.91482 9.73589 6.08107 9.84714 6.18857C10.0246 6.27357 10.2384 6.19857 10.3246 6.02107C10.3909 5.88232 10.3609 5.71607 10.2496 5.60857Z" fill="#896024"/>
<defs>
<radialGradient id="paint0_radial_635_214" cx="0" cy="0" r="1" gradientUnits="userSpaceOnUse" gradientTransform="translate(7.9502 7.8625) scale(7.12)">
<stop offset="0.5" stop-color="#FDE030"/>
<stop offset="0.92" stop-color="#F7C02B"/>
<stop offset="1" stop-color="#F4A223"/>
</radialGradient>
</defs>
</svg>
