<svg width="32" height="32" viewBox="0 0 32 32" fill="none" xmlns="http://www.w3.org/2000/svg">
<circle cx="16" cy="16" r="16" fill="white"/>
<circle cx="16.0001" cy="16.0001" r="14.4" fill="#F9A9D4"/>
<g clip-path="url(#clip0_339_331)">
<path d="M23.5099 18.3135C22.9416 17.517 21.5902 17.5724 21.2109 17.5872L21.1609 17.5886C20.494 17.6156 19.846 17.3591 19.3789 16.8839L14.7754 12.2804C14.544 12.045 14.3645 11.7637 14.2485 11.4547C14.1325 11.1457 14.0825 10.8158 14.1018 10.4862L14.1045 10.4363C14.1261 10.0583 14.1517 9.54933 14.0977 9.15108C14.014 8.53413 13.3917 7.58913 11.7636 7.91988C10.9239 8.08998 10.6066 8.42208 10.5432 9.21048C10.5297 9.37788 10.6147 10.2432 10.2813 10.5902C10.1166 10.7616 9.18641 10.6739 9.01901 10.6847C8.22926 10.736 7.56641 11.3003 7.56641 12.4316C7.56506 13.656 8.33321 14.3553 8.77466 14.3823C9.17561 14.4066 9.68051 14.4269 10.0599 14.412L11.2195 14.354C11.2195 14.354 11.3748 14.5079 11.8419 14.9831L16.4967 19.7189C16.9651 20.1954 17.2095 20.8475 17.1703 21.513L17.1676 21.563C17.146 21.941 16.9354 23.3558 17.8521 23.8742C17.979 23.9457 18.6081 24.2576 19.5085 24.0807C20.3496 23.9147 20.6655 23.5785 20.7289 22.7901C20.7424 22.6227 20.7438 21.5927 21.0867 21.2565C21.4296 20.9204 22.2247 21.0513 22.3921 21.0405C23.1819 20.9906 23.6503 20.7719 23.8083 19.9295C23.9473 19.187 23.595 18.4323 23.5099 18.3135Z" fill="#FCEACC"/>
<path d="M10.585 8.85857C10.693 8.44412 11.2492 8.49947 11.3869 8.63312C11.5287 8.76947 11.607 8.95982 11.6326 9.15152C11.7339 9.93587 11.4706 10.3868 11.1966 10.5339C10.9185 10.6811 10.7335 10.7067 10.3218 10.7486C10.072 10.7742 9.86546 10.7337 9.95321 10.6865C10.0923 10.6122 10.3771 10.4178 10.4392 10.3044C10.5108 10.1721 10.5081 10.0533 10.5216 9.91292C10.554 9.56192 10.4946 9.20417 10.585 8.85857ZM23.8083 19.9286C23.8083 19.9259 23.8096 19.9232 23.8096 19.9205C23.8528 19.6842 23.5774 19.5155 23.3844 19.6572C23.3398 19.6896 23.2899 19.722 23.2372 19.7517C22.6851 20.0609 21.9237 19.8138 21.408 20.1797C20.4913 20.8304 21.0273 22.5894 20.4049 23.0079C20.0499 23.2469 19.3614 23.3184 18.9807 23.1254C18.3664 22.8149 18.2733 22.4247 18.2409 21.9981C18.1923 21.3596 18.1855 20.6427 18.087 20.1459C17.9533 19.4736 17.1055 18.5637 17.1055 18.5637C17.1055 18.5637 13.6279 14.7513 12.3211 13.5647C11.8189 13.1097 11.0373 13.2663 10.4406 13.3392C9.74261 13.4229 9.27956 13.3649 8.87051 13.0152C8.46146 12.6656 8.35076 11.8623 8.52086 11.352C8.69096 10.8417 9.46721 10.6959 9.46721 10.6959C9.19451 10.6838 9.10271 10.6797 9.01766 10.6851C8.22926 10.7364 7.56641 11.3007 7.56641 12.432C7.56506 13.6565 8.29811 14.2896 8.72741 14.3963C9.21071 14.5178 10.477 14.3909 10.477 14.3909C10.477 14.3909 11.1615 14.2964 11.4423 14.5772C11.5381 14.673 11.6691 14.8067 11.8419 14.9835L16.4967 19.7193C16.9651 20.1959 17.2095 20.8479 17.1703 21.5135L17.1676 21.5634C17.146 21.9414 16.9354 23.3562 17.8521 23.8746C17.979 23.9462 18.6081 24.258 19.5085 24.0812C20.3496 23.9151 20.6655 23.579 20.7289 22.7906C20.7424 22.6232 20.7438 21.5931 21.0867 21.257C21.4296 20.9208 22.2247 21.0518 22.3921 21.041C23.1819 20.9897 23.6517 20.771 23.8083 19.9286Z" fill="#DEBCA8"/>
</g>
<defs>
<clipPath id="clip0_339_331">
<rect width="17.28" height="17.28" fill="white" transform="translate(7.04004 7.35986)"/>
</clipPath>
</defs>
</svg>
