<svg width="55" height="54" viewBox="0 0 55 54" fill="none" xmlns="http://www.w3.org/2000/svg">
<path d="M54.5 27C54.5 41.6269 42.4204 53.5 27.5 53.5C12.5796 53.5 0.5 41.6269 0.5 27C0.5 12.3731 12.5796 0.5 27.5 0.5C42.4204 0.5 54.5 12.3731 54.5 27Z" fill="black" stroke="#080808"/>
<path d="M18.3691 26.625V27.6113H10.2637V26.625H18.3691ZM17.3828 28.0996V30.3652H12.4316V30.9023H17.6172V31.8398H11.2109V29.4961H16.1523V29.0078H11.2012V28.0996H17.3828ZM17.6367 23.2949V24.2715H15.1367C15.4102 24.8135 16.3477 25.3262 18.0176 25.4238L17.627 26.3809C15.9814 26.2588 14.8438 25.7412 14.3066 24.9941C13.7744 25.7363 12.6465 26.2588 11.0156 26.3809L10.625 25.4238C12.2803 25.3262 13.208 24.8135 13.4863 24.2715H11.0059V23.2949H17.6367ZM23.9746 23.8711V24.8574H22.1777C22.1973 25.7314 22.8418 26.6299 24.2578 26.9863L23.7109 27.9434C22.6855 27.6846 21.9727 27.1279 21.5723 26.4199C21.1768 27.2012 20.4639 27.8213 19.4238 28.1094L18.8379 27.123C20.2539 26.7568 20.918 25.8193 20.9375 24.8574H19.1504V23.8711H20.9375V22.9727H22.1973V23.8711H23.9746ZM25.957 23.0117V25.0039H27.1582V26.0293H25.957V28.0801H24.707V23.0117H25.957ZM26.0645 28.4609V29.4375H23.8086C24.0332 30.0918 24.9072 30.7266 26.4551 30.9316L26.0156 31.8789C24.585 31.6885 23.5791 31.1172 23.0664 30.3555C22.5586 31.1123 21.5576 31.6689 20.1465 31.8594L19.6973 30.9121C21.2598 30.7217 22.124 30.1064 22.3535 29.4375H20.0781V28.4609H26.0645ZM34.6289 23.3633V26.4883H32.2168V27.3379H35.6543V28.3438H27.5488V27.3379H30.9668V26.4883H28.5547V23.3633H34.6289ZM29.7754 24.3301V25.5117H33.4082V24.3301H29.7754ZM34.668 28.998V31.8984H33.4277V29.9746H28.4473V28.998H34.668ZM44.3164 27.7773V28.7734H36.1816V27.7773H39.6289V27.1328H37.1973V24.6914H42.0801V24.1445H37.1777V23.1777H43.3301V25.5898H38.4375V26.1758H43.4961V27.1328H40.8691V27.7773H44.3164ZM43.3789 29.2812V31.8594H42.1191V30.2578H37.0898V29.2812H43.3789Z" fill="white"/>
</svg>
