<svg width="13" height="20" viewBox="0 0 13 20" fill="none" xmlns="http://www.w3.org/2000/svg">
<path d="M5.67188 0.515625C5.67188 0.378873 5.7262 0.247721 5.8229 0.151023C5.9196 0.0543246 6.05075 0 6.1875 0H8.9375V1.03125H6.70312V4.125C6.70312 4.26175 6.6488 4.3929 6.5521 4.4896C6.4554 4.5863 6.32425 4.64062 6.1875 4.64062C6.05075 4.64062 5.9196 4.5863 5.8229 4.4896C5.7262 4.3929 5.67188 4.26175 5.67188 4.125V0.515625Z" fill="#CA0B4A"/>
<path d="M9.28125 0.515625C9.28125 0.80025 9.12725 1.03125 8.9375 1.03125C8.74775 1.03125 8.59375 0.80025 8.59375 0.515625C8.59375 0.231 8.74775 0 8.9375 0C9.12725 0 9.28125 0.231 9.28125 0.515625Z" fill="#990838"/>
<path d="M2.74987 4.8125L3.09362 4.125L3.09843 4.11606C3.26549 3.78606 3.44355 3.4375 4.12487 3.4375H8.24987C8.93737 3.4375 9.11818 3.78744 9.28112 4.125L9.62487 4.8125V5.5H2.74987V4.8125ZM1.71862 18.5625L1.08887 11L1.22499 10.9031L6.17499 8.52019L11.1264 10.9031L11.2866 11L10.6561 18.5625C10.6286 18.9447 10.3124 19.25 9.96862 19.25H2.40612C2.06237 19.25 1.7633 18.9406 1.71862 18.5625Z" fill="#CDC4D6"/>
<path d="M11.2867 11H1.08831L0.6875 6.1875L6.1875 5.84375L11.6875 6.1875L11.2867 11Z" fill="#E5336D"/>
<path d="M0 5.5C0 5.31766 0.072433 5.1428 0.201364 5.01386C0.330295 4.88493 0.505164 4.8125 0.6875 4.8125H11.6875C11.8698 4.8125 12.0447 4.88493 12.1736 5.01386C12.3026 5.1428 12.375 5.31766 12.375 5.5C12.375 5.68234 12.3026 5.8572 12.1736 5.98614C12.0447 6.11507 11.8698 6.1875 11.6875 6.1875H0.6875C0.505164 6.1875 0.330295 6.11507 0.201364 5.98614C0.072433 5.8572 0 5.68234 0 5.5Z" fill="#F3EEF8"/>
</svg>
