<svg width="13" height="19" viewBox="0 0 13 19" fill="none" xmlns="http://www.w3.org/2000/svg">
<path d="M5.67188 0.506515C5.67188 0.372179 5.7262 0.243345 5.8229 0.148355C5.9196 0.0533648 6.05075 0 6.1875 0H8.9375V1.01303H6.70312V4.05212C6.70312 4.18646 6.6488 4.31529 6.5521 4.41028C6.4554 4.50527 6.32425 4.55864 6.1875 4.55864C6.05075 4.55864 5.9196 4.50527 5.8229 4.41028C5.7262 4.31529 5.67188 4.18646 5.67188 4.05212V0.506515Z" fill="#CA0B4A"/>
<path d="M9.28125 0.506094C9.28125 0.785457 9.12725 1.01219 8.9375 1.01219C8.74775 1.01219 8.59375 0.785457 8.59375 0.506094C8.59375 0.22673 8.74775 0 8.9375 0C9.12725 0 9.28125 0.22673 9.28125 0.506094Z" fill="#990838"/>
<path d="M2.74987 4.72766L3.09362 4.05231L3.09843 4.04353C3.26549 3.71936 3.44355 3.37695 4.12487 3.37695H8.24987C8.93737 3.37695 9.11818 3.72071 9.28112 4.05231L9.62487 4.72766V5.40301H2.74987V4.72766ZM1.71862 18.2347L1.08887 10.8058L1.22499 10.7106L6.17499 8.36984L11.1264 10.7106L11.2866 10.8058L10.6561 18.2347C10.6286 18.6102 10.3124 18.9101 9.96862 18.9101H2.40612C2.06237 18.9101 1.7633 18.6062 1.71862 18.2347Z" fill="#CDC4D6"/>
<path d="M11.2867 10.8059H1.08831L0.6875 6.0784L6.1875 5.74072L11.6875 6.0784L11.2867 10.8059Z" fill="#E5336D"/>
<path d="M0 5.40289C0 5.22378 0.072433 5.052 0.201364 4.92535C0.330295 4.79869 0.505164 4.72754 0.6875 4.72754H11.6875C11.8698 4.72754 12.0447 4.79869 12.1736 4.92535C12.3026 5.052 12.375 5.22378 12.375 5.40289C12.375 5.58201 12.3026 5.75379 12.1736 5.88044C12.0447 6.00709 11.8698 6.07825 11.6875 6.07825H0.6875C0.505164 6.07825 0.330295 6.00709 0.201364 5.88044C0.072433 5.75379 0 5.58201 0 5.40289Z" fill="#F3EEF8"/>
</svg>
