<svg width="27" height="27" viewBox="0 0 27 27" fill="none" xmlns="http://www.w3.org/2000/svg">
<path d="M14.8499 19.0689C14.8499 19.0689 17.0999 17.6064 17.5499 17.3814C17.9999 17.1564 18.5062 17.0439 18.7874 17.2689C19.2374 17.5501 23.0062 20.0251 23.3437 20.2501C23.6812 20.4751 23.7937 21.0939 23.3999 21.7126C22.9499 22.3314 20.9812 24.8064 20.1374 24.7501C19.2937 24.7501 15.4124 24.9751 8.71867 18.3376C2.02492 11.6439 2.24992 7.76261 2.24992 6.91886C2.24992 6.07511 4.66867 4.05011 5.28742 3.65636C5.90617 3.20636 6.52492 3.37511 6.74992 3.71261C6.97492 4.05011 9.44992 7.81886 9.73117 8.26886C9.89992 8.55011 9.84367 9.05636 9.61867 9.50636C9.39367 9.95636 7.93117 12.2064 7.93117 12.2064C7.93117 12.2064 8.32492 13.7814 10.7437 16.2564C13.2187 18.6751 14.8499 19.0689 14.8499 19.0689Z" fill="#2196F3"/>
<path d="M19.6875 5.0625H14.0625V7.3125H19.6875C20.3063 7.3125 20.8125 7.81875 20.8125 8.4375V14.0625H23.0625V8.4375C23.0625 6.58125 21.5437 5.0625 19.6875 5.0625Z" fill="#3F51B5"/>
<path d="M15.7502 9L11.9814 6.1875L15.7502 3.375V9Z" fill="#3F51B5"/>
</svg>
