<svg width="507" height="328" viewBox="0 0 507 328" fill="none" xmlns="http://www.w3.org/2000/svg">
<path d="M108.504 148.001C107.138 148.001 105.812 148.17 104.542 148.483C104.832 147.223 104.979 145.935 104.98 144.641C104.98 135.185 97.3162 127.52 87.8625 127.52C84.4115 127.515 81.0405 128.558 78.1955 130.512C74.9845 118.137 63.7424 109 50.3662 109C34.4879 109 21.6158 121.875 21.6158 137.758C9.67786 137.758 0 147.438 0 159.379C0 171.32 9.67761 181 21.6158 181H108.504C117.615 181 125 173.613 125 164.5C125 155.388 117.615 148.001 108.504 148.001Z" fill="#B0E9FF" fill-opacity="0.69"/>
<path d="M466.504 295.001C465.138 295.001 463.812 295.17 462.542 295.483C462.832 294.223 462.979 292.935 462.98 291.641C462.98 282.185 455.316 274.52 445.862 274.52C442.412 274.515 439.04 275.558 436.196 277.512C432.984 265.137 421.742 256 408.366 256C392.488 256 379.616 268.875 379.616 284.758C367.678 284.758 358 294.438 358 306.379C358 318.32 367.678 328 379.616 328H466.504C475.615 328 483 320.613 483 311.5C483 302.388 475.615 295.001 466.504 295.001Z" fill="#B0E9FF" fill-opacity="0.69"/>
<path d="M482.059 59.0431C479.993 59.0431 477.987 59.2992 476.067 59.7734C476.506 57.8659 476.728 55.9147 476.73 53.9572C476.73 39.6418 465.142 28.0368 450.848 28.0368C445.63 28.0295 440.533 29.6093 436.232 32.5673C431.377 13.8329 414.378 0 394.154 0C370.146 0 350.683 19.4918 350.683 43.5358C332.633 43.5358 318 58.1903 318 76.2679C318 94.3451 332.633 109 350.683 109H482.059C495.833 109 507 97.8167 507 84.0213C507 70.226 495.833 59.0431 482.059 59.0431Z" fill="#B0E9FF" fill-opacity="0.69"/>
</svg>
