<svg width="23" height="20" viewBox="0 0 23 20" fill="none" xmlns="http://www.w3.org/2000/svg">
<mask id="mask0_1604_243" style="mask-type:luminance" maskUnits="userSpaceOnUse" x="0" y="0" width="23" height="20">
<path d="M5.61569 18.854L16.3521 18.7081L19.7163 8.24019L14.7323 10.7894L11.6068 3.8838L7.90001 10.8823L3.12366 8.46576L5.61569 18.854Z" fill="#555555" stroke="white" stroke-width="2" stroke-linecap="round" stroke-linejoin="round"/>
<path d="M2.86602 8.45412C3.67293 8.44316 4.35487 7.76864 4.3892 6.94754C4.42352 6.12643 3.79722 5.46968 2.99032 5.48064C2.18342 5.4916 1.50147 6.16612 1.46715 6.98723C1.43282 7.80833 2.05912 8.46508 2.86602 8.45412Z" fill="#555555" stroke="white" stroke-width="2"/>
<path d="M11.4559 4.08888C12.2628 4.07792 12.9447 3.4034 12.979 2.5823C13.0134 1.7612 12.3871 1.10445 11.5802 1.11541C10.7733 1.12637 10.0913 1.80089 10.057 2.62199C10.0227 3.44309 10.649 4.09984 11.4559 4.08888Z" fill="#555555" stroke="white" stroke-width="2"/>
<path d="M19.8231 8.45412C20.63 8.44316 21.3119 7.76864 21.3462 6.94754C21.3806 6.12643 20.7543 5.46968 19.9474 5.48064C19.1405 5.4916 18.4585 6.16612 18.4242 6.98723C18.3899 7.80833 19.0162 8.46508 19.8231 8.45412Z" fill="#555555" stroke="white" stroke-width="2"/>
</mask>
<g mask="url(#mask0_1604_243)">
<path d="M-0.0996094 -1.81079L23.5561 -1.97778L22.7634 21.5651L-0.89226 21.7321L-0.0996094 -1.81079Z" fill="#FFCD29"/>
</g>
</svg>
