<svg width="19" height="19" viewBox="0 0 19 19" fill="none" xmlns="http://www.w3.org/2000/svg">
<g clip-path="url(#clip0_471_197)">
<path d="M18.9422 12.384C18.6528 10.712 17.4877 8.41259 17.0407 7.57288C17.9138 6.47441 17.1645 5.37448 16.4587 5.37448C16.2521 5.37448 16.0545 5.41226 15.872 5.48087C15.722 4.71326 15.046 4.13395 14.2345 4.13395C14.0325 4.13395 13.8389 4.16987 13.6597 4.23563C13.5521 3.41785 12.8529 2.78647 12.0058 2.78647C11.6286 2.78647 11.2808 2.91168 11.0013 3.12268C10.7307 2.56648 10.1602 2.18311 9.50004 2.18311C8.8399 2.18311 8.26942 2.56648 7.99874 3.12268C7.71927 2.91168 7.37144 2.78647 6.9943 2.78647C6.14716 2.78647 5.44798 3.41785 5.34037 4.23563C5.16117 4.16987 4.96757 4.13395 4.76558 4.13395C3.95407 4.13395 3.27816 4.71326 3.12812 5.48087C2.94555 5.4123 2.7479 5.37448 2.54142 5.37448C1.83556 5.37448 1.08632 6.47437 1.95925 7.57281C1.51089 8.41497 0.340054 10.7257 0.0550905 12.399C0.0198736 12.5388 0.00135599 12.6807 0.00135599 12.8245C-0.00127878 12.8593 2.00461e-05 12.8932 0.00443607 12.9264C0.133057 15.0844 4.33544 16.817 9.50071 16.817C14.6806 16.817 18.8917 15.0744 18.9975 12.9079C18.9993 12.8886 18.9998 12.869 18.9992 12.8492C18.9994 12.8409 19 12.8327 19 12.8244C19 12.6756 18.98 12.5287 18.9422 12.384Z" fill="#FE9901"/>
<path d="M18.9422 12.3839C18.6528 10.7118 17.4877 8.4125 17.0407 7.57279C16.7739 7.90859 16.3554 8.24425 15.7377 8.54832C15.7374 8.54847 15.737 8.54866 15.7367 8.54881C15.6157 8.6126 15.4861 8.67435 15.3483 8.73395C15.3463 8.7348 15.3442 8.73569 15.3422 8.73658C15.2048 8.79588 15.0594 8.85307 14.9064 8.90788C14.9038 8.90881 14.9012 8.90973 14.8986 8.91066C14.8493 8.92829 14.7993 8.94566 14.7486 8.96276C14.7469 8.96328 14.7453 8.96388 14.7437 8.9644C14.6379 8.99998 14.5289 9.03453 14.4167 9.06789C14.415 9.06841 14.4133 9.06893 14.4115 9.06942C14.359 9.08504 14.3058 9.10033 14.2519 9.11547C14.2463 9.11706 14.2406 9.11862 14.2349 9.12022C14.0662 9.16727 13.891 9.21184 13.7098 9.25381C13.7012 9.25582 13.6926 9.25778 13.684 9.25975C13.6302 9.27207 13.576 9.2842 13.5211 9.29608C13.5147 9.29749 13.5083 9.2989 13.5019 9.30031C13.3791 9.32673 13.2538 9.35193 13.1262 9.37598C13.1162 9.37787 13.1061 9.37969 13.0961 9.38154C13.0428 9.39145 12.989 9.40117 12.9349 9.41067C12.9225 9.41286 12.9103 9.41502 12.8979 9.41713C12.8358 9.42786 12.7732 9.43839 12.71 9.44856C12.7089 9.44871 12.7079 9.4489 12.7069 9.44908C12.6404 9.45977 12.5733 9.47009 12.5057 9.48014C12.4958 9.48163 12.4859 9.483 12.476 9.48445C12.4207 9.49257 12.365 9.50048 12.3089 9.50816C12.2925 9.51042 12.276 9.51261 12.2595 9.51484C12.2052 9.52211 12.1507 9.52916 12.0958 9.53607C12.083 9.53766 12.0703 9.53929 12.0575 9.54089C11.9891 9.54928 11.9202 9.55744 11.8508 9.5652C11.8467 9.56564 11.8424 9.56609 11.8382 9.56653C11.7751 9.57355 11.7116 9.58023 11.6477 9.58668C11.6292 9.58858 11.6106 9.59036 11.5921 9.59218C11.5401 9.5973 11.4879 9.6022 11.4354 9.60691C11.4164 9.60862 11.3976 9.61036 11.3785 9.61203C11.313 9.61778 11.2472 9.6232 11.1809 9.62836C11.1771 9.62866 11.1734 9.62899 11.1696 9.62925C11.099 9.63467 11.028 9.63968 10.9568 9.64446C10.9381 9.64569 10.9192 9.64684 10.9004 9.64803C10.8475 9.65144 10.7944 9.65463 10.7411 9.6576C10.7188 9.65886 10.6965 9.66009 10.6741 9.66127C10.6187 9.66421 10.5631 9.66691 10.5073 9.66947C10.4904 9.67025 10.4735 9.67111 10.4565 9.67185C10.3844 9.67497 10.3121 9.67771 10.2393 9.68013C10.2244 9.68061 10.2094 9.68098 10.1945 9.68142C10.1363 9.68324 10.0779 9.68484 10.0194 9.68617C9.9959 9.68669 9.97241 9.68721 9.94884 9.68766C9.89563 9.68874 9.8423 9.68959 9.78879 9.69029C9.76682 9.69059 9.74496 9.69092 9.72296 9.69111C9.64885 9.69185 9.57455 9.69234 9.49989 9.69234C9.42526 9.69234 9.35093 9.69185 9.27683 9.69111C9.25482 9.69089 9.23296 9.69059 9.21103 9.69029C9.15748 9.68959 9.10412 9.68874 9.0509 9.68766C9.02738 9.68721 9.00392 9.68673 8.98051 9.68617C8.92184 9.68484 8.86339 9.68324 8.80509 9.68142C8.79032 9.68098 8.7754 9.68061 8.7606 9.68013C8.68782 9.67771 8.61535 9.67493 8.54317 9.67185C8.52629 9.67111 8.50955 9.67025 8.49267 9.66951C8.43689 9.66699 8.38126 9.66428 8.32586 9.66131C8.30341 9.66012 8.28103 9.6589 8.25869 9.65764C8.2054 9.65463 8.1523 9.6514 8.09938 9.64806C8.08068 9.64688 8.06186 9.64573 8.0432 9.6445C7.97187 9.63975 7.90088 9.63474 7.83037 9.62929C7.82648 9.62899 7.82262 9.62862 7.81876 9.62836C7.75259 9.62324 7.68683 9.61774 7.62137 9.61207C7.60245 9.61043 7.5836 9.60865 7.56471 9.60698C7.51212 9.60223 7.45976 9.59733 7.40766 9.59221C7.38914 9.59039 7.37062 9.58861 7.35218 9.58672C7.28858 9.5803 7.22527 9.57366 7.1624 9.56664C7.15795 9.56616 7.15339 9.56572 7.14893 9.5652C7.07958 9.55744 7.01077 9.54935 6.94234 9.54089C6.92962 9.53933 6.917 9.5377 6.90431 9.5361C6.84931 9.52924 6.79457 9.52215 6.74021 9.51484C6.72381 9.51261 6.70748 9.51042 6.69115 9.5082C6.63508 9.50048 6.57938 9.49265 6.52401 9.48448C6.5141 9.483 6.50412 9.48163 6.49417 9.48014C6.42663 9.47012 6.35954 9.45977 6.29308 9.44908C6.29193 9.44893 6.29081 9.44871 6.28966 9.44853C6.2265 9.43836 6.16397 9.42786 6.10189 9.41709C6.08961 9.41498 6.0774 9.41279 6.06515 9.41067C6.01101 9.40117 5.9572 9.39145 5.90387 9.38154C5.89378 9.37965 5.88365 9.37783 5.87359 9.37594C5.7459 9.35193 5.62065 9.32669 5.4979 9.30027C5.49159 9.29894 5.48532 9.29753 5.47904 9.29619C5.42416 9.28432 5.36979 9.27214 5.31595 9.25982C5.3073 9.25782 5.29862 9.25585 5.29001 9.25385C5.10884 9.21192 4.93365 9.16731 4.76487 9.12026C4.75927 9.1187 4.7537 9.1171 4.74806 9.11554C4.69418 9.10044 4.64096 9.08511 4.58849 9.06949C4.58675 9.06897 4.58493 9.06841 4.58311 9.06793C4.47093 9.03453 4.3619 9.00002 4.25607 8.96443C4.25451 8.96391 4.25299 8.96336 4.25146 8.96287C4.20059 8.94569 4.15049 8.92829 4.10113 8.9107C4.09861 8.90981 4.09605 8.90888 4.09356 8.90799C3.94056 8.85314 3.79513 8.79596 3.65764 8.73662C3.65563 8.73576 3.65367 8.73491 3.65166 8.73402C3.51388 8.67438 3.38418 8.6126 3.26309 8.54881C3.26279 8.54866 3.26246 8.54847 3.26216 8.54832C2.64444 8.24425 2.22599 7.90859 1.9591 7.57275C1.51089 8.41484 0.340054 10.7256 0.0550905 12.3989C0.0198736 12.5387 0.00135599 12.6806 0.00135599 12.8244C-0.00127878 12.8592 2.00461e-05 12.8931 0.00443607 12.9263C0.133057 15.0843 4.33544 16.8169 9.50071 16.8169C14.6806 16.8169 18.8917 15.0743 18.9975 12.9078C18.9993 12.8885 18.9998 12.8689 18.9992 12.8491C18.9994 12.8408 19 12.8326 19 12.8243C19 12.6755 18.98 12.5286 18.9422 12.3839Z" fill="#37CC8F"/>
<path d="M18.9426 12.3838C18.6533 10.7118 17.4882 8.41247 17.0412 7.57275C16.8862 7.76776 16.6797 7.96266 16.4131 8.15144C16.9492 9.21481 17.7774 11.0106 18.015 12.3839C18.0528 12.5286 18.0728 12.6755 18.0728 12.8244C18.0728 12.8327 18.0722 12.8409 18.0721 12.8492C18.0726 12.869 18.0721 12.8886 18.0703 12.9079C17.9677 15.0093 14.0024 16.712 9.03711 16.8122C9.19089 16.8153 9.34556 16.817 9.50116 16.817C14.6811 16.817 18.8922 15.0744 18.998 12.9079C18.9998 12.8886 19.0003 12.8689 18.9997 12.8491C18.9998 12.8408 19.0004 12.8326 19.0004 12.8244C19.0005 12.6755 18.9804 12.5285 18.9426 12.3838Z" fill="#2AA86F"/>
<path d="M2.17285 5.47133C2.18191 5.47455 2.19111 5.47752 2.20013 5.4809C2.20183 5.47207 2.20402 5.46338 2.20588 5.45459C2.19478 5.4599 2.1838 5.46557 2.17285 5.47133Z" fill="#FE9901"/>
<path d="M12.732 4.23533C12.9112 4.16957 13.1048 4.13365 13.3068 4.13365C13.4243 4.13365 13.5387 4.14616 13.6493 4.16924C13.5137 3.38382 12.8298 2.78613 12.0056 2.78613C11.8447 2.78613 11.6892 2.8091 11.542 2.85163C12.1696 3.0331 12.6449 3.57308 12.732 4.23533Z" fill="#ED8803"/>
<path d="M14.9441 5.48075C15.1267 5.41217 15.3243 5.37436 15.5308 5.37436C15.6437 5.37436 15.7577 5.40267 15.866 5.4544C15.7058 4.7 15.0365 4.13379 14.2343 4.13379C14.0733 4.13379 13.9178 4.15695 13.7705 4.19951C14.3656 4.37148 14.8239 4.86548 14.9441 5.48075Z" fill="#ED8803"/>
<path d="M16.4586 5.37402C16.2622 5.37402 16.0741 5.4085 15.8991 5.4708C16.6551 5.87014 17.092 7.42458 14.81 8.54792C13.5838 9.19448 11.4702 9.63693 9.03613 9.68714C9.18954 9.6903 9.34414 9.692 9.49996 9.692C12.128 9.692 14.4342 9.23519 15.7377 8.54788C18.3759 7.24924 17.3802 5.37402 16.4586 5.37402Z" fill="#ED8803"/>
<path d="M9.50479 13.3804C9.50294 13.3804 9.4957 13.3804 9.49385 13.3804C8.66133 13.3804 7.83249 15.1241 8.36813 15.3742C8.60203 15.4833 8.84632 15.4689 9.04727 15.418C9.19523 15.3805 9.34726 15.362 9.4993 15.3625C9.6513 15.362 9.80338 15.3805 9.95133 15.418C10.1523 15.4689 10.3966 15.4833 10.6305 15.3742C11.1661 15.1241 10.3373 13.3804 9.50479 13.3804Z" fill="white"/>
<path d="M7.76013 12.1597C7.92389 12.5235 8.44729 12.845 8.81107 12.6812C9.17485 12.5174 9.24128 11.9304 9.07751 11.5666C8.91375 11.2028 8.4861 11.0407 8.12232 11.2045C7.75853 11.3682 7.59637 11.7959 7.76013 12.1597Z" fill="white"/>
<path d="M6.76182 13.9265C7.04641 14.1154 7.63645 14.1726 7.82541 13.8879C8.01437 13.6033 7.73071 13.0847 7.44611 12.8958C7.16152 12.7068 6.77762 12.7844 6.58866 13.069C6.3997 13.3536 6.47722 13.7375 6.76182 13.9265Z" fill="white"/>
<path d="M11.2389 12.1597C11.0751 12.5235 10.5517 12.845 10.1879 12.6812C9.82415 12.5174 9.75772 11.9304 9.92148 11.5666C10.0852 11.2028 10.5129 11.0407 10.8767 11.2045C11.2405 11.3683 11.4026 11.7959 11.2389 12.1597Z" fill="white"/>
<path d="M12.237 13.9265C11.9524 14.1154 11.3624 14.1726 11.1734 13.8879C10.9845 13.6033 11.2682 13.0847 11.5527 12.8958C11.8373 12.7068 12.2212 12.7844 12.4102 13.069C12.5992 13.3536 12.5216 13.7375 12.237 13.9265Z" fill="white"/>
<path d="M8.42174 5.76494C8.25208 5.76494 8.11451 5.62737 8.11451 5.45771C8.11451 5.08372 7.81025 4.77946 7.43626 4.77946C7.06227 4.77946 6.75801 5.08372 6.75801 5.45771C6.75801 5.62737 6.62045 5.76494 6.45078 5.76494C6.28112 5.76494 6.14355 5.62737 6.14355 5.45771C6.14355 4.74491 6.72346 4.16504 7.43623 4.16504C8.14899 4.16504 8.7289 4.74495 8.7289 5.45771C8.72893 5.62741 8.5914 5.76494 8.42174 5.76494Z" fill="#FFBC64"/>
<path d="M12.5487 5.76494C12.379 5.76494 12.2415 5.62737 12.2415 5.45771C12.2415 5.08372 11.9372 4.77946 11.5633 4.77946C11.1892 4.77946 10.885 5.08372 10.885 5.45771C10.885 5.62737 10.7474 5.76494 10.5777 5.76494C10.408 5.76494 10.2705 5.62737 10.2705 5.45771C10.2705 4.74491 10.8504 4.16504 11.5633 4.16504C12.2761 4.16504 12.8559 4.74495 12.8559 5.45771C12.856 5.62741 12.7184 5.76494 12.5487 5.76494Z" fill="#FFBC64"/>
<path d="M10.4852 7.87676C10.3155 7.87676 10.178 7.73919 10.178 7.56953C10.178 7.19554 9.87373 6.89128 9.49974 6.89128C9.12575 6.89128 8.82149 7.19554 8.82149 7.56953C8.82149 7.73919 8.68392 7.87676 8.51426 7.87676C8.3446 7.87676 8.20703 7.73919 8.20703 7.56953C8.20703 6.85673 8.78694 6.27686 9.4997 6.27686C10.2125 6.27686 10.7924 6.85676 10.7924 7.56953C10.7924 7.73919 10.6549 7.87676 10.4852 7.87676Z" fill="#FFBC64"/>
<path d="M5.81041 7.87676C5.64075 7.87676 5.50318 7.73919 5.50318 7.56953C5.50318 7.19554 5.19892 6.89128 4.82493 6.89128C4.45095 6.89128 4.14668 7.19554 4.14668 7.56953C4.14668 7.73919 4.00912 7.87676 3.83946 7.87676C3.66979 7.87676 3.53223 7.73919 3.53223 7.56953C3.53223 6.85673 4.11214 6.27686 4.8249 6.27686C5.53766 6.27686 6.11757 6.85676 6.11757 7.56953C6.1176 7.73919 5.98011 7.87676 5.81041 7.87676Z" fill="#FFBC64"/>
<path d="M15.1601 7.87676C14.9904 7.87676 14.8528 7.73919 14.8528 7.56953C14.8528 7.19554 14.5486 6.89128 14.1746 6.89128C13.8006 6.89128 13.4963 7.19554 13.4963 7.56953C13.4963 7.73919 13.3588 7.87676 13.1891 7.87676C13.0194 7.87676 12.8818 7.73919 12.8818 7.56953C12.8818 6.85673 13.4617 6.27686 14.1746 6.27686C14.8874 6.27686 15.4673 6.85676 15.4673 7.56953C15.4673 7.73919 15.3298 7.87676 15.1601 7.87676Z" fill="#FFBC64"/>
</g>
<defs>
<clipPath id="clip0_471_197">
<rect width="19" height="19" fill="white"/>
</clipPath>
</defs>
</svg>
