<svg width="19" height="19" viewBox="0 0 19 19" fill="none" xmlns="http://www.w3.org/2000/svg">
<path d="M4.29625 9.37392C4.29625 9.37392 3.94148 10.3981 4.1493 11.4847C4.35859 12.5713 4.65102 13.5747 4.65102 13.5747C4.65102 13.5747 4.71336 15.7063 4.65102 15.9363C4.58867 16.1664 4.10773 16.4588 4.10773 16.8774C4.10773 17.296 4.26062 17.8245 5.03398 17.9506C5.80734 18.0768 6.43375 17.8185 6.69203 17.5053C7.06461 17.0526 6.99187 16.732 6.99187 16.398C6.99187 16.064 7.01266 14.1417 7.09578 13.8478C7.17891 13.5554 7.30508 13.3877 7.53516 13.4084C7.76523 13.4292 8.01609 13.784 8.03687 14.4534C8.05766 15.1214 8.07844 16.2926 8.05766 16.5227C8.03687 16.7527 7.82758 17.5261 7.99531 17.8393C8.16305 18.1525 8.92156 18.4568 9.50641 18.4242C10.2723 18.3826 10.7325 17.9017 10.7741 17.5261C10.8156 17.1506 10.5648 16.2926 10.5648 16.0417C10.5648 15.7909 10.8572 14.0779 10.9403 13.9725C11.0234 13.8686 11.2787 13.8909 11.8384 13.6385C12.3475 13.4084 12.6191 13.1784 12.6191 13.1784C12.6191 13.1784 12.6325 14.6627 12.6117 14.829C12.5909 14.9967 12.0892 15.5192 12.1723 15.9156C12.2555 16.3119 12.7453 16.5434 13.1817 16.5835C13.9195 16.6533 14.6379 16.0818 14.8249 15.5801C15.0134 15.0784 14.9288 14.452 14.8873 14.118C14.8457 13.784 14.8457 12.6128 14.8873 12.2996C14.9288 11.9864 14.9971 11.7964 15.0238 11.6317C15.0654 11.36 15.055 11.0572 15.055 11.0572C15.055 11.0572 15.7764 11.0572 16.2039 10.7752C16.6314 10.4931 17.0812 10.0018 17.2801 9.39618C17.4745 8.80392 17.427 8.62282 17.2593 8.60204C17.0916 8.58126 16.3405 9.63517 15.7022 9.66782C14.6884 9.71978 14.7893 8.63321 14.0159 7.97564C13.1446 7.23345 11.7864 7.13993 11.7864 7.13993C11.7864 7.13993 12.0209 6.26267 12.0239 5.614C12.0343 2.78181 10.6553 1.82142 10.6553 1.82142C10.6553 1.82142 8.99727 0.586418 7.11656 0.669543C5.23586 0.752668 3.85687 2.24743 3.85687 2.24743L2.82227 6.81337C2.82227 6.81337 3.08352 7.69064 3.50211 8.32892C3.94148 8.99689 4.29625 9.37392 4.29625 9.37392Z" fill="#FFD2B1"/>
<path d="M2.98933 1.23478C1.453 1.26596 0.64105 2.57518 0.6173 3.37674C0.603941 3.84728 0.418394 7.26728 2.30949 7.33705C3.068 7.36525 3.63207 6.48502 3.91855 5.48752C4.27925 4.23025 4.26293 2.97002 4.30449 2.63455C4.37128 2.09869 4.48261 1.70533 4.48261 1.70533C4.48261 1.70533 4.29558 1.20807 2.98933 1.23478ZM11.2128 0.712285C12.8842 0.774628 13.4542 1.51533 13.616 1.9458C13.7941 2.41635 13.95 4.09518 13.6887 5.21588C13.4764 6.13025 13.1558 6.59486 12.4032 6.56369C11.7145 6.53549 11.3657 5.54244 10.8461 4.19166C10.3444 2.88541 9.95996 1.71572 9.89464 1.54799C9.81152 1.3283 9.63339 1.23478 9.63339 1.23478C9.63339 1.23478 9.96738 0.664785 11.2128 0.712285Z" fill="#865B52"/>
<path d="M9.30073 4.10742C8.47542 4.15937 8.08058 5.07672 8.25573 5.99851C8.44425 6.99156 9.09589 7.46211 9.91675 7.35672C10.8148 7.24242 11.0864 6.2182 10.9721 5.44484C10.8667 4.74125 10.4689 4.0332 9.30073 4.10742Z" fill="#D27856"/>
<path d="M10.2723 5.78925C10.2723 6.22269 10.0318 6.58487 9.65031 6.57448C9.13227 6.55964 8.99719 6.10097 9.00758 5.71503C9.01945 5.26378 9.28961 5.05003 9.67555 5.06042C10.0199 5.06784 10.2723 5.35581 10.2723 5.78925ZM5.91562 6.02823C5.91562 6.47948 5.67516 6.85651 5.29367 6.84464C4.77562 6.82979 4.64055 6.35183 4.65094 5.94956C4.66281 5.47901 4.98492 5.27862 5.28773 5.30089C5.63062 5.32612 5.91562 5.57698 5.91562 6.02823ZM7.90023 8.5487C7.90023 8.5487 8.80867 8.45519 8.76711 7.79612C8.72555 7.13854 8.10953 7.0955 7.62859 7.10589C7.14766 7.11628 6.45891 7.36714 6.53164 7.92081C6.60437 8.47448 7.38812 8.54722 7.38812 8.54722C7.38812 8.54722 7.38664 8.9569 7.11648 8.98659C6.82406 9.01776 6.40547 8.568 6.29117 8.4537C6.17687 8.3394 5.99875 8.38097 5.93641 8.47448C5.87406 8.568 5.91562 8.77729 6.09375 8.95542C6.27187 9.13354 6.68898 9.58183 7.10758 9.54026C7.52617 9.4987 7.53656 9.27901 7.70281 9.26862C7.87055 9.25823 7.86016 9.50909 8.27726 9.4987C8.57117 9.49128 9.16344 8.97472 9.27031 8.88269C9.51078 8.67339 9.57312 8.46409 9.46922 8.32901C9.36531 8.19394 9.07289 8.39136 8.91555 8.50714C8.7582 8.62144 8.50437 8.89159 8.25797 8.93612C7.84828 9.00886 7.90023 8.5487 7.90023 8.5487Z" fill="#060401"/>
<path d="M11.6088 7.5689C11.6088 7.5689 11.4114 8.00234 11.2466 8.34968C11.0477 8.76828 10.7627 9.13343 10.7627 9.13343C10.7627 9.13343 11.0849 11.3362 13.0012 11.1462C13.687 11.078 14.2065 10.5406 14.2555 9.97062C14.3386 9.00874 13.9734 8.55898 13.4064 8.1196C12.4876 7.41007 11.6088 7.5689 11.6088 7.5689ZM10.2818 11.0141C9.94188 11.3259 10.1245 11.9122 10.5742 11.976C11.024 12.0384 11.2659 11.6643 11.2318 11.3808C11.1813 10.9414 10.6692 10.6594 10.2818 11.0141ZM5.84204 10.4352C5.84204 10.4352 5.5422 11.2576 6.17602 12.2877C6.44618 12.7256 7.04735 12.972 7.47188 12.9557C7.92017 12.9394 8.3254 12.7835 8.67274 12.3501C9.22642 11.6598 9.06907 10.5109 9.06907 10.5109C9.06907 10.5109 8.19181 10.8716 7.38727 10.8449C6.53079 10.8182 5.84204 10.4352 5.84204 10.4352ZM4.74806 16.729C4.52985 16.6622 4.44227 17.0006 4.42743 17.2159C4.41259 17.4311 4.41407 17.7101 4.60852 17.7799C4.80298 17.8497 4.76438 17.4355 4.7822 17.299C4.81782 17.0362 4.97813 16.7987 4.74806 16.729ZM5.60454 16.8552C5.47392 16.8492 5.33587 16.9813 5.31954 17.3643C5.30618 17.6849 5.31954 17.9491 5.50063 17.964C5.74407 17.9833 5.67579 17.6716 5.68915 17.4133C5.69509 17.2663 5.87618 16.8685 5.60454 16.8552ZM8.92806 17.2723C8.71876 17.2723 8.71282 17.5098 8.71282 17.7666C8.71282 18.0248 8.65938 18.344 8.89392 18.3722C9.17892 18.4063 9.12399 18.0234 9.12399 17.8081C9.12251 17.6211 9.15665 17.2723 8.92806 17.2723ZM9.87509 17.2248C9.70735 17.2589 9.7222 17.489 9.72813 17.768C9.73556 18.0471 9.69399 18.3425 9.93001 18.3187C10.1319 18.298 10.1185 17.9699 10.1111 17.7191C10.1052 17.5023 10.1334 17.1698 9.87509 17.2248ZM12.7444 15.4094C12.6004 15.3812 12.4371 15.5029 12.3956 15.828C12.3614 16.107 12.3748 16.3519 12.6182 16.4054C12.7429 16.4336 12.7652 16.113 12.7711 15.8829C12.7785 15.684 12.9255 15.445 12.7444 15.4094ZM13.5311 15.5786C13.3931 15.5563 13.258 15.6409 13.2224 15.9868C13.2016 16.1887 13.1274 16.5509 13.3782 16.5642C13.5727 16.5731 13.5578 16.254 13.5756 16.0877C13.6038 15.825 13.7582 15.6172 13.5311 15.5786Z" fill="#D27856"/>
</svg>
