<svg width="32" height="30" viewBox="0 0 32 30" fill="none" xmlns="http://www.w3.org/2000/svg">
<g clip-path="url(#clip0_1472_658)">
<path d="M31.1543 26.6671C31.1543 27.5511 30.7896 28.399 30.1404 29.0241C29.4912 29.6492 28.6108 30.0004 27.6927 30.0004H3.46159C2.54352 30.0004 1.66305 29.6492 1.01388 29.0241C0.364702 28.399 0 27.5511 0 26.6671V3.33338C0 2.44931 0.364702 1.60146 1.01388 0.976325C1.66305 0.351195 2.54352 0 3.46159 0L27.6927 0C28.6108 0 29.4912 0.351195 30.1404 0.976325C30.7896 1.60146 31.1543 2.44931 31.1543 3.33338V26.6671Z" fill="#FF4B98"/>
<path d="M25.3387 5.3016C24.8574 5.00081 24.2717 4.89645 23.7105 5.01147C23.1493 5.1265 22.6585 5.45148 22.3462 5.91495L12.9254 19.8977L8.57336 16.0226C8.36558 15.8326 8.12067 15.6842 7.85284 15.586C7.58501 15.4879 7.29961 15.442 7.0132 15.4509C6.72678 15.4599 6.44507 15.5235 6.18442 15.6382C5.92377 15.7529 5.68937 15.9162 5.49483 16.1189C5.3003 16.3215 5.1495 16.5593 5.0512 16.8185C4.9529 17.0777 4.90905 17.3531 4.9222 17.6288C4.93535 17.9045 5.00524 18.1749 5.12781 18.4243C5.25038 18.6737 5.42319 18.8972 5.6362 19.0818L11.8749 24.6369C12.2902 25.0077 12.8181 25.1911 13.3426 25.1911C13.925 25.1911 14.6701 24.9561 15.159 24.2419C15.4463 23.8202 25.9765 8.18331 25.9765 8.18331C26.1311 7.95377 26.2373 7.69715 26.2889 7.4281C26.3405 7.15905 26.3366 6.88285 26.2774 6.61525C26.2182 6.34766 26.1048 6.09392 25.9437 5.86852C25.7827 5.64312 25.5771 5.45049 25.3387 5.3016Z" fill="white"/>
</g>
<defs>
<clipPath id="clip0_1472_658">
<rect width="31.1543" height="30.0004" fill="white"/>
</clipPath>
</defs>
</svg>
