<svg width="31" height="31" viewBox="0 0 31 31" fill="none" xmlns="http://www.w3.org/2000/svg">
<g clip-path="url(#clip0_471_201)">
<path d="M26.1898 27.2587C25.8942 27.2587 25.6553 27.0198 25.6553 26.7242V9.08624C25.6553 8.79067 25.8942 8.55176 26.1898 8.55176C26.4853 8.55176 26.7242 8.79067 26.7242 9.08624V26.7242C26.7242 27.0198 26.4853 27.2587 26.1898 27.2587Z" fill="#CAD3DB"/>
<path d="M21.3793 18.707H21.1131C20.6374 18.707 20.2189 18.3927 20.0864 17.9363L18.1985 11.4364C17.8581 10.6582 17.089 10.1553 16.2396 10.1553H6.20854C5.35926 10.1553 4.59012 10.6582 4.24964 11.4364L2.36188 17.9363C2.22934 18.3927 1.81083 18.707 1.33517 18.707H1.06897C0.478376 18.707 0 19.1854 0 19.776V25.6553C0 26.2459 0.478376 26.7243 1.06897 26.7243H21.3793C21.9699 26.7243 22.4482 26.2459 22.4482 25.6553V19.776C22.4482 19.1854 21.9699 18.707 21.3793 18.707Z" fill="#25B99A"/>
<path d="M3.74146 31H2.67249C2.08189 31 1.60352 30.5216 1.60352 29.931V26.7241H4.81042V29.931C4.81036 30.5216 4.33205 31 3.74146 31Z" fill="#485762"/>
<path d="M19.7756 31H18.7067C18.1161 31 17.6377 30.5216 17.6377 29.931V26.7241H20.8446V29.931C20.8446 30.5216 20.3663 31 19.7756 31Z" fill="#485762"/>
<path d="M5.87878 22.4482C5.87878 23.3338 5.16094 24.0516 4.27533 24.0516C3.38972 24.0516 2.67188 23.3338 2.67188 22.4482C2.67188 21.5626 3.38972 20.8447 4.27533 20.8447C5.16094 20.8447 5.87878 21.5625 5.87878 22.4482Z" fill="#FFD06C"/>
<path d="M19.7753 22.4482C19.7753 23.3338 19.0574 24.0516 18.1718 24.0516C17.2862 24.0516 16.5684 23.3338 16.5684 22.4482C16.5684 21.5626 17.2862 20.8447 18.1718 20.8447C19.0575 20.8447 19.7753 21.5625 19.7753 22.4482Z" fill="#FFD06C"/>
<path d="M12.2935 24.0514H10.1556C9.86 24.0514 9.62109 23.8125 9.62109 23.5169C9.62109 23.2213 9.86 22.9824 10.1556 22.9824H12.2935C12.5891 22.9824 12.828 23.2213 12.828 23.5169C12.828 23.8125 12.5891 24.0514 12.2935 24.0514Z" fill="#485762"/>
<path d="M13.3621 21.9137H9.08624C8.79067 21.9137 8.55176 21.6748 8.55176 21.3792C8.55176 21.0836 8.79067 20.8447 9.08624 20.8447H13.3621C13.6577 20.8447 13.8966 21.0836 13.8966 21.3792C13.8966 21.6748 13.6577 21.9137 13.3621 21.9137Z" fill="#485762"/>
<path d="M16.385 17.6378H6.06315C5.70506 17.6378 5.44847 17.2925 5.55114 16.9499L6.8339 12.674C6.90177 12.4479 7.1097 12.293 7.3459 12.293H15.1023C15.3386 12.293 15.5465 12.448 15.6143 12.674L16.8971 16.9499C16.9997 17.2925 16.7432 17.6378 16.385 17.6378Z" fill="#D0E8F9"/>
<path d="M22.9824 31.0002H29.3962V28.8623H22.9824V31.0002Z" fill="#485762"/>
<path d="M24.5859 28.8621H27.7928V26.7241H24.5859V28.8621Z" fill="#95ACB9"/>
<path d="M21.9131 9.08618H30.9993V0H21.9131V9.08618Z" fill="#2080E0"/>
<path d="M25.6556 7.48285C25.36 7.48285 25.1211 7.24394 25.1211 6.94836V2.138C25.1211 1.84243 25.36 1.60352 25.6556 1.60352C25.9512 1.60352 26.1901 1.84243 26.1901 2.138V6.94836C26.1901 7.24388 25.9512 7.48285 25.6556 7.48285Z" fill="white"/>
<path d="M26.1901 4.81043H26.7245C27.3141 4.81043 27.7935 4.331 27.7935 3.74146C27.7935 3.15191 27.3141 2.67249 26.7245 2.67249H26.1901V4.81043ZM26.7245 5.8794H25.6556C25.36 5.8794 25.1211 5.64048 25.1211 5.34491V2.138C25.1211 1.84243 25.36 1.60352 25.6556 1.60352H26.7245C27.9036 1.60352 28.8625 2.56236 28.8625 3.74146C28.8625 4.92055 27.9036 5.8794 26.7245 5.8794Z" fill="white"/>
</g>
<defs>
<clipPath id="clip0_471_201">
<rect width="31" height="31" fill="white"/>
</clipPath>
</defs>
</svg>
