<svg width="18" height="18" viewBox="0 0 18 18" fill="none" xmlns="http://www.w3.org/2000/svg">
<g clip-path="url(#clip0_470_189)">
<path d="M17.9229 16C17.9229 17.1 17.0229 18 15.9229 18H2.92285C1.82285 18 0.922852 17.1 0.922852 16V9.5C0.922852 8.4 1.82285 7.5 2.92285 7.5H15.9229C17.0229 7.5 17.9229 8.4 17.9229 9.5V16Z" fill="#3F7123"/>
<path d="M0.922852 7.5H17.9229V10.5H0.922852V7.5Z" fill="#3F7123"/>
<path d="M0.922852 7.5H17.9229V11H0.922852V7.5Z" fill="#CCD6DD"/>
<path d="M0.922852 7.5H2.92285L0.922852 11V7.5ZM6.42285 7.5L4.42285 11H7.92285L9.92285 7.5H6.42285ZM13.4229 7.5L11.4229 11H14.9229L16.9229 7.5H13.4229Z" fill="#292F33"/>
<path d="M0.0771484 4.1035L16.5736 0L17.4186 3.396L0.922148 7.5L0.0771484 4.1035Z" fill="#CCD6DD"/>
<path d="M0.0771484 4.10363L2.86315 7.01713L0.922148 7.50013L0.0771484 4.10363ZM9.65615 5.32763L6.87015 2.41363L3.47365 3.25863L6.25965 6.17263L9.65615 5.32763ZM16.4491 3.63763L13.6631 0.723633L10.2666 1.56863L13.0526 4.48213L16.4491 3.63763Z" fill="#292F33"/>
</g>
<defs>
<clipPath id="clip0_470_189">
<rect width="18" height="18" fill="white"/>
</clipPath>
</defs>
</svg>
