<svg width="21" height="21" viewBox="0 0 21 21" fill="none" xmlns="http://www.w3.org/2000/svg">
<path d="M2.625 6.125H5.25M5.25 6.125C5.25 5.3095 5.25 4.90175 5.383 4.58063C5.47095 4.36816 5.59991 4.17511 5.76251 4.01251C5.92511 3.84991 6.11816 3.72095 6.33063 3.633C6.65175 3.5 7.0595 3.5 7.875 3.5C8.6905 3.5 9.09825 3.5 9.41938 3.633C9.63184 3.72095 9.82489 3.84991 9.98749 4.01251C10.1501 4.17511 10.2791 4.36816 10.367 4.58063C10.5 4.90175 10.5 5.3095 10.5 6.125C10.5 6.9405 10.5 7.34825 10.367 7.66938C10.2791 7.88184 10.1501 8.07489 9.98749 8.23749C9.82489 8.40009 9.63184 8.52905 9.41938 8.617C9.09825 8.75 8.6905 8.75 7.875 8.75C7.0595 8.75 6.65175 8.75 6.33063 8.617C6.11816 8.52905 5.92511 8.40009 5.76251 8.23749C5.59991 8.07489 5.47095 7.88184 5.383 7.66938C5.25 7.34825 5.25 6.9405 5.25 6.125ZM2.625 14.875H7.875M15.75 14.875H18.375M15.75 14.875C15.75 14.0595 15.75 13.6517 15.617 13.3306C15.5291 13.1182 15.4001 12.9251 15.2375 12.7625C15.0749 12.5999 14.8818 12.4709 14.6694 12.383C14.3482 12.25 13.9405 12.25 13.125 12.25C12.3095 12.25 11.9017 12.25 11.5806 12.383C11.3682 12.4709 11.1751 12.5999 11.0125 12.7625C10.8499 12.9251 10.7209 13.1182 10.633 13.3306C10.5 13.6517 10.5 14.0595 10.5 14.875C10.5 15.6905 10.5 16.0982 10.633 16.4194C10.7209 16.6318 10.8499 16.8249 11.0125 16.9875C11.1751 17.1501 11.3682 17.2791 11.5806 17.367C11.9017 17.5 12.3095 17.5 13.125 17.5C13.9405 17.5 14.3482 17.5 14.6694 17.367C14.8818 17.2791 15.0749 17.1501 15.2375 16.9875C15.4001 16.8249 15.5291 16.6318 15.617 16.4194C15.75 16.0982 15.75 15.6905 15.75 14.875ZM13.125 6.125H18.375" stroke="#DB2877" stroke-width="1.5" stroke-linecap="round" stroke-linejoin="round"/>
</svg>
