<svg width="50" height="50" viewBox="0 0 50 50" fill="none" xmlns="http://www.w3.org/2000/svg">
<path opacity="0.5" fill-rule="evenodd" clip-rule="evenodd" d="M13.542 3.646C13.542 3.2316 13.3774 2.83417 13.0843 2.54114C12.7913 2.24812 12.3939 2.0835 11.9795 2.0835C11.5651 2.0835 11.1677 2.24812 10.8746 2.54114C10.5816 2.83417 10.417 3.2316 10.417 3.646L10.417 45.3127C10.417 45.7271 10.5816 46.1245 10.8746 46.4175C11.1677 46.7105 11.5651 46.8752 11.9795 46.8752C12.3939 46.8752 12.7913 46.7105 13.0843 46.4175C13.3774 46.1245 13.542 45.7271 13.542 45.3127L13.542 3.646Z" fill="url(#paint0_linear_1794_297)"/>
<path d="M28.2462 8.0687L27.3857 7.72495C24.1293 6.42548 20.566 6.09838 17.1274 6.78328L13.542 7.49995L13.542 28.3333L17.1253 27.6166C20.5645 26.9313 24.1287 27.2584 27.3857 28.5583C30.9141 29.9688 34.7972 30.2319 38.4837 29.3104L38.692 29.2583C38.9757 29.187 39.2389 29.0503 39.4603 28.8591C39.6818 28.668 39.8554 28.4276 39.9674 28.1573C40.0793 27.8871 40.1265 27.5943 40.1051 27.3026C40.0837 27.0108 39.9943 26.7281 39.8441 26.477L36.5941 21.0583C35.8816 19.8708 35.5253 19.2791 35.442 18.6354C35.4066 18.3657 35.4066 18.0925 35.442 17.8229C35.5253 17.1791 35.8816 16.5854 36.5941 15.3999L39.2566 10.9624C39.4115 10.7045 39.4864 10.4064 39.4718 10.1059C39.4573 9.80541 39.3539 9.51596 39.1748 9.2742C38.9957 9.03244 38.749 8.84923 38.4657 8.74776C38.1825 8.64628 37.8755 8.63109 37.5837 8.70411C34.4817 9.47909 31.2145 9.25675 28.2462 8.0687Z" fill="url(#paint1_linear_1794_297)"/>
<defs>
<linearGradient id="paint0_linear_1794_297" x1="11.9795" y1="2.0835" x2="11.9795" y2="46.8752" gradientUnits="userSpaceOnUse">
<stop stop-color="#FFE8B6"/>
<stop offset="1" stop-color="#FCC01C"/>
</linearGradient>
<linearGradient id="paint1_linear_1794_297" x1="26.8261" y1="6.43408" x2="26.8261" y2="29.8502" gradientUnits="userSpaceOnUse">
<stop stop-color="#FFE8B6"/>
<stop offset="1" stop-color="#FCC01C"/>
</linearGradient>
</defs>
</svg>
