<svg width="20" height="22" viewBox="0 0 20 22" fill="none" xmlns="http://www.w3.org/2000/svg">
<path d="M8.5 19.2515V17.3215L8.304 17.1185C6.565 15.3185 6.565 12.4145 8.304 10.6145C8.368 10.5478 8.433 10.4845 8.499 10.4245V7.74951H0V16.0025L0.00500011 16.1865C0.0519987 17.0153 0.414367 17.7947 1.01777 18.3648C1.62117 18.935 2.41986 19.2526 3.25 19.2525L8.5 19.2515ZM18.501 3.99851V9.72851C17.793 9.36851 17.0007 9.20688 16.2083 9.26075C15.4159 9.31463 14.6528 9.582 14 10.0345C13.4233 9.63467 12.7593 9.37857 12.0635 9.28759C11.3676 9.19661 10.6601 9.27339 10 9.51151V0.749512H15.251C16.0811 0.749457 16.8798 1.06707 17.4832 1.63718C18.0866 2.2073 18.449 2.98671 18.496 3.81551L18.501 3.99851ZM8.5 15.7315C8.17262 15.1645 8.00027 14.5213 8.00027 13.8665C8.00027 13.2118 8.17262 12.5685 8.5 12.0015C8.643 11.7555 8.818 11.5215 9.023 11.3095C9.30452 11.017 9.63478 10.7758 9.999 10.5965C10.6496 10.2773 11.3852 10.1743 12.0985 10.3025C12.8117 10.4308 13.4654 10.7836 13.964 11.3095L14 11.3475L14.036 11.3095C14.1053 11.2388 14.176 11.1715 14.248 11.1075C14.8269 10.5936 15.5638 10.2925 16.3369 10.2542C17.11 10.2158 17.8731 10.4424 18.5 10.8965C18.668 11.0165 18.827 11.1542 18.977 11.3095C20.341 12.7215 20.341 15.0115 18.977 16.4235L14.535 21.0215C14.4659 21.0938 14.3829 21.1514 14.2909 21.1907C14.199 21.23 14.1 21.2503 14 21.2503C13.9 21.2503 13.801 21.23 13.7091 21.1907C13.6171 21.1514 13.5341 21.0938 13.465 21.0215L9.023 16.4235C8.82141 16.2148 8.64581 15.9824 8.5 15.7315ZM8.499 6.25051L8.5 0.750512H3.25C2.38857 0.750511 1.56237 1.09251 0.952963 1.70135C0.343556 2.3102 0.00079517 3.13608 0 3.99751V6.24851L8.499 6.25051Z" fill="#FF4B98"/>
</svg>
