<svg width="24" height="24" viewBox="0 0 24 24" fill="none" xmlns="http://www.w3.org/2000/svg">
<g clip-path="url(#clip0_452_108)">
<path d="M20.3074 3.69257C20.3074 2.71324 19.9184 1.77402 19.2259 1.08153C18.5334 0.389038 17.5942 0 16.6149 0C15.6355 0 14.6963 0.389038 14.0038 1.08153C13.3113 1.77402 12.9223 2.71324 12.9223 3.69257C12.9274 4.66971 13.3183 5.60571 14.0126 6.29486L6.29486 14.0126C5.95396 13.6688 5.54868 13.3956 5.10217 13.2086C4.65567 13.0215 4.17668 12.9242 3.69257 12.9223C2.71324 12.9223 1.77402 13.3113 1.08153 14.0038C0.389038 14.6963 0 15.6355 0 16.6149C0 17.5942 0.389038 18.5334 1.08153 19.2259C1.77402 19.9184 2.71324 20.3074 3.69257 20.3074C3.69257 21.2868 4.08161 22.226 4.7741 22.9185C5.46659 23.611 6.40581 24 7.38514 24C8.36447 24 9.30369 23.611 9.99619 22.9185C10.6887 22.226 11.0777 21.2868 11.0777 20.3074C11.0758 19.8233 10.9785 19.3443 10.7914 18.8978C10.6044 18.4513 10.3312 18.046 9.98743 17.7051L17.7051 9.98743C18.3943 10.6817 19.3303 11.0726 20.3074 11.0777C21.2868 11.0777 22.226 10.6887 22.9185 9.99619C23.611 9.30369 24 8.36447 24 7.38514C24 6.40581 23.611 5.46659 22.9185 4.7741C22.226 4.08161 21.2868 3.69257 20.3074 3.69257Z" fill="#FF4B98"/>
</g>
<defs>
<clipPath id="clip0_452_108">
<rect width="24" height="24" fill="white"/>
</clipPath>
</defs>
</svg>
