<svg width="18" height="18" viewBox="0 0 18 18" fill="none" xmlns="http://www.w3.org/2000/svg">
<path d="M9 1.57129C4.0295 1.57129 0 5.02529 0 9.28529C0 9.81829 0.063 10.3388 0.1835 10.8413C1.073 12.3718 1.6885 11.4058 4.5 9.99979C7.3635 8.56779 4.5 11.9998 3.5 13.9998C3.1925 14.6148 3.359 15.1353 3.78 15.5618C5.253 16.4638 7.052 16.9998 9 16.9998C13.9705 16.9998 18 13.5463 18 9.28529C18 5.02529 13.9705 1.57129 9 1.57129ZM10.4245 13.7948C10.227 14.4678 9.1945 14.7568 8.118 14.4403C7.0415 14.1243 6.329 13.3233 6.5265 12.6498C6.724 11.9763 7.7565 11.6878 8.833 12.0048C9.9095 12.3203 10.622 13.1213 10.4245 13.7948Z" fill="#D99E82"/>
<path d="M5 7C5.82843 7 6.5 6.32843 6.5 5.5C6.5 4.67157 5.82843 4 5 4C4.17157 4 3.5 4.67157 3.5 5.5C3.5 6.32843 4.17157 7 5 7Z" fill="#5C913B"/>
<path d="M10 6C10.8284 6 11.5 5.32843 11.5 4.5C11.5 3.67157 10.8284 3 10 3C9.17157 3 8.5 3.67157 8.5 4.5C8.5 5.32843 9.17157 6 10 6Z" fill="#226699"/>
<path d="M14.5 9C15.3284 9 16 8.32843 16 7.5C16 6.67157 15.3284 6 14.5 6C13.6716 6 13 6.67157 13 7.5C13 8.32843 13.6716 9 14.5 9Z" fill="#DD2E44"/>
<path d="M14 13.5C14.8284 13.5 15.5 12.8284 15.5 12C15.5 11.1716 14.8284 10.5 14 10.5C13.1716 10.5 12.5 11.1716 12.5 12C12.5 12.8284 13.1716 13.5 14 13.5Z" fill="#FFCC4D"/>
</svg>
