<svg width="18" height="18" viewBox="0 0 18 18" fill="none" xmlns="http://www.w3.org/2000/svg">
<path d="M9 3C10.1935 3 11.3381 3.47411 12.182 4.31802C13.0259 5.16193 13.5 6.30653 13.5 7.5C13.5 9.7275 11.88 11.58 9.75 11.94V13.5H11.25V15H9.75V16.5H8.25V15H6.75V13.5H8.25V11.94C6.12 11.58 4.5 9.7275 4.5 7.5C4.5 6.30653 4.97411 5.16193 5.81802 4.31802C6.66193 3.47411 7.80653 3 9 3ZM9 4.5C8.20435 4.5 7.44129 4.81607 6.87868 5.37868C6.31607 5.94129 6 6.70435 6 7.5C6 8.29565 6.31607 9.05871 6.87868 9.62132C7.44129 10.1839 8.20435 10.5 9 10.5C9.79565 10.5 10.5587 10.1839 11.1213 9.62132C11.6839 9.05871 12 8.29565 12 7.5C12 6.70435 11.6839 5.94129 11.1213 5.37868C10.5587 4.81607 9.79565 4.5 9 4.5Z" fill="#FF0000"/>
</svg>
