<svg width="18" height="18" viewBox="0 0 18 18" fill="none" xmlns="http://www.w3.org/2000/svg">
<path d="M6.75 6.75C7.7175 6.75 8.625 7.0575 9.3525 7.5825L13.185 3.75H9.75V2.25H15.75V8.25H14.25V4.8075L10.4175 8.625C10.9425 9.375 11.25 10.275 11.25 11.25C11.25 12.4435 10.7759 13.5881 9.93198 14.432C9.08807 15.2759 7.94347 15.75 6.75 15.75C5.55653 15.75 4.41193 15.2759 3.56802 14.432C2.72411 13.5881 2.25 12.4435 2.25 11.25C2.25 10.0565 2.72411 8.91193 3.56802 8.06802C4.41193 7.22411 5.55653 6.75 6.75 6.75ZM6.75 8.25C5.95435 8.25 5.19129 8.56607 4.62868 9.12868C4.06607 9.69129 3.75 10.4544 3.75 11.25C3.75 12.0456 4.06607 12.8087 4.62868 13.3713C5.19129 13.9339 5.95435 14.25 6.75 14.25C7.54565 14.25 8.30871 13.9339 8.87132 13.3713C9.43393 12.8087 9.75 12.0456 9.75 11.25C9.75 10.4544 9.43393 9.69129 8.87132 9.12868C8.30871 8.56607 7.54565 8.25 6.75 8.25Z" fill="#007BFF"/>
</svg>
