<svg width="20" height="20" viewBox="0 0 20 20" fill="none" xmlns="http://www.w3.org/2000/svg">
<g clip-path="url(#clip0_471_198)">
<path d="M8.47867 11.5103H5.86996C5.50969 11.5103 5.21777 11.8022 5.21777 12.1624V19.3476C5.21777 19.7079 5.50969 19.9998 5.86996 19.9998H8.47867C8.83895 19.9998 9.13086 19.7079 9.13086 19.3476V12.1624C9.13086 11.8022 8.83895 11.5103 8.47867 11.5103Z" fill="#A66342"/>
<path d="M8.47816 11.5103H7.17383V19.9998H8.47816C8.83844 19.9998 9.13035 19.7079 9.13035 19.3476V12.1624C9.13035 11.8022 8.83844 11.5103 8.47816 11.5103Z" fill="#995B3D"/>
<path d="M19.3478 20.0002H0.652187C0.291914 20.0002 0 19.7083 0 19.348C0 18.9877 0.291914 18.6958 0.652187 18.6958H19.3479C19.7079 18.6958 20 18.9877 20 19.348C20 19.7083 19.7079 20.0002 19.3478 20.0002Z" fill="#7BCC29"/>
<path d="M14.5303 16.7396L12.3912 18.8875C12.2657 19.0152 12.2027 19.1817 12.2021 19.3478H13.7731L15.4346 17.6658L17.1201 19.3478H18.6965C18.696 19.1817 18.632 19.0152 18.5043 18.8875L16.3695 16.7397L18.5043 14.5919C18.6659 14.4302 18.7254 14.2065 18.6834 14H17.2519L15.4346 15.8136L13.6321 14H12.2151C12.1738 14.2065 12.2323 14.4302 12.3912 14.5919L14.5303 16.7396Z" fill="#A66342"/>
<path d="M18.6964 19.3478C18.6959 19.1817 18.6319 19.0152 18.5042 18.8875L16.3694 16.7397L18.5042 14.5919C18.6658 14.4302 18.7254 14.2065 18.6833 14H17.2518L15.4346 15.8136V17.6657L17.12 19.3478H18.6964Z" fill="#995B3D"/>
<path d="M19.3474 14.7834H11.5213C11.1611 14.7834 10.8691 14.4915 10.8691 14.1312C10.8691 13.7709 11.1611 13.479 11.5213 13.479H19.3474C19.7077 13.479 19.9996 13.7709 19.9996 14.1312C19.9996 14.4915 19.7077 14.7834 19.3474 14.7834Z" fill="#FFDE33"/>
<path d="M19.3476 13.479H15.4346V14.7833H19.3476C19.7079 14.7833 19.9998 14.4914 19.9998 14.1312C19.9998 13.7709 19.7079 13.479 19.3476 13.479Z" fill="#FFBC33"/>
<path d="M19.3477 18.6958H7.17383V20.0001H19.3477C19.7078 20.0001 19.9999 19.7082 19.9999 19.3479C19.9999 18.9877 19.7078 18.6958 19.3477 18.6958Z" fill="#6EB825"/>
<path d="M11.7348 4.36957C11.6304 1.94348 9.62609 0 7.17391 0C4.72609 0 2.72609 1.93477 2.61305 4.35652C1.00875 5.11738 0 6.78262 0 8.47824C0 10.9956 2.04781 13.0435 4.56523 13.0435C5.5 13.0435 6.40438 12.7522 7.17395 12.2087C7.94352 12.7522 8.84785 13.0435 9.78266 13.0435C12.3 13.0435 14.3479 10.9957 14.3479 8.47824C14.3478 6.71305 13.3174 5.11738 11.7348 4.36957Z" fill="#7BCC29"/>
<path d="M14.3478 8.47824C14.3478 10.9956 12.3 13.0435 9.78254 13.0435C8.84777 13.0435 7.9434 12.7522 7.17383 12.2087V0C9.62602 0 11.6304 1.94348 11.7347 4.36957C13.3173 5.11738 14.3478 6.71305 14.3478 8.47824Z" fill="#6EB825"/>
</g>
<defs>
<clipPath id="clip0_471_198">
<rect width="20" height="20" fill="white"/>
</clipPath>
</defs>
</svg>
