<svg width="16" height="16" viewBox="0 0 16 16" fill="none" xmlns="http://www.w3.org/2000/svg">
<path d="M7.9502 14.85C4.4627 14.85 0.700195 12.6625 0.700195 7.8625C0.700195 3.0625 4.4627 0.875 7.9502 0.875C9.8877 0.875 11.6752 1.5125 13.0002 2.675C14.4377 3.95 15.2002 5.75 15.2002 7.8625C15.2002 9.975 14.4377 11.7625 13.0002 13.0375C11.6752 14.2 9.8752 14.85 7.9502 14.85Z" fill="url(#paint0_radial_635_213)"/>
<path opacity="0.8" d="M3.40625 11.4575C4.61437 11.4575 5.59375 10.4781 5.59375 9.27002C5.59375 8.0619 4.61437 7.08252 3.40625 7.08252C2.19813 7.08252 1.21875 8.0619 1.21875 9.27002C1.21875 10.4781 2.19813 11.4575 3.40625 11.4575Z" fill="url(#paint1_radial_635_213)"/>
<path d="M6.26865 7.38732L6.2499 7.35982L6.22365 7.32607C6.21365 7.31232 6.20365 7.30107 6.19115 7.28982L6.11365 7.21232C6.0824 7.18107 6.0449 7.14732 6.00615 7.11357C5.92365 7.04232 5.83115 6.98482 5.73115 6.93982C5.63365 6.89607 5.5274 6.87482 5.42115 6.87482H5.3749C5.36295 6.87229 5.3506 6.87229 5.33865 6.87482C5.31615 6.87732 5.29365 6.88107 5.27115 6.88607C5.21865 6.89857 5.16865 6.91482 5.11865 6.93482C5.01865 6.97982 4.92615 7.03732 4.84365 7.10857C4.77615 7.16607 4.71365 7.22732 4.6549 7.29232L4.58365 7.37232L4.54615 7.41482C4.47483 7.49897 4.37303 7.55136 4.26311 7.5605C4.15319 7.56964 4.04413 7.53478 3.9599 7.46357C3.8945 7.40809 3.84778 7.33381 3.82609 7.25083C3.80439 7.16786 3.80878 7.08022 3.83865 6.99982L3.8524 6.95982C3.8649 6.92107 3.8799 6.88357 3.89615 6.84607C3.95615 6.70982 4.0324 6.58232 4.1249 6.46607C4.34365 6.17732 4.65115 5.96732 4.9999 5.86732C5.07115 5.84857 5.14365 5.83482 5.2174 5.82482C5.2549 5.82482 5.3099 5.81357 5.32615 5.81357H5.42115C5.56365 5.81607 5.7049 5.83607 5.8424 5.87232C5.97365 5.90857 6.0999 5.96107 6.2174 6.02857C6.41115 6.14107 6.58115 6.29232 6.7174 6.47107C6.7699 6.53857 6.8174 6.60857 6.85865 6.68357C6.8924 6.74232 6.9224 6.80232 6.94865 6.86357C6.95865 6.88357 6.9674 6.90482 6.97365 6.92607C6.97365 6.94232 6.98365 6.95607 6.9874 6.96732L6.9999 6.99982C7.07115 7.22107 6.9499 7.45857 6.72865 7.52982C6.56115 7.58232 6.3774 7.52482 6.26865 7.38732ZM11.6849 7.38732L11.6624 7.35982L11.6361 7.32607C11.6261 7.31232 11.6161 7.30107 11.6036 7.28982L11.5261 7.21232C11.4949 7.18107 11.4574 7.14732 11.4186 7.11357C11.3361 7.04232 11.2436 6.98482 11.1436 6.93982C11.0474 6.89732 10.9424 6.87482 10.8374 6.87482H10.7861C10.7742 6.87229 10.7618 6.87229 10.7499 6.87482C10.7274 6.87732 10.7049 6.88107 10.6824 6.88607C10.6299 6.89857 10.5799 6.91482 10.5299 6.93482C10.4286 6.98107 10.3336 7.04107 10.2499 7.11357C10.1824 7.17107 10.1199 7.23232 10.0599 7.29732L9.9999 7.37482L9.9624 7.41732C9.92909 7.46071 9.88753 7.49708 9.84012 7.52434C9.7927 7.55161 9.74037 7.56923 9.68612 7.5762C9.63187 7.58317 9.57677 7.57935 9.52401 7.56496C9.47124 7.55056 9.42184 7.52588 9.37865 7.49232C9.30554 7.43619 9.2532 7.35731 9.22989 7.26813C9.20658 7.17896 9.21362 7.08456 9.2499 6.99982L9.26365 6.95982C9.27615 6.92107 9.29115 6.88357 9.3074 6.84607C9.36615 6.70857 9.44365 6.57982 9.5349 6.46107C9.75365 6.17232 10.0611 5.96232 10.4099 5.86232C10.4811 5.84357 10.5536 5.82982 10.6274 5.81982C10.6649 5.81982 10.7186 5.80857 10.7361 5.80857H10.8311C10.9736 5.81107 11.1149 5.83107 11.2524 5.86732C11.3836 5.90357 11.5099 5.95607 11.6274 6.02357C11.8211 6.13607 11.9911 6.28732 12.1274 6.46607C12.1799 6.53357 12.2274 6.60357 12.2686 6.67857C12.3024 6.73732 12.3324 6.79732 12.3586 6.85857C12.3686 6.87857 12.3774 6.89982 12.3836 6.92107L12.3974 6.96232L12.4086 6.99607C12.4799 7.21732 12.3586 7.45357 12.1374 7.52482C11.9711 7.57857 11.7899 7.52357 11.6811 7.38732H11.6849ZM9.1074 10.6161C9.321 10.428 9.45506 10.1656 9.4824 9.88232C9.50615 9.43232 9.39115 9.27732 9.24365 9.08107C8.9049 8.62482 7.94365 8.73357 7.94365 8.73357C7.69365 8.74357 7.38865 8.86607 7.4249 9.16357C7.44906 9.24663 7.49511 9.32167 7.55823 9.38083C7.62134 9.43998 7.6992 9.48108 7.78365 9.49982C8.15865 9.59107 8.7049 9.49982 8.7199 9.88607C8.7374 10.3186 8.0724 10.1361 8.0199 10.5986C7.9674 11.0611 8.7199 10.9973 8.7199 11.3123C8.7199 11.5536 8.4699 11.5948 8.21115 11.6498C7.9874 11.6961 7.5574 11.7661 7.5224 12.0248C7.4874 12.2836 7.63615 12.5961 8.24115 12.5048C9.1924 12.3611 9.5124 11.8398 9.5124 11.5198C9.51534 11.3487 9.48058 11.179 9.41059 11.0228C9.3406 10.8666 9.23708 10.7278 9.1074 10.6161ZM5.8974 4.07607C6.18615 4.07607 6.2724 3.68482 5.96365 3.61982C5.72365 3.57482 5.4774 3.56732 5.2349 3.59857C4.57865 3.67232 3.9749 3.99482 3.5474 4.49982C3.35115 4.73982 3.6724 4.99232 3.88365 4.81357C4.45359 4.34956 5.16258 4.0899 5.8974 4.07607ZM9.9999 4.16107C9.71365 4.19357 9.59115 3.80857 9.88865 3.71357C10.1249 3.64607 10.3711 3.61607 10.6174 3.62482C11.2786 3.63357 11.9111 3.89607 12.3849 4.35732C12.6036 4.57732 12.3099 4.85732 12.0811 4.70232C11.4679 4.29333 10.7347 4.10268 9.9999 4.16107Z" fill="#422B0D"/>
<path d="M13.9365 3.70898C14.6027 4.78398 14.9502 6.06398 14.9502 7.48773C14.9502 9.60023 14.1877 11.3877 12.7502 12.6627C11.4252 13.8252 9.62523 14.4752 7.70023 14.4752C5.44273 14.4752 3.07523 13.5565 1.67773 11.6077C3.02273 13.8152 5.55273 14.8502 7.95023 14.8502C9.87523 14.8502 11.6752 14.2002 13.0002 13.0377C14.4377 11.7627 15.2002 9.97523 15.2002 7.86273C15.2002 6.27023 14.7665 4.85523 13.9365 3.70898Z" fill="#EB8F00"/>
<path opacity="0.8" d="M12.5791 11.4575C13.7872 11.4575 14.7666 10.4781 14.7666 9.27002C14.7666 8.0619 13.7872 7.08252 12.5791 7.08252C11.371 7.08252 10.3916 8.0619 10.3916 9.27002C10.3916 10.4781 11.371 11.4575 12.5791 11.4575Z" fill="url(#paint2_radial_635_213)"/>
<defs>
<radialGradient id="paint0_radial_635_213" cx="0" cy="0" r="1" gradientUnits="userSpaceOnUse" gradientTransform="translate(7.9502 7.8625) scale(7.12)">
<stop offset="0.5" stop-color="#FDE030"/>
<stop offset="0.92" stop-color="#F7C02B"/>
<stop offset="1" stop-color="#F4A223"/>
</radialGradient>
<radialGradient id="paint1_radial_635_213" cx="0" cy="0" r="1" gradientUnits="userSpaceOnUse" gradientTransform="translate(3.40631 9.2653) scale(2.38287 2.2613)">
<stop stop-color="#ED7770"/>
<stop offset="0.08" stop-color="#ED7770" stop-opacity="0.96"/>
<stop offset="0.22" stop-color="#ED7770" stop-opacity="0.85"/>
<stop offset="0.39" stop-color="#ED7770" stop-opacity="0.68"/>
<stop offset="0.59" stop-color="#ED7770" stop-opacity="0.43"/>
<stop offset="0.81" stop-color="#ED7770" stop-opacity="0.13"/>
<stop offset="0.9" stop-color="#ED7770" stop-opacity="0"/>
</radialGradient>
<radialGradient id="paint2_radial_635_213" cx="0" cy="0" r="1" gradientUnits="userSpaceOnUse" gradientTransform="translate(12.5797 9.2653) scale(2.38287 2.2613)">
<stop stop-color="#ED7770"/>
<stop offset="0.08" stop-color="#ED7770" stop-opacity="0.96"/>
<stop offset="0.22" stop-color="#ED7770" stop-opacity="0.85"/>
<stop offset="0.39" stop-color="#ED7770" stop-opacity="0.68"/>
<stop offset="0.59" stop-color="#ED7770" stop-opacity="0.43"/>
<stop offset="0.81" stop-color="#ED7770" stop-opacity="0.13"/>
<stop offset="0.9" stop-color="#ED7770" stop-opacity="0"/>
</radialGradient>
</defs>
</svg>
