<svg width="22" height="22" viewBox="0 0 22 22" fill="none" xmlns="http://www.w3.org/2000/svg">
<rect width="22" height="22" rx="11" fill="white"/>
<g clip-path="url(#clip0_1225_240)">
<path d="M15.9952 11.0957C15.9952 10.6755 15.9612 10.3688 15.8876 10.0508H11.0996V11.9476H13.91C13.8534 12.419 13.5474 13.1289 12.8675 13.6059L12.8579 13.6694L14.3718 14.8449L14.4767 14.8554C15.4399 13.9637 15.9952 12.6518 15.9952 11.0957Z" fill="#4285F4"/>
<path d="M11.0996 16.0935C12.4765 16.0935 13.6324 15.6392 14.4767 14.8555L12.8675 13.606C12.4368 13.907 11.8589 14.1172 11.0996 14.1172C9.75105 14.1172 8.60648 13.2256 8.19848 11.9932L8.13867 11.9983L6.56453 13.2193L6.54395 13.2766C7.38254 14.9463 9.10508 16.0935 11.0996 16.0935Z" fill="#34A853"/>
<path d="M8.19848 11.9933C8.09082 11.6752 8.02852 11.3345 8.02852 10.9824C8.02852 10.6302 8.09082 10.2895 8.19281 9.97147L8.18996 9.90373L6.59609 8.66309L6.54395 8.68795C6.19832 9.38082 6 10.1589 6 10.9824C6 11.8059 6.19832 12.5839 6.54395 13.2768L8.19848 11.9933Z" fill="#FBBC05"/>
<path d="M11.0996 7.84745C12.0572 7.84745 12.7031 8.26203 13.0714 8.60848L14.5107 7.20003C13.6268 6.37655 12.4765 5.87109 11.0996 5.87109C9.10508 5.87109 7.38254 7.01829 6.54395 8.68796L8.19281 9.97148C8.60648 8.73909 9.75105 7.84745 11.0996 7.84745Z" fill="#EB4335"/>
</g>
<defs>
<clipPath id="clip0_1225_240">
<rect width="10" height="10.2578" fill="white" transform="translate(6 5.87109)"/>
</clipPath>
</defs>
</svg>
