<svg width="19" height="19" viewBox="0 0 19 19" fill="none" xmlns="http://www.w3.org/2000/svg">
<path d="M9.46883 1.28271C0.219687 1.28271 0 11.6526 0 13.7055C0 15.7583 4.23938 17.4208 9.46883 17.4208C14.6998 17.4208 18.9377 15.7569 18.9377 13.7055C18.9377 11.6526 18.7195 1.28271 9.46883 1.28271Z" fill="#FCC21B"/>
<path d="M16.2603 13.4928C14.8502 13.999 13.2945 13.285 12.7809 11.8927C12.2703 10.5018 12.9932 8.9625 14.4034 8.45336C15.8091 7.94719 17.3691 8.66414 17.8842 10.055C18.3948 11.4488 17.6675 12.9881 16.2603 13.4928Z" fill="#FCC21B"/>
<path d="M16.226 13.3996C14.8678 13.8879 13.37 13.1992 12.8772 11.8603C12.3859 10.5214 13.0821 9.03996 14.4388 8.55011C15.7925 8.06324 17.2932 8.75347 17.789 10.0924C18.2803 11.4313 17.5797 12.9127 16.226 13.3996Z" fill="#FCC01C"/>
<path d="M16.19 13.3046C14.8852 13.7736 13.4454 13.1131 12.9704 11.8246C12.4984 10.5392 13.1693 9.11417 14.4726 8.64363C15.7744 8.17605 17.2157 8.83808 17.6922 10.125C18.1642 11.4135 17.4918 12.8385 16.19 13.3046Z" fill="#FCBE1C"/>
<path d="M16.1556 13.211C14.9028 13.6607 13.5223 13.0269 13.0666 11.7904C12.6124 10.5554 13.2551 9.18832 14.5065 8.73707C15.7548 8.2873 17.1397 8.9241 17.5969 10.1591C18.0497 11.3956 17.4055 12.7627 16.1556 13.211Z" fill="#FBBB1D"/>
<path d="M16.1222 13.1158C14.9228 13.5463 13.5988 12.9392 13.1639 11.7546C12.7289 10.5716 13.345 9.26235 14.5443 8.8304C15.7407 8.39993 17.0663 9.01001 17.5042 10.1931C17.9361 11.3776 17.3186 12.6868 16.1222 13.1158Z" fill="#FBB91E"/>
<path d="M16.0864 13.0223C14.939 13.4349 13.6743 12.853 13.2572 11.7219C12.8416 10.5909 13.4309 9.33952 14.5768 8.92538C15.7198 8.51421 16.9874 9.09608 17.406 10.2272C17.8217 11.3598 17.2309 12.6111 16.0864 13.0223Z" fill="#FBB71E"/>
<path d="M16.0523 12.929C14.9583 13.3224 13.7515 12.7672 13.3537 11.6881C12.9573 10.609 13.5184 9.41551 14.6124 9.02067C15.7034 8.62879 16.9132 9.18395 17.3125 10.2631C17.7073 11.3422 17.1433 12.5372 16.0523 12.929Z" fill="#FBB51F"/>
<path d="M16.016 12.834C14.9739 13.208 13.825 12.6811 13.448 11.6524C13.071 10.6252 13.6053 9.48966 14.6459 9.11411C15.6849 8.74005 16.8353 9.26997 17.2153 10.2972C17.5924 11.3243 17.055 12.4614 16.016 12.834Z" fill="#FAB220"/>
<path d="M15.9821 12.7403C14.9935 13.095 13.9025 12.5948 13.5433 11.6195C13.1856 10.6443 13.6932 9.56517 14.6803 9.20892C15.6659 8.85416 16.7584 9.35736 17.1191 10.3311C17.4784 11.3063 16.9677 12.3855 15.9821 12.7403Z" fill="#FAB020"/>
<path d="M15.9479 12.6452C15.0113 12.9807 13.9797 12.5072 13.6397 11.5839C13.3013 10.6606 13.7807 9.63938 14.7159 9.30242C15.6496 8.96695 16.6842 9.44196 17.0256 10.3652C17.364 11.2885 16.8816 12.3098 15.9479 12.6452Z" fill="#FAAE21"/>
<path d="M15.9121 12.552C15.0289 12.8697 14.0552 12.4214 13.7331 11.5501C13.4139 10.6787 13.8667 9.71537 14.7484 9.39771C15.6286 9.08154 16.6053 9.52982 16.9275 10.4011C17.2481 11.271 16.7939 12.2358 15.9121 12.552Z" fill="#FAAC22"/>
<path d="M15.8784 12.457C15.0486 12.7553 14.1313 12.3352 13.8299 11.5144C13.5286 10.6965 13.9561 9.78955 14.7859 9.4897C15.6142 9.19134 16.5315 9.61439 16.8343 10.4323C17.1342 11.2531 16.7067 12.1601 15.8784 12.457Z" fill="#F9A922"/>
<path d="M15.8442 12.3634C15.0664 12.6425 14.2084 12.2491 13.9264 11.4817C13.6444 10.7157 14.0437 9.86668 14.8215 9.58613C15.5978 9.30707 16.4572 9.70191 16.7408 10.4693C17.0198 11.2353 16.619 12.0843 15.8442 12.3634Z" fill="#F9A723"/>
<path d="M15.8084 12.2682C15.084 12.528 14.284 12.1614 14.0197 11.4459C13.757 10.7319 14.1296 9.94074 14.854 9.678C15.5768 9.41824 16.3784 9.78636 16.6426 10.5018C16.9054 11.2173 16.5313 12.01 15.8084 12.2682Z" fill="#F9A524"/>
<path d="M15.7742 12.175C15.1018 12.417 14.3596 12.0756 14.1162 11.4121C13.8727 10.75 14.2171 10.0153 14.8895 9.7733C15.5605 9.53284 16.3027 9.87424 16.5476 10.5363C16.791 11.1998 16.4452 11.9346 15.7742 12.175Z" fill="#F9A324"/>
<path d="M15.7389 12.0814C15.1199 12.3041 14.4356 11.9894 14.2115 11.3778C13.9873 10.7677 14.305 10.0909 14.924 9.86821C15.5415 9.64555 16.2258 9.96172 16.4529 10.5718C16.677 11.1819 16.3579 11.8588 15.7389 12.0814Z" fill="#F8A025"/>
<path d="M15.7051 11.9864C15.138 12.1898 14.5131 11.9033 14.3068 11.3437C14.1019 10.7855 14.3929 10.1666 14.9584 9.96171C15.524 9.75835 16.1504 10.0463 16.3567 10.6059C16.563 11.1641 16.2706 11.783 15.7051 11.9864Z" fill="#F89E26"/>
<path d="M15.6709 11.8927C15.1573 12.0768 14.5903 11.817 14.4032 11.3093C14.2177 10.8032 14.4804 10.2421 14.994 10.0565C15.5076 9.87246 16.0746 10.1337 16.2632 10.6399C16.4487 11.1461 16.183 11.7086 15.6709 11.8927Z" fill="#F89C26"/>
<path d="M15.6347 11.798C15.1731 11.9643 14.6639 11.7297 14.4962 11.274C14.3285 10.8198 14.566 10.3166 15.0261 10.1489C15.4863 9.98412 15.9954 10.2186 16.1646 10.6729C16.3339 11.1286 16.0949 11.6333 15.6347 11.798Z" fill="#F89A27"/>
<path d="M15.6004 11.7041C15.1921 11.851 14.7409 11.6432 14.5925 11.2409C14.444 10.8387 14.6548 10.3919 15.063 10.2449C15.4712 10.098 15.9225 10.3058 16.0709 10.7095C16.2179 11.1103 16.0071 11.5571 15.6004 11.7041Z" fill="#F79728"/>
<path d="M15.5662 11.6094C15.2099 11.737 14.818 11.5574 14.6889 11.2056C14.5598 10.8553 14.7423 10.4664 15.0986 10.3388C15.4534 10.2111 15.8467 10.3922 15.9773 10.7425C16.1035 11.0928 15.9209 11.4832 15.5662 11.6094Z" fill="#F79528"/>
<path d="M15.5314 11.5157C15.2285 11.6241 14.8931 11.4712 14.7832 11.1713C14.6734 10.873 14.8292 10.5419 15.1321 10.4321C15.4349 10.3237 15.7689 10.4781 15.8802 10.7765C15.99 11.0748 15.8342 11.4073 15.5314 11.5157Z" fill="#F79329"/>
<path d="M4.68218 13.4928C3.27203 13.999 1.7164 13.285 1.20281 11.8927C0.692182 10.5018 1.41507 8.9625 2.82523 8.45336C4.23093 7.94719 5.79101 8.66414 6.30609 10.055C6.81671 11.4488 6.08937 12.9881 4.68218 13.4928Z" fill="#FCC21B"/>
<path d="M4.64784 13.3996C3.28963 13.8879 1.7919 13.1992 1.29909 11.8603C0.807758 10.5214 1.50393 9.03996 2.86065 8.55011C4.2144 8.06324 5.7151 8.75347 6.21088 10.0924C6.70221 11.4313 6.00159 12.9127 4.64784 13.3996Z" fill="#FCC01C"/>
<path d="M4.61187 13.3046C3.3071 13.7736 1.86726 13.1131 1.39226 11.8246C0.920226 10.5392 1.59116 9.11417 2.89444 8.64363C4.19624 8.17605 5.63757 8.83808 6.11405 10.125C6.58608 11.4135 5.91366 12.8385 4.61187 13.3046Z" fill="#FCBE1C"/>
<path d="M4.57748 13.211C3.32467 13.6607 1.9442 13.0269 1.4885 11.7904C1.03428 10.5554 1.67701 9.18832 2.92834 8.73707C4.1767 8.2873 5.56162 8.9241 6.01881 10.1591C6.47154 11.3956 5.82733 12.7627 4.57748 13.211Z" fill="#FBBB1D"/>
<path d="M4.5441 13.1158C3.34472 13.5463 2.02066 12.9392 1.58574 11.7546C1.15082 10.5716 1.76683 9.26235 2.96621 8.8304C4.16261 8.39993 5.48816 9.01001 5.92605 10.1931C6.358 11.3776 5.7405 12.6868 4.5441 13.1158Z" fill="#FBB91E"/>
<path d="M4.50831 13.0223C3.36089 13.4349 2.0962 12.853 1.67909 11.7219C1.26346 10.5909 1.85276 9.33952 2.9987 8.92538C4.14167 8.51421 5.40932 9.09608 5.82792 10.2272C6.24354 11.3598 5.65276 12.6111 4.50831 13.0223Z" fill="#FBB71E"/>
<path d="M4.47413 12.929C3.38014 13.3224 2.17335 12.7672 1.77553 11.6881C1.37921 10.609 1.9403 9.41551 3.03428 9.02067C4.1253 8.62879 5.33506 9.18395 5.73436 10.2631C6.12921 11.3422 5.56514 12.5372 4.47413 12.929Z" fill="#FBB51F"/>
<path d="M4.43783 12.834C3.3958 13.208 2.24689 12.6811 1.86986 11.6524C1.49283 10.6252 2.0272 9.48966 3.06775 9.11411C4.10681 8.74005 5.2572 9.26997 5.6372 10.2972C6.01424 11.3243 5.47689 12.4614 4.43783 12.834Z" fill="#FAB220"/>
<path d="M4.40399 12.7403C3.4154 13.095 2.32438 12.5948 1.96516 11.6195C1.60743 10.6443 2.11509 9.56517 3.10219 9.20892C4.08782 8.85416 5.18032 9.35736 5.54102 10.3311C5.90024 11.3063 5.38962 12.3855 4.40399 12.7403Z" fill="#FAB020"/>
<path d="M4.36981 12.6452C3.43317 12.9807 2.40153 12.5072 2.06161 11.5839C1.72317 10.6606 2.20262 9.63938 3.13778 9.30242C4.07145 8.96695 5.10606 9.44196 5.44747 10.3652C5.78591 11.2885 5.30348 12.3098 4.36981 12.6452Z" fill="#FAAE21"/>
<path d="M4.33402 12.552C3.45082 12.8697 2.47707 12.4214 2.15496 11.5501C1.83582 10.6787 2.28855 9.71537 3.17027 9.39771C4.05051 9.08154 5.02722 9.52982 5.34933 10.4011C5.66996 11.271 5.21574 12.2358 4.33402 12.552Z" fill="#FAAC22"/>
<path d="M4.30025 12.457C3.47049 12.7553 2.55314 12.3352 2.25182 11.5144C1.95049 10.6965 2.37799 9.78955 3.20775 9.4897C4.03603 9.19134 4.95338 9.61439 5.25619 10.4323C5.55603 11.2531 5.12853 12.1601 4.30025 12.457Z" fill="#F9A922"/>
<path d="M4.26607 12.3634C3.48826 12.6425 2.63029 12.2491 2.34826 11.4817C2.06623 10.7157 2.46553 9.86668 3.24334 9.58613C4.01967 9.30707 4.87912 9.70191 5.16264 10.4693C5.4417 11.2353 5.04092 12.0843 4.26607 12.3634Z" fill="#F9A723"/>
<path d="M4.23028 12.2682C3.50591 12.528 2.70583 12.1614 2.44161 11.4459C2.17888 10.7319 2.55145 9.94074 3.27583 9.678C3.99872 9.41824 4.80028 9.78636 5.0645 10.5018C5.32724 11.2173 4.95317 12.01 4.23028 12.2682Z" fill="#F9A524"/>
<path d="M4.1961 12.175C3.52368 12.417 2.78149 12.0756 2.53806 11.4121C2.29462 10.75 2.63899 10.0153 3.31141 9.7733C3.98235 9.53284 4.72454 9.87424 4.96946 10.5363C5.2129 11.1998 4.86704 11.9346 4.1961 12.175Z" fill="#F9A324"/>
<path d="M4.16078 12.0814C3.5418 12.3041 2.8575 11.9894 2.63336 11.3778C2.40922 10.7677 2.72687 10.0909 3.34586 9.86821C3.96336 9.64555 4.64766 9.96172 4.87476 10.5718C5.09891 11.1819 4.77976 11.8588 4.16078 12.0814Z" fill="#F8A025"/>
<path d="M4.12694 11.9864C3.55991 12.1898 2.93499 11.9033 2.72866 11.3437C2.52382 10.7855 2.81476 10.1666 3.3803 9.96171C3.94585 9.75835 4.57226 10.0463 4.77858 10.6059C4.98491 11.1641 4.69249 11.783 4.12694 11.9864Z" fill="#F89E26"/>
<path d="M4.09276 11.8927C3.57917 12.0768 3.01214 11.817 2.82511 11.3093C2.63956 10.8032 2.90229 10.2421 3.41589 10.0565C3.92948 9.87246 4.49651 10.1337 4.68503 10.6399C4.87057 11.1461 4.60487 11.7086 4.09276 11.8927Z" fill="#F89C26"/>
<path d="M4.05659 11.798C3.59495 11.9643 3.08581 11.7297 2.91807 11.274C2.75034 10.8198 2.98784 10.3166 3.44799 10.1489C3.90815 9.98412 4.41729 10.2186 4.58651 10.6729C4.75573 11.1286 4.51674 11.6333 4.05659 11.798Z" fill="#F89A27"/>
<path d="M4.02223 11.7041C3.61402 11.851 3.16277 11.6432 3.01434 11.2409C2.8659 10.8387 3.07668 10.3919 3.48488 10.2449C3.89309 10.098 4.34434 10.3058 4.49277 10.7095C4.63973 11.1103 4.42895 11.5571 4.02223 11.7041Z" fill="#F79728"/>
<path d="M3.98805 11.6094C3.6318 11.737 3.23992 11.5574 3.11078 11.2056C2.98164 10.8553 3.16422 10.4664 3.52047 10.3388C3.87524 10.2111 4.26859 10.3922 4.39922 10.7425C4.52539 11.0928 4.34281 11.4832 3.98805 11.6094Z" fill="#F79528"/>
<path d="M3.95323 11.5157C3.65042 11.6241 3.31495 11.4712 3.20511 11.1713C3.09526 10.873 3.25112 10.5419 3.55394 10.4321C3.85675 10.3237 4.19073 10.4781 4.30206 10.7765C4.41191 11.0748 4.25605 11.4073 3.95323 11.5157Z" fill="#F79329"/>
<path d="M14.6151 8.57661C14.5409 8.74434 14.3627 8.83192 14.1905 8.80224C14.1594 8.7963 14.1282 8.78739 14.1 8.77403C12.9377 8.25599 11.3584 8.27083 11.3435 8.27083C11.1639 8.2738 11.011 8.15505 10.962 7.98583C10.913 7.81513 10.9858 7.63403 11.1372 7.54349C12.4746 6.74044 14.3612 6.46583 14.4399 6.45544C14.6552 6.42575 14.8526 6.57419 14.8823 6.78794C14.912 7.00169 14.762 7.19911 14.5498 7.23028C14.5394 7.23177 13.766 7.3431 12.8991 7.62364C13.3816 7.69341 13.9293 7.84333 14.4191 8.06005C14.6151 8.14763 14.7041 8.38067 14.6151 8.57661ZM4.41742 8.57661C4.49164 8.74434 4.66976 8.83192 4.84195 8.80224C4.87312 8.7963 4.9043 8.78739 4.9325 8.77403C6.09476 8.25599 7.67414 8.27083 7.68898 8.27083C7.86859 8.2738 8.02148 8.15505 8.07047 7.98583C8.11945 7.81513 8.04672 7.63403 7.89531 7.54349C6.55789 6.74044 4.67125 6.46583 4.59258 6.45544C4.37734 6.42575 4.17992 6.57419 4.15023 6.78794C4.12055 7.00169 4.27047 7.19911 4.48273 7.23028C4.49312 7.23177 5.26648 7.3431 6.13336 7.62364C5.65094 7.69341 5.1032 7.84333 4.61336 8.06005C4.51936 8.10312 4.44611 8.18147 4.40944 8.27814C4.37277 8.37481 4.37564 8.48204 4.41742 8.57661Z" fill="#2F2F2F"/>
<path d="M14.3179 10.1322C13.8593 9.82195 13.2818 10.0268 12.7712 10.1322C11.3492 10.4261 10.0993 10.438 9.49965 10.438C8.89996 10.438 7.65012 10.4261 6.22808 10.1322C5.71746 10.0268 5.14004 9.82195 4.68137 10.1322C4.09949 10.5255 4.52847 11.9357 5.44433 12.8887C5.99801 13.4646 7.31613 14.5823 9.49965 14.5823C11.6832 14.5823 13.0013 13.4646 13.555 12.8887C14.4708 11.9357 14.8983 10.5255 14.3179 10.1322Z" fill="#ED6C30"/>
</svg>
