<svg width="21" height="24" viewBox="0 0 21 24" fill="none" xmlns="http://www.w3.org/2000/svg">
<path d="M10.4946 7.97135e-06C12.7707 -0.00313985 14.9587 0.926112 16.5948 2.59089C18.2309 4.25566 19.1867 6.52516 19.2597 8.91855L19.2643 9.22608V14.266L20.878 18.1483C20.975 18.3823 21.0152 18.6379 20.9949 18.8923C20.9745 19.1467 20.8943 19.3917 20.7615 19.6053C20.6286 19.8189 20.4473 19.9943 20.2339 20.1158C20.0205 20.2373 19.7818 20.3009 19.5391 20.3011L14.0025 20.3048C14.0037 21.2655 13.6487 22.1888 13.013 22.8786C12.3772 23.5683 11.5109 23.97 10.5981 23.9984C9.68527 24.0267 8.79791 23.6795 8.12462 23.0304C7.45133 22.3813 7.04519 21.4816 6.9925 20.5225L6.98665 20.3011H1.46169C1.21931 20.3011 0.980742 20.2377 0.767447 20.1166C0.554152 19.9955 0.372832 19.8205 0.239808 19.6073C0.106784 19.3942 0.0262334 19.1496 0.00540649 18.8955C-0.0154204 18.6415 0.0241304 18.386 0.120499 18.152L1.72478 14.2672V9.22608C1.72478 4.11484 5.64429 7.97135e-06 10.4946 7.97135e-06ZM12.2485 20.3023L8.7406 20.3048C8.74053 20.7787 8.91383 21.2346 9.22457 21.5778C9.53532 21.921 9.95968 22.1252 10.4097 22.1481C10.8597 22.1711 11.3008 22.0109 11.6417 21.701C11.9825 21.391 12.1969 20.9549 12.2403 20.4831L12.2485 20.3023ZM10.4946 1.84522C6.61247 1.84522 3.47874 5.13463 3.47874 9.22608V14.651L1.90719 18.4571H19.0925L17.5104 14.6522V9.24208L17.5069 8.96529C17.4455 7.05293 16.6795 5.24066 15.3708 3.91184C14.0621 2.58303 12.3134 1.8419 10.4946 1.84522Z" fill="black"/>
</svg>
