<svg width="19" height="21" viewBox="0 0 19 21" fill="none" xmlns="http://www.w3.org/2000/svg">
<g clip-path="url(#clip0_142_577)">
<path d="M9.03537 19.6592C9.22003 19.7699 9.43972 19.7763 9.63091 19.6783C11.9703 18.4724 15.7608 15.2886 17.3532 11.2866C19.3886 6.17274 14.4581 2.14329 10.841 4.93692C10.4592 5.23156 10.0157 5.60956 9.70631 5.95192C9.63838 6.02461 9.54741 6.06726 9.45149 6.07138C9.35557 6.07551 9.26172 6.04082 9.18856 5.97419C8.78066 5.57965 8.14653 5.08965 7.71606 4.77147C4.65825 2.52001 -0.560219 5.41929 1.61231 11.2032C2.56825 14.3755 6.76487 18.2974 9.03478 19.6605" fill="url(#paint0_radial_142_577)"/>
<path d="M9.03537 19.6592C9.22003 19.7699 9.43972 19.7763 9.63091 19.6783C11.9703 18.4724 15.7608 15.2886 17.3532 11.2866C19.3886 6.17274 14.4581 2.14329 10.841 4.93692C10.4592 5.23156 10.0157 5.60956 9.70631 5.95192C9.63838 6.02461 9.54741 6.06726 9.45149 6.07138C9.35557 6.07551 9.26172 6.04082 9.18856 5.97419C8.78066 5.57965 8.14653 5.08965 7.71606 4.77147C4.65825 2.52001 -0.560219 5.41929 1.61231 11.2032C2.56825 14.3755 6.76487 18.2974 9.03478 19.6605" fill="url(#paint1_radial_142_577)"/>
<path d="M9.03537 19.6592C9.22003 19.7699 9.43972 19.7763 9.63091 19.6783C11.9703 18.4724 15.7608 15.2886 17.3532 11.2866C19.3886 6.17274 14.4581 2.14329 10.841 4.93692C10.4592 5.23156 10.0157 5.60956 9.70631 5.95192C9.63838 6.02461 9.54741 6.06726 9.45149 6.07138C9.35557 6.07551 9.26172 6.04082 9.18856 5.97419C8.78066 5.57965 8.14653 5.08965 7.71606 4.77147C4.65825 2.52001 -0.560219 5.41929 1.61231 11.2032C2.56825 14.3755 6.76487 18.2974 9.03478 19.6605" fill="url(#paint2_radial_142_577)"/>
<path d="M9.13086 5.92644L9.41289 6.19181C9.67177 6.43553 10.0696 6.39226 10.3142 6.13199C11.07 5.32953 12.3852 4.3909 14.1279 4.0899C13.0567 3.88881 11.893 4.12362 10.8409 4.93626C10.4591 5.23153 10.0155 5.60953 9.7062 5.9519C9.63819 6.0245 9.54719 6.06702 9.45127 6.07103C9.35535 6.07504 9.26153 6.04024 9.18845 5.97353L9.13086 5.91881V5.92644Z" fill="url(#paint3_radial_142_577)"/>
<g filter="url(#filter0_f_142_577)">
<path d="M12.6035 9.51558L14.3747 4.57422C16.3863 4.93376 18.5921 7.75286 17.0454 10.9442C16.5781 11.9089 15.4399 12.1304 14.51 11.697L12.8695 10.9334L12.6035 9.51558Z" fill="url(#paint4_radial_142_577)"/>
</g>
<g filter="url(#filter1_f_142_577)">
<path d="M9.39135 8.17418L8.52091 11.8804L3.30957 5.04455C7.24316 3.29455 9.41213 6.75636 9.39195 8.17418" fill="url(#paint5_radial_142_577)" fill-opacity="0.6"/>
</g>
<g filter="url(#filter2_f_142_577)">
<path d="M9.50195 6.96055V11.2757C10.5968 12.5357 12.4398 12.7604 13.6582 11.0371C15.4026 8.57118 15.3836 5.80745 12.8976 5.15073C11.2197 4.70782 9.91698 6.29109 9.50195 6.96055Z" fill="#FF8CF4" fill-opacity="0.6"/>
</g>
<g filter="url(#filter3_f_142_577)">
<path d="M2.55721 8.15379C2.93899 6.44707 4.83958 6.40379 5.19227 6.88107L8.16696 15.6909C3.04527 13.5031 2.1309 10.0629 2.55721 8.15379Z" fill="#E65C9C" fill-opacity="0.6"/>
</g>
<path d="M9.11942 18.113C9.32011 18.2384 9.56533 18.2339 9.76661 18.1105C11.5479 17.0191 14.4335 14.7008 15.6768 11.5776C17.293 7.5163 13.376 4.31475 10.5035 6.53375C10.2185 6.75393 9.90079 7.08866 9.66448 7.38012C9.63298 7.41743 9.5949 7.4477 9.55244 7.46919C9.50998 7.49068 9.46398 7.50295 9.41708 7.50532C9.37018 7.50769 9.3233 7.50009 9.27915 7.48297C9.23499 7.46585 9.19443 7.43955 9.1598 7.40557C8.80155 7.04454 8.42109 6.70969 8.02098 6.4033C5.59255 4.61448 1.44758 6.91684 3.17361 11.5108C3.86355 13.7151 7.27701 16.9606 9.11942 18.113Z" fill="url(#paint6_radial_142_577)"/>
<path d="M9.11942 18.113C9.32011 18.2384 9.56533 18.2339 9.76661 18.1105C11.5479 17.0191 14.4335 14.7008 15.6768 11.5776C17.293 7.5163 13.376 4.31475 10.5035 6.53375C10.2185 6.75393 9.90079 7.08866 9.66448 7.38012C9.63298 7.41743 9.5949 7.4477 9.55244 7.46919C9.50998 7.49068 9.46398 7.50295 9.41708 7.50532C9.37018 7.50769 9.3233 7.50009 9.27915 7.48297C9.23499 7.46585 9.19443 7.43955 9.1598 7.40557C8.80155 7.04454 8.42109 6.70969 8.02098 6.4033C5.59255 4.61448 1.44758 6.91684 3.17361 11.5108C3.86355 13.7151 7.27701 16.9606 9.11942 18.113Z" fill="url(#paint7_radial_142_577)"/>
<path d="M9.11942 18.113C9.32011 18.2384 9.56533 18.2339 9.76661 18.1105C11.5479 17.0191 14.4335 14.7008 15.6768 11.5776C17.293 7.5163 13.376 4.31475 10.5035 6.53375C10.2185 6.75393 9.90079 7.08866 9.66448 7.38012C9.63298 7.41743 9.5949 7.4477 9.55244 7.46919C9.50998 7.49068 9.46398 7.50295 9.41708 7.50532C9.37018 7.50769 9.3233 7.50009 9.27915 7.48297C9.23499 7.46585 9.19443 7.43955 9.1598 7.40557C8.80155 7.04454 8.42109 6.70969 8.02098 6.4033C5.59255 4.61448 1.44758 6.91684 3.17361 11.5108C3.86355 13.7151 7.27701 16.9606 9.11942 18.113Z" fill="url(#paint8_radial_142_577)"/>
<path d="M9.11942 18.113C9.32011 18.2384 9.56533 18.2339 9.76661 18.1105C11.5479 17.0191 14.4335 14.7008 15.6768 11.5776C17.293 7.5163 13.376 4.31475 10.5035 6.53375C10.2185 6.75393 9.90079 7.08866 9.66448 7.38012C9.63298 7.41743 9.5949 7.4477 9.55244 7.46919C9.50998 7.49068 9.46398 7.50295 9.41708 7.50532C9.37018 7.50769 9.3233 7.50009 9.27915 7.48297C9.23499 7.46585 9.19443 7.43955 9.1598 7.40557C8.80155 7.04454 8.42109 6.70969 8.02098 6.4033C5.59255 4.61448 1.44758 6.91684 3.17361 11.5108C3.86355 13.7151 7.27701 16.9606 9.11942 18.113Z" fill="url(#paint9_radial_142_577)"/>
<path d="M9.11942 18.113C9.32011 18.2384 9.56533 18.2339 9.76661 18.1105C11.5479 17.0191 14.4335 14.7008 15.6768 11.5776C17.293 7.5163 13.376 4.31475 10.5035 6.53375C10.2185 6.75393 9.90079 7.08866 9.66448 7.38012C9.63298 7.41743 9.5949 7.4477 9.55244 7.46919C9.50998 7.49068 9.46398 7.50295 9.41708 7.50532C9.37018 7.50769 9.3233 7.50009 9.27915 7.48297C9.23499 7.46585 9.19443 7.43955 9.1598 7.40557C8.80155 7.04454 8.42109 6.70969 8.02098 6.4033C5.59255 4.61448 1.44758 6.91684 3.17361 11.5108C3.86355 13.7151 7.27701 16.9606 9.11942 18.113Z" fill="url(#paint10_radial_142_577)"/>
<path d="M9.1123 7.35783C9.52496 7.81601 10.2422 7.74601 10.6816 7.3171C11.2931 6.71892 12.1838 6.1131 13.2941 5.90056C12.3951 5.67783 11.3988 5.84265 10.5035 6.53374C10.2185 6.75392 9.9008 7.08865 9.66449 7.3801C9.63299 7.41742 9.59491 7.44769 9.55245 7.46918C9.50999 7.49066 9.46399 7.50294 9.41709 7.50531C9.37019 7.50767 9.32331 7.50008 9.27916 7.48296C9.235 7.46584 9.19444 7.43954 9.1598 7.40556L9.1123 7.35783Z" fill="url(#paint11_radial_142_577)"/>
<g filter="url(#filter4_f_142_577)">
<path d="M11.9961 10.0653L13.905 7.17871C14.6276 7.44662 15.5313 8.57298 15.1893 10.2294C14.9488 11.3946 13.6455 11.7217 12.6237 11.2463L12.1784 11.0389L11.9961 10.0653Z" fill="url(#paint12_radial_142_577)"/>
</g>
<g filter="url(#filter5_f_142_577)">
<path d="M9.37598 9.1617L9.3938 12.8653L5.70898 7.66752C7.36852 5.92134 9.39261 8.03598 9.37598 9.1617Z" fill="url(#paint13_radial_142_577)" fill-opacity="0.6"/>
</g>
<g filter="url(#filter6_f_142_577)">
<path d="M4.82651 10.3219C5.20829 8.61454 7.10889 8.5719 7.46157 9.04918L9.50229 15.6712C6.55195 14.1993 4.3996 12.231 4.82651 10.3219Z" fill="#C82873" fill-opacity="0.6"/>
</g>
<g filter="url(#filter7_f_142_577)">
<path d="M12.9182 9.48685C11.4327 7.39576 9.6538 8.64304 9.40918 9.10313V14.9469C11.4529 13.5271 13.9745 10.9734 12.9182 9.48685Z" fill="#FA3CC0"/>
</g>
<path d="M9.14266 16.2055C9.27685 16.2907 9.4431 16.2882 9.57906 16.2036C10.7078 15.5067 12.5971 14.0635 13.3803 12.0888C14.5084 9.56183 11.9351 7.48347 10.1318 8.89938C9.91119 9.0695 9.70243 9.25666 9.50722 9.45938C9.43894 9.53447 9.319 9.53892 9.25191 9.46256C9.05003 9.23156 8.73119 8.90383 8.51625 8.74347C7.00278 7.61902 4.22166 8.91211 5.37413 11.9832C5.79747 13.3717 7.98069 15.4654 9.14266 16.2055Z" fill="url(#paint14_radial_142_577)"/>
<path d="M9.14266 16.2055C9.27685 16.2907 9.4431 16.2882 9.57906 16.2036C10.7078 15.5067 12.5971 14.0635 13.3803 12.0888C14.5084 9.56183 11.9351 7.48347 10.1318 8.89938C9.91119 9.0695 9.70243 9.25666 9.50722 9.45938C9.43894 9.53447 9.319 9.53892 9.25191 9.46256C9.05003 9.23156 8.73119 8.90383 8.51625 8.74347C7.00278 7.61902 4.22166 8.91211 5.37413 11.9832C5.79747 13.3717 7.98069 15.4654 9.14266 16.2055Z" fill="url(#paint15_radial_142_577)"/>
<path d="M9.14266 16.2055C9.27685 16.2907 9.4431 16.2882 9.57906 16.2036C10.7078 15.5067 12.5971 14.0635 13.3803 12.0888C14.5084 9.56183 11.9351 7.48347 10.1318 8.89938C9.91119 9.0695 9.70243 9.25666 9.50722 9.45938C9.43894 9.53447 9.319 9.53892 9.25191 9.46256C9.05003 9.23156 8.73119 8.90383 8.51625 8.74347C7.00278 7.61902 4.22166 8.91211 5.37413 11.9832C5.79747 13.3717 7.98069 15.4654 9.14266 16.2055Z" fill="url(#paint16_radial_142_577)"/>
<path d="M9.14266 16.2055C9.27685 16.2907 9.4431 16.2882 9.57906 16.2036C10.7078 15.5067 12.5971 14.0635 13.3803 12.0888C14.5084 9.56183 11.9351 7.48347 10.1318 8.89938C9.91119 9.0695 9.70243 9.25666 9.50722 9.45938C9.43894 9.53447 9.319 9.53892 9.25191 9.46256C9.05003 9.23156 8.73119 8.90383 8.51625 8.74347C7.00278 7.61902 4.22166 8.91211 5.37413 11.9832C5.79747 13.3717 7.98069 15.4654 9.14266 16.2055Z" fill="url(#paint17_radial_142_577)"/>
<path d="M9.14266 16.2055C9.27685 16.2907 9.4431 16.2882 9.57906 16.2036C10.7078 15.5067 12.5971 14.0635 13.3803 12.0888C14.5084 9.56183 11.9351 7.48347 10.1318 8.89938C9.91119 9.0695 9.70243 9.25666 9.50722 9.45938C9.43894 9.53447 9.319 9.53892 9.25191 9.46256C9.05003 9.23156 8.73119 8.90383 8.51625 8.74347C7.00278 7.61902 4.22166 8.91211 5.37413 11.9832C5.79747 13.3717 7.98069 15.4654 9.14266 16.2055Z" fill="url(#paint18_radial_142_577)"/>
<path d="M11.651 8.45431C11.1 8.64076 10.6208 9.03658 10.2687 9.42476C10.011 9.70922 9.57404 9.76013 9.30566 9.50304C9.33951 9.51821 9.3768 9.52219 9.41277 9.51448C9.44874 9.50677 9.48174 9.48772 9.50754 9.45976C9.70215 9.25634 9.91097 9.06913 10.1322 8.89976C10.5671 8.54954 11.1103 8.39024 11.651 8.45431Z" fill="url(#paint19_radial_142_577)"/>
<g filter="url(#filter8_f_142_577)">
<path d="M11.9116 9.25759C11.702 9.16446 11.5764 8.97575 11.6311 8.83608C11.6858 8.69641 11.9001 8.65867 12.1097 8.75179C12.3193 8.84492 12.4449 9.03364 12.3902 9.17331C12.3355 9.31298 12.1212 9.35071 11.9116 9.25759Z" fill="url(#paint20_linear_142_577)"/>
</g>
<g filter="url(#filter9_f_142_577)">
<path d="M10.9814 11.107L12.8613 9.61914C13.17 10.0442 13.2828 10.4305 13.1712 11.107L11.0931 11.7236L10.9814 11.107Z" fill="url(#paint21_linear_142_577)"/>
</g>
<g filter="url(#filter10_f_142_577)">
<path d="M9.06965 10.6335L9.20977 13.0968L7.11621 9.92264C8.15943 8.81028 9.08271 9.92009 9.06965 10.6335Z" fill="url(#paint22_linear_142_577)"/>
</g>
<g filter="url(#filter11_f_142_577)">
<path d="M12.7685 11.7026C12.5232 12.2525 11.6296 13.6868 10.0146 15.0289" stroke="url(#paint23_linear_142_577)" stroke-width="0.25" stroke-linecap="round"/>
</g>
</g>
<defs>
<filter id="filter0_f_142_577" x="10.6035" y="2.57422" width="8.96191" height="11.335" filterUnits="userSpaceOnUse" color-interpolation-filters="sRGB">
<feFlood flood-opacity="0" result="BackgroundImageFix"/>
<feBlend mode="normal" in="SourceGraphic" in2="BackgroundImageFix" result="shape"/>
<feGaussianBlur stdDeviation="1" result="effect1_foregroundBlur_142_577"/>
</filter>
<filter id="filter1_f_142_577" x="2.30957" y="3.56152" width="8.08203" height="9.31885" filterUnits="userSpaceOnUse" color-interpolation-filters="sRGB">
<feFlood flood-opacity="0" result="BackgroundImageFix"/>
<feBlend mode="normal" in="SourceGraphic" in2="BackgroundImageFix" result="shape"/>
<feGaussianBlur stdDeviation="0.5" result="effect1_foregroundBlur_142_577"/>
</filter>
<filter id="filter2_f_142_577" x="8.50195" y="4.07373" width="7.37598" height="9.20117" filterUnits="userSpaceOnUse" color-interpolation-filters="sRGB">
<feFlood flood-opacity="0" result="BackgroundImageFix"/>
<feBlend mode="normal" in="SourceGraphic" in2="BackgroundImageFix" result="shape"/>
<feGaussianBlur stdDeviation="0.5" result="effect1_foregroundBlur_142_577"/>
</filter>
<filter id="filter3_f_142_577" x="1.46484" y="5.61963" width="7.70215" height="11.0713" filterUnits="userSpaceOnUse" color-interpolation-filters="sRGB">
<feFlood flood-opacity="0" result="BackgroundImageFix"/>
<feBlend mode="normal" in="SourceGraphic" in2="BackgroundImageFix" result="shape"/>
<feGaussianBlur stdDeviation="0.5" result="effect1_foregroundBlur_142_577"/>
</filter>
<filter id="filter4_f_142_577" x="9.99609" y="5.17871" width="7.26758" height="8.27783" filterUnits="userSpaceOnUse" color-interpolation-filters="sRGB">
<feFlood flood-opacity="0" result="BackgroundImageFix"/>
<feBlend mode="normal" in="SourceGraphic" in2="BackgroundImageFix" result="shape"/>
<feGaussianBlur stdDeviation="1" result="effect1_foregroundBlur_142_577"/>
</filter>
<filter id="filter5_f_142_577" x="4.70898" y="6.00195" width="5.68457" height="7.86328" filterUnits="userSpaceOnUse" color-interpolation-filters="sRGB">
<feFlood flood-opacity="0" result="BackgroundImageFix"/>
<feBlend mode="normal" in="SourceGraphic" in2="BackgroundImageFix" result="shape"/>
<feGaussianBlur stdDeviation="0.5" result="effect1_foregroundBlur_142_577"/>
</filter>
<filter id="filter6_f_142_577" x="3.77246" y="7.7876" width="6.72949" height="8.88379" filterUnits="userSpaceOnUse" color-interpolation-filters="sRGB">
<feFlood flood-opacity="0" result="BackgroundImageFix"/>
<feBlend mode="normal" in="SourceGraphic" in2="BackgroundImageFix" result="shape"/>
<feGaussianBlur stdDeviation="0.5" result="effect1_foregroundBlur_142_577"/>
</filter>
<filter id="filter7_f_142_577" x="7.40918" y="6.31299" width="7.75781" height="10.6338" filterUnits="userSpaceOnUse" color-interpolation-filters="sRGB">
<feFlood flood-opacity="0" result="BackgroundImageFix"/>
<feBlend mode="normal" in="SourceGraphic" in2="BackgroundImageFix" result="shape"/>
<feGaussianBlur stdDeviation="1" result="effect1_foregroundBlur_142_577"/>
</filter>
<filter id="filter8_f_142_577" x="11.1182" y="8.20068" width="1.78516" height="1.60791" filterUnits="userSpaceOnUse" color-interpolation-filters="sRGB">
<feFlood flood-opacity="0" result="BackgroundImageFix"/>
<feBlend mode="normal" in="SourceGraphic" in2="BackgroundImageFix" result="shape"/>
<feGaussianBlur stdDeviation="0.25" result="effect1_foregroundBlur_142_577"/>
</filter>
<filter id="filter9_f_142_577" x="9.98145" y="8.61914" width="4.23145" height="4.10449" filterUnits="userSpaceOnUse" color-interpolation-filters="sRGB">
<feFlood flood-opacity="0" result="BackgroundImageFix"/>
<feBlend mode="normal" in="SourceGraphic" in2="BackgroundImageFix" result="shape"/>
<feGaussianBlur stdDeviation="0.5" result="effect1_foregroundBlur_142_577"/>
</filter>
<filter id="filter10_f_142_577" x="6.11621" y="8.45068" width="4.09375" height="5.646" filterUnits="userSpaceOnUse" color-interpolation-filters="sRGB">
<feFlood flood-opacity="0" result="BackgroundImageFix"/>
<feBlend mode="normal" in="SourceGraphic" in2="BackgroundImageFix" result="shape"/>
<feGaussianBlur stdDeviation="0.5" result="effect1_foregroundBlur_142_577"/>
</filter>
<filter id="filter11_f_142_577" x="9.38965" y="11.0776" width="4.00391" height="4.57617" filterUnits="userSpaceOnUse" color-interpolation-filters="sRGB">
<feFlood flood-opacity="0" result="BackgroundImageFix"/>
<feBlend mode="normal" in="SourceGraphic" in2="BackgroundImageFix" result="shape"/>
<feGaussianBlur stdDeviation="0.25" result="effect1_foregroundBlur_142_577"/>
</filter>
<radialGradient id="paint0_radial_142_577" cx="0" cy="0" r="1" gradientUnits="userSpaceOnUse" gradientTransform="translate(13.0272 21.1795) rotate(-114.604) scale(18.9851 45.1735)">
<stop offset="0.271" stop-color="#FFBBE4"/>
<stop offset="1" stop-color="#FF99FF"/>
</radialGradient>
<radialGradient id="paint1_radial_142_577" cx="0" cy="0" r="1" gradientUnits="userSpaceOnUse" gradientTransform="translate(12.8419 15.9689) rotate(-138.669) scale(16.8026 13.8168)">
<stop offset="0.759" stop-color="#CB90C8" stop-opacity="0"/>
<stop offset="0.897" stop-color="#CB90C8"/>
</radialGradient>
<radialGradient id="paint2_radial_142_577" cx="0" cy="0" r="1" gradientUnits="userSpaceOnUse" gradientTransform="translate(10.0591 6.86129) rotate(91.4621) scale(13.0895 14.0742)">
<stop offset="0.759" stop-color="#FFA5D9" stop-opacity="0"/>
<stop offset="0.897" stop-color="#FFA5D9"/>
</radialGradient>
<radialGradient id="paint3_radial_142_577" cx="0" cy="0" r="1" gradientUnits="userSpaceOnUse" gradientTransform="translate(11.4132 6.16508) rotate(-37.9941) scale(4.16735 1.46997)">
<stop offset="0.641" stop-color="#CB90C8" stop-opacity="0"/>
<stop offset="1" stop-color="#CB90C8"/>
</radialGradient>
<radialGradient id="paint4_radial_142_577" cx="0" cy="0" r="1" gradientUnits="userSpaceOnUse" gradientTransform="translate(17.5929 4.85833) rotate(124.539) scale(7.46581 3.67326)">
<stop stop-color="#FFD9F0"/>
<stop offset="1" stop-color="#FFD9F0" stop-opacity="0"/>
</radialGradient>
<radialGradient id="paint5_radial_142_577" cx="0" cy="0" r="1" gradientUnits="userSpaceOnUse" gradientTransform="translate(8.83789 4.26135) rotate(125.202) scale(6.31327 3.99316)">
<stop stop-color="#FFD9F0"/>
<stop offset="1" stop-color="#FFD9F0" stop-opacity="0"/>
</radialGradient>
<radialGradient id="paint6_radial_142_577" cx="0" cy="0" r="1" gradientUnits="userSpaceOnUse" gradientTransform="translate(9.81767 20.2468) rotate(-97.4524) scale(16.8882 39.2726)">
<stop offset="0.297" stop-color="#FF7EB4"/>
<stop offset="0.792" stop-color="#FF70D7"/>
<stop offset="1" stop-color="#FF71E8"/>
</radialGradient>
<radialGradient id="paint7_radial_142_577" cx="0" cy="0" r="1" gradientUnits="userSpaceOnUse" gradientTransform="translate(8.89132 8.06152) rotate(87.3256) scale(14.0878 11.2844)">
<stop offset="0.635" stop-color="#FFBFCE" stop-opacity="0"/>
<stop offset="0.834" stop-color="#FFBFCE"/>
</radialGradient>
<radialGradient id="paint8_radial_142_577" cx="0" cy="0" r="1" gradientUnits="userSpaceOnUse" gradientTransform="translate(7.52223 10.1757) rotate(45.1808) scale(9.48293 22.7597)">
<stop offset="0.767" stop-color="#FFA9BD" stop-opacity="0"/>
<stop offset="0.933" stop-color="#FFA9BD"/>
</radialGradient>
<radialGradient id="paint9_radial_142_577" cx="0" cy="0" r="1" gradientUnits="userSpaceOnUse" gradientTransform="translate(9.72267 12.5429) rotate(-20.8267) scale(10.3853 16.0413)">
<stop offset="0.649" stop-color="#FFA9BD" stop-opacity="0"/>
<stop offset="0.91" stop-color="#FFA9BD"/>
</radialGradient>
<radialGradient id="paint10_radial_142_577" cx="0" cy="0" r="1" gradientUnits="userSpaceOnUse" gradientTransform="translate(10.6169 13.1265) rotate(-142.533) scale(10.329 9.74144)">
<stop offset="0.786" stop-color="#D5246B" stop-opacity="0"/>
<stop offset="1" stop-color="#D5246B"/>
</radialGradient>
<radialGradient id="paint11_radial_142_577" cx="0" cy="0" r="1" gradientUnits="userSpaceOnUse" gradientTransform="translate(11.3947 8.25383) rotate(-45.7488) scale(3.77579 1.93716)">
<stop offset="0.786" stop-color="#D66DC4" stop-opacity="0"/>
<stop offset="1" stop-color="#DA68C7"/>
</radialGradient>
<radialGradient id="paint12_radial_142_577" cx="0" cy="0" r="1" gradientUnits="userSpaceOnUse" gradientTransform="translate(15.4226 6.86689) rotate(124.539) scale(5.12681 2.52245)">
<stop stop-color="#FFBEE5"/>
<stop offset="1" stop-color="#FFBEE5" stop-opacity="0"/>
</radialGradient>
<radialGradient id="paint13_radial_142_577" cx="0" cy="0" r="1" gradientUnits="userSpaceOnUse" gradientTransform="translate(9.64495 6.81352) rotate(125.202) scale(5.01488 3.17193)">
<stop stop-color="#FFBEE5"/>
<stop offset="1" stop-color="#FFBEE5" stop-opacity="0"/>
</radialGradient>
<radialGradient id="paint14_radial_142_577" cx="0" cy="0" r="1" gradientUnits="userSpaceOnUse" gradientTransform="translate(9.45972 18.8426) rotate(-88.8906) scale(11.4965 18.6316)">
<stop stop-color="#F12E52"/>
<stop offset="0.596" stop-color="#FF3B79"/>
<stop offset="1" stop-color="#FF4EC6"/>
</radialGradient>
<radialGradient id="paint15_radial_142_577" cx="0" cy="0" r="1" gradientUnits="userSpaceOnUse" gradientTransform="translate(8.6065 10.8085) rotate(82.7616) scale(7.65762 7.07807)">
<stop offset="0.635" stop-color="#FFA9BD" stop-opacity="0"/>
<stop offset="0.834" stop-color="#FFA9BD"/>
</radialGradient>
<radialGradient id="paint16_radial_142_577" cx="0" cy="0" r="1" gradientUnits="userSpaceOnUse" gradientTransform="translate(8.18375 11.1922) rotate(45.5386) scale(5.94019 14.3985)">
<stop offset="0.767" stop-color="#FFA9BD" stop-opacity="0"/>
<stop offset="0.933" stop-color="#FFA9BD"/>
</radialGradient>
<radialGradient id="paint17_radial_142_577" cx="0" cy="0" r="1" gradientUnits="userSpaceOnUse" gradientTransform="translate(9.55235 12.6845) rotate(-21.311) scale(6.52804 10.113)">
<stop offset="0.649" stop-color="#FFA9BD" stop-opacity="0"/>
<stop offset="0.91" stop-color="#FFA9BD"/>
</radialGradient>
<radialGradient id="paint18_radial_142_577" cx="0" cy="0" r="1" gradientUnits="userSpaceOnUse" gradientTransform="translate(11.0557 13.1948) rotate(-146.048) scale(6.97896 6.11834)">
<stop offset="0.786" stop-color="#D5246B" stop-opacity="0"/>
<stop offset="1" stop-color="#D5246B"/>
</radialGradient>
<radialGradient id="paint19_radial_142_577" cx="0" cy="0" r="1" gradientUnits="userSpaceOnUse" gradientTransform="translate(10.5692 9.49604) rotate(53.057) scale(0.833544 2.33823)">
<stop offset="0.62" stop-color="#D5246B" stop-opacity="0"/>
<stop offset="1" stop-color="#D5246B"/>
</radialGradient>
<linearGradient id="paint20_linear_142_577" x1="11.5218" y1="8.67454" x2="11.9875" y2="8.91576" gradientUnits="userSpaceOnUse">
<stop stop-color="#FF7DCB"/>
<stop offset="1" stop-color="#FF7DCB" stop-opacity="0"/>
</linearGradient>
<linearGradient id="paint21_linear_142_577" x1="13.3648" y1="9.93096" x2="10.5236" y2="9.89218" gradientUnits="userSpaceOnUse">
<stop stop-color="#FFA2DA"/>
<stop offset="1" stop-color="#FFA1DA" stop-opacity="0"/>
</linearGradient>
<linearGradient id="paint22_linear_142_577" x1="9.34812" y1="11.7095" x2="7.58463" y2="9.33009" gradientUnits="userSpaceOnUse">
<stop stop-color="#FF7DCB" stop-opacity="0.6"/>
<stop offset="1" stop-color="#FF7DCB" stop-opacity="0"/>
</linearGradient>
<linearGradient id="paint23_linear_142_577" x1="10.5924" y1="13.7581" x2="13.0418" y2="13.187" gradientUnits="userSpaceOnUse">
<stop stop-color="#DD2345" stop-opacity="0"/>
<stop offset="0.545" stop-color="#E72044"/>
<stop offset="1" stop-color="#D12847"/>
</linearGradient>
<clipPath id="clip0_142_577">
<rect width="19" height="21" fill="white"/>
</clipPath>
</defs>
</svg>
