<svg width="21" height="21" viewBox="0 0 21 21" fill="none" xmlns="http://www.w3.org/2000/svg">
<path d="M5.83429 6.68208C5.74078 7.67958 5.67515 9.44489 6.26413 10.1963C6.26413 10.1963 5.98687 8.25708 8.47242 5.82403C9.4732 4.84458 9.70453 3.51239 9.35507 2.51325C9.15656 1.94724 8.79398 1.47966 8.47898 1.15318C8.29523 0.961222 8.43632 0.644581 8.70374 0.656066C10.3214 0.728253 12.9431 1.17778 14.0571 3.97341C14.546 5.2006 14.5821 6.4688 14.3491 7.75833C14.2015 8.58193 13.6765 10.4129 14.8741 10.6376C15.7289 10.7984 16.1423 10.1192 16.3277 9.63028C16.4048 9.42685 16.6723 9.37599 16.8166 9.53841C18.2604 11.1807 18.3834 13.115 18.0848 14.7802C17.5073 17.9991 14.2474 20.3419 11.0088 20.3419C6.96304 20.3419 3.74249 18.027 2.90742 13.8368C2.57109 12.1454 2.74171 8.79849 5.35031 6.43599C5.5439 6.2588 5.86054 6.4163 5.83429 6.68208Z" fill="url(#paint0_radial_142_688)"/>
<path d="M12.4864 12.7015C10.9951 10.782 11.6628 8.59177 12.0287 7.71895C12.0779 7.60411 11.9467 7.49583 11.8433 7.56637C11.2018 8.00278 9.88767 9.02981 9.27572 10.4752C8.4472 12.4292 8.50626 13.3857 8.99681 14.5538C9.29212 15.2576 8.94923 15.4069 8.77697 15.4332C8.60962 15.4594 8.45541 15.3479 8.33236 15.2314C7.97844 14.8915 7.7262 14.4597 7.60392 13.9845C7.57767 13.8828 7.44478 13.8549 7.38408 13.9386C6.9247 14.5735 6.68681 15.5923 6.67533 16.3125C6.63923 18.5389 8.47837 20.3436 10.7031 20.3436C13.5069 20.3436 15.5495 17.2428 13.9384 14.6506C13.4708 13.8959 13.0311 13.4021 12.4864 12.7015Z" fill="url(#paint1_radial_142_688)"/>
<defs>
<radialGradient id="paint0_radial_142_688" cx="0" cy="0" r="1" gradientUnits="userSpaceOnUse" gradientTransform="translate(10.2075 20.3929) rotate(-179.751) scale(11.5808 19.0018)">
<stop offset="0.314" stop-color="#FF9800"/>
<stop offset="0.662" stop-color="#FF6D00"/>
<stop offset="0.972" stop-color="#F44336"/>
</radialGradient>
<radialGradient id="paint1_radial_142_688" cx="0" cy="0" r="1" gradientUnits="userSpaceOnUse" gradientTransform="translate(10.8573 8.86877) rotate(90.5787) scale(12.1171 9.119)">
<stop offset="0.214" stop-color="#FFF176"/>
<stop offset="0.328" stop-color="#FFF27D"/>
<stop offset="0.487" stop-color="#FFF48F"/>
<stop offset="0.672" stop-color="#FFF7AD"/>
<stop offset="0.793" stop-color="#FFF9C4"/>
<stop offset="0.822" stop-color="#FFF8BD" stop-opacity="0.804"/>
<stop offset="0.863" stop-color="#FFF6AB" stop-opacity="0.529"/>
<stop offset="0.91" stop-color="#FFF38D" stop-opacity="0.209"/>
<stop offset="0.941" stop-color="#FFF176" stop-opacity="0"/>
</radialGradient>
</defs>
</svg>
