<svg width="17" height="21" viewBox="0 0 17 21" fill="none" xmlns="http://www.w3.org/2000/svg">
<path d="M2.72135 8.10425V12.297C2.72135 12.3803 2.70542 12.4627 2.67401 12.5389L1.45556 15.5313H15.0488L13.8295 12.5389C13.7985 12.4627 13.7825 12.3803 13.7826 12.297V8.10425C13.7826 4.79608 11.3067 2.11466 8.25217 2.11466C5.19763 2.11466 2.72135 4.79608 2.72135 8.10425ZM5.59715 16.7292H1.28522C1.11963 16.7292 0.956661 16.6844 0.811083 16.5989C0.665505 16.5135 0.541914 16.39 0.451504 16.2398C0.361094 16.0895 0.306721 15.9172 0.293309 15.7384C0.279898 15.5597 0.307873 15.3801 0.374699 15.216L1.61527 12.1709V8.10425C1.61527 4.13483 4.58664 0.916748 8.25173 0.916748C11.9168 0.916748 14.8882 4.13483 14.8882 8.10425V12.1709L16.1288 15.216C16.1956 15.3801 16.2236 15.5597 16.2102 15.7384C16.1967 15.9172 16.1424 16.0895 16.052 16.2398C15.9615 16.39 15.838 16.5135 15.6924 16.5989C15.5468 16.6844 15.3838 16.7292 15.2182 16.7292H10.9063V17.2084C10.9063 17.9709 10.6266 18.7022 10.1288 19.2413C9.63097 19.7805 8.95577 20.0834 8.25173 20.0834C7.54769 20.0834 6.87249 19.7805 6.37466 19.2413C5.87683 18.7022 5.59715 17.9709 5.59715 17.2084V16.7292ZM9.80024 16.7292H6.70323V17.2084C6.70323 17.6532 6.86637 18.0798 7.15677 18.3943C7.44717 18.7088 7.84104 18.8855 8.25173 18.8855C8.66242 18.8855 9.05629 18.7088 9.34669 18.3943C9.63709 18.0798 9.80024 17.6532 9.80024 17.2084V16.7292Z" fill="black"/>
</svg>
