<svg width="16" height="16" viewBox="0 0 16 16" fill="none" xmlns="http://www.w3.org/2000/svg">
<g filter="url(#filter0_i_142_1253)">
<path d="M6.07611 3.7098C6.08213 3.47239 6.16373 3.24332 6.30876 3.05669C6.45379 2.87006 6.65449 2.73588 6.88095 2.67413C7.10741 2.61238 7.34751 2.62637 7.56548 2.71402C7.78345 2.80166 7.96762 2.95827 8.09055 3.16051L10.1378 6.52044C10.2196 6.65518 10.2741 6.80511 10.298 6.96145C10.322 7.11778 10.3148 7.27738 10.2771 7.43089C10.2393 7.58439 10.1716 7.72872 10.0781 7.85542C9.98451 7.98212 9.86692 8.08864 9.73219 8.16873C9.59746 8.24883 9.4483 8.30089 9.29345 8.32187C9.1386 8.34285 8.98117 8.33233 8.83038 8.29091C8.6796 8.2495 8.53849 8.17804 8.41533 8.0807C8.29216 7.98337 8.18943 7.86212 8.11313 7.72407L7.97335 7.47039C7.9376 7.64061 7.8666 7.80122 7.76503 7.9416C7.66346 8.08199 7.53363 8.19896 7.38412 8.28478C7.14372 8.42398 6.86356 8.47584 6.59007 8.43177L6.6062 8.46062C6.78415 8.77255 6.80296 9.13347 6.68792 9.44649L10.3152 14.7025C9.89531 14.9578 8.77385 15.4429 7.19435 15.0259C5.73742 14.5495 5.01433 13.7074 4.51058 12.8396L1.87521 8.28533C1.77089 8.10446 1.71717 7.89824 1.71982 7.6888C1.72247 7.47936 1.78139 7.2746 1.89025 7.0965C1.99911 6.91839 2.1538 6.77366 2.33774 6.67784C2.52167 6.58201 2.7279 6.5387 2.9343 6.55256L2.73001 6.18075C2.62702 5.99385 2.57859 5.78117 2.59035 5.56747C2.60211 5.35378 2.67358 5.14787 2.79645 4.97372C2.91931 4.79957 3.08851 4.66434 3.28433 4.58379C3.48015 4.50324 3.69455 4.48069 3.90254 4.51875L3.86115 4.44362C3.71146 4.18148 3.67021 3.87004 3.7464 3.57723C3.82259 3.28442 4.01003 3.03399 4.26785 2.88057C4.52567 2.72715 4.83294 2.68319 5.12264 2.75827C5.41234 2.83335 5.66097 3.02139 5.81429 3.28137L6.07611 3.7098Z" fill="url(#paint0_radial_142_1253)"/>
<path d="M6.07611 3.7098C6.08213 3.47239 6.16373 3.24332 6.30876 3.05669C6.45379 2.87006 6.65449 2.73588 6.88095 2.67413C7.10741 2.61238 7.34751 2.62637 7.56548 2.71402C7.78345 2.80166 7.96762 2.95827 8.09055 3.16051L10.1378 6.52044C10.2196 6.65518 10.2741 6.80511 10.298 6.96145C10.322 7.11778 10.3148 7.27738 10.2771 7.43089C10.2393 7.58439 10.1716 7.72872 10.0781 7.85542C9.98451 7.98212 9.86692 8.08864 9.73219 8.16873C9.59746 8.24883 9.4483 8.30089 9.29345 8.32187C9.1386 8.34285 8.98117 8.33233 8.83038 8.29091C8.6796 8.2495 8.53849 8.17804 8.41533 8.0807C8.29216 7.98337 8.18943 7.86212 8.11313 7.72407L7.97335 7.47039C7.9376 7.64061 7.8666 7.80122 7.76503 7.9416C7.66346 8.08199 7.53363 8.19896 7.38412 8.28478C7.14372 8.42398 6.86356 8.47584 6.59007 8.43177L6.6062 8.46062C6.78415 8.77255 6.80296 9.13347 6.68792 9.44649L10.3152 14.7025C9.89531 14.9578 8.77385 15.4429 7.19435 15.0259C5.73742 14.5495 5.01433 13.7074 4.51058 12.8396L1.87521 8.28533C1.77089 8.10446 1.71717 7.89824 1.71982 7.6888C1.72247 7.47936 1.78139 7.2746 1.89025 7.0965C1.99911 6.91839 2.1538 6.77366 2.33774 6.67784C2.52167 6.58201 2.7279 6.5387 2.9343 6.55256L2.73001 6.18075C2.62702 5.99385 2.57859 5.78117 2.59035 5.56747C2.60211 5.35378 2.67358 5.14787 2.79645 4.97372C2.91931 4.79957 3.08851 4.66434 3.28433 4.58379C3.48015 4.50324 3.69455 4.48069 3.90254 4.51875L3.86115 4.44362C3.71146 4.18148 3.67021 3.87004 3.7464 3.57723C3.82259 3.28442 4.01003 3.03399 4.26785 2.88057C4.52567 2.72715 4.83294 2.68319 5.12264 2.75827C5.41234 2.83335 5.66097 3.02139 5.81429 3.28137L6.07611 3.7098Z" fill="url(#paint1_radial_142_1253)"/>
</g>
<path d="M3.14562 4.65265C2.89196 4.80097 2.70608 5.04435 2.62813 5.33026C2.55017 5.61616 2.58639 5.92164 2.72897 6.18073L2.93327 6.55255C3.29938 6.57759 3.64722 6.78119 3.84398 7.12687L5.5966 10.2005C5.79916 10.2036 5.99893 10.1524 6.17553 10.0518C6.35212 9.95131 6.49922 9.80515 6.60181 9.62827C6.7044 9.45138 6.75882 9.2501 6.7595 9.04497C6.76018 8.83984 6.70711 8.63819 6.6057 8.46061L4.67029 5.06584C4.59707 4.93724 4.49953 4.82452 4.38325 4.73412C4.26698 4.64372 4.13424 4.57741 3.99264 4.53899C3.85104 4.50056 3.70335 4.49078 3.55802 4.51019C3.41268 4.5296 3.27254 4.57837 3.14562 4.65265Z" fill="url(#paint2_radial_142_1253)"/>
<path d="M3.14562 4.65265C2.89196 4.80097 2.70608 5.04435 2.62813 5.33026C2.55017 5.61616 2.58639 5.92164 2.72897 6.18073L2.93327 6.55255C3.29938 6.57759 3.64722 6.78119 3.84398 7.12687L5.5966 10.2005C5.79916 10.2036 5.99893 10.1524 6.17553 10.0518C6.35212 9.95131 6.49922 9.80515 6.60181 9.62827C6.7044 9.45138 6.75882 9.2501 6.7595 9.04497C6.76018 8.83984 6.70711 8.63819 6.6057 8.46061L4.67029 5.06584C4.59707 4.93724 4.49953 4.82452 4.38325 4.73412C4.26698 4.64372 4.13424 4.57741 3.99264 4.53899C3.85104 4.50056 3.70335 4.49078 3.55802 4.51019C3.41268 4.5296 3.27254 4.57837 3.14562 4.65265Z" fill="url(#paint3_radial_142_1253)"/>
<path d="M4.28309 2.892C4.02555 3.04259 3.83682 3.2897 3.75766 3.57998C3.6785 3.87025 3.71526 4.18041 3.85998 4.44349L3.90138 4.5197C4.06113 4.54854 4.21271 4.6124 4.34552 4.70682C4.47832 4.80123 4.58912 4.92391 4.67017 5.06626L6.58891 8.43217C6.81959 8.46896 7.05586 8.43796 7.26966 8.34284C7.48346 8.24772 7.66583 8.09249 7.7951 7.89556C7.92438 7.69863 7.99514 7.46828 7.99899 7.23184C8.00284 6.9954 7.93961 6.76281 7.81681 6.56168L5.81313 3.28232C5.65828 3.02858 5.4119 2.84591 5.12626 2.77304C4.84062 2.70017 4.53818 2.74284 4.28309 2.892Z" fill="url(#paint4_radial_142_1253)"/>
<path d="M4.28309 2.892C4.02555 3.04259 3.83682 3.2897 3.75766 3.57998C3.6785 3.87025 3.71526 4.18041 3.85998 4.44349L3.90138 4.5197C4.06113 4.54854 4.21271 4.6124 4.34552 4.70682C4.47832 4.80123 4.58912 4.92391 4.67017 5.06626L6.58891 8.43217C6.81959 8.46896 7.05586 8.43796 7.26966 8.34284C7.48346 8.24772 7.66583 8.09249 7.7951 7.89556C7.92438 7.69863 7.99514 7.46828 7.99899 7.23184C8.00284 6.9954 7.93961 6.76281 7.81681 6.56168L5.81313 3.28232C5.65828 3.02858 5.4119 2.84591 5.12626 2.77304C4.84062 2.70017 4.53818 2.74284 4.28309 2.892Z" fill="url(#paint5_radial_142_1253)"/>
<path d="M6.0752 3.70994L7.81706 6.56141C7.98335 6.83257 8.03907 7.15856 7.97243 7.47053L8.11221 7.72421C8.18804 7.8631 8.29056 7.98522 8.41373 8.08335C8.5369 8.18149 8.67822 8.25366 8.82937 8.29562C8.98053 8.33758 9.13844 8.34846 9.29382 8.32765C9.44919 8.30683 9.59887 8.25472 9.73405 8.1744C9.86922 8.09408 9.98714 7.98717 10.0809 7.85997C10.1746 7.73277 10.2422 7.58786 10.2798 7.43378C10.3173 7.2797 10.324 7.11956 10.2994 6.96282C10.2749 6.80608 10.2196 6.6559 10.1369 6.52113L8.08963 3.16066C7.96644 2.95876 7.7822 2.80251 7.56428 2.71513C7.34637 2.62775 7.10643 2.61392 6.88013 2.67568C6.65383 2.73745 6.45326 2.87152 6.30824 3.05796C6.16322 3.24439 6.08149 3.4727 6.0752 3.70994Z" fill="url(#paint6_radial_142_1253)"/>
<path d="M6.0752 3.70994L7.81706 6.56141C7.98335 6.83257 8.03907 7.15856 7.97243 7.47053L8.11221 7.72421C8.18804 7.8631 8.29056 7.98522 8.41373 8.08335C8.5369 8.18149 8.67822 8.25366 8.82937 8.29562C8.98053 8.33758 9.13844 8.34846 9.29382 8.32765C9.44919 8.30683 9.59887 8.25472 9.73405 8.1744C9.86922 8.09408 9.98714 7.98717 10.0809 7.85997C10.1746 7.73277 10.2422 7.58786 10.2798 7.43378C10.3173 7.2797 10.324 7.11956 10.2994 6.96282C10.2749 6.80608 10.2196 6.6559 10.1369 6.52113L8.08963 3.16066C7.96644 2.95876 7.7822 2.80251 7.56428 2.71513C7.34637 2.62775 7.10643 2.61392 6.88013 2.67568C6.65383 2.73745 6.45326 2.87152 6.30824 3.05796C6.16322 3.24439 6.08149 3.4727 6.0752 3.70994Z" fill="url(#paint7_radial_142_1253)"/>
<path d="M3.82874 7.09356C3.49972 6.553 2.80024 6.38488 2.2664 6.71804C1.73256 7.05121 1.56653 7.7595 1.89555 8.30005L4.81533 13.097C5.14435 13.6376 5.84384 13.8057 6.37767 13.4725C6.91151 13.1394 7.07754 12.4311 6.74852 11.8905L3.82874 7.09356Z" fill="url(#paint8_radial_142_1253)"/>
<g filter="url(#filter1_f_142_1253)">
<path d="M3.3457 7.14453L4.67361 9.45543" stroke="url(#paint9_linear_142_1253)" stroke-width="0.5" stroke-linecap="round"/>
</g>
<g filter="url(#filter2_f_142_1253)">
<path d="M4.16797 5.22607L5.34749 7.23757" stroke="url(#paint10_linear_142_1253)" stroke-width="0.5" stroke-linecap="round"/>
</g>
<g filter="url(#filter3_f_142_1253)">
<path d="M5.20605 3.44385L6.82803 6.15541" stroke="url(#paint11_linear_142_1253)" stroke-width="0.5" stroke-linecap="round"/>
</g>
<g filter="url(#filter4_ii_142_1253)">
<path d="M3.22381 1.5334L2.56792 0.634623C2.54423 0.602213 2.52848 0.564574 2.52195 0.524798C2.51543 0.485023 2.51832 0.444248 2.53039 0.405825C2.54247 0.367402 2.56337 0.332429 2.59139 0.303781C2.61941 0.275133 2.65374 0.253628 2.69157 0.241034L3.42272 0.0107606C3.58401 -0.0398669 3.74529 0.0951399 3.73454 0.269342L3.65927 1.39893C3.63777 1.62921 3.35821 1.71903 3.22381 1.5334Z" fill="#187EC9"/>
</g>
<g filter="url(#filter5_ii_142_1253)">
<path d="M1.95507 2.41714L0.955109 1.99252C0.918919 1.97763 0.886904 1.95394 0.861886 1.92356C0.836868 1.89318 0.819614 1.85703 0.811647 1.8183C0.803679 1.77958 0.805242 1.73946 0.816197 1.70149C0.827152 1.66352 0.847163 1.62886 0.874467 1.60057L1.39595 1.03986C1.42276 1.01121 1.456 0.989546 1.49285 0.976707C1.5297 0.963868 1.56907 0.960234 1.60761 0.966114C1.64615 0.971994 1.68271 0.987214 1.71419 1.01048C1.74567 1.03374 1.77113 1.06437 1.78841 1.09974L2.26688 2.08507C2.35828 2.28649 2.15936 2.50424 1.95507 2.41714Z" fill="#1A78C3"/>
</g>
<g filter="url(#filter6_ii_142_1253)">
<path d="M1.39371 3.93819L0.279772 4.08517C0.239723 4.09024 0.199058 4.08537 0.161282 4.07098C0.123506 4.05659 0.0897513 4.03312 0.0629276 4.00258C0.0361039 3.97204 0.0170155 3.93536 0.0073077 3.89569C-0.00240013 3.85602 -0.00243629 3.81456 0.00720234 3.77487L0.190528 2.99477C0.200419 2.95514 0.219504 2.91847 0.246199 2.88781C0.272894 2.85715 0.306429 2.83338 0.344017 2.81847C0.381606 2.80357 0.422164 2.79796 0.462323 2.80211C0.502482 2.80626 0.541084 2.82006 0.574921 2.84235L1.50499 3.47492C1.69423 3.61101 1.62165 3.91042 1.39371 3.93819Z" fill="#1C75C1"/>
</g>
<g filter="url(#filter7_ii_142_1253)">
<path d="M9.65993 14.8067C10.1012 15.0207 10.5801 15.1437 11.0688 15.1686C11.5574 15.1934 12.0461 15.1196 12.5063 14.9514C12.9666 14.7832 13.3892 14.524 13.7495 14.1889C14.1099 13.8537 14.4008 13.4494 14.6054 12.9993L14.6151 13.0015C15.1285 11.9345 15.0334 11.0379 14.9549 10.2948C14.9355 10.113 14.9172 9.94099 14.9092 9.77767C14.8839 9.28392 14.8882 8.44612 14.8984 7.81518L14.9 7.78251L14.9839 6.01599C14.9947 5.85823 14.9742 5.69987 14.9238 5.55021C14.8733 5.40055 14.7939 5.26259 14.6901 5.14441C14.5863 5.02624 14.4603 4.93023 14.3194 4.86201C14.1785 4.79379 14.0255 4.75473 13.8695 4.74712C13.7136 4.73951 13.5576 4.76351 13.4109 4.8177C13.2642 4.87189 13.1296 4.9552 13.0151 5.06272C12.9006 5.17025 12.8084 5.29984 12.744 5.4439C12.6796 5.58796 12.6442 5.74359 12.6399 5.90167L12.6345 6.0062L11.1045 3.07089C10.9973 2.86543 10.8313 2.69763 10.6281 2.58956C10.425 2.4815 10.1943 2.43823 9.96641 2.46544C9.73852 2.49266 9.52411 2.58909 9.35138 2.74205C9.17864 2.895 9.05568 3.09732 8.99866 3.32239L8.85619 3.08831C8.69793 2.82843 8.44419 2.64285 8.1508 2.57241C7.8574 2.50196 7.54839 2.55242 7.29174 2.71268C7.03509 2.87295 6.85182 3.12988 6.78226 3.42697C6.71269 3.72405 6.76252 4.03695 6.92079 4.29684L6.96649 4.37087C6.7539 4.33449 6.53546 4.36089 6.33731 4.44693C6.13916 4.53296 5.96968 4.67499 5.84916 4.85601C5.72864 5.03703 5.66218 5.24938 5.65773 5.46764C5.65327 5.68591 5.71102 5.90086 5.82406 6.08676L6.10684 6.55167C5.8875 6.49346 5.65596 6.5031 5.44207 6.57933C5.22818 6.65556 5.04173 6.79489 4.90674 6.97937C4.77174 7.16386 4.69439 7.38504 4.68464 7.61444C4.6749 7.84383 4.7332 8.07093 4.85205 8.26647L7.74334 13.0167C8.34009 13.971 9.10242 14.5356 9.65993 14.8067Z" fill="url(#paint12_radial_142_1253)"/>
</g>
<path d="M9.65993 14.8067C10.1012 15.0207 10.5801 15.1437 11.0688 15.1686C11.5574 15.1934 12.0461 15.1196 12.5063 14.9514C12.9666 14.7832 13.3892 14.524 13.7495 14.1889C14.1099 13.8537 14.4008 13.4494 14.6054 12.9993L14.6151 13.0015C15.1285 11.9345 15.0334 11.0379 14.9549 10.2948C14.9355 10.113 14.9172 9.94099 14.9092 9.77767C14.8839 9.28392 14.8882 8.44612 14.8984 7.81518L14.9 7.78251L14.9839 6.01599C14.9947 5.85823 14.9742 5.69987 14.9238 5.55021C14.8733 5.40055 14.7939 5.26259 14.6901 5.14441C14.5863 5.02624 14.4603 4.93023 14.3194 4.86201C14.1785 4.79379 14.0255 4.75473 13.8695 4.74712C13.7136 4.73951 13.5576 4.76351 13.4109 4.8177C13.2642 4.87189 13.1296 4.9552 13.0151 5.06272C12.9006 5.17025 12.8084 5.29984 12.744 5.4439C12.6796 5.58796 12.6442 5.74359 12.6399 5.90167L12.6345 6.0062L11.1045 3.07089C10.9973 2.86543 10.8313 2.69763 10.6281 2.58956C10.425 2.4815 10.1943 2.43823 9.96641 2.46544C9.73852 2.49266 9.52411 2.58909 9.35138 2.74205C9.17864 2.895 9.05568 3.09732 8.99866 3.32239L8.85619 3.08831C8.69793 2.82843 8.44419 2.64285 8.1508 2.57241C7.8574 2.50196 7.54839 2.55242 7.29174 2.71268C7.03509 2.87295 6.85182 3.12988 6.78226 3.42697C6.71269 3.72405 6.76252 4.03695 6.92079 4.29684L6.96649 4.37087C6.7539 4.33449 6.53546 4.36089 6.33731 4.44693C6.13916 4.53296 5.96968 4.67499 5.84916 4.85601C5.72864 5.03703 5.66218 5.24938 5.65773 5.46764C5.65327 5.68591 5.71102 5.90086 5.82406 6.08676L6.10684 6.55167C5.8875 6.49346 5.65596 6.5031 5.44207 6.57933C5.22818 6.65556 5.04173 6.79489 4.90674 6.97937C4.77174 7.16386 4.69439 7.38504 4.68464 7.61444C4.6749 7.84383 4.7332 8.07093 4.85205 8.26647L7.74334 13.0167C8.34009 13.971 9.10242 14.5356 9.65993 14.8067Z" fill="url(#paint13_radial_142_1253)"/>
<g filter="url(#filter8_f_142_1253)">
<path d="M8.78472 12.127L6.44772 8.11492C6.38654 8.00611 6.36913 7.87761 6.39911 7.75614C6.42908 7.63466 6.50414 7.52956 6.60868 7.46269C6.71322 7.39581 6.83919 7.3723 6.9604 7.39705C7.08161 7.4218 7.18874 7.49291 7.25951 7.59558L8.58043 9.57223C8.63437 9.64817 8.71518 9.70009 8.806 9.71718C8.89682 9.73428 8.99065 9.71522 9.06794 9.66398C9.14523 9.61274 9.2 9.53328 9.22086 9.44215C9.24171 9.35103 9.22703 9.25527 9.17987 9.17483L7.12081 5.88894C7.08679 5.83627 7.06353 5.77724 7.0524 5.71533C7.04127 5.65341 7.0425 5.58987 7.05601 5.52844C7.06952 5.46701 7.09504 5.40894 7.13106 5.35766C7.16708 5.30637 7.21288 5.26291 7.26576 5.22984C7.31863 5.19676 7.37751 5.17474 7.43892 5.16507C7.50033 5.1554 7.56304 5.15828 7.62333 5.17354C7.68363 5.1888 7.7403 5.21613 7.79 5.25391C7.8397 5.2917 7.88142 5.33918 7.91271 5.39356L9.91962 8.77145C9.96643 8.84633 10.0402 8.89985 10.1253 8.92067C10.2103 8.94149 10.3001 8.92799 10.3755 8.88301C10.4509 8.83804 10.5061 8.76512 10.5294 8.67969C10.5527 8.59425 10.5422 8.503 10.5002 8.42522L8.19926 4.38536C8.16537 4.32624 8.14332 4.26094 8.13435 4.19319C8.12539 4.12543 8.12969 4.05655 8.14701 3.99049C8.16433 3.92442 8.19434 3.86245 8.23531 3.80812C8.27629 3.75379 8.32743 3.70817 8.38581 3.67385C8.50373 3.60455 8.644 3.58552 8.77578 3.62095C8.84103 3.63849 8.90222 3.66887 8.95588 3.71036C9.00953 3.75185 9.05458 3.80363 9.08847 3.86275L11.4567 7.96739C11.4759 8.00182 11.5016 8.03207 11.5323 8.05643C11.5631 8.08079 11.5983 8.09878 11.6359 8.10937C11.6735 8.11996 11.7128 8.12295 11.7516 8.11816C11.7903 8.11336 11.8278 8.10089 11.8617 8.08144C11.8957 8.062 11.9256 8.03596 11.9497 8.00483C11.9737 7.97369 11.9915 7.93806 12.002 7.89997C12.0124 7.86188 12.0154 7.82207 12.0106 7.78283C12.0059 7.74359 11.9936 7.70567 11.9744 7.67125L10.4271 4.80562C10.3686 4.69148 10.3563 4.55873 10.3928 4.43556C10.4294 4.31238 10.5119 4.20849 10.6229 4.14592C10.7339 4.08336 10.8645 4.06706 10.9872 4.10048C11.1099 4.13391 11.2148 4.21442 11.2798 4.32494L13.0727 7.5308C13.0749 7.4633 13.1136 7.12197 13.1657 6.90313C13.3431 6.16331 13.5818 5.87425 13.842 5.87425C14.1114 5.87425 14.4286 5.99074 14.342 6.8476C14.17 8.54934 14.3108 9.72847 14.342 9.95058C14.3732 10.1716 14.8544 12.5424 12.6346 13.5397C10.8588 14.3378 9.27986 12.9447 8.78526 12.1265" fill="url(#paint14_radial_142_1253)"/>
</g>
<path d="M6.78577 7.06036C6.45675 6.5198 5.75727 6.35167 5.22343 6.68484C4.6896 7.018 4.52356 7.72629 4.85258 8.26685L7.77236 13.0638C8.10138 13.6044 8.80087 13.7725 9.33471 13.4393C9.86854 13.1062 10.0346 12.3979 9.70555 11.8573L6.78577 7.06036Z" fill="url(#paint15_radial_142_1253)"/>
<path d="M6.19027 4.52362C5.93717 4.68168 5.75638 4.93502 5.68763 5.22797C5.61888 5.52093 5.66779 5.82954 5.82362 6.086L6.10694 6.55144C6.37951 6.62384 6.62574 6.79859 6.78541 7.06044L9.41272 11.3774C9.62933 11.4337 9.85762 11.4232 10.0683 11.3472C10.279 11.2712 10.4624 11.1332 10.5951 10.9509C10.7277 10.7686 10.8035 10.5503 10.8128 10.3241C10.8221 10.0978 10.7644 9.8739 10.6471 9.68109L7.73322 4.89434C7.57704 4.63814 7.32681 4.45519 7.03751 4.38568C6.7482 4.31617 6.44348 4.36578 6.19027 4.52362Z" fill="url(#paint16_radial_142_1253)"/>
<path d="M6.19027 4.52362C5.93717 4.68168 5.75638 4.93502 5.68763 5.22797C5.61888 5.52093 5.66779 5.82954 5.82362 6.086L6.10694 6.55144C6.37951 6.62384 6.62574 6.79859 6.78541 7.06044L9.41272 11.3774C9.62933 11.4337 9.85762 11.4232 10.0683 11.3472C10.279 11.2712 10.4624 11.1332 10.5951 10.9509C10.7277 10.7686 10.8035 10.5503 10.8128 10.3241C10.8221 10.0978 10.7644 9.8739 10.6471 9.68109L7.73322 4.89434C7.57704 4.63814 7.32681 4.45519 7.03751 4.38568C6.7482 4.31617 6.44348 4.36578 6.19027 4.52362Z" fill="url(#paint17_radial_142_1253)"/>
<path d="M7.29291 2.71378C7.03653 2.87387 6.8534 3.13047 6.78374 3.4272C6.71409 3.72393 6.7636 4.03652 6.92142 4.2963L6.96658 4.37088C7.27302 4.42369 7.55741 4.60497 7.73375 4.89458L10.5906 9.58824C10.8063 9.62671 11.0284 9.60124 11.2302 9.51489C11.432 9.42854 11.6048 9.285 11.7279 9.10153C11.8509 8.91806 11.919 8.70249 11.924 8.48075C11.9289 8.25901 11.8704 8.04055 11.7556 7.85166L8.85629 3.08832C8.69792 2.82883 8.4443 2.64363 8.15115 2.5734C7.858 2.50317 7.54931 2.55366 7.29291 2.71378Z" fill="url(#paint18_radial_142_1253)"/>
<path d="M7.29291 2.71378C7.03653 2.87387 6.8534 3.13047 6.78374 3.4272C6.71409 3.72393 6.7636 4.03652 6.92142 4.2963L6.96658 4.37088C7.27302 4.42369 7.55741 4.60497 7.73375 4.89458L10.5906 9.58824C10.8063 9.62671 11.0284 9.60124 11.2302 9.51489C11.432 9.42854 11.6048 9.285 11.7279 9.10153C11.8509 8.91806 11.919 8.70249 11.924 8.48075C11.9289 8.25901 11.8704 8.04055 11.7556 7.85166L8.85629 3.08832C8.69792 2.82883 8.4443 2.64363 8.15115 2.5734C7.858 2.50317 7.54931 2.55366 7.29291 2.71378Z" fill="url(#paint19_radial_142_1253)"/>
<path d="M8.99902 3.32227L11.7559 7.85153C11.8753 8.04742 11.9338 8.2751 11.9238 8.50505C11.9138 8.73501 11.8358 8.95663 11.7 9.14117C11.8505 9.40075 12.0954 9.5903 12.3822 9.66919C12.6691 9.74809 12.975 9.71004 13.2345 9.56322C13.494 9.41639 13.6864 9.17247 13.7703 8.88374C13.8543 8.59501 13.8232 8.28446 13.6838 8.01865L11.1049 3.07022C10.9976 2.86477 10.8315 2.69699 10.6284 2.58896C10.4252 2.48093 10.1945 2.43771 9.96658 2.46499C9.73868 2.49227 9.52428 2.58876 9.35158 2.74178C9.17888 2.8948 9.05597 3.09717 8.99902 3.32227Z" fill="url(#paint20_radial_142_1253)"/>
<path d="M8.99902 3.32227L11.7559 7.85153C11.8753 8.04742 11.9338 8.2751 11.9238 8.50505C11.9138 8.73501 11.8358 8.95663 11.7 9.14117C11.8505 9.40075 12.0954 9.5903 12.3822 9.66919C12.6691 9.74809 12.975 9.71004 13.2345 9.56322C13.494 9.41639 13.6864 9.17247 13.7703 8.88374C13.8543 8.59501 13.8232 8.28446 13.6838 8.01865L11.1049 3.07022C10.9976 2.86477 10.8315 2.69699 10.6284 2.58896C10.4252 2.48093 10.1945 2.43771 9.96658 2.46499C9.73868 2.49227 9.52428 2.58876 9.35158 2.74178C9.17888 2.8948 9.05597 3.09717 8.99902 3.32227Z" fill="url(#paint21_radial_142_1253)"/>
<path d="M14.1148 8.84773L12.6348 6.00769L12.6401 5.90154C12.6444 5.74345 12.6798 5.58782 12.7442 5.44376C12.8086 5.2997 12.9008 5.17011 13.0153 5.06258C13.1299 4.95506 13.2644 4.87176 13.4111 4.81756C13.5579 4.76337 13.7138 4.73937 13.8698 4.74698C14.0258 4.75459 14.1787 4.79365 14.3196 4.86187C14.4605 4.93009 14.5865 5.0261 14.6903 5.14427C14.7941 5.26245 14.8735 5.40041 14.924 5.55007C14.9744 5.69973 14.9949 5.85809 14.9841 6.01586L14.9003 7.78292C14.8892 8.01957 14.8084 8.24746 14.6683 8.43722C14.5283 8.62699 14.3358 8.76996 14.1148 8.84773Z" fill="url(#paint22_radial_142_1253)"/>
<g filter="url(#filter9_f_142_1253)">
<path d="M6.13184 7.5835L7.97961 10.3805" stroke="#FFDDC7" stroke-width="0.625" stroke-linecap="round"/>
</g>
<g filter="url(#filter10_f_142_1253)">
<path d="M7.03809 5.18457L9.7283 9.19939" stroke="#FFE0C7" stroke-width="0.625" stroke-linecap="round"/>
</g>
<g filter="url(#filter11_f_142_1253)">
<path d="M8.16406 3.44434L11.1537 8.1331" stroke="#FFE3C8" stroke-width="0.625" stroke-linecap="round"/>
</g>
<g filter="url(#filter12_f_142_1253)">
<path d="M10.2129 3.29639L12.4332 7.21485" stroke="#FFE4C9" stroke-width="0.625" stroke-linecap="round"/>
</g>
<g filter="url(#filter13_f_142_1253)">
<path d="M14.0697 5.72559C13.9025 7.21338 13.9783 9.17697 14.0697 10.4628" stroke="url(#paint23_linear_142_1253)" stroke-width="0.625" stroke-linecap="round"/>
</g>
<defs>
<filter id="filter0_i_142_1253" x="1.71973" y="2.51123" width="8.6707" height="12.6777" filterUnits="userSpaceOnUse" color-interpolation-filters="sRGB">
<feFlood flood-opacity="0" result="BackgroundImageFix"/>
<feBlend mode="normal" in="SourceGraphic" in2="BackgroundImageFix" result="shape"/>
<feColorMatrix in="SourceAlpha" type="matrix" values="0 0 0 0 0 0 0 0 0 0 0 0 0 0 0 0 0 0 127 0" result="hardAlpha"/>
<feOffset dx="0.075" dy="-0.125"/>
<feGaussianBlur stdDeviation="0.125"/>
<feComposite in2="hardAlpha" operator="arithmetic" k2="-1" k3="1"/>
<feColorMatrix type="matrix" values="0 0 0 0 0.819608 0 0 0 0 0.6 0 0 0 0 0.552941 0 0 0 1 0"/>
<feBlend mode="normal" in2="shape" result="effect1_innerShadow_142_1253"/>
</filter>
<filter id="filter1_f_142_1253" x="2.7207" y="6.51953" width="2.57812" height="3.56104" filterUnits="userSpaceOnUse" color-interpolation-filters="sRGB">
<feFlood flood-opacity="0" result="BackgroundImageFix"/>
<feBlend mode="normal" in="SourceGraphic" in2="BackgroundImageFix" result="shape"/>
<feGaussianBlur stdDeviation="0.1875" result="effect1_foregroundBlur_142_1253"/>
</filter>
<filter id="filter2_f_142_1253" x="3.54297" y="4.60107" width="2.42969" height="3.26172" filterUnits="userSpaceOnUse" color-interpolation-filters="sRGB">
<feFlood flood-opacity="0" result="BackgroundImageFix"/>
<feBlend mode="normal" in="SourceGraphic" in2="BackgroundImageFix" result="shape"/>
<feGaussianBlur stdDeviation="0.1875" result="effect1_foregroundBlur_142_1253"/>
</filter>
<filter id="filter3_f_142_1253" x="4.58105" y="2.81885" width="2.87207" height="3.96143" filterUnits="userSpaceOnUse" color-interpolation-filters="sRGB">
<feFlood flood-opacity="0" result="BackgroundImageFix"/>
<feBlend mode="normal" in="SourceGraphic" in2="BackgroundImageFix" result="shape"/>
<feGaussianBlur stdDeviation="0.1875" result="effect1_foregroundBlur_142_1253"/>
</filter>
<filter id="filter4_ii_142_1253" x="2.44355" y="-0.05" width="1.4168" height="1.7583" filterUnits="userSpaceOnUse" color-interpolation-filters="sRGB">
<feFlood flood-opacity="0" result="BackgroundImageFix"/>
<feBlend mode="normal" in="SourceGraphic" in2="BackgroundImageFix" result="shape"/>
<feColorMatrix in="SourceAlpha" type="matrix" values="0 0 0 0 0 0 0 0 0 0 0 0 0 0 0 0 0 0 127 0" result="hardAlpha"/>
<feOffset dx="-0.075" dy="0.075"/>
<feGaussianBlur stdDeviation="0.075"/>
<feComposite in2="hardAlpha" operator="arithmetic" k2="-1" k3="1"/>
<feColorMatrix type="matrix" values="0 0 0 0 0.109804 0 0 0 0 0.580392 0 0 0 0 0.905882 0 0 0 1 0"/>
<feBlend mode="normal" in2="shape" result="effect1_innerShadow_142_1253"/>
<feColorMatrix in="SourceAlpha" type="matrix" values="0 0 0 0 0 0 0 0 0 0 0 0 0 0 0 0 0 0 127 0" result="hardAlpha"/>
<feOffset dx="0.125" dy="-0.05"/>
<feGaussianBlur stdDeviation="0.1"/>
<feComposite in2="hardAlpha" operator="arithmetic" k2="-1" k3="1"/>
<feColorMatrix type="matrix" values="0 0 0 0 0.0862745 0 0 0 0 0.317647 0 0 0 0 0.654902 0 0 0 1 0"/>
<feBlend mode="normal" in2="effect1_innerShadow_142_1253" result="effect2_innerShadow_142_1253"/>
</filter>
<filter id="filter5_ii_142_1253" x="0.731641" y="0.963379" width="1.6834" height="1.54863" filterUnits="userSpaceOnUse" color-interpolation-filters="sRGB">
<feFlood flood-opacity="0" result="BackgroundImageFix"/>
<feBlend mode="normal" in="SourceGraphic" in2="BackgroundImageFix" result="shape"/>
<feColorMatrix in="SourceAlpha" type="matrix" values="0 0 0 0 0 0 0 0 0 0 0 0 0 0 0 0 0 0 127 0" result="hardAlpha"/>
<feOffset dx="-0.075" dy="0.075"/>
<feGaussianBlur stdDeviation="0.075"/>
<feComposite in2="hardAlpha" operator="arithmetic" k2="-1" k3="1"/>
<feColorMatrix type="matrix" values="0 0 0 0 0.113725 0 0 0 0 0.568627 0 0 0 0 0.898039 0 0 0 1 0"/>
<feBlend mode="normal" in2="shape" result="effect1_innerShadow_142_1253"/>
<feColorMatrix in="SourceAlpha" type="matrix" values="0 0 0 0 0 0 0 0 0 0 0 0 0 0 0 0 0 0 127 0" result="hardAlpha"/>
<feOffset dx="0.125"/>
<feGaussianBlur stdDeviation="0.1"/>
<feComposite in2="hardAlpha" operator="arithmetic" k2="-1" k3="1"/>
<feColorMatrix type="matrix" values="0 0 0 0 0.0784314 0 0 0 0 0.341176 0 0 0 0 0.588235 0 0 0 1 0"/>
<feBlend mode="normal" in2="effect1_innerShadow_142_1253" result="effect2_innerShadow_142_1253"/>
</filter>
<filter id="filter6_ii_142_1253" x="-0.075" y="2.80078" width="1.81328" height="1.36113" filterUnits="userSpaceOnUse" color-interpolation-filters="sRGB">
<feFlood flood-opacity="0" result="BackgroundImageFix"/>
<feBlend mode="normal" in="SourceGraphic" in2="BackgroundImageFix" result="shape"/>
<feColorMatrix in="SourceAlpha" type="matrix" values="0 0 0 0 0 0 0 0 0 0 0 0 0 0 0 0 0 0 127 0" result="hardAlpha"/>
<feOffset dx="-0.075" dy="0.075"/>
<feGaussianBlur stdDeviation="0.075"/>
<feComposite in2="hardAlpha" operator="arithmetic" k2="-1" k3="1"/>
<feColorMatrix type="matrix" values="0 0 0 0 0.113725 0 0 0 0 0.556863 0 0 0 0 0.87451 0 0 0 1 0"/>
<feBlend mode="normal" in2="shape" result="effect1_innerShadow_142_1253"/>
<feColorMatrix in="SourceAlpha" type="matrix" values="0 0 0 0 0 0 0 0 0 0 0 0 0 0 0 0 0 0 127 0" result="hardAlpha"/>
<feOffset dx="0.125"/>
<feGaussianBlur stdDeviation="0.1"/>
<feComposite in2="hardAlpha" operator="arithmetic" k2="-1" k3="1"/>
<feColorMatrix type="matrix" values="0 0 0 0 0.0941176 0 0 0 0 0.301961 0 0 0 0 0.603922 0 0 0 1 0"/>
<feBlend mode="normal" in2="effect1_innerShadow_142_1253" result="effect2_innerShadow_142_1253"/>
</filter>
<filter id="filter7_ii_142_1253" x="4.68359" y="1.95752" width="10.834" height="13.2158" filterUnits="userSpaceOnUse" color-interpolation-filters="sRGB">
<feFlood flood-opacity="0" result="BackgroundImageFix"/>
<feBlend mode="normal" in="SourceGraphic" in2="BackgroundImageFix" result="shape"/>
<feColorMatrix in="SourceAlpha" type="matrix" values="0 0 0 0 0 0 0 0 0 0 0 0 0 0 0 0 0 0 127 0" result="hardAlpha"/>
<feOffset dx="0.5" dy="-0.5"/>
<feGaussianBlur stdDeviation="0.5"/>
<feComposite in2="hardAlpha" operator="arithmetic" k2="-1" k3="1"/>
<feColorMatrix type="matrix" values="0 0 0 0 0.796078 0 0 0 0 0.552941 0 0 0 0 0.592157 0 0 0 1 0"/>
<feBlend mode="normal" in2="shape" result="effect1_innerShadow_142_1253"/>
<feColorMatrix in="SourceAlpha" type="matrix" values="0 0 0 0 0 0 0 0 0 0 0 0 0 0 0 0 0 0 127 0" result="hardAlpha"/>
<feOffset dx="0.125" dy="-0.175"/>
<feGaussianBlur stdDeviation="0.15"/>
<feComposite in2="hardAlpha" operator="arithmetic" k2="-1" k3="1"/>
<feColorMatrix type="matrix" values="0 0 0 0 0.827451 0 0 0 0 0.588235 0 0 0 0 0.572549 0 0 0 1 0"/>
<feBlend mode="normal" in2="effect1_innerShadow_142_1253" result="effect2_innerShadow_142_1253"/>
</filter>
<filter id="filter8_f_142_1253" x="5.38477" y="2.60352" width="10.0225" height="12.1748" filterUnits="userSpaceOnUse" color-interpolation-filters="sRGB">
<feFlood flood-opacity="0" result="BackgroundImageFix"/>
<feBlend mode="normal" in="SourceGraphic" in2="BackgroundImageFix" result="shape"/>
<feGaussianBlur stdDeviation="0.5" result="effect1_foregroundBlur_142_1253"/>
</filter>
<filter id="filter9_f_142_1253" x="5.19434" y="6.646" width="3.72266" height="4.67188" filterUnits="userSpaceOnUse" color-interpolation-filters="sRGB">
<feFlood flood-opacity="0" result="BackgroundImageFix"/>
<feBlend mode="normal" in="SourceGraphic" in2="BackgroundImageFix" result="shape"/>
<feGaussianBlur stdDeviation="0.3125" result="effect1_foregroundBlur_142_1253"/>
</filter>
<filter id="filter10_f_142_1253" x="6.10059" y="4.24707" width="4.56543" height="5.88965" filterUnits="userSpaceOnUse" color-interpolation-filters="sRGB">
<feFlood flood-opacity="0" result="BackgroundImageFix"/>
<feBlend mode="normal" in="SourceGraphic" in2="BackgroundImageFix" result="shape"/>
<feGaussianBlur stdDeviation="0.3125" result="effect1_foregroundBlur_142_1253"/>
</filter>
<filter id="filter11_f_142_1253" x="7.22656" y="2.50684" width="4.86426" height="6.56396" filterUnits="userSpaceOnUse" color-interpolation-filters="sRGB">
<feFlood flood-opacity="0" result="BackgroundImageFix"/>
<feBlend mode="normal" in="SourceGraphic" in2="BackgroundImageFix" result="shape"/>
<feGaussianBlur stdDeviation="0.3125" result="effect1_foregroundBlur_142_1253"/>
</filter>
<filter id="filter12_f_142_1253" x="9.27539" y="2.35889" width="4.0957" height="5.79346" filterUnits="userSpaceOnUse" color-interpolation-filters="sRGB">
<feFlood flood-opacity="0" result="BackgroundImageFix"/>
<feBlend mode="normal" in="SourceGraphic" in2="BackgroundImageFix" result="shape"/>
<feGaussianBlur stdDeviation="0.3125" result="effect1_foregroundBlur_142_1253"/>
</filter>
<filter id="filter13_f_142_1253" x="13.0332" y="4.78809" width="1.97363" height="6.6123" filterUnits="userSpaceOnUse" color-interpolation-filters="sRGB">
<feFlood flood-opacity="0" result="BackgroundImageFix"/>
<feBlend mode="normal" in="SourceGraphic" in2="BackgroundImageFix" result="shape"/>
<feGaussianBlur stdDeviation="0.3125" result="effect1_foregroundBlur_142_1253"/>
</filter>
<radialGradient id="paint0_radial_142_1253" cx="0" cy="0" r="1" gradientUnits="userSpaceOnUse" gradientTransform="translate(7.77766 13.9502) rotate(-93.8401) scale(11.7616 8.0554)">
<stop stop-color="#B17883"/>
<stop offset="1" stop-color="#CF9A84"/>
</radialGradient>
<radialGradient id="paint1_radial_142_1253" cx="0" cy="0" r="1" gradientUnits="userSpaceOnUse" gradientTransform="translate(9.06685 12.2321) rotate(-141.232) scale(5.30144 2.74513)">
<stop stop-color="#B0736C"/>
<stop offset="1" stop-color="#B0736C" stop-opacity="0"/>
</radialGradient>
<radialGradient id="paint2_radial_142_1253" cx="0" cy="0" r="1" gradientUnits="userSpaceOnUse" gradientTransform="translate(3.97839 7.94617) rotate(58.4126) scale(2.50399 0.967467)">
<stop stop-color="#B87C69"/>
<stop offset="1" stop-color="#B87C69" stop-opacity="0"/>
</radialGradient>
<radialGradient id="paint3_radial_142_1253" cx="0" cy="0" r="1" gradientUnits="userSpaceOnUse" gradientTransform="translate(3.89936 4.50132) rotate(88.5404) scale(1.79636 2.19486)">
<stop stop-color="#DEB198"/>
<stop offset="1" stop-color="#DEB198" stop-opacity="0"/>
</radialGradient>
<radialGradient id="paint4_radial_142_1253" cx="0" cy="0" r="1" gradientUnits="userSpaceOnUse" gradientTransform="translate(4.92983 6.02873) rotate(58.9885) scale(3.12882 1.22158)">
<stop stop-color="#BC8067"/>
<stop offset="1" stop-color="#BC8067" stop-opacity="0"/>
</radialGradient>
<radialGradient id="paint5_radial_142_1253" cx="0" cy="0" r="1" gradientUnits="userSpaceOnUse" gradientTransform="translate(5.07098 2.73821) rotate(92.1351) scale(1.63283 1.60098)">
<stop stop-color="#E6BFA5"/>
<stop offset="1" stop-color="#E6BFA5" stop-opacity="0"/>
</radialGradient>
<radialGradient id="paint6_radial_142_1253" cx="0" cy="0" r="1" gradientUnits="userSpaceOnUse" gradientTransform="translate(6.45504 4.63008) rotate(56.5764) scale(4.29307 1.67156)">
<stop stop-color="#BA8567"/>
<stop offset="1" stop-color="#BA8567" stop-opacity="0"/>
</radialGradient>
<radialGradient id="paint7_radial_142_1253" cx="0" cy="0" r="1" gradientUnits="userSpaceOnUse" gradientTransform="translate(7.83714 1.77309) rotate(105.851) scale(2.424 2.3609)">
<stop stop-color="#DDB49A"/>
<stop offset="1" stop-color="#DDB49A" stop-opacity="0"/>
</radialGradient>
<radialGradient id="paint8_radial_142_1253" cx="0" cy="0" r="1" gradientUnits="userSpaceOnUse" gradientTransform="translate(3.38792 6.35895) rotate(90.5234) scale(2.14626 2.30863)">
<stop stop-color="#CE9F87"/>
<stop offset="1" stop-color="#CE9F87" stop-opacity="0"/>
</radialGradient>
<linearGradient id="paint9_linear_142_1253" x1="4.74135" y1="9.53382" x2="2.51055" y2="7.1435" gradientUnits="userSpaceOnUse">
<stop stop-color="#D3A48D"/>
<stop offset="1" stop-color="#D3A48D" stop-opacity="0"/>
</linearGradient>
<linearGradient id="paint10_linear_142_1253" x1="4.16797" y1="5.41116" x2="7.37754" y2="8.72444" gradientUnits="userSpaceOnUse">
<stop stop-color="#E2B49D"/>
<stop offset="1" stop-color="#E2B49D" stop-opacity="0"/>
</linearGradient>
<linearGradient id="paint11_linear_142_1253" x1="5.62916" y1="3.07639" x2="9.07454" y2="6.7232" gradientUnits="userSpaceOnUse">
<stop stop-color="#EEC9B3"/>
<stop offset="1" stop-color="#F7CBB1" stop-opacity="0"/>
</linearGradient>
<radialGradient id="paint12_radial_142_1253" cx="0" cy="0" r="1" gradientUnits="userSpaceOnUse" gradientTransform="translate(9.85024 7.05794) rotate(90) scale(8.11385 6.59484)">
<stop stop-color="#E8B49C"/>
<stop offset="1" stop-color="#E8B0AB"/>
</radialGradient>
<radialGradient id="paint13_radial_142_1253" cx="0" cy="0" r="1" gradientUnits="userSpaceOnUse" gradientTransform="translate(16.4387 10.6911) rotate(176.161) scale(3.26504 12.6916)">
<stop stop-color="#FFE1C4"/>
<stop offset="1" stop-color="#FFE1C4" stop-opacity="0"/>
</radialGradient>
<radialGradient id="paint14_radial_142_1253" cx="0" cy="0" r="1" gradientUnits="userSpaceOnUse" gradientTransform="translate(12.2362 7.51392) rotate(95.8356) scale(10.7741 11.5423)">
<stop stop-color="#FFE5CA"/>
<stop offset="1" stop-color="#FFE5CA" stop-opacity="0"/>
</radialGradient>
<radialGradient id="paint15_radial_142_1253" cx="0" cy="0" r="1" gradientUnits="userSpaceOnUse" gradientTransform="translate(5.45034 6.30023) rotate(71.1117) scale(1.20801 1.38294)">
<stop stop-color="#E5B399"/>
<stop offset="1" stop-color="#E5B399" stop-opacity="0"/>
</radialGradient>
<radialGradient id="paint16_radial_142_1253" cx="0" cy="0" r="1" gradientUnits="userSpaceOnUse" gradientTransform="translate(6.25855 7.10127) rotate(53.9077) scale(3.68518 1.30666)">
<stop stop-color="#E29F7F"/>
<stop offset="1" stop-color="#E29F7F" stop-opacity="0"/>
</radialGradient>
<radialGradient id="paint17_radial_142_1253" cx="0" cy="0" r="1" gradientUnits="userSpaceOnUse" gradientTransform="translate(6.34769 3.6994) rotate(71.4394) scale(1.8987 3.00802)">
<stop stop-color="#E3B398"/>
<stop offset="1" stop-color="#E3B398" stop-opacity="0"/>
</radialGradient>
<radialGradient id="paint18_radial_142_1253" cx="0" cy="0" r="1" gradientUnits="userSpaceOnUse" gradientTransform="translate(6.96804 5.00064) rotate(48.8835) scale(4.31819 1.53538)">
<stop stop-color="#E5A584"/>
<stop offset="1" stop-color="#E5A584" stop-opacity="0"/>
</radialGradient>
<radialGradient id="paint19_radial_142_1253" cx="0" cy="0" r="1" gradientUnits="userSpaceOnUse" gradientTransform="translate(8.06659 2.272) rotate(90.5955) scale(1.994 3.15637)">
<stop stop-color="#FACEB2"/>
<stop offset="1" stop-color="#FACEB2" stop-opacity="0"/>
</radialGradient>
<radialGradient id="paint20_radial_142_1253" cx="0" cy="0" r="1" gradientUnits="userSpaceOnUse" gradientTransform="translate(8.87537 4.26568) rotate(50.1858) scale(5.08228 1.77643)">
<stop stop-color="#E6A580"/>
<stop offset="1" stop-color="#E6A580" stop-opacity="0"/>
</radialGradient>
<radialGradient id="paint21_radial_142_1253" cx="0" cy="0" r="1" gradientUnits="userSpaceOnUse" gradientTransform="translate(10.3264 2.08271) rotate(94.3451) scale(1.55527 2.27615)">
<stop stop-color="#FED3B6"/>
<stop offset="1" stop-color="#FED3B6" stop-opacity="0"/>
</radialGradient>
<radialGradient id="paint22_radial_142_1253" cx="0" cy="0" r="1" gradientUnits="userSpaceOnUse" gradientTransform="translate(12.409 6.80917) rotate(-89.0964) scale(3.37996 1.88838)">
<stop offset="0.124" stop-color="#C88C6B"/>
<stop offset="1" stop-color="#E5A886" stop-opacity="0"/>
</radialGradient>
<linearGradient id="paint23_linear_142_1253" x1="14.0202" y1="5.72559" x2="14.0202" y2="10.4623" gradientUnits="userSpaceOnUse">
<stop stop-color="#FFE4C8"/>
<stop offset="1" stop-color="#FFE4C8" stop-opacity="0"/>
</linearGradient>
</defs>
</svg>
