<svg width="88" height="88" viewBox="0 0 88 88" fill="none" xmlns="http://www.w3.org/2000/svg">
<circle opacity="0.82" cx="44" cy="44" r="44" fill="#D9D9D9"/>
<g clip-path="url(#clip0_1748_1738)">
<path d="M42.9781 45.719C44.8101 45.719 46.6241 45.3698 48.3166 44.6914C50.0091 44.0129 51.5469 43.0185 52.8423 41.7649C54.1377 40.5114 55.1652 39.0231 55.8663 37.3852C56.5673 35.7473 56.9281 33.9918 56.9281 32.219C56.9281 30.4462 56.5673 28.6907 55.8663 27.0528C55.1652 25.4149 54.1377 23.9267 52.8423 22.6731C51.5469 21.4195 50.0091 20.4251 48.3166 19.7466C46.6241 19.0682 44.8101 18.719 42.9781 18.719C39.2784 18.719 35.7301 20.1413 33.114 22.6731C30.4979 25.2048 29.0281 28.6386 29.0281 32.219C29.0281 35.7994 30.4979 39.2332 33.114 41.7649C35.7301 44.2967 39.2784 45.719 42.9781 45.719ZM42.9998 14C47.0832 13.9987 51.0535 15.2978 54.2982 17.6969C57.5428 20.096 59.8816 23.4617 60.9535 27.2747C62.0255 31.0877 61.7711 35.1361 60.2295 38.7953C58.688 42.4545 55.945 45.5211 52.4238 47.522C63.8566 50.852 72.4436 60.176 73.9843 71.756C74.13 72.857 73.2837 73.856 72.0933 73.991C70.906 74.126 69.821 73.346 69.6753 72.245C68.0013 59.675 56.7514 50.21 43.1083 50.21C29.3908 50.21 17.9952 59.693 16.3243 72.245C16.1786 73.346 15.0936 74.126 13.9063 73.991C12.7159 73.856 11.8696 72.857 12.0153 71.756C13.5529 60.224 22.1864 50.912 33.6378 47.552C30.106 45.5602 27.3505 42.4979 25.7974 38.8386C24.2444 35.1793 23.9803 31.1267 25.0459 27.3076C26.1116 23.4884 28.4477 20.1153 31.693 17.7099C34.9383 15.3045 38.912 14.0006 42.9998 14Z" fill="white"/>
</g>
<defs>
<clipPath id="clip0_1748_1738">
<rect width="62" height="60" fill="white" transform="translate(12 14)"/>
</clipPath>
</defs>
</svg>
