<svg width="55" height="54" viewBox="0 0 55 54" fill="none" xmlns="http://www.w3.org/2000/svg">
<path d="M54.5 27C54.5 41.6269 42.4204 53.5 27.5 53.5C12.5796 53.5 0.5 41.6269 0.5 27C0.5 12.3731 12.5796 0.5 27.5 0.5C42.4204 0.5 54.5 12.3731 54.5 27Z" fill="white" stroke="#FF69A9"/>
<path d="M18.5098 35.0215V37.1699H19.5156V38.1855H18.5098V40.3242H17.2598V35.0215H18.5098ZM13.7832 35.6562V36.6426H12.6602V38.7422C13.0605 38.7324 13.4463 38.6934 13.8711 38.6055L13.9785 39.6309C13.2461 39.7773 12.6602 39.7871 11.9277 39.7871H11.4785V35.6562H13.7832ZM16.6152 35.6562V36.6426H15.4238V38.7324C16.0049 38.7275 16.3662 38.6982 16.8008 38.5957L16.918 39.6113C16.293 39.7578 15.8047 39.7773 14.7207 39.7773H14.2324V35.6562H16.6152ZM15.4824 40.4316C17.3965 40.4316 18.5781 41.0762 18.5781 42.1602C18.5781 43.2637 17.3965 43.8887 15.4824 43.8887C13.5586 43.8887 12.377 43.2637 12.3867 42.1602C12.377 41.0762 13.5586 40.4316 15.4824 40.4316ZM15.4824 41.4082C14.2812 41.4082 13.627 41.6523 13.6367 42.1602C13.627 42.6777 14.2812 42.9219 15.4824 42.9219C16.6836 42.9219 17.3281 42.6777 17.3281 42.1602C17.3281 41.6523 16.6836 41.4082 15.4824 41.4082ZM27.0938 34.9824V38.332H28.168V39.377H27.0938V43.8984H25.8535V34.9824H27.0938ZM22.3965 35.9004V36.8965H21.332V40.6758C21.6934 40.6611 22.0449 40.6221 22.4453 40.5488L22.543 41.5742C21.8105 41.7012 21.2344 41.7207 20.5312 41.7109H20.082V35.9004H22.3965ZM25.2578 35.9004V36.8965H24.0859V40.6855C24.623 40.6709 24.9844 40.6318 25.3848 40.5293L25.4824 41.5547C24.877 41.7012 24.3789 41.7207 23.3242 41.7109H22.8555V35.9004H25.2578ZM36.0391 40.6758V43.9082H34.7988V41.6621H29.9355V40.6758H36.0391ZM36.0391 35.0117V40.2656H34.7988V38.1367H33.1387V39.7871H28.9199V35.6465H33.1387V37.1406H34.7988V35.0117H36.0391ZM30.1602 36.6523V38.8008H31.918V36.6523H30.1602ZM44.6621 35.0117V43.8984H43.4023V35.0117H44.6621ZM41.9961 35.9395C41.9961 38.6348 41.0488 40.8711 37.875 42.375L37.2207 41.3789C39.5156 40.2949 40.5264 38.8887 40.7266 36.916H37.6992V35.9395H41.9961Z" fill="#FF69A9"/>
<g clip-path="url(#clip0_1610_252)">
<path d="M35.625 27.5H19.375C19.0312 27.5 18.75 27.7812 18.75 28.125V29.375C18.75 29.7188 19.0312 30 19.375 30H35.625C35.9688 30 36.25 29.7188 36.25 29.375V28.125C36.25 27.7812 35.9688 27.5 35.625 27.5ZM38.125 15C37.0898 15 36.25 15.8398 36.25 16.875C36.25 17.1523 36.3125 17.4102 36.4219 17.6484L33.5938 19.3438C32.9922 19.7031 32.2148 19.5 31.8672 18.8906L28.6836 13.3203C29.1016 12.9766 29.375 12.4609 29.375 11.875C29.375 10.8398 28.5352 10 27.5 10C26.4648 10 25.625 10.8398 25.625 11.875C25.625 12.4609 25.8984 12.9766 26.3164 13.3203L23.1328 18.8906C22.7852 19.5 22.0039 19.7031 21.4062 19.3438L18.582 17.6484C18.6875 17.4141 18.7539 17.1523 18.7539 16.875C18.7539 15.8398 17.9141 15 16.8789 15C15.8437 15 15 15.8398 15 16.875C15 17.9102 15.8398 18.75 16.875 18.75C16.9766 18.75 17.0781 18.7344 17.1758 18.7188L20 26.25H35L37.8242 18.7188C37.9219 18.7344 38.0234 18.75 38.125 18.75C39.1602 18.75 40 17.9102 40 16.875C40 15.8398 39.1602 15 38.125 15Z" fill="#FF69A9"/>
</g>
<defs>
<clipPath id="clip0_1610_252">
<rect width="25" height="20" fill="white" transform="translate(15 10)"/>
</clipPath>
</defs>
</svg>
