<svg width="18" height="18" viewBox="0 0 18 18" fill="none" xmlns="http://www.w3.org/2000/svg">
<path d="M5.36621 10.6094H11.8045V17.6819H5.36621V10.6094Z" fill="url(#paint0_linear_210_3373)"/>
<path d="M9.66083 1.6316C9.3654 1.34001 8.98226 1.17871 8.5851 1.17871C8.18794 1.17871 7.8048 1.34001 7.50937 1.6316L1.60762 7.45701C1.43949 7.6228 1.30502 7.82561 1.21295 8.05226C1.12088 8.27891 1.07328 8.52431 1.07324 8.7725V15.9087C1.07324 16.3776 1.24282 16.8274 1.54467 17.1589C1.84653 17.4905 2.25593 17.6768 2.68281 17.6768H4.29238V17.6815H6.43847V11.1937C6.43847 11.0373 6.495 10.8874 6.59561 10.7769C6.69623 10.6664 6.8327 10.6043 6.97499 10.6043H10.1941C10.3364 10.6043 10.4729 10.6664 10.5735 10.7769C10.6741 10.8874 10.7307 11.0373 10.7307 11.1937V17.6815H13.9498V17.6768H14.4863C14.9132 17.6768 15.3226 17.4905 15.6245 17.1589C15.9263 16.8274 16.0959 16.3776 16.0959 15.9087V8.7725C16.096 8.5244 16.0486 8.27905 15.9567 8.05241C15.8648 7.82577 15.7305 7.6229 15.5626 7.45701L9.66083 1.6316Z" fill="url(#paint1_linear_210_3373)"/>
<path fill-rule="evenodd" clip-rule="evenodd" d="M9.27624 0.282156C9.08413 0.100135 8.83889 0 8.58519 0C8.3315 0 8.08626 0.100135 7.89415 0.282156L0.35064 7.4761C0.248521 7.57209 0.165019 7.68965 0.105103 7.82181C0.0451871 7.95397 0.0100804 8.09801 0.00187134 8.24538C-0.00633777 8.39274 0.0125185 8.54041 0.0573185 8.67961C0.102119 8.81881 0.171947 8.94668 0.26265 9.05563C0.448502 9.27778 0.705776 9.41173 0.979977 9.42911C1.25418 9.4465 1.52377 9.34594 1.73165 9.14875L8.58519 2.61256L15.4387 9.14875C15.6468 9.3458 15.9164 9.44614 16.1906 9.42854C16.4648 9.41094 16.722 9.27677 16.9077 9.05445C16.9983 8.94553 17.068 8.81773 17.1127 8.67865C17.1574 8.53956 17.1762 8.39203 17.168 8.24481C17.1598 8.09759 17.1247 7.95368 17.0649 7.82163C17.0051 7.68958 16.9217 7.57207 16.8197 7.4761L9.27624 0.282156Z" fill="url(#paint2_linear_210_3373)"/>
<defs>
<linearGradient id="paint0_linear_210_3373" x1="8.58535" y1="10.6094" x2="4.37208" y2="19.1357" gradientUnits="userSpaceOnUse">
<stop stop-color="#944600"/>
<stop offset="1" stop-color="#CD8E02"/>
</linearGradient>
<linearGradient id="paint1_linear_210_3373" x1="2.50683" y1="0.371508" x2="18.3265" y2="12.0763" gradientUnits="userSpaceOnUse">
<stop stop-color="#FFD394"/>
<stop offset="1" stop-color="#FFB357"/>
</linearGradient>
<linearGradient id="paint2_linear_210_3373" x1="5.81137" y1="-2.2392" x2="10.2512" y2="8.69191" gradientUnits="userSpaceOnUse">
<stop stop-color="#FF921F"/>
<stop offset="1" stop-color="#EB4824"/>
</linearGradient>
</defs>
</svg>
