<svg width="22" height="21" viewBox="0 0 22 21" fill="none" xmlns="http://www.w3.org/2000/svg">
<g clip-path="url(#clip0_470_184)">
<path d="M10.6562 2.55566L2.0625 10.7581V21.0002H19.9375V11.4144L10.6562 2.55566Z" fill="#EAEAEA"/>
<path d="M5.5 13.7812H10.3125V21H5.5V13.7812Z" fill="#434854"/>
<path d="M11.6875 13.125H13.75V15.0938H11.6875V13.125ZM14.4375 13.125H16.5V15.0938H14.4375V13.125ZM14.4375 10.5H16.5V12.4688H14.4375V10.5ZM11.6875 10.5H13.75V12.4688H11.6875V10.5Z" fill="#469FCC"/>
<path d="M11.6875 10.5H13.75V11.1562H11.6875V10.5ZM14.4375 10.5H16.5V11.1562H14.4375V10.5ZM11.6875 13.125H13.75V13.7812H11.6875V13.125ZM14.4375 13.125H16.5V13.7812H14.4375V13.125Z" fill="black"/>
<path d="M10.6562 1.3125L2.0625 9.84375V11.8125L10.6562 3.60938L19.9375 12.4688V10.5L10.6562 1.3125Z" fill="black"/>
<path d="M21.7546 10.3643L11.6285 0.698374L11.1424 0.234405C11.0786 0.17341 11.0028 0.125019 10.9194 0.092003C10.836 0.0589866 10.7466 0.0419922 10.6563 0.0419922C10.566 0.0419922 10.4766 0.0589866 10.3932 0.092003C10.3098 0.125019 10.2341 0.17341 10.1703 0.234405L9.68421 0.698374L0.245521 9.70803C0.181621 9.76892 0.130926 9.84124 0.0963376 9.92086C0.061749 10.0005 0.0439453 10.0858 0.0439453 10.172C0.0439453 10.2582 0.061749 10.3435 0.0963376 10.4231C0.130926 10.5028 0.181621 10.5751 0.245521 10.636L0.731584 11.0999C0.795375 11.1609 0.871141 11.2093 0.954545 11.2423C1.03795 11.2754 1.12735 11.2923 1.21765 11.2923C1.30794 11.2923 1.39734 11.2754 1.48075 11.2423C1.56415 11.2093 1.63992 11.1609 1.70371 11.0999L10.6563 2.55556L20.2958 11.7568C20.3596 11.8178 20.4353 11.8662 20.5187 11.8992C20.6021 11.9323 20.6915 11.9493 20.7818 11.9493C20.8721 11.9493 20.9615 11.9323 21.0449 11.8992C21.1283 11.8662 21.2041 11.8178 21.2679 11.7568L21.754 11.2929C21.883 11.1698 21.9555 11.0028 21.9557 10.8287C21.9558 10.6546 21.8835 10.4875 21.7546 10.3643Z" fill="#EF4D4D"/>
<path d="M5.11844 21C5.36568 20.6027 5.49739 20.1496 5.5 19.6875C5.5 18.9913 5.21027 18.3236 4.69454 17.8313C4.17882 17.3391 3.47935 17.0625 2.75 17.0625C2.02065 17.0625 1.32118 17.3391 0.805456 17.8313C0.289731 18.3236 0 18.9913 0 19.6875C0 20.1679 0.145062 20.6122 0.381563 21H5.11844ZM19.25 17.0625C18.7229 17.0631 18.2072 17.2085 17.7644 17.4814C17.3216 17.7543 16.9705 18.1431 16.753 18.6014C16.4632 18.4548 16.1405 18.3771 15.8125 18.375C15.2655 18.375 14.7409 18.5824 14.3541 18.9516C13.9673 19.3208 13.75 19.8216 13.75 20.3438C13.75 20.5754 13.7995 20.7939 13.8765 21H21.6191C21.8658 20.6025 21.9973 20.1495 22 19.6875C22 18.9913 21.7103 18.3236 21.1945 17.8313C20.6788 17.3391 19.9793 17.0625 19.25 17.0625Z" fill="#3AAD73"/>
<path d="M16.753 18.6014C16.4632 18.4548 16.1405 18.3771 15.8125 18.375C15.2655 18.375 14.7409 18.5824 14.3541 18.9516C13.9673 19.3208 13.75 19.8216 13.75 20.3438C13.75 20.5754 13.7995 20.7939 13.8765 21H16.8816C16.6343 20.6027 16.5026 20.1496 16.5 19.6875C16.5 19.299 16.5942 18.9335 16.753 18.6014Z" fill="black"/>
</g>
<defs>
<clipPath id="clip0_470_184">
<rect width="22" height="21" fill="white"/>
</clipPath>
</defs>
</svg>
