<svg width="28" height="28" viewBox="0 0 28 28" fill="none" xmlns="http://www.w3.org/2000/svg">
<g clip-path="url(#clip0_1497_334)">
<path d="M10.8486 17.45V26.5976C10.8486 27.2211 12.336 27.7265 14.1707 27.7265C16.0054 27.7265 17.4927 27.2211 17.4927 26.5976V17.45H10.8486Z" fill="#D19B61"/>
<path d="M27.357 9.94539C27.357 6.58566 24.6334 3.86206 21.2736 3.86206H6.7832L12.8665 21.0249H26.9632C27.0676 21.0249 27.1678 20.9834 27.2416 20.9095C27.3155 20.8357 27.357 20.7355 27.357 20.6311V10.3391C27.3569 10.3119 27.3543 10.2855 27.349 10.2598C27.3543 10.1557 27.3569 10.0509 27.357 9.94539Z" fill="#81929B"/>
<path d="M6.78352 3.86206C3.4238 3.86206 0.700195 6.58566 0.700195 9.94539V20.6311C0.700195 20.7355 0.74168 20.8357 0.815522 20.9095C0.889364 20.9834 0.989516 21.0249 1.09395 21.0249H12.4731C12.5775 21.0249 12.6777 20.9834 12.7515 20.9095C12.8254 20.8357 12.8669 20.7355 12.8669 20.6311V9.94539C12.8669 6.58566 10.1433 3.86206 6.78352 3.86206Z" fill="#BCC8CC"/>
<path d="M21.8194 0.302246H18.6424C17.6182 0.302246 16.7578 1.00383 16.5156 1.95261C16.4356 2.12304 16.3943 2.309 16.3945 2.49724V11.4027C16.3945 12.1128 16.9701 12.6884 17.6802 12.6884C18.3902 12.6884 18.9658 12.1128 18.9658 11.4027V4.69229H21.8194C23.0316 4.69229 24.0144 3.70955 24.0144 2.49729C24.0144 1.28504 23.0316 0.302246 21.8194 0.302246Z" fill="#FF473E"/>
</g>
<defs>
<clipPath id="clip0_1497_334">
<rect width="28" height="28" fill="white"/>
</clipPath>
</defs>
</svg>
