<svg width="28" height="28" viewBox="0 0 28 28" fill="none" xmlns="http://www.w3.org/2000/svg">
<path d="M9.6875 20.25H7.75V24.125H9.6875V20.25Z" fill="#7D4533"/>
<path d="M14.5855 15.0817C14.911 14.9606 15.1377 14.8105 15.2065 14.6196C15.3256 14.2999 15.3944 13.9483 15.3944 13.5772V12.965C15.3944 11.3307 14.1031 10.0074 12.5056 9.97641C12.5056 8.16194 11.0564 6.6875 9.27192 6.6875C7.48749 6.6875 6.03824 8.16194 6.03824 9.97641H5.95977C4.34292 9.97641 3.02155 11.3104 3.02155 12.965V13.5772C3.02155 14.1885 3.20949 14.7601 3.51561 15.2416C3.03329 15.527 2.63394 15.9336 2.35713 16.4209C2.08033 16.9083 1.93568 17.4595 1.93752 18.0199C1.93752 19.785 3.34705 21.2188 5.08208 21.2188H13.3242C15.0583 21.2188 16.4688 19.785 16.4688 18.0199C16.4758 17.3998 16.3013 16.7912 15.9666 16.2691C15.632 15.747 15.1519 15.3343 14.5855 15.0817Z" fill="#00D26A"/>
<path d="M8.71875 24.125H26.1562V12.0127L17.5005 3.78125L12.5938 7.93041V4.18425C12.5953 4.13221 12.5864 4.08038 12.5677 4.0318C12.549 3.98322 12.5208 3.93887 12.4847 3.90134C12.4486 3.86381 12.4054 3.83386 12.3576 3.81324C12.3098 3.79262 12.2583 3.78174 12.2063 3.78125H10.0847C9.86187 3.78125 9.6875 3.96337 9.6875 4.18425V10.3881L8.71875 11.2077V24.125Z" fill="#F3C07B"/>
<path d="M17.392 24.125H11.687C11.6512 24.125 11.625 24.0959 11.625 24.0572V15.5244C11.625 14.9228 12.0677 14.4375 12.617 14.4375H16.4436C16.9928 14.4375 17.4356 14.9228 17.4356 15.5244V24.0572C17.4452 24.0959 17.4191 24.125 17.392 24.125Z" fill="#8C5543"/>
<path d="M15.9844 20.25C16.1128 20.25 16.236 20.199 16.3269 20.1081C16.4177 20.0173 16.4688 19.8941 16.4688 19.7656C16.4688 19.6372 16.4177 19.514 16.3269 19.4231C16.236 19.3323 16.1128 19.2812 15.9844 19.2812C15.8559 19.2812 15.7327 19.3323 15.6419 19.4231C15.551 19.514 15.5 19.6372 15.5 19.7656C15.5 19.8941 15.551 20.0173 15.6419 20.1081C15.7327 20.199 15.8559 20.25 15.9844 20.25Z" fill="#402A32"/>
<path d="M17.6283 25.0938H11.4342C11.0079 25.0938 10.6562 24.6568 10.6562 24.125C10.6562 23.5932 11.0069 23.1562 11.4342 23.1562H17.6283C18.0546 23.1562 18.4062 23.5932 18.4062 24.125C18.4062 24.6568 18.0556 25.0938 17.6283 25.0938Z" fill="#D3D3D3"/>
<path d="M28.249 13.0764L18.1062 3.08859C17.7283 2.72047 17.118 2.72047 16.7402 3.08859L16.7305 3.09828L6.56835 13.1055C6.47842 13.193 6.40694 13.2977 6.35813 13.4134C6.30932 13.529 6.28418 13.6532 6.28418 13.7787C6.28418 13.9043 6.30932 14.0285 6.35813 14.1441C6.40694 14.2598 6.47842 14.3645 6.56835 14.452C6.94616 14.8202 7.55647 14.8202 7.93429 14.452L17.4183 5.10359L26.883 14.423C27.2608 14.7911 27.8712 14.7911 28.249 14.423C28.3389 14.3354 28.4104 14.2307 28.4592 14.1151C28.508 13.9994 28.5331 13.8752 28.5331 13.7497C28.5331 13.6242 28.508 13.4999 28.4592 13.3843C28.4104 13.2687 28.3389 13.164 28.249 13.0764Z" fill="#F8312F"/>
<path d="M29.0625 26.0625H1.9375C1.9375 24.9969 2.80937 24.125 3.875 24.125H27.125C27.6389 24.125 28.1317 24.3291 28.495 24.6925C28.8584 25.0558 29.0625 25.5486 29.0625 26.0625Z" fill="#00F397"/>
<path d="M23.5251 19.2812H20.0686C19.885 19.2802 19.7091 19.2068 19.5793 19.077C19.4494 18.9471 19.376 18.7713 19.375 18.5876V15.1311C19.376 14.9475 19.4494 14.7716 19.5793 14.6418C19.7091 14.5119 19.885 14.4385 20.0686 14.4375H23.5251C23.7088 14.4385 23.8846 14.5119 24.0145 14.6418C24.1443 14.7716 24.2177 14.9475 24.2188 15.1311V18.5876C24.2177 18.7713 24.1443 18.9471 24.0145 19.077C23.8846 19.2068 23.7088 19.2802 23.5251 19.2812Z" fill="#83CBFF"/>
<path d="M25.4975 26.0625C26.1935 25.6911 26.718 25.0638 26.9603 24.3129C27.0669 24.002 27.125 23.6716 27.125 23.3316C27.125 22.4762 26.7762 21.6983 26.2047 21.1345C25.6315 20.5691 24.8592 20.2515 24.0541 20.25C22.8431 20.25 21.7872 20.9688 21.2834 21.9996C21.2335 22.1045 21.162 22.1977 21.0735 22.273C20.985 22.3483 20.8816 22.404 20.77 22.4365C20.0338 22.6699 19.4913 23.3316 19.3944 24.1182C19.3847 24.1376 19.3847 24.157 19.3944 24.1763C19.375 24.2345 19.375 24.3023 19.375 24.3711C19.375 25.0812 19.7431 25.6934 20.2953 26.0528H25.4975V26.0625Z" fill="#00D26A"/>
</svg>
