<svg width="16" height="16" viewBox="0 0 16 16" fill="none" xmlns="http://www.w3.org/2000/svg">
<path d="M10.2968 3.62587C10.9048 4.96637 11.6513 6.61187 12.2113 7.26587C12.3208 7.01137 12.3088 6.58587 12.4338 5.54687C12.5468 4.60837 13.3208 4.51937 13.6528 4.58587C14.3868 4.73887 14.6108 5.48337 14.5863 5.75787C14.5473 6.19537 14.5453 6.18037 14.4653 7.23787C14.3478 8.78487 14.9453 9.95287 15.0003 11.2774C15.0003 13.7734 12.8128 14.9999 11.2818 14.9999C10.0568 14.9999 8.83135 14.2159 8.37185 13.8239L6.07435 11.7264C5.79335 11.5079 5.09835 10.7864 4.79335 10.3714C3.96185 9.23987 5.16435 8.46087 5.84035 8.65637C5.78685 8.61537 5.46635 8.09487 5.31285 7.83987C4.90035 7.01137 5.31285 6.45987 5.61785 6.30837C6.30885 5.96487 6.81685 6.35137 6.97685 6.56237C6.91585 6.45837 6.72385 6.03737 6.41435 5.26537C6.10485 4.49337 6.60335 4.01687 6.89085 3.87487C7.51585 3.58587 8.10985 3.95287 8.25835 4.28137C8.33085 4.44137 8.72335 5.30037 8.89335 5.67937C8.76485 5.36537 8.53185 4.74137 8.44935 4.45287C8.28535 3.77287 8.67985 3.30737 8.92985 3.18737C9.27785 3.02087 10.0028 2.97737 10.2898 3.60937L10.2968 3.62587Z" fill="#FFD7C2"/>
<path d="M8.89087 3.4573C8.94387 3.2873 9.01637 3.1843 9.07137 3.1333C9.01903 3.14863 8.9717 3.16663 8.92937 3.1873C8.67937 3.3073 8.28487 3.7733 8.44937 4.4528C8.53137 4.7413 8.76437 5.3653 8.89337 5.6793L8.83137 5.5423C9.11337 6.1898 9.46487 6.8873 9.72987 7.3373C9.76348 7.39445 9.81843 7.43591 9.88261 7.45256C9.94679 7.4692 10.015 7.45967 10.0721 7.42605C10.1293 7.39243 10.1707 7.33749 10.1874 7.27331C10.204 7.20912 10.1945 7.14095 10.1609 7.0838C9.73087 6.3533 9.07687 4.9663 8.88937 4.2778C8.81369 4.00963 8.81421 3.72519 8.89087 3.4573ZM5.31237 7.8398C5.42837 8.0328 5.63987 8.3773 5.75937 8.5513C5.91737 8.7413 6.09037 8.9238 6.26537 9.0973C6.46537 9.2948 6.67287 9.4858 6.86937 9.6668L6.88587 9.6818C7.08887 9.8688 7.27837 10.0443 7.44287 10.2108C7.46595 10.2342 7.4934 10.2528 7.52367 10.2655C7.55394 10.2783 7.58643 10.285 7.61927 10.2852C7.65212 10.2854 7.68469 10.2791 7.71512 10.2668C7.74555 10.2544 7.77324 10.2361 7.79662 10.2131C7.81999 10.19 7.83859 10.1625 7.85136 10.1322C7.86412 10.102 7.8708 10.0695 7.871 10.0366C7.87121 10.0038 7.86495 9.97123 7.85257 9.9408C7.8402 9.91037 7.82195 9.88268 7.79887 9.8593C7.62437 9.6828 7.42587 9.4993 7.22437 9.3143L7.21037 9.3013C7.01237 9.1188 6.81037 8.9328 6.61737 8.7413C6.21837 8.3463 5.87737 7.9493 5.69637 7.5488C5.56787 7.2658 5.53637 6.9343 5.57137 6.6603C5.58364 6.54741 5.61333 6.4371 5.65937 6.3333C5.6693 6.31254 5.68067 6.29249 5.69337 6.2733C5.66837 6.28397 5.64287 6.29563 5.61687 6.3083C5.31237 6.4598 4.89987 7.0113 5.31237 7.8398ZM6.94137 3.8528C6.88787 3.8888 6.81487 3.9758 6.76837 4.1448C6.71587 4.3353 6.70837 4.6033 6.79587 4.9263C6.92287 5.3943 7.24187 6.0223 7.60637 6.6373C7.922 7.16666 8.26134 7.68152 8.62337 8.1803C8.64374 8.20673 8.65862 8.23696 8.66712 8.26923C8.67563 8.30149 8.67759 8.33513 8.67289 8.36817C8.66819 8.4012 8.65692 8.43296 8.63975 8.46157C8.62259 8.49019 8.59986 8.51507 8.57293 8.53477C8.54599 8.55446 8.51539 8.56856 8.48291 8.57624C8.45044 8.58392 8.41676 8.58502 8.38386 8.57948C8.35096 8.57394 8.31949 8.56186 8.29133 8.54397C8.26316 8.52608 8.23887 8.50273 8.21987 8.4753C7.84838 7.96361 7.50019 7.43541 7.17637 6.8923C7.0757 6.72363 6.9787 6.55297 6.88537 6.3803C6.71904 6.01257 6.56182 5.64079 6.41387 5.2653C6.10437 4.4938 6.60287 4.0168 6.89037 3.8753C6.90737 3.86697 6.92437 3.85947 6.94137 3.8528ZM12.3379 6.4718C12.3014 6.8688 12.2804 7.0958 12.2154 7.2548L12.2039 7.3913C12.1979 7.45734 12.2184 7.52304 12.2609 7.57396C12.3034 7.62488 12.3643 7.65683 12.4304 7.6628C12.4964 7.66877 12.5621 7.64826 12.613 7.60578C12.6639 7.5633 12.6959 7.50234 12.7019 7.4363C12.7092 7.35463 12.7167 7.26013 12.7244 7.1528C12.7539 6.7563 12.7954 6.1908 12.9179 5.4798C12.9689 5.1848 13.1014 4.9288 13.2529 4.7618C13.3704 4.6333 13.4714 4.5838 13.5409 4.5713C13.1724 4.5453 12.5349 4.7018 12.4334 5.5463C12.3968 5.85413 12.365 6.1625 12.3379 6.4713" fill="#F1B99B"/>
<path d="M12.0189 3.77854C12.0191 3.81137 12.0258 3.84383 12.0386 3.87407C12.0514 3.90432 12.07 3.93175 12.0933 3.9548C12.1167 3.97785 12.1444 3.99607 12.1748 4.00843C12.2052 4.02078 12.2378 4.02702 12.2706 4.02679C12.3035 4.02656 12.3359 4.01986 12.3662 4.00709C12.3964 3.99431 12.4238 3.9757 12.4469 3.95233C12.4699 3.92895 12.4882 3.90126 12.5005 3.87084C12.5129 3.84042 12.5191 3.80787 12.5189 3.77504C12.5114 2.62754 11.6389 1.03104 9.76388 1.04304C9.69758 1.0435 9.63417 1.07028 9.58762 1.1175C9.54106 1.16471 9.51517 1.22848 9.51563 1.29479C9.5161 1.36109 9.54288 1.42449 9.59009 1.47105C9.6373 1.51761 9.70108 1.5435 9.76738 1.54304C11.2834 1.53304 12.0124 2.81704 12.0189 3.77854Z" fill="#5092FF"/>
<path d="M11.4385 4.99289C11.3723 4.99329 11.3086 4.9674 11.2615 4.9209C11.2143 4.87441 11.1875 4.8111 11.187 4.74489C11.184 4.28989 10.9965 3.68489 10.5985 3.19739C10.2065 2.71739 9.615 2.35639 8.7885 2.36189C8.7222 2.36235 8.65842 2.33646 8.61121 2.2899C8.564 2.24335 8.53721 2.17994 8.53675 2.11364C8.53629 2.04733 8.56218 1.98356 8.60874 1.93635C8.65529 1.88914 8.7187 1.86235 8.785 1.86189C9.779 1.85539 10.509 2.29789 10.9855 2.88089C11.4555 3.45639 11.683 4.17239 11.687 4.74139C11.6872 4.77422 11.6809 4.80677 11.6685 4.83717C11.6562 4.86758 11.6379 4.89525 11.6148 4.9186C11.5918 4.94196 11.5643 4.96054 11.5341 4.97328C11.5038 4.98603 11.4713 4.99269 11.4385 4.99289ZM2.4375 8.80489C2.4375 8.73858 2.41116 8.67499 2.36428 8.62811C2.31739 8.58123 2.2538 8.55489 2.1875 8.55489C2.1212 8.55489 2.05761 8.58123 2.01072 8.62811C1.96384 8.67499 1.9375 8.73858 1.9375 8.80489C1.9375 9.37339 2.16 10.0909 2.6265 10.6699C3.0995 11.2559 3.8265 11.7029 4.8205 11.7029C4.8868 11.7029 4.95039 11.6765 4.99728 11.6297C5.04416 11.5828 5.0705 11.5192 5.0705 11.4529C5.0705 11.3866 5.04416 11.323 4.99728 11.2761C4.95039 11.2292 4.8868 11.2029 4.8205 11.2029C3.994 11.2029 3.4045 10.8379 3.0155 10.3559C2.621 9.86589 2.4375 9.25889 2.4375 8.80439" fill="#5092FF"/>
<path d="M1.59961 9.76562C1.59961 9.69932 1.57327 9.63573 1.52639 9.58885C1.4795 9.54196 1.41591 9.51562 1.34961 9.51562C1.28331 9.51562 1.21972 9.54196 1.17283 9.58885C1.12595 9.63573 1.09961 9.69932 1.09961 9.76562C1.09961 10.9131 1.96111 12.5156 3.83611 12.5156C3.90241 12.5156 3.966 12.4893 4.01289 12.4424C4.05977 12.3955 4.08611 12.3319 4.08611 12.2656C4.08611 12.1993 4.05977 12.1357 4.01289 12.0888C3.966 12.042 3.90241 12.0156 3.83611 12.0156C2.32011 12.0156 1.59961 10.7276 1.59961 9.76562Z" fill="#5092FF"/>
</svg>
