<svg width="310" height="44" viewBox="0 0 310 44" fill="none" xmlns="http://www.w3.org/2000/svg">
<g clip-path="url(#clip0_394_167)">
<path d="M303.8 0H6.2C2.77583 0 0 2.84812 0 6.36145V37.6386C0 41.1519 2.77583 44 6.2 44H303.8C307.224 44 310 41.1519 310 37.6386V6.36145C310 2.84812 307.224 0 303.8 0Z" fill="#FEE500"/>
<mask id="mask0_394_167" style="mask-type:luminance" maskUnits="userSpaceOnUse" x="14" y="12" width="20" height="20">
<path d="M33.0667 12.458H14.4668V31.5423H33.0667V12.458Z" fill="white"/>
</mask>
<g mask="url(#mask0_394_167)">
<path fill-rule="evenodd" clip-rule="evenodd" d="M23.7668 13.0942C18.6303 13.0942 14.4668 16.3947 14.4668 20.4653C14.4668 22.9969 16.0771 25.2286 18.5293 26.5561L17.4976 30.4233C17.4064 30.765 17.7873 31.0374 18.0798 30.8394L22.6026 27.7767C22.9843 27.8144 23.3722 27.8365 23.7668 27.8365C28.9029 27.8365 33.0667 24.5361 33.0667 20.4653C33.0667 16.3947 28.9029 13.0942 23.7668 13.0942Z" fill="black"/>
</g>
<path d="M129.389 15.6016C129.373 20.4522 127.219 23.6965 123.266 25.8276L122.243 24.6508C124.243 23.7124 125.917 22.2016 126.862 20.2455L122.817 20.6908L122.569 19.2753L127.389 18.9095C127.56 18.2734 127.684 17.6214 127.73 16.9216H123.266V15.6016H129.389ZM133.124 14.1226V19.657H135.263V21.0088H133.124V28.2927H131.528V14.1226H133.124ZM142.8 15.6016C142.784 20.4522 140.63 23.6965 136.677 25.8276L135.654 24.6508C137.654 23.7124 139.328 22.2016 140.273 20.2455L136.228 20.6908L135.98 19.2753L140.8 18.9095C140.971 18.2734 141.095 17.6214 141.141 16.9216H136.677V15.6016H142.8ZM146.535 14.1226V19.657H148.674V21.0088H146.535V28.2927H144.939V14.1226H146.535ZM161.698 26.4797H149.22V25.1756H154.645V22.7582C152.088 22.5038 150.46 21.0088 150.46 18.8936C150.46 16.5558 152.46 14.9973 155.451 14.9973C158.489 14.9973 160.473 16.5558 160.473 18.8936C160.473 21.0247 158.815 22.5197 156.226 22.7741V25.1756H161.698V26.4797ZM158.877 18.9095C158.877 17.3987 157.528 16.3332 155.451 16.3332C153.421 16.3332 152.057 17.3987 152.057 18.9095C152.057 20.4045 153.421 21.4223 155.451 21.4223C157.513 21.4223 158.877 20.4045 158.877 18.9095ZM177.972 22.8218H173.709V25.1915H179.181V26.4956H166.703V25.1915H172.128V22.8218H168.3V18.2416H175.988V16.4127H168.253V15.1086H177.569V19.5616H169.896V21.5018H177.972V22.8218ZM192.592 26.2252H180.114V24.9052H192.592V26.2252ZM190.964 15.6493C190.964 19.4026 190.732 22.0585 190.36 23.9192L188.794 23.7124C189.135 22.297 189.368 19.2276 189.368 16.9375H181.556V15.6493H190.964ZM204.887 24.3963H203.306V14.1226H204.887V24.3963ZM205.213 27.8792H195.758V23.4262H197.339V26.5751H205.213V27.8792ZM201.012 18.6392C201.012 20.6589 199.586 22.1062 197.478 22.1062C195.37 22.1062 193.913 20.6589 193.913 18.6551C193.913 16.6353 195.355 15.1722 197.478 15.1722C199.586 15.1722 201.012 16.6194 201.012 18.6392ZM199.431 18.6392C199.431 17.3987 198.687 16.524 197.478 16.524C196.3 16.524 195.51 17.4305 195.51 18.6392C195.51 19.8001 196.3 20.7226 197.478 20.7226C198.687 20.7226 199.431 19.8001 199.431 18.6392Z" fill="black" fill-opacity="0.85"/>
</g>
<defs>
<clipPath id="clip0_394_167">
<rect width="310" height="44" fill="white"/>
</clipPath>
</defs>
</svg>
