<svg width="24" height="22" viewBox="0 0 24 22" fill="none" xmlns="http://www.w3.org/2000/svg">
<path d="M11.4229 20.3647H9.96752L10.9829 15.3774H9.71367L8.69829 20.3647H7.17521C6.55752 20.3647 6.04983 20.7969 5.93136 21.3704C5.89752 21.4951 5.99906 21.6115 6.13444 21.6115H12.4552C12.5906 21.6115 12.6921 21.4951 12.6667 21.3704C12.5483 20.7969 12.0406 20.3647 11.4229 20.3647Z" fill="#FF6723"/>
<path d="M0.279435 5.27861L2.58097 3.62451L1.83636 7.4813L0.279435 6.35086C0.192945 6.28964 0.122504 6.20911 0.0739203 6.11589C0.0253363 6.02268 0 5.91946 0 5.81473C0 5.71001 0.0253363 5.60679 0.0739203 5.51358C0.122504 5.42036 0.192945 5.33983 0.279435 5.27861ZM14.1902 20.365H15.6964C16.314 20.365 16.8302 20.7972 16.9487 21.3707C16.9741 21.4954 16.8725 21.6118 16.7371 21.6118H10.3656C10.2302 21.6118 10.1287 21.4954 10.1541 21.3707C10.2725 20.7972 10.7802 20.365 11.3979 20.365H12.921L13.9364 15.3777H15.2056L14.1902 20.365Z" fill="#FF822D"/>
<path d="M14.1393 4.61318C14.2155 4.87917 14.4228 5.11689 14.702 5.1917L21.1421 6.98211L23.2287 11.4274C21.8664 15.8768 17.6652 19.1177 12.6924 19.1177C6.617 19.1177 1.69238 14.2801 1.69238 8.31204V6.21741C1.69238 2.78453 4.527 0 8.02161 0C10.9578 0 13.4201 1.95333 14.1393 4.61318Z" fill="#FCD53F"/>
<path d="M16.2967 16.6246C19.529 16.5665 22.3297 14.4136 23.2436 11.3714C23.5313 10.3989 23.692 9.37653 23.692 8.31259C23.692 7.86374 23.4043 7.46477 22.9897 7.30684L14.4901 5.14404C14.4901 5.14404 25.348 8.2303 20.0434 11.0655C14.738 13.9016 8.19727 9.47794 8.19727 9.47794V9.81874C8.19727 13.9249 12.4323 16.6246 16.2967 16.6246Z" fill="#F9C23C"/>
<path d="M5.9233 5.81866C6.14772 5.81866 6.36294 5.73109 6.52162 5.5752C6.68031 5.41932 6.76946 5.2079 6.76946 4.98745C6.76946 4.76701 6.68031 4.55559 6.52162 4.3997C6.36294 4.24382 6.14772 4.15625 5.9233 4.15625C5.69889 4.15625 5.48367 4.24382 5.32498 4.3997C5.1663 4.55559 5.07715 4.76701 5.07715 4.98745C5.07715 5.2079 5.1663 5.41932 5.32498 5.5752C5.48367 5.73109 5.69889 5.81866 5.9233 5.81866Z" fill="#1C1C1C"/>
</svg>
