<svg width="310" height="45" viewBox="0 0 310 45" fill="none" xmlns="http://www.w3.org/2000/svg">
<rect x="0.5" y="0.5" width="309" height="43.4812" rx="4.5" fill="white" stroke="#D9D9D9"/>
<path d="M134.753 15.833V16.9902C134.753 18.2354 134.753 19.583 134.387 21.458H136.277V22.6006H130.959V28.1523H129.553V22.6006H124.309V21.458H132.981C133.376 19.5903 133.376 18.2134 133.376 16.9902V16.9756H125.774V15.833H134.753ZM147.761 15.5693V16.4336C147.761 17.3052 147.761 18.4038 147.483 19.832H149.285V20.9453H137.273V19.832H146.091C146.355 18.499 146.384 17.4956 146.384 16.6826H138.782V15.5693H147.761ZM147.776 22.1172V25.5596H140.085V26.8926H148.113V28.0059H138.694V24.4902H146.399V23.2305H138.679V22.1172H147.776ZM165.911 25.3984V26.5703H153.899V25.3984H159.187V23.0986H155.364V18.9238H163.069V17.0781H155.334V15.9355H164.446V20.0371H156.741V21.9561H164.753V23.0986H160.564V25.3984H165.911ZM177.263 16.3457V17.752C177.263 19.4512 177.263 21.2969 176.78 24.0947L175.359 23.9629C175.886 21.3408 175.886 19.4072 175.886 17.752V17.4883H168.152V16.3457H177.263ZM178.831 25.1201V26.2773H166.863V25.1201H178.831ZM190.71 15.0273V24.5635H189.319V15.0273H190.71ZM191.106 26.7314V27.8594H182.126V23.5967H183.533V26.7314H191.106ZM183.591 15.9062C185.569 15.9062 187.078 17.2539 187.078 19.1582C187.078 21.0918 185.569 22.4248 183.591 22.4248C181.614 22.4248 180.09 21.0918 180.09 19.1582C180.09 17.2539 181.614 15.9062 183.591 15.9062ZM183.591 17.1221C182.361 17.1221 181.453 17.957 181.453 19.1582C181.453 20.3887 182.361 21.209 183.591 21.209C184.792 21.209 185.715 20.3887 185.715 19.1582C185.715 17.957 184.792 17.1221 183.591 17.1221Z" fill="black"/>
<path d="M28.1234 11.6032C25.9833 12.3747 24.1377 13.8391 22.8576 15.7812C21.5776 17.7233 20.9306 20.0409 21.0117 22.3934C21.0927 24.7459 21.8976 27.0094 23.3081 28.8514C24.7186 30.6934 26.6603 32.0168 28.848 32.6272C30.6216 33.1028 32.4799 33.1237 34.263 32.6881C35.8783 32.311 37.3718 31.5045 38.597 30.3475C39.8723 29.1064 40.7979 27.5277 41.2744 25.7809C41.7924 23.8814 41.8845 21.8838 41.5438 19.9415H31.5839V24.235H37.352C37.2368 24.9198 36.9897 25.5734 36.6257 26.1566C36.2617 26.7399 35.7882 27.2408 35.2336 27.6295C34.5292 28.1136 33.7352 28.4394 32.9026 28.5859C32.0675 28.7473 31.2109 28.7473 30.3758 28.5859C29.5294 28.404 28.7287 28.041 28.0247 27.5199C26.8937 26.688 26.0446 25.5061 25.5983 24.1428C25.1445 22.7541 25.1445 21.2485 25.5983 19.8598C25.916 18.8863 26.4411 18 27.1345 17.267C27.928 16.4127 28.9325 15.8021 30.038 15.5021C31.1435 15.202 32.3071 15.2243 33.4012 15.5663C34.2559 15.8389 35.0375 16.3153 35.6837 16.9574C36.3341 16.285 36.9833 15.6109 37.6315 14.935C37.9662 14.5716 38.331 14.2255 38.6606 13.8534C37.6743 12.8995 36.5165 12.1573 35.2536 11.6692C32.9539 10.8015 30.4376 10.7782 28.1234 11.6032Z" fill="white"/>
<path d="M28.1236 11.603C30.4377 10.7775 32.9539 10.8002 35.2538 11.6674C36.5169 12.1587 37.6742 12.9045 38.6591 13.8619C38.3245 14.2341 37.9714 14.5819 37.63 14.9436C36.9808 15.6171 36.332 16.2884 35.6839 16.9573C35.0377 16.3152 34.2561 15.8388 33.4014 15.5661C32.3077 15.2229 31.1441 15.1994 30.0383 15.4982C28.9326 15.797 27.9273 16.4065 27.133 17.2599C26.4396 17.9929 25.9145 18.8792 25.5968 19.8527L22.1279 17.0616C23.3696 14.5029 25.5194 12.5456 28.1236 11.603Z" fill="#E33629"/>
<path d="M21.2075 19.8265C21.3939 18.8662 21.7035 17.9363 22.1278 17.0615L25.5967 19.8595C25.1429 21.2483 25.1429 22.7538 25.5967 24.1426C24.441 25.07 23.2847 26.0021 22.1278 26.9388C21.0655 24.7413 20.7415 22.2376 21.2075 19.8265Z" fill="#F8BD00"/>
<path d="M31.5847 19.939H41.5446C41.8853 21.8813 41.7931 23.8789 41.2752 25.7784C40.7987 27.5252 39.8731 29.1039 38.5978 30.3449C37.4783 29.4372 36.3538 28.5364 35.2343 27.6287C35.7894 27.2396 36.2631 26.7381 36.6271 26.1543C36.9911 25.5704 37.238 24.9161 37.3528 24.2307H31.5847C31.5831 22.8013 31.5847 21.3701 31.5847 19.939Z" fill="#587DBD"/>
<path d="M22.127 26.9388C23.2838 26.0114 24.4401 25.0793 25.5958 24.1426C26.043 25.5063 26.8934 26.6882 28.0256 27.5196C28.7318 28.0383 29.5342 28.3984 30.3817 28.5769C31.2168 28.7383 32.0734 28.7383 32.9085 28.5769C33.7411 28.4305 34.5351 28.1047 35.2395 27.6205C36.359 28.5282 37.4835 29.429 38.6029 30.3368C37.3779 31.4944 35.8844 32.3016 34.2689 32.6792C32.4858 33.1148 30.6275 33.0939 28.8539 32.6183C27.4511 32.2291 26.1408 31.5429 25.0051 30.6028C23.8031 29.6111 22.8213 28.3613 22.127 26.9388Z" fill="#319F43"/>
</svg>
