<svg width="271" height="54" viewBox="0 0 271 54" fill="none" xmlns="http://www.w3.org/2000/svg">
<path d="M51.8814 45.28C51.7614 46.8 51.4014 48.08 50.8014 49.12C50.2014 50.2 49.4014 51.06 48.4014 51.7C47.4414 52.38 46.3014 52.86 44.9814 53.14C43.6614 53.46 42.2414 53.64 40.7214 53.68C38.0814 53.76 35.6014 53.8 33.2814 53.8C30.9614 53.84 28.6614 53.86 26.3814 53.86C24.1414 53.86 21.8614 53.84 19.5414 53.8C17.2214 53.8 14.7414 53.76 12.1014 53.68C10.5814 53.64 9.16141 53.46 7.84141 53.14C6.56141 52.86 5.42141 52.38 4.42141 51.7C3.46141 51.06 2.68141 50.2 2.08141 49.12C1.48141 48.08 1.12141 46.8 1.00141 45.28C0.881406 43.96 0.821406 42.78 0.821406 41.74C0.821406 40.7 0.881406 39.52 1.00141 38.2C1.12141 36.68 1.48141 35.4 2.08141 34.36C2.68141 33.28 3.46141 32.42 4.42141 31.78C5.42141 31.1 6.56141 30.62 7.84141 30.34C9.16141 30.02 10.5814 29.84 12.1014 29.8C14.7414 29.76 17.2214 29.72 19.5414 29.68C21.8614 29.64 24.1414 29.62 26.3814 29.62C28.6614 29.62 30.9614 29.64 33.2814 29.68C35.6014 29.72 38.0814 29.76 40.7214 29.8C42.2414 29.84 43.6614 30.02 44.9814 30.34C46.3014 30.62 47.4414 31.1 48.4014 31.78C49.4014 32.42 50.2014 33.28 50.8014 34.36C51.4014 35.4 51.7614 36.68 51.8814 38.2C51.9614 39.52 52.0014 40.7 52.0014 41.74C52.0014 42.78 51.9614 43.96 51.8814 45.28ZM51.5814 24.16C51.5814 25.44 51.2414 26.46 50.5614 27.22C49.8814 27.98 48.9614 28.36 47.8014 28.36H41.8614C40.7414 28.36 39.8214 27.98 39.1014 27.22C38.4214 26.46 38.0814 25.44 38.0814 24.16V21.28H36.7614V24.16C36.7614 25.44 36.4214 26.46 35.7414 27.22C35.0614 27.98 34.1414 28.36 32.9814 28.36H27.0414C25.8814 28.36 24.9614 27.98 24.2814 27.22C23.6014 26.46 23.2614 25.44 23.2614 24.16V4.6C23.2614 3.32 23.6014 2.3 24.2814 1.54C24.9614 0.779997 25.8814 0.399997 27.0414 0.399997H32.9814C34.1414 0.399997 35.0614 0.779997 35.7414 1.54C36.4214 2.3 36.7614 3.32 36.7614 4.6V6.76H38.0814V4.6C38.0814 3.32 38.4214 2.3 39.1014 1.54C39.8214 0.779997 40.7414 0.399997 41.8614 0.399997H47.8014C48.9614 0.399997 49.8814 0.779997 50.5614 1.54C51.2414 2.3 51.5814 3.32 51.5814 4.6V24.16ZM21.8814 24.16C21.8814 25.44 21.5414 26.46 20.8614 27.22C20.1814 27.98 19.2614 28.36 18.1014 28.36H5.08141C3.92141 28.36 3.00141 27.98 2.32141 27.22C1.64141 26.46 1.30141 25.44 1.30141 24.16V4.6C1.30141 3.32 1.64141 2.3 2.32141 1.54C3.00141 0.779997 3.92141 0.399997 5.08141 0.399997H18.1014C19.2614 0.399997 20.1814 0.779997 20.8614 1.54C21.5414 2.3 21.8814 3.32 21.8814 4.6V9.22C21.8814 10.5 21.5214 11.56 20.8014 12.4C20.1214 13.24 19.2214 13.66 18.1014 13.66C17.6214 13.66 17.1214 13.64 16.6014 13.6C16.0814 13.56 15.5414 13.5 14.9814 13.42V15.28C15.5414 15.36 16.0814 15.42 16.6014 15.46C17.1214 15.5 17.6214 15.52 18.1014 15.52C19.3014 15.52 20.2214 15.88 20.8614 16.6C21.5414 17.28 21.8814 18.24 21.8814 19.48V24.16ZM35.3214 41.02C32.4414 40.42 29.4814 40.12 26.4414 40.12C23.4014 40.12 20.4414 40.42 17.5614 41.02V42.46C20.4414 41.86 23.4014 41.56 26.4414 41.56C29.4814 41.56 32.4414 41.86 35.3214 42.46V41.02ZM105.905 45.28C105.785 46.8 105.425 48.08 104.825 49.12C104.225 50.2 103.425 51.06 102.425 51.7C101.465 52.38 100.325 52.86 99.0048 53.14C97.6848 53.46 96.2648 53.64 94.7448 53.68C92.1048 53.76 89.6248 53.8 87.3048 53.8C84.9848 53.84 82.6848 53.86 80.4048 53.86C78.1648 53.86 75.8848 53.84 73.5648 53.8C71.2448 53.8 68.7648 53.76 66.1248 53.68C64.6048 53.64 63.1848 53.46 61.8648 53.14C60.5848 52.86 59.4448 52.38 58.4448 51.7C57.4848 51.06 56.7048 50.2 56.1048 49.12C55.5048 48.08 55.1448 46.8 55.0248 45.28C54.9048 43.96 54.8448 42.78 54.8448 41.74C54.8448 40.7 54.9048 39.52 55.0248 38.2C55.1448 36.68 55.5048 35.4 56.1048 34.36C56.7048 33.28 57.4848 32.42 58.4448 31.78C59.4448 31.1 60.5848 30.62 61.8648 30.34C63.1848 30.02 64.6048 29.84 66.1248 29.8C68.7648 29.76 71.2448 29.72 73.5648 29.68C75.8848 29.64 78.1648 29.62 80.4048 29.62C82.6848 29.62 84.9848 29.64 87.3048 29.68C89.6248 29.72 92.1048 29.76 94.7448 29.8C96.2648 29.84 97.6848 30.02 99.0048 30.34C100.325 30.62 101.465 31.1 102.425 31.78C103.425 32.42 104.225 33.28 104.825 34.36C105.425 35.4 105.785 36.68 105.905 38.2C105.985 39.52 106.025 40.7 106.025 41.74C106.025 42.78 105.985 43.96 105.905 45.28ZM105.605 24.16C105.605 25.44 105.265 26.46 104.585 27.22C103.905 27.98 102.985 28.36 101.825 28.36H95.8848C94.7648 28.36 93.8448 27.98 93.1248 27.22C92.4448 26.46 92.1048 25.44 92.1048 24.16V21.28H90.7848V24.16C90.7848 25.44 90.4448 26.46 89.7648 27.22C89.0848 27.98 88.1648 28.36 87.0048 28.36H81.0648C79.9048 28.36 78.9848 27.98 78.3048 27.22C77.6248 26.46 77.2848 25.44 77.2848 24.16V4.6C77.2848 3.32 77.6248 2.3 78.3048 1.54C78.9848 0.779997 79.9048 0.399997 81.0648 0.399997H87.0048C88.1648 0.399997 89.0848 0.779997 89.7648 1.54C90.4448 2.3 90.7848 3.32 90.7848 4.6V6.76H92.1048V4.6C92.1048 3.32 92.4448 2.3 93.1248 1.54C93.8448 0.779997 94.7648 0.399997 95.8848 0.399997H101.825C102.985 0.399997 103.905 0.779997 104.585 1.54C105.265 2.3 105.605 3.32 105.605 4.6V24.16ZM75.9048 24.16C75.9048 25.44 75.5648 26.46 74.8848 27.22C74.2048 27.98 73.2848 28.36 72.1248 28.36H59.1048C57.9448 28.36 57.0248 27.98 56.3448 27.22C55.6648 26.46 55.3248 25.44 55.3248 24.16V4.6C55.3248 3.32 55.6648 2.3 56.3448 1.54C57.0248 0.779997 57.9448 0.399997 59.1048 0.399997H72.1248C73.2848 0.399997 74.2048 0.779997 74.8848 1.54C75.5648 2.3 75.9048 3.32 75.9048 4.6V9.22C75.9048 10.5 75.5448 11.56 74.8248 12.4C74.1448 13.24 73.2448 13.66 72.1248 13.66C71.6448 13.66 71.1448 13.64 70.6248 13.6C70.1048 13.56 69.5648 13.5 69.0048 13.42V15.28C69.5648 15.36 70.1048 15.42 70.6248 15.46C71.1448 15.5 71.6448 15.52 72.1248 15.52C73.3248 15.52 74.2448 15.88 74.8848 16.6C75.5648 17.28 75.9048 18.24 75.9048 19.48V24.16ZM89.3448 41.02C86.4648 40.42 83.5048 40.12 80.4648 40.12C77.4248 40.12 74.4648 40.42 71.5848 41.02V42.46C74.4648 41.86 77.4248 41.56 80.4648 41.56C83.5048 41.56 86.4648 41.86 89.3448 42.46V41.02ZM142.468 41.2C142.388 42.72 142.128 44.2 141.688 45.64C141.248 47.08 140.608 48.38 139.768 49.54C138.928 50.7 137.888 51.64 136.648 52.36C135.448 53.12 134.048 53.56 132.448 53.68C131.208 53.76 130.088 53.82 129.088 53.86C128.088 53.94 127.108 53.98 126.148 53.98C125.188 53.98 124.208 53.94 123.208 53.86C122.208 53.82 121.108 53.76 119.908 53.68C118.268 53.56 116.808 53.12 115.528 52.36C114.248 51.64 113.148 50.7 112.228 49.54C111.308 48.38 110.588 47.08 110.068 45.64C109.548 44.2 109.268 42.72 109.228 41.2C109.108 38.2 109.008 35.6 108.928 33.4C108.848 31.2 108.808 29.08 108.808 27.04C108.808 25 108.848 22.88 108.928 20.68C109.008 18.48 109.108 15.88 109.228 12.88C109.268 11.36 109.548 9.88 110.068 8.44C110.588 7 111.308 5.7 112.228 4.54C113.148 3.38 114.248 2.44 115.528 1.72C116.808 0.959998 118.268 0.519998 119.908 0.399997C121.108 0.319998 122.208 0.259999 123.208 0.219999C124.208 0.179997 125.188 0.159997 126.148 0.159997C127.108 0.159997 128.088 0.179997 129.088 0.219999C130.088 0.259999 131.208 0.319998 132.448 0.399997C134.048 0.519998 135.448 0.959998 136.648 1.72C137.888 2.44 138.928 3.38 139.768 4.54C140.608 5.66 141.248 6.94 141.688 8.38C142.128 9.82 142.388 11.32 142.468 12.88C142.508 13.64 142.528 14.32 142.528 14.92C142.568 15.52 142.588 16.14 142.588 16.78H143.908V4.6C143.908 3.32 144.248 2.3 144.928 1.54C145.608 0.779997 146.528 0.399997 147.688 0.399997H155.848C157.008 0.399997 157.928 0.779997 158.608 1.54C159.288 2.3 159.628 3.32 159.628 4.6V49.48C159.628 50.76 159.288 51.78 158.608 52.54C157.928 53.3 157.008 53.68 155.848 53.68H147.688C146.528 53.68 145.608 53.3 144.928 52.54C144.248 51.78 143.908 50.76 143.908 49.48V34.3H142.708L142.468 41.2ZM126.688 39.76C127.288 35.4 127.588 31.16 127.588 27.04C127.588 22.92 127.288 18.68 126.688 14.32H124.948C125.508 18.68 125.788 22.92 125.788 27.04C125.788 31.16 125.508 35.4 124.948 39.76H126.688ZM213.652 49.48C213.652 50.76 213.312 51.78 212.632 52.54C211.952 53.3 211.032 53.68 209.872 53.68H199.012C197.852 53.68 196.932 53.3 196.252 52.54C195.572 51.78 195.232 50.76 195.232 49.48V4.6C195.232 3.32 195.572 2.3 196.252 1.54C196.932 0.779997 197.852 0.399997 199.012 0.399997H209.872C211.032 0.399997 211.952 0.779997 212.632 1.54C213.312 2.3 213.652 3.32 213.652 4.6V49.48ZM193.672 49.48C193.672 50.76 193.332 51.78 192.652 52.54C191.972 53.3 191.052 53.68 189.892 53.68H167.152C165.992 53.68 165.072 53.3 164.392 52.54C163.712 51.78 163.372 50.76 163.372 49.48V4.6C163.372 3.32 163.712 2.3 164.392 1.54C165.072 0.779997 165.992 0.399997 167.152 0.399997H189.892C191.052 0.399997 191.972 0.779997 192.652 1.54C193.332 2.3 193.672 3.32 193.672 4.6V11.92C193.672 13.2 193.332 14.22 192.652 14.98C191.972 15.74 191.052 16.12 189.892 16.12H181.252V37.96H189.892C191.052 37.96 191.972 38.34 192.652 39.1C193.332 39.86 193.672 40.88 193.672 42.16V49.48ZM220.575 53.26C219.495 53.46 218.595 53.2 217.875 52.48C217.195 51.76 216.855 50.76 216.855 49.48V41.08C216.855 39.92 217.175 38.88 217.815 37.96C218.455 37 219.355 36.28 220.515 35.8C223.795 34.48 226.275 32.22 227.955 29.02C229.635 25.78 230.475 21.48 230.475 16.12H220.635C219.475 16.12 218.555 15.74 217.875 14.98C217.195 14.22 216.855 13.2 216.855 11.92V4.6C216.855 3.32 217.195 2.3 217.875 1.54C218.555 0.779997 219.475 0.399997 220.635 0.399997H244.095C245.255 0.399997 246.175 0.779997 246.855 1.54C247.535 2.3 247.875 3.32 247.875 4.6V14.74C247.875 19.9 247.315 24.68 246.195 29.08C245.115 33.48 243.455 37.34 241.215 40.66C238.975 43.98 236.135 46.72 232.695 48.88C229.295 51.08 225.255 52.54 220.575 53.26ZM266.355 49.48C266.355 50.76 266.015 51.78 265.335 52.54C264.655 53.3 263.735 53.68 262.575 53.68H253.035C251.875 53.68 250.955 53.3 250.275 52.54C249.595 51.78 249.255 50.76 249.255 49.48V4.6C249.255 3.32 249.595 2.3 250.275 1.54C250.955 0.779997 251.875 0.399997 253.035 0.399997H262.575C263.735 0.399997 264.655 0.779997 265.335 1.54C266.015 2.3 266.355 3.32 266.355 4.6V16.66C266.355 17.3 266.535 17.8 266.895 18.16C267.295 18.52 267.735 18.86 268.215 19.18C268.695 19.46 269.115 19.78 269.475 20.14C269.875 20.46 270.075 20.94 270.075 21.58V30.7C270.075 31.34 269.875 31.84 269.475 32.2C269.115 32.56 268.695 32.9 268.215 33.22C267.735 33.5 267.295 33.82 266.895 34.18C266.535 34.5 266.355 34.98 266.355 35.62V49.48Z" fill="#FF4B98"/>
</svg>
