<svg width="136" height="27" viewBox="0 0 136 27" fill="none" xmlns="http://www.w3.org/2000/svg">
<path d="M26.22 22.64C26.16 23.4 25.98 24.04 25.68 24.56C25.38 25.1 24.98 25.53 24.48 25.85C24 26.19 23.43 26.43 22.77 26.57C22.11 26.73 21.4 26.82 20.64 26.84C19.32 26.88 18.08 26.9 16.92 26.9C15.76 26.92 14.61 26.93 13.47 26.93C12.35 26.93 11.21 26.92 10.05 26.9C8.89 26.9 7.65 26.88 6.33 26.84C5.57 26.82 4.86 26.73 4.2 26.57C3.56 26.43 2.99 26.19 2.49 25.85C2.01 25.53 1.62 25.1 1.32 24.56C1.02 24.04 0.84 23.4 0.78 22.64C0.72 21.98 0.69 21.39 0.69 20.87C0.69 20.35 0.72 19.76 0.78 19.1C0.84 18.34 1.02 17.7 1.32 17.18C1.62 16.64 2.01 16.21 2.49 15.89C2.99 15.55 3.56 15.31 4.2 15.17C4.86 15.01 5.57 14.92 6.33 14.9C7.65 14.88 8.89 14.86 10.05 14.84C11.21 14.82 12.35 14.81 13.47 14.81C14.61 14.81 15.76 14.82 16.92 14.84C18.08 14.86 19.32 14.88 20.64 14.9C21.4 14.92 22.11 15.01 22.77 15.17C23.43 15.31 24 15.55 24.48 15.89C24.98 16.21 25.38 16.64 25.68 17.18C25.98 17.7 26.16 18.34 26.22 19.1C26.26 19.76 26.28 20.35 26.28 20.87C26.28 21.39 26.26 21.98 26.22 22.64ZM26.07 12.08C26.07 12.72 25.9 13.23 25.56 13.61C25.22 13.99 24.76 14.18 24.18 14.18H21.21C20.65 14.18 20.19 13.99 19.83 13.61C19.49 13.23 19.32 12.72 19.32 12.08V10.64H18.66V12.08C18.66 12.72 18.49 13.23 18.15 13.61C17.81 13.99 17.35 14.18 16.77 14.18H13.8C13.22 14.18 12.76 13.99 12.42 13.61C12.08 13.23 11.91 12.72 11.91 12.08V2.3C11.91 1.66 12.08 1.15 12.42 0.769998C12.76 0.389998 13.22 0.199998 13.8 0.199998H16.77C17.35 0.199998 17.81 0.389998 18.15 0.769998C18.49 1.15 18.66 1.66 18.66 2.3V3.38H19.32V2.3C19.32 1.66 19.49 1.15 19.83 0.769998C20.19 0.389998 20.65 0.199998 21.21 0.199998H24.18C24.76 0.199998 25.22 0.389998 25.56 0.769998C25.9 1.15 26.07 1.66 26.07 2.3V12.08ZM11.22 12.08C11.22 12.72 11.05 13.23 10.71 13.61C10.37 13.99 9.91 14.18 9.33 14.18H2.82C2.24 14.18 1.78 13.99 1.44 13.61C1.1 13.23 0.93 12.72 0.93 12.08V2.3C0.93 1.66 1.1 1.15 1.44 0.769998C1.78 0.389998 2.24 0.199998 2.82 0.199998H9.33C9.91 0.199998 10.37 0.389998 10.71 0.769998C11.05 1.15 11.22 1.66 11.22 2.3V4.61C11.22 5.25 11.04 5.78 10.68 6.2C10.34 6.62 9.89 6.83 9.33 6.83C9.09 6.83 8.84 6.82 8.58 6.8C8.32 6.78 8.05 6.75 7.77 6.71V7.64C8.05 7.68 8.32 7.71 8.58 7.73C8.84 7.75 9.09 7.76 9.33 7.76C9.93 7.76 10.39 7.94 10.71 8.3C11.05 8.64 11.22 9.12 11.22 9.74V12.08ZM17.94 20.51C16.5 20.21 15.02 20.06 13.5 20.06C11.98 20.06 10.5 20.21 9.06 20.51V21.23C10.5 20.93 11.98 20.78 13.5 20.78C15.02 20.78 16.5 20.93 17.94 21.23V20.51ZM53.2317 22.64C53.1717 23.4 52.9917 24.04 52.6917 24.56C52.3917 25.1 51.9917 25.53 51.4917 25.85C51.0117 26.19 50.4417 26.43 49.7817 26.57C49.1217 26.73 48.4117 26.82 47.6517 26.84C46.3317 26.88 45.0917 26.9 43.9317 26.9C42.7717 26.92 41.6217 26.93 40.4817 26.93C39.3617 26.93 38.2217 26.92 37.0617 26.9C35.9017 26.9 34.6617 26.88 33.3417 26.84C32.5817 26.82 31.8717 26.73 31.2117 26.57C30.5717 26.43 30.0017 26.19 29.5017 25.85C29.0217 25.53 28.6317 25.1 28.3317 24.56C28.0317 24.04 27.8517 23.4 27.7917 22.64C27.7317 21.98 27.7017 21.39 27.7017 20.87C27.7017 20.35 27.7317 19.76 27.7917 19.1C27.8517 18.34 28.0317 17.7 28.3317 17.18C28.6317 16.64 29.0217 16.21 29.5017 15.89C30.0017 15.55 30.5717 15.31 31.2117 15.17C31.8717 15.01 32.5817 14.92 33.3417 14.9C34.6617 14.88 35.9017 14.86 37.0617 14.84C38.2217 14.82 39.3617 14.81 40.4817 14.81C41.6217 14.81 42.7717 14.82 43.9317 14.84C45.0917 14.86 46.3317 14.88 47.6517 14.9C48.4117 14.92 49.1217 15.01 49.7817 15.17C50.4417 15.31 51.0117 15.55 51.4917 15.89C51.9917 16.21 52.3917 16.64 52.6917 17.18C52.9917 17.7 53.1717 18.34 53.2317 19.1C53.2717 19.76 53.2917 20.35 53.2917 20.87C53.2917 21.39 53.2717 21.98 53.2317 22.64ZM53.0817 12.08C53.0817 12.72 52.9117 13.23 52.5717 13.61C52.2317 13.99 51.7717 14.18 51.1917 14.18H48.2217C47.6617 14.18 47.2017 13.99 46.8417 13.61C46.5017 13.23 46.3317 12.72 46.3317 12.08V10.64H45.6717V12.08C45.6717 12.72 45.5017 13.23 45.1617 13.61C44.8217 13.99 44.3617 14.18 43.7817 14.18H40.8117C40.2317 14.18 39.7717 13.99 39.4317 13.61C39.0917 13.23 38.9217 12.72 38.9217 12.08V2.3C38.9217 1.66 39.0917 1.15 39.4317 0.769998C39.7717 0.389998 40.2317 0.199998 40.8117 0.199998H43.7817C44.3617 0.199998 44.8217 0.389998 45.1617 0.769998C45.5017 1.15 45.6717 1.66 45.6717 2.3V3.38H46.3317V2.3C46.3317 1.66 46.5017 1.15 46.8417 0.769998C47.2017 0.389998 47.6617 0.199998 48.2217 0.199998H51.1917C51.7717 0.199998 52.2317 0.389998 52.5717 0.769998C52.9117 1.15 53.0817 1.66 53.0817 2.3V12.08ZM38.2317 12.08C38.2317 12.72 38.0617 13.23 37.7217 13.61C37.3817 13.99 36.9217 14.18 36.3417 14.18H29.8317C29.2517 14.18 28.7917 13.99 28.4517 13.61C28.1117 13.23 27.9417 12.72 27.9417 12.08V2.3C27.9417 1.66 28.1117 1.15 28.4517 0.769998C28.7917 0.389998 29.2517 0.199998 29.8317 0.199998H36.3417C36.9217 0.199998 37.3817 0.389998 37.7217 0.769998C38.0617 1.15 38.2317 1.66 38.2317 2.3V4.61C38.2317 5.25 38.0517 5.78 37.6917 6.2C37.3517 6.62 36.9017 6.83 36.3417 6.83C36.1017 6.83 35.8517 6.82 35.5917 6.8C35.3317 6.78 35.0617 6.75 34.7817 6.71V7.64C35.0617 7.68 35.3317 7.71 35.5917 7.73C35.8517 7.75 36.1017 7.76 36.3417 7.76C36.9417 7.76 37.4017 7.94 37.7217 8.3C38.0617 8.64 38.2317 9.12 38.2317 9.74V12.08ZM44.9517 20.51C43.5117 20.21 42.0317 20.06 40.5117 20.06C38.9917 20.06 37.5117 20.21 36.0717 20.51V21.23C37.5117 20.93 38.9917 20.78 40.5117 20.78C42.0317 20.78 43.5117 20.93 44.9517 21.23V20.51ZM71.5134 20.6C71.4734 21.36 71.3434 22.1 71.1234 22.82C70.9034 23.54 70.5834 24.19 70.1634 24.77C69.7434 25.35 69.2234 25.82 68.6034 26.18C68.0034 26.56 67.3034 26.78 66.5034 26.84C65.8834 26.88 65.3234 26.91 64.8234 26.93C64.3234 26.97 63.8334 26.99 63.3534 26.99C62.8734 26.99 62.3834 26.97 61.8834 26.93C61.3834 26.91 60.8334 26.88 60.2334 26.84C59.4134 26.78 58.6834 26.56 58.0434 26.18C57.4034 25.82 56.8534 25.35 56.3934 24.77C55.9334 24.19 55.5734 23.54 55.3134 22.82C55.0534 22.1 54.9134 21.36 54.8934 20.6C54.8334 19.1 54.7834 17.8 54.7434 16.7C54.7034 15.6 54.6834 14.54 54.6834 13.52C54.6834 12.5 54.7034 11.44 54.7434 10.34C54.7834 9.24 54.8334 7.94 54.8934 6.44C54.9134 5.68 55.0534 4.94 55.3134 4.22C55.5734 3.5 55.9334 2.85 56.3934 2.27C56.8534 1.69 57.4034 1.22 58.0434 0.859999C58.6834 0.479999 59.4134 0.259999 60.2334 0.199998C60.8334 0.159999 61.3834 0.129999 61.8834 0.11C62.3834 0.0899987 62.8734 0.0799983 63.3534 0.0799983C63.8334 0.0799983 64.3234 0.0899987 64.8234 0.11C65.3234 0.129999 65.8834 0.159999 66.5034 0.199998C67.3034 0.259999 68.0034 0.479999 68.6034 0.859999C69.2234 1.22 69.7434 1.69 70.1634 2.27C70.5834 2.83 70.9034 3.47 71.1234 4.19C71.3434 4.91 71.4734 5.66 71.5134 6.44C71.5334 6.82 71.5434 7.16 71.5434 7.46C71.5634 7.76 71.5734 8.07 71.5734 8.39H72.2334V2.3C72.2334 1.66 72.4034 1.15 72.7434 0.769998C73.0834 0.389998 73.5434 0.199998 74.1234 0.199998H78.2034C78.7834 0.199998 79.2434 0.389998 79.5834 0.769998C79.9234 1.15 80.0934 1.66 80.0934 2.3V24.74C80.0934 25.38 79.9234 25.89 79.5834 26.27C79.2434 26.65 78.7834 26.84 78.2034 26.84H74.1234C73.5434 26.84 73.0834 26.65 72.7434 26.27C72.4034 25.89 72.2334 25.38 72.2334 24.74V17.15H71.6334L71.5134 20.6ZM63.6234 19.88C63.9234 17.7 64.0734 15.58 64.0734 13.52C64.0734 11.46 63.9234 9.34 63.6234 7.16H62.7534C63.0334 9.34 63.1734 11.46 63.1734 13.52C63.1734 15.58 63.0334 17.7 62.7534 19.88H63.6234ZM107.105 24.74C107.105 25.38 106.935 25.89 106.595 26.27C106.255 26.65 105.795 26.84 105.215 26.84H99.7852C99.2052 26.84 98.7452 26.65 98.4052 26.27C98.0652 25.89 97.8952 25.38 97.8952 24.74V2.3C97.8952 1.66 98.0652 1.15 98.4052 0.769998C98.7452 0.389998 99.2052 0.199998 99.7852 0.199998H105.215C105.795 0.199998 106.255 0.389998 106.595 0.769998C106.935 1.15 107.105 1.66 107.105 2.3V24.74ZM97.1152 24.74C97.1152 25.38 96.9452 25.89 96.6052 26.27C96.2652 26.65 95.8052 26.84 95.2252 26.84H83.8552C83.2752 26.84 82.8152 26.65 82.4752 26.27C82.1352 25.89 81.9652 25.38 81.9652 24.74V2.3C81.9652 1.66 82.1352 1.15 82.4752 0.769998C82.8152 0.389998 83.2752 0.199998 83.8552 0.199998H95.2252C95.8052 0.199998 96.2652 0.389998 96.6052 0.769998C96.9452 1.15 97.1152 1.66 97.1152 2.3V5.96C97.1152 6.6 96.9452 7.11 96.6052 7.49C96.2652 7.87 95.8052 8.06 95.2252 8.06H90.9052V18.98H95.2252C95.8052 18.98 96.2652 19.17 96.6052 19.55C96.9452 19.93 97.1152 20.44 97.1152 21.08V24.74ZM110.567 26.63C110.027 26.73 109.577 26.6 109.217 26.24C108.877 25.88 108.707 25.38 108.707 24.74V20.54C108.707 19.96 108.867 19.44 109.187 18.98C109.507 18.5 109.957 18.14 110.537 17.9C112.177 17.24 113.417 16.11 114.257 14.51C115.097 12.89 115.517 10.74 115.517 8.06H110.597C110.017 8.06 109.557 7.87 109.217 7.49C108.877 7.11 108.707 6.6 108.707 5.96V2.3C108.707 1.66 108.877 1.15 109.217 0.769998C109.557 0.389998 110.017 0.199998 110.597 0.199998H122.327C122.907 0.199998 123.367 0.389998 123.707 0.769998C124.047 1.15 124.217 1.66 124.217 2.3V7.37C124.217 9.95 123.937 12.34 123.377 14.54C122.837 16.74 122.007 18.67 120.887 20.33C119.767 21.99 118.347 23.36 116.627 24.44C114.927 25.54 112.907 26.27 110.567 26.63ZM133.457 24.74C133.457 25.38 133.287 25.89 132.947 26.27C132.607 26.65 132.147 26.84 131.567 26.84H126.797C126.217 26.84 125.757 26.65 125.417 26.27C125.077 25.89 124.907 25.38 124.907 24.74V2.3C124.907 1.66 125.077 1.15 125.417 0.769998C125.757 0.389998 126.217 0.199998 126.797 0.199998H131.567C132.147 0.199998 132.607 0.389998 132.947 0.769998C133.287 1.15 133.457 1.66 133.457 2.3V8.33C133.457 8.65 133.547 8.9 133.727 9.08C133.927 9.26 134.147 9.43 134.387 9.59C134.627 9.73 134.837 9.89 135.017 10.07C135.217 10.23 135.317 10.47 135.317 10.79V15.35C135.317 15.67 135.217 15.92 135.017 16.1C134.837 16.28 134.627 16.45 134.387 16.61C134.147 16.75 133.927 16.91 133.727 17.09C133.547 17.25 133.457 17.49 133.457 17.81V24.74Z" fill="#FF4B98"/>
</svg>
