<svg width="24" height="29" viewBox="0 0 24 29" fill="none" xmlns="http://www.w3.org/2000/svg">
<path fill-rule="evenodd" clip-rule="evenodd" d="M11.4686 28.8823L11.4737 28.884C11.8114 29.0307 12 28.9966 12 28.9966C12 28.9966 12.1886 29.0307 12.528 28.884L12.5314 28.8823L12.5417 28.8772L12.5726 28.8635C12.7352 28.7881 12.8958 28.7085 13.0543 28.6247C13.3731 28.461 13.8189 28.2154 14.352 27.8862C15.4149 27.2312 16.8291 26.2385 18.2503 24.8756C21.0891 22.1534 24 17.8977 24 11.9398C24 10.3718 23.6896 8.81921 23.0866 7.37061C22.4835 5.92201 21.5996 4.60578 20.4853 3.49707C19.371 2.38837 18.0481 1.50889 16.5922 0.90886C15.1363 0.308831 13.5759 0 12 0C10.4241 0 8.86371 0.308831 7.4078 0.90886C5.95189 1.50889 4.62902 2.38837 3.51472 3.49707C2.40042 4.60578 1.5165 5.92201 0.913446 7.37061C0.310389 8.81921 -2.34822e-08 10.3718 0 11.9398C0 17.896 2.91086 22.1534 5.75143 24.8756C6.94046 26.0125 8.24652 27.0216 9.648 27.8862C10.1909 28.2211 10.7493 28.5308 11.3211 28.8141L11.4274 28.8635L11.4583 28.8772L11.4686 28.8823ZM12 15.7775C13.023 15.7775 14.0041 15.3732 14.7274 14.6535C15.4508 13.9338 15.8571 12.9576 15.8571 11.9398C15.8571 10.9219 15.4508 9.94576 14.7274 9.22604C14.0041 8.50632 13.023 8.10198 12 8.10198C10.977 8.10198 9.99594 8.50632 9.27259 9.22604C8.54923 9.94576 8.14286 10.9219 8.14286 11.9398C8.14286 12.9576 8.54923 13.9338 9.27259 14.6535C9.99594 15.3732 10.977 15.7775 12 15.7775Z" fill="#FF69A9"/>
</svg>
