<svg width="18" height="18" viewBox="0 0 18 18" fill="none" xmlns="http://www.w3.org/2000/svg">
<g clip-path="url(#clip0_470_188)">
<path d="M1.5 8H16.5V17H1.5V8Z" fill="#66757F"/>
<path d="M1 17H17C17.2652 17 17.5196 17.1054 17.7071 17.2929C17.8946 17.4804 18 17.7348 18 18H0C0 17.7348 0.105357 17.4804 0.292893 17.2929C0.48043 17.1054 0.734784 17 1 17Z" fill="#CCD6DD"/>
<path d="M9 11.5C8.60218 11.5 8.22064 11.658 7.93934 11.9393C7.65804 12.2206 7.5 12.6022 7.5 13V16H10.5V13C10.5 12.6022 10.342 12.2206 10.0607 11.9393C9.77936 11.658 9.39782 11.5 9 11.5Z" fill="#292F33"/>
<path d="M1.5 10.5H3.5V16H1.5V10.5ZM4.5 10.5H6.5V16H4.5V10.5ZM14.5 10.5H16.5V16H14.5V10.5ZM11.5 10.5H13.5V16H11.5V10.5Z" fill="#CCD6DD"/>
<path d="M1 16H17V17H1V16Z" fill="#AAB8C2"/>
<path d="M18 5.5L9 0L0 5.5H18Z" fill="#66757F"/>
<path d="M9 1.2002L1 6.0002V8.0002H17V6.0002L9 1.2002Z" fill="#CCD6DD"/>
<path d="M1.5 9.5H3.5V10.5H1.5V9.5ZM4.5 9.5H6.5V10.5H4.5V9.5ZM11.5 9.5H13.5V10.5H11.5V9.5ZM14.5 9.5H16.5V10.5H14.5V9.5Z" fill="#8899A6"/>
<path d="M0.5 6H17.5V8.5H0.5V6Z" fill="#CCD6DD"/>
<path d="M18 6C18 6.13261 17.9473 6.25979 17.8536 6.35355C17.7598 6.44732 17.6326 6.5 17.5 6.5H0.5C0.367392 6.5 0.240215 6.44732 0.146447 6.35355C0.0526784 6.25979 0 6.13261 0 6V5.5C0 5.36739 0.0526784 5.24021 0.146447 5.14645C0.240215 5.05268 0.367392 5 0.5 5H17.5C17.6326 5 17.7598 5.05268 17.8536 5.14645C17.9473 5.24021 18 5.36739 18 5.5V6ZM18 9C18 9.13261 17.9473 9.25979 17.8536 9.35355C17.7598 9.44732 17.6326 9.5 17.5 9.5H0.5C0.367392 9.5 0.240215 9.44732 0.146447 9.35355C0.0526784 9.25979 0 9.13261 0 9V8.5C0 8.36739 0.0526784 8.24021 0.146447 8.14645C0.240215 8.05268 0.367392 8 0.5 8H17.5C17.6326 8 17.7598 8.05268 17.8536 8.14645C17.9473 8.24021 18 8.36739 18 8.5V9Z" fill="#AAB8C2"/>
<path d="M6.5 16H11.5V17H6.5V16Z" fill="#E1E8ED"/>
<path d="M5.5 17H12.5V18H5.5V17Z" fill="#F5F8FA"/>
</g>
<defs>
<clipPath id="clip0_470_188">
<rect width="18" height="18" fill="white"/>
</clipPath>
</defs>
</svg>
