<svg width="18" height="18" viewBox="0 0 18 18" fill="none" xmlns="http://www.w3.org/2000/svg">
<path d="M14 6.5C14 12 16.5 11.5 16.5 14C16.5 14 16.5 15 15.5 15H2.5C1.5 15 1.5 14 1.5 14C1.5 11.5 4 12 4 6.5C4 3.739 6.2385 1.5 9 1.5C11.7615 1.5 14 3.739 14 6.5Z" fill="#FFAC33"/>
<path d="M9 3C9.82843 3 10.5 2.32843 10.5 1.5C10.5 0.671573 9.82843 0 9 0C8.17157 0 7.5 0.671573 7.5 1.5C7.5 2.32843 8.17157 3 9 3Z" fill="#FFAC33"/>
<path d="M9 18C9.53043 18 10.0391 17.7893 10.4142 17.4142C10.7893 17.0391 11 16.5304 11 16H7C7 16.5304 7.21071 17.0391 7.58579 17.4142C7.96086 17.7893 8.46957 18 9 18Z" fill="#FFAC33"/>
</svg>
