<svg width="18" height="18" viewBox="0 0 18 18" fill="none" xmlns="http://www.w3.org/2000/svg">
<g clip-path="url(#clip0_710_345)">
<path d="M17.9426 5.91642C17.9426 3.19142 15.7336 0.982422 13.0091 0.982422C11.3551 0.982422 9.89562 1.79892 9.00012 3.04692C8.10462 1.79892 6.64512 0.982422 4.99162 0.982422C2.26662 0.982422 0.0576172 3.19092 0.0576172 5.91642C0.0576172 6.30242 0.106617 6.67642 0.190617 7.03692C0.875617 11.2934 5.60812 15.7839 9.00012 17.0169C12.3916 15.7839 17.1246 11.2934 17.8086 7.03742C17.8936 6.67692 17.9426 6.30292 17.9426 5.91642Z" fill="#F4ABBA"/>
<path d="M15.7111 6.68591C15.7112 6.19965 15.6154 5.71814 15.4294 5.26887C15.2434 4.81961 14.9706 4.41139 14.6268 4.06752C14.283 3.72366 13.8748 3.45089 13.4256 3.26479C12.9763 3.07869 12.4948 2.98291 12.0086 2.98291C11.4199 2.98321 10.8399 3.12395 10.3165 3.39344C9.7932 3.66293 9.34172 4.0534 8.99959 4.53241C8.6578 4.05317 8.20646 3.66252 7.68315 3.393C7.15985 3.12348 6.57972 2.98288 5.99109 2.98291C5.00899 2.98291 4.06712 3.37305 3.37267 4.06749C2.67822 4.76194 2.28809 5.70381 2.28809 6.68591C2.28809 6.97541 2.32509 7.25641 2.38759 7.52641C2.90209 10.7209 6.45359 14.0919 8.99959 15.0169C11.5451 14.0914 15.0971 10.7209 15.6111 7.52691C15.6746 7.25641 15.7111 6.97541 15.7111 6.68591Z" fill="#EA596E"/>
<path d="M13.5953 7.4154C13.5955 7.08241 13.53 6.75266 13.4026 6.44499C13.2753 6.13731 13.0886 5.85774 12.8532 5.62223C12.6178 5.38673 12.3383 5.19991 12.0307 5.07246C11.723 4.945 11.3933 4.87939 11.0603 4.87939C10.2103 4.87939 9.46032 5.29889 8.99982 5.94089C8.7658 5.61258 8.4567 5.34495 8.09828 5.1603C7.73986 4.97566 7.3425 4.87935 6.93932 4.87939C6.60625 4.87926 6.27642 4.94477 5.96868 5.07217C5.66094 5.19957 5.38132 5.38636 5.1458 5.62188C4.91029 5.85739 4.72349 6.13701 4.59609 6.44475C4.46869 6.7525 4.40319 7.08233 4.40332 7.4154C4.40332 7.6139 4.42832 7.8059 4.47132 7.9909C4.82382 10.1789 7.25582 12.4869 8.99932 13.1204C10.7418 12.4864 13.1753 10.1784 13.5268 7.9909C13.5708 7.8059 13.5953 7.6134 13.5953 7.4154Z" fill="#DD2E44"/>
</g>
<defs>
<clipPath id="clip0_710_345">
<rect width="18" height="18" fill="white"/>
</clipPath>
</defs>
</svg>
