<svg width="18" height="18" viewBox="0 0 18 18" fill="none" xmlns="http://www.w3.org/2000/svg">
<g clip-path="url(#clip0_710_296)">
<path d="M13.8159 17.8449H1.32187C0.902496 17.8449 0.5625 17.5049 0.5625 17.0855V1.54062C0.5625 1.12125 0.902496 0.78125 1.32187 0.78125H13.8159C14.2353 0.78125 14.5753 1.12125 14.5753 1.54062V17.0855C14.5753 17.5049 14.2353 17.8449 13.8159 17.8449Z" fill="#DCE2E2"/>
<path d="M11.7447 5.21777H2.74805C2.48592 5.21777 2.27344 5.00529 2.27344 4.74316C2.27344 4.48104 2.48592 4.26855 2.74805 4.26855H11.7447C12.0068 4.26855 12.2193 4.48104 12.2193 4.74316C12.2193 5.00529 12.0068 5.21777 11.7447 5.21777ZM12.2193 6.89719C12.2193 6.63506 12.0068 6.42258 11.7447 6.42258H2.74805C2.48592 6.42258 2.27344 6.63506 2.27344 6.89719C2.27344 7.15931 2.48592 7.3718 2.74805 7.3718H11.7447C12.0068 7.3718 12.2193 7.15931 12.2193 6.89719ZM6.14389 9.05125C6.14389 8.78912 5.93141 8.57664 5.66929 8.57664H2.74805C2.48592 8.57664 2.27344 8.78912 2.27344 9.05125C2.27344 9.31337 2.48592 9.52585 2.74805 9.52585H5.66929C5.93141 9.52585 6.14389 9.31337 6.14389 9.05125ZM12.2193 11.2053C12.2193 10.9431 12.0068 10.7307 11.7447 10.7307H2.74805C2.48592 10.7307 2.27344 10.9431 2.27344 11.2053C2.27344 11.4674 2.48592 11.6799 2.74805 11.6799H11.7447C12.0068 11.6799 12.2193 11.4674 12.2193 11.2053ZM6.14389 15.3783C6.14389 15.1162 5.93141 14.9037 5.66929 14.9037H2.74805C2.48592 14.9037 2.27344 15.1162 2.27344 15.3783C2.27344 15.6404 2.48592 15.8529 2.74805 15.8529H5.66929C5.93141 15.8529 6.14389 15.6404 6.14389 15.3783Z" fill="#96A9B2"/>
<path d="M16.5743 4.94036C15.8853 4.25133 15.0992 3.9203 14.8186 4.20096L12.9209 6.09866L15.416 8.5938L17.3137 6.6961C17.5944 6.41545 17.2633 5.62939 16.5743 4.94036Z" fill="#FF6E83"/>
<path d="M15.3712 6.14311C14.5851 5.35698 13.6883 4.9793 13.3681 5.2995L11.4248 7.2428L14.2716 10.0896L16.2149 8.14628C16.535 7.82608 16.1573 6.92921 15.3712 6.14311Z" fill="#BFBCAF"/>
<path d="M7.87784 14.9276L6.16622 15.6721C6.1366 15.685 6.10473 15.6919 6.07244 15.6924C6.04014 15.693 6.00805 15.6872 5.978 15.6754C5.94795 15.6636 5.92052 15.6459 5.89728 15.6235C5.87404 15.601 5.85545 15.5743 5.84257 15.5446C5.82918 15.5137 5.82227 15.4803 5.82227 15.4465C5.82227 15.4128 5.82918 15.3794 5.84257 15.3484L6.58704 13.6368C6.80311 13.14 7.38104 12.9125 7.87784 13.1285C8.37463 13.3446 8.6022 13.9225 8.38612 14.4193C8.28333 14.6556 8.09668 14.8319 7.87784 14.9276Z" fill="#2B2622"/>
<path d="M15.0923 9.26322C15.0941 9.26064 15.0959 9.25804 15.0977 9.25541C15.3446 8.90164 14.9668 8.04994 14.2158 7.29893C13.4648 6.54793 12.6131 6.17017 12.2594 6.41704C12.2567 6.41877 12.2541 6.42057 12.2515 6.42242C12.2483 6.42477 12.245 6.42699 12.242 6.42945C12.2332 6.43616 12.2247 6.44327 12.2167 6.45125L7.70054 10.9674C7.70054 10.9674 6.42293 14.1291 6.90432 14.6104C7.38568 15.0918 10.5473 13.8142 10.5473 13.8142L15.0635 9.29802C15.0715 9.29004 15.0786 9.28153 15.0853 9.27278C15.0877 9.26972 15.09 9.26642 15.0923 9.26322Z" fill="#FFD469"/>
<path d="M7.7004 10.9673L7.6001 11.5923C7.58534 11.6843 7.66497 11.7636 7.75683 11.7486L8.20475 11.6755C8.29321 11.661 8.37136 11.7344 8.36257 11.8236L8.31268 12.3292C8.31064 12.3499 8.31337 12.3708 8.32065 12.3903C8.32794 12.4098 8.33959 12.4274 8.35472 12.4417C8.36984 12.456 8.38804 12.4667 8.40792 12.4729C8.4278 12.4791 8.44883 12.4806 8.46941 12.4774L8.92212 12.4072C9.01468 12.3929 9.09386 12.4739 9.07737 12.5661L8.99992 12.9992C8.98396 13.0884 9.05779 13.1681 9.14796 13.159L9.65748 13.1076C9.67763 13.1056 9.69798 13.108 9.71705 13.1148C9.73613 13.1216 9.75345 13.1326 9.76776 13.1469C9.78207 13.1613 9.79301 13.1786 9.79979 13.1977C9.80656 13.2168 9.809 13.2371 9.80693 13.2573L9.75441 13.7713C9.74537 13.8597 9.82198 13.9331 9.90994 13.9202L10.5583 13.8252L6.90422 15.3542C7.19573 15.0626 6.44093 14.3079 6.14941 14.5993L7.7004 10.9673Z" fill="#E5AA6E"/>
<path d="M8.63791 11.1324C8.60426 11.1324 8.57136 11.1224 8.54339 11.1037C8.51541 11.085 8.49361 11.0584 8.48073 11.0273C8.46785 10.9962 8.46448 10.962 8.47104 10.929C8.47759 10.896 8.49379 10.8657 8.51757 10.8419L12.2858 7.07363C12.3179 7.04286 12.3609 7.02589 12.4054 7.02638C12.4499 7.02686 12.4924 7.04476 12.5239 7.07623C12.5553 7.1077 12.5732 7.15024 12.5737 7.19474C12.5742 7.23924 12.5572 7.28217 12.5265 7.31431L8.75821 11.0826C8.74244 11.0984 8.72369 11.111 8.70304 11.1195C8.68239 11.1281 8.66026 11.1325 8.63791 11.1324ZM9.72086 12.0452L13.4891 8.27696C13.5199 8.24482 13.5369 8.20189 13.5364 8.15739C13.5359 8.11289 13.518 8.07034 13.4865 8.03887C13.4551 8.0074 13.4125 7.98951 13.368 7.98903C13.3235 7.98854 13.2806 8.00551 13.2484 8.03628L9.48018 11.8045C9.4494 11.8367 9.43244 11.8796 9.43292 11.9241C9.43341 11.9686 9.4513 12.0112 9.48277 12.0426C9.51424 12.0741 9.55679 12.092 9.60129 12.0925C9.64579 12.093 9.68871 12.076 9.72086 12.0452ZM10.6835 13.0078L14.4517 9.23958C14.4825 9.20743 14.4995 9.16451 14.499 9.12C14.4985 9.0755 14.4806 9.03296 14.4491 9.00149C14.4177 8.97002 14.3751 8.95212 14.3306 8.95164C14.2861 8.95115 14.2432 8.96812 14.2111 8.9989L10.4428 12.7672C10.412 12.7993 10.3951 12.8422 10.3955 12.8867C10.396 12.9312 10.4139 12.9738 10.4454 13.0052C10.4769 13.0367 10.5194 13.0546 10.5639 13.0551C10.6084 13.0556 10.6513 13.0386 10.6835 13.0078Z" fill="#FFB636"/>
<path d="M10.252 1.94496H4.75951C4.4765 1.94496 4.24707 1.71553 4.24707 1.43252V0.643297C4.24707 0.360289 4.4765 0.130859 4.75951 0.130859H10.252C10.535 0.130859 10.7644 0.360289 10.7644 0.643297V1.43252C10.7644 1.71553 10.535 1.94496 10.252 1.94496Z" fill="#B9C5C6"/>
</g>
<defs>
<clipPath id="clip0_710_296">
<rect width="18" height="18" fill="white"/>
</clipPath>
</defs>
</svg>
