<svg width="22" height="22" viewBox="0 0 22 22" fill="none" xmlns="http://www.w3.org/2000/svg">
<path d="M10.3812 0.721833C6.39375 0.962458 4.29687 3.23121 4.125 7.32183H8.14687C8.18125 5.91246 9.00625 4.84683 10.45 4.67496C11.8937 4.53746 13.2687 4.88121 13.6812 5.84371C14.1281 6.90933 13.1312 8.14683 12.65 8.66246C11.7562 9.62496 10.3125 10.3468 9.55625 11.3781C8.83437 12.4093 8.69687 13.75 8.62812 15.4H12.1687C12.2031 14.3343 12.2719 13.3375 12.7531 12.6843C13.5437 11.6187 14.7125 11.1375 15.675 10.2781C16.6031 9.48746 17.6 8.52496 17.7375 7.01246C18.3219 2.57808 14.6781 0.446833 10.3812 0.721833Z" fill="#FF5A79"/>
<path d="M10.4844 21.3126C11.7184 21.3126 12.7188 20.3276 12.7188 19.1126C12.7188 17.8976 11.7184 16.9126 10.4844 16.9126C9.25036 16.9126 8.25 17.8976 8.25 19.1126C8.25 20.3276 9.25036 21.3126 10.4844 21.3126Z" fill="#FF5A79"/>
</svg>
