<svg width="16" height="16" viewBox="0 0 16 16" fill="none" xmlns="http://www.w3.org/2000/svg">
<g clip-path="url(#clip0_710_349)">
<mask id="mask0_710_349" style="mask-type:luminance" maskUnits="userSpaceOnUse" x="0" y="0" width="16" height="16">
<path d="M0.0078125 0H16.0003V16H0.0078125V0Z" fill="white"/>
</mask>
<g mask="url(#mask0_710_349)">
<path d="M3.1407 12.0074C3.1407 12.0074 2.80695 13.8812 4.5107 13.3149C7.3182 12.3812 7.4532 13.3999 8.31445 13.7512C9.6007 14.2749 11.047 14.2174 12.542 12.6024C14.0995 10.9187 8.6207 10.4512 7.1257 10.2949C5.63195 10.1399 3.29695 11.9762 3.29695 11.9762" fill="#DBA689"/>
</g>
<mask id="mask1_710_349" style="mask-type:luminance" maskUnits="userSpaceOnUse" x="0" y="0" width="16" height="16">
<path d="M0.0078125 0H16.0003V16H0.0078125V0Z" fill="white"/>
</mask>
<g mask="url(#mask1_710_349)">
<path d="M0.86522 12.9163L0.0952204 15.1363V15.2763C0.0952204 15.2763 -0.27478 16.2013 0.50772 15.5475C0.56022 15.5425 0.61397 15.5238 0.61397 15.5238C0.61397 15.5238 2.71397 13.8288 2.78397 13.8063C2.85397 13.7838 3.79397 12.305 3.79397 12.305C3.79397 12.305 2.01272 10.8813 1.71897 11.3325C1.42647 11.7813 0.86522 12.9163 0.86522 12.9163Z" fill="#006CA0"/>
</g>
<mask id="mask2_710_349" style="mask-type:luminance" maskUnits="userSpaceOnUse" x="0" y="0" width="16" height="16">
<path d="M0.0078125 0H16.0003V16H0.0078125V0Z" fill="white"/>
</mask>
<g mask="url(#mask2_710_349)">
<path d="M8.74493 5.92499C8.74493 5.92499 6.01118 4.52999 4.79493 5.40749C3.72493 6.17999 2.84368 6.62124 2.30493 6.93249C1.76618 7.24374 0.981178 7.18374 0.872428 8.64499C0.779928 9.90624 0.778678 10.9712 0.577428 11.4012C0.00742802 12.615 1.53493 13.4437 2.10243 11.1675C2.68493 9.23749 4.35993 10.8875 5.66618 10.5762C6.97368 10.265 9.39618 7.92124 9.67243 7.29249C10.0524 6.42749 8.74493 5.92499 8.74493 5.92499Z" fill="#DBA689"/>
</g>
<mask id="mask3_710_349" style="mask-type:luminance" maskUnits="userSpaceOnUse" x="0" y="0" width="16" height="16">
<path d="M0.0078125 0H16.0003V16H0.0078125V0Z" fill="white"/>
</mask>
<g mask="url(#mask3_710_349)">
<path d="M2.01387 10.6536C2.01387 10.6536 8.22762 1.11981 8.78137 0.497313C9.27637 -0.0589366 8.90262 -0.0826866 10.7051 1.05731C11.1576 1.34356 3.97137 11.0648 3.97137 11.0648L1.90137 10.8773L2.01387 10.6536Z" fill="#006CA0"/>
</g>
<mask id="mask4_710_349" style="mask-type:luminance" maskUnits="userSpaceOnUse" x="0" y="0" width="16" height="16">
<path d="M0.0078125 0H16.0003V16H0.0078125V0Z" fill="white"/>
</mask>
<g mask="url(#mask4_710_349)">
<path d="M6.78803 7.46261C6.78803 7.46261 5.72928 9.01886 4.42178 9.64136C3.11428 10.2639 1.49553 10.5126 1.74428 11.5714C1.99303 12.6301 3.23803 13.3776 5.23053 11.8826C6.28928 11.1976 6.91178 11.7576 7.84553 12.1939C8.77928 12.6301 8.96553 13.3764 11.2693 13.0026C13.573 12.6289 13.8018 13.0564 14.818 13.5626C15.8143 12.9401 15.938 11.0726 15.938 9.88886C15.938 8.70511 15.7943 8.85761 14.3818 8.70636C13.2618 8.33261 10.2555 6.83386 9.45178 6.33011C9.12803 6.12761 8.35928 5.57011 7.39428 6.67886" fill="#FADCBC"/>
</g>
</g>
<defs>
<clipPath id="clip0_710_349">
<rect width="16" height="16" fill="white"/>
</clipPath>
</defs>
</svg>
