<svg width="26" height="26" viewBox="0 0 26 26" fill="none" xmlns="http://www.w3.org/2000/svg">
<path d="M14.0067 2.99603V9.24923C14.0067 9.8027 13.5539 10.2555 13.0004 10.2555C12.4469 10.2555 11.9941 9.8027 11.9941 9.24923V2.99603C11.9941 2.44256 12.4469 1.98975 13.0004 1.98975C13.5539 1.98975 14.0067 2.44256 14.0067 2.99603ZM18.6658 8.22873C19.0588 8.62168 19.6959 8.62173 20.0888 8.22878L22.6576 5.65996C23.0506 5.26702 23.0506 4.62986 22.6576 4.23692C22.2647 3.84397 21.6275 3.84397 21.2346 4.23692L18.6658 6.80574C18.2729 7.19868 18.2729 7.83584 18.6658 8.22873ZM7.33535 8.22878C7.72829 7.83584 7.72835 7.19873 7.3354 6.80579L4.76658 4.23697C4.37363 3.84402 3.73648 3.84402 3.34354 4.23697C2.95059 4.62991 2.95059 5.26707 3.34354 5.66001L5.91236 8.22883C6.3053 8.62173 6.9424 8.62173 7.33535 8.22878ZM20.4869 24.508C20.8782 24.1167 20.8782 23.4763 20.4869 23.0849L16.0652 18.6633C15.6739 18.2719 15.0335 18.2719 14.6422 18.6633C14.2508 19.0546 14.2508 19.695 14.6422 20.0863L19.0638 24.508C19.4552 24.8993 20.0956 24.8993 20.4869 24.508ZM6.93697 24.508L11.3586 20.0863C11.75 19.695 11.75 19.0546 11.3586 18.6633C10.9673 18.2719 10.3269 18.2719 9.9356 18.6633L5.51393 23.0849C5.12261 23.4763 5.12261 24.1167 5.51393 24.508C5.90525 24.8993 6.54565 24.8993 6.93697 24.508Z" fill="#6B8DA1"/>
<path d="M17.9927 2.32052C19.827 0.747617 22.5915 0.828359 24.3286 2.56543C26.0675 4.30428 26.1466 7.07278 24.5687 8.90694C24.499 8.95604 24.4166 8.98408 24.3315 8.98773C24.2463 8.99137 24.1619 8.97047 24.0883 8.92751L17.9677 2.80695C17.9241 2.73222 17.9033 2.6464 17.9077 2.56C17.9122 2.4736 17.9417 2.39038 17.9927 2.32052ZM1.91286 8.9267L8.03342 2.80614C8.07638 2.73251 8.09728 2.64809 8.09364 2.56292C8.08999 2.47776 8.06195 2.39543 8.01286 2.32575C6.17864 0.74782 3.4102 0.826937 1.67134 2.56579C-0.0656787 4.30286 -0.146421 7.06744 1.42648 8.90166C1.49631 8.95273 1.57953 8.98231 1.66593 8.98676C1.75233 8.9912 1.83815 8.97033 1.91286 8.9267Z" fill="#FFB636"/>
<path d="M24.2484 5.51164C24.0244 5.51164 23.8226 5.35645 23.7722 5.1287C23.6638 4.63774 23.4213 4.18523 23.0711 3.81996C22.7217 3.45556 22.281 3.19444 21.7966 3.06479C21.5362 2.99512 21.3816 2.72745 21.4512 2.46705C21.521 2.20664 21.7886 2.05201 22.049 2.12169C22.7058 2.29744 23.3029 2.65108 23.7758 3.14427C24.25 3.63883 24.5784 4.25221 24.7255 4.91811C24.7837 5.18136 24.6174 5.44186 24.3541 5.50006C24.3194 5.50772 24.284 5.51161 24.2484 5.51164ZM2.17067 5.09757C2.30031 4.61317 2.56143 4.17244 2.92583 3.82306C3.2911 3.47282 3.74367 3.23039 4.23457 3.12192C4.49782 3.06378 4.66408 2.80322 4.60593 2.53997C4.54779 2.27672 4.28723 2.11046 4.02398 2.16861C3.35814 2.31572 2.74475 2.64412 2.25014 3.11832C1.7569 3.59124 1.40331 4.18833 1.22756 4.84513C1.20818 4.91748 1.20571 4.99332 1.22034 5.06678C1.23497 5.14024 1.26631 5.20934 1.31193 5.26875C1.35755 5.32815 1.41622 5.37626 1.48342 5.40936C1.55061 5.44245 1.62452 5.45964 1.69942 5.45959C1.91498 5.45964 2.11227 5.31572 2.17067 5.09757Z" fill="#FFD469"/>
<path d="M12.9999 3.27002C7.05791 3.27002 2.24121 8.08672 2.24121 14.0287C2.24121 19.9707 7.05791 24.7878 12.9999 24.7878C18.9418 24.7878 23.7585 19.9707 23.7585 14.0287C23.7585 8.08672 18.9418 3.27002 12.9999 3.27002Z" fill="#FB5046"/>
<path d="M4.25391 14.0287C4.25391 18.8516 8.17762 22.7752 13.0004 22.7752C17.8232 22.7752 21.7465 18.8515 21.7465 14.0287C21.7465 9.20594 17.8232 5.28223 13.0004 5.28223C8.17762 5.28223 4.25391 9.20594 4.25391 14.0287Z" fill="#F9F9F8"/>
<path d="M13.0002 14.6985H19.255C19.5653 14.6985 19.8172 14.4466 19.8172 14.1359C19.8172 13.8256 19.5653 13.5737 19.255 13.5737H13.0002C12.6894 13.5737 12.4375 13.8257 12.4375 14.1359C12.4375 14.4466 12.6894 14.6985 13.0002 14.6985Z" fill="#6B8DA1"/>
<path d="M13.0002 14.6985C13.3109 14.6985 13.5628 14.4466 13.5628 14.1359V8.01529C13.5628 7.70456 13.3109 7.45264 13.0002 7.45264C12.6894 7.45264 12.4375 7.70456 12.4375 8.01529V14.1358C12.4375 14.4465 12.6894 14.6985 13.0002 14.6985Z" fill="#6B8DA1"/>
</svg>
