<svg width="28" height="28" viewBox="0 0 28 28" fill="none" xmlns="http://www.w3.org/2000/svg">
<g clip-path="url(#clip0_471_203)">
<path d="M14 19.5845C2.674 19.5845 0 23.212 0 24.8889C0 26.5658 1.393 28 3.11111 28H24.8889C26.607 28 28 26.5604 28 24.8889C28 23.2175 25.326 19.5845 14 19.5845Z" fill="#78B159"/>
<path d="M22.4034 21.8944C22.4034 23.0852 21.4374 23.5122 20.2466 23.5122C19.0558 23.5122 18.0898 23.086 18.0898 21.8944L18.6288 17.0418C18.6288 15.8511 19.0551 15.9631 20.2466 15.9631C21.4374 15.9631 21.8644 15.8503 21.8644 17.0418L22.4034 21.8944Z" fill="#662113"/>
<path d="M27.1199 15.3355C23.5499 12.1194 22.104 7.51416 20.2467 7.51416C18.3893 7.51416 16.9435 12.1194 13.3742 15.3355C11.8739 16.6873 12.5887 17.4689 14.6451 17.3126C16.4783 17.1734 18.1926 16.7363 20.2467 16.7363C22.3008 16.7363 24.0158 17.1742 25.8482 17.3126C27.9047 17.4689 28.6195 16.6865 27.1199 15.3355Z" fill="#5C913B"/>
<path d="M25.9596 14.0608C23.2164 11.4156 21.6748 7.62622 20.2461 7.62622C18.8173 7.62622 17.2765 11.4156 14.5333 14.0608C12.3532 16.1631 17.3901 16.6344 20.2461 14.0608C23.1013 16.6344 28.139 16.1631 25.9596 14.0608Z" fill="#3E721D"/>
<path d="M25.9596 11.9179C23.2164 9.44616 21.6748 5.90649 20.2461 5.90649C18.8173 5.90649 17.2765 9.44616 14.5333 11.9179C12.3532 13.8818 17.3901 14.3221 20.2461 11.9179C23.1013 14.3221 28.139 13.881 25.9596 11.9179Z" fill="#5C913B"/>
<path d="M24.7068 10.1623C22.5655 8.23268 21.3615 5.46924 20.2462 5.46924C19.1316 5.46924 17.9276 8.23268 15.7856 10.1623C14.0839 11.6953 18.0155 12.0399 20.2462 10.1623C22.4761 12.0391 26.4085 11.6953 24.7068 10.1623Z" fill="#3E721D"/>
<path d="M24.7068 8.55639C22.5655 6.62673 21.3615 3.86328 20.2462 3.86328C19.1316 3.86328 17.9276 6.62673 15.7856 8.55639C14.0839 10.0894 18.0155 10.4339 20.2462 8.55639C22.4761 10.4339 26.4085 10.0902 24.7068 8.55639Z" fill="#5C913B"/>
<path d="M23.846 7.13075C22.1178 5.57364 21.1464 3.34375 20.2465 3.34375C19.3466 3.34375 18.3751 5.57364 16.6469 7.13075C15.2734 8.3682 18.4467 8.64586 20.2465 7.13075C22.0462 8.64586 25.2204 8.3682 23.846 7.13075Z" fill="#3E721D"/>
<path d="M23.846 5.92201C22.1178 4.3649 21.1464 2.13501 20.2465 2.13501C19.3466 2.13501 18.3751 4.3649 16.6469 5.92201C15.2734 7.15945 18.4467 7.43712 20.2465 5.92201C22.0462 7.43712 25.2204 7.15945 23.846 5.92201Z" fill="#5C913B"/>
<path d="M22.9859 4.14241C21.6714 2.95785 20.9318 1.26074 20.2465 1.26074C19.5613 1.26074 18.8224 2.95785 17.5072 4.14241C16.4619 5.0843 18.8769 5.29508 20.2465 4.14241C21.6162 5.29585 24.0312 5.0843 22.9859 4.14241Z" fill="#3E721D"/>
<path d="M22.9859 3.33674C21.6714 2.15219 20.9318 0.455078 20.2465 0.455078C19.5613 0.455078 18.8224 2.15219 17.5072 3.33674C16.4619 4.27863 18.8769 4.48941 20.2465 3.33674C21.6162 4.48941 24.0312 4.27863 22.9859 3.33674Z" fill="#5C913B"/>
<path d="M11.7456 25.6668C11.4158 25.6668 11.1218 25.4591 11.0114 25.1488L7.11317 14.2342C7.07085 14.119 7.05759 13.9952 7.07454 13.8736C7.0915 13.7521 7.13816 13.6366 7.21039 13.5373C7.28354 13.4374 7.3797 13.3566 7.49073 13.3018C7.60175 13.2469 7.72437 13.2197 7.84817 13.2223H16.9941C17.3059 13.2223 17.5883 13.3935 17.7112 13.6805L22.3887 24.5872C22.4398 24.7055 22.4605 24.8346 22.449 24.9629C22.4374 25.0912 22.394 25.2146 22.3227 25.3218C22.2514 25.4291 22.1544 25.5168 22.0406 25.577C21.9267 25.6373 21.7996 25.6681 21.6708 25.6668H11.7456Z" fill="#F4900C"/>
<path d="M3.1692 25.6667C3.04032 25.6662 2.91356 25.6339 2.80022 25.5725C2.68687 25.5112 2.59045 25.4227 2.51955 25.3151C2.44864 25.2075 2.40545 25.084 2.39382 24.9556C2.38218 24.8273 2.40247 24.698 2.45287 24.5794L7.13354 13.6578C7.1935 13.5174 7.2934 13.3977 7.42082 13.3136C7.54824 13.2294 7.69757 13.1846 7.85026 13.1846C8.00295 13.1846 8.15228 13.2294 8.2797 13.3136C8.40712 13.3977 8.50702 13.5174 8.56698 13.6578L13.2476 24.5786C13.298 24.6974 13.3183 24.8267 13.3066 24.9551C13.2949 25.0836 13.2517 25.2072 13.1807 25.3149C13.1097 25.4226 13.0132 25.511 12.8998 25.5724C12.7864 25.6338 12.6595 25.6662 12.5305 25.6667H3.1692Z" fill="#FFCC4D"/>
<path d="M7.84733 15.1169L6.28711 25.6667H9.406L7.84733 15.1169Z" fill="#292F33"/>
<path d="M10.9874 24.801L11.3358 25.6667H9.40618L10.9874 24.801ZM4.70684 24.801L4.3584 25.6667H6.28729L4.70684 24.801Z" fill="#FFAC33"/>
<path d="M9.40654 25.6668C9.40654 25.6668 10.8244 25.3051 11.5174 24.665L7.84787 15.117L9.40654 25.6668ZM6.28765 25.6668C6.28765 25.6668 4.86976 25.3051 4.17676 24.665L7.84709 15.1162L6.28765 25.6668Z" fill="#FFE8B6"/>
<path d="M10.5972 4.37488C10.5832 4.37488 10.5708 4.37955 10.5568 4.37955C10.5837 4.25199 10.5972 4.12055 10.5972 3.98522C10.5972 3.46952 10.3924 2.97494 10.0277 2.61029C9.66305 2.24563 9.16848 2.04077 8.65278 2.04077C8.32446 2.04103 8.00159 2.12475 7.71452 2.28407C7.42744 2.44339 7.18558 2.67308 7.01167 2.95155C6.79091 2.86568 6.55631 2.82087 6.31944 2.81933C5.8466 2.81987 5.39029 2.99338 5.03655 3.30715C4.68281 3.62092 4.45608 4.05326 4.39911 4.52266C4.17604 4.42814 3.9367 4.37795 3.69444 4.37488C3.4391 4.37488 3.18625 4.42518 2.95034 4.52289C2.71443 4.62061 2.50007 4.76384 2.31951 4.9444C2.13896 5.12496 1.99573 5.33931 1.89801 5.57522C1.80029 5.81113 1.75 6.06398 1.75 6.31933C1.75 6.57468 1.80029 6.82752 1.89801 7.06343C1.99573 7.29935 2.13896 7.5137 2.31951 7.69426C2.50007 7.87482 2.71443 8.01804 2.95034 8.11576C3.18625 8.21348 3.4391 8.26377 3.69444 8.26377H10.5972C11.1129 8.26377 11.6075 8.05891 11.9722 7.69426C12.3368 7.3296 12.5417 6.83503 12.5417 6.31933C12.5417 5.80363 12.3368 5.30905 11.9722 4.9444C11.6075 4.57974 11.1129 4.37488 10.5972 4.37488Z" fill="#E1E8ED"/>
</g>
<defs>
<clipPath id="clip0_471_203">
<rect width="28" height="28" fill="white"/>
</clipPath>
</defs>
</svg>
