<svg width="18" height="23" viewBox="0 0 18 23" fill="none" xmlns="http://www.w3.org/2000/svg">
<path d="M10.0435 16.6997H7V22.5147H10.0435V16.6997Z" fill="#6D4534"/>
<path d="M15.9022 9.86603C16.1913 9.29799 16.3587 8.6552 16.3587 7.97504C16.3587 5.80003 14.6924 4.01368 12.5543 3.76703V3.73713C12.5543 1.67424 10.85 0 8.75 0C6.65 0 4.94565 1.67424 4.94565 3.73713V3.76703C4.25844 3.84649 3.60082 4.0874 3.02844 4.46936C2.45606 4.85133 1.98577 5.36311 1.65735 5.96141C1.32894 6.55971 1.15207 7.22691 1.14171 7.90657C1.13135 8.58623 1.2878 9.25834 1.59783 9.86603C0.63913 10.5686 0 11.6823 0 12.9454C0 15.0681 1.76522 16.8022 3.92609 16.8022H13.5739C15.7348 16.8022 17.5 15.0681 17.5 12.9454C17.5 11.6823 16.8609 10.5686 15.9022 9.86603Z" fill="#44911B"/>
</svg>
