<svg width="18" height="23" viewBox="0 0 18 23" fill="none" xmlns="http://www.w3.org/2000/svg">
<path d="M10.0435 17H7V22.9196H10.0435V17Z" fill="#6D4534"/>
<path d="M15.9022 10.0435C16.1913 9.46522 16.3587 8.81087 16.3587 8.11848C16.3587 5.90435 14.6924 4.08587 12.5543 3.83478V3.80435C12.5543 1.70435 10.85 0 8.75 0C6.65 0 4.94565 1.70435 4.94565 3.80435V3.83478C4.25844 3.91567 3.60082 4.16091 3.02844 4.54975C2.45606 4.93858 1.98577 5.45957 1.65735 6.06863C1.32894 6.67769 1.15207 7.35689 1.14171 8.04878C1.13135 8.74066 1.2878 9.42486 1.59783 10.0435C0.63913 10.7587 0 11.8924 0 13.1783C0 15.3391 1.76522 17.1043 3.92609 17.1043H13.5739C15.7348 17.1043 17.5 15.3391 17.5 13.1783C17.5 11.8924 16.8609 10.7587 15.9022 10.0435Z" fill="#44911B"/>
</svg>
