<svg width="9" height="9" viewBox="0 0 9 9" fill="none" xmlns="http://www.w3.org/2000/svg">
<path d="M0.758789 6.01316L5.69793 1.07422L7.92496 3.3013L2.98582 8.24025L1.1888 7.8099L0.758789 6.01316Z" fill="url(#paint0_linear_172_2492)"/>
<path d="M0.759249 6.0136L0.919334 5.85254C0.919334 5.85254 1.00791 6.62432 1.69142 7.30784C2.37492 7.99136 3.14636 8.07994 3.14636 8.07994L2.98627 8.24036C2.82385 8.40285 2.61792 8.51494 2.39328 8.56311L0.389796 8.99249C0.337211 9.00379 0.282633 9.00175 0.231041 8.98654C0.179449 8.97133 0.132486 8.94345 0.094438 8.90543C0.0563895 8.86742 0.0284666 8.82047 0.0132172 8.76889C-0.00203227 8.71731 -0.00412277 8.66274 0.00713636 8.61014L0.436501 6.60628C0.484734 6.38175 0.596811 6.17593 0.759249 6.0136Z" fill="url(#paint1_linear_172_2492)"/>
<path d="M6.33101 0.442604C6.62802 0.155497 7.02594 -0.00343398 7.43901 5.62947e-05C7.85209 0.00354657 8.24726 0.169179 8.53938 0.461264C8.8315 0.753349 8.99718 1.14851 9.00073 1.56159C9.00428 1.97468 8.84541 2.37262 8.55836 2.66969L7.35691 3.87117L5.12988 1.64376L6.33101 0.442604Z" fill="url(#paint2_linear_172_2492)"/>
<path d="M7.18992 4.03742L8.10147 3.12584C8.10147 3.12584 7.32906 3.0363 6.64653 2.35374C5.96367 1.67086 5.87444 0.898438 5.87444 0.898438L4.96289 1.81001C4.96289 1.81001 5.05179 2.58308 5.73465 3.26564C6.41751 3.94819 7.18992 4.03742 7.18992 4.03742Z" fill="url(#paint3_linear_172_2492)"/>
<defs>
<linearGradient id="paint0_linear_172_2492" x1="4.92456" y1="3.01366" x2="5.94889" y2="5.7313" gradientUnits="userSpaceOnUse">
<stop stop-color="#FFA43D"/>
<stop offset="1" stop-color="#FB5937"/>
</linearGradient>
<linearGradient id="paint1_linear_172_2492" x1="-0.61388" y1="6.77636" x2="1.76298" y2="9.10678" gradientUnits="userSpaceOnUse">
<stop offset="0.255" stop-color="#FFD394"/>
<stop offset="1" stop-color="#FF921F"/>
</linearGradient>
<linearGradient id="paint2_linear_172_2492" x1="8.19889" y1="0.784043" x2="6.77548" y2="2.14429" gradientUnits="userSpaceOnUse">
<stop stop-color="#F97DBD"/>
<stop offset="1" stop-color="#DD3CE2"/>
</linearGradient>
<linearGradient id="paint3_linear_172_2492" x1="6.5908" y1="3.04854" x2="4.36827" y2="2.10543" gradientUnits="userSpaceOnUse">
<stop stop-color="#FF921F"/>
<stop offset="1" stop-color="#FFE994"/>
</linearGradient>
</defs>
</svg>
