<svg width="57" height="57" viewBox="0 0 57 57" fill="none" xmlns="http://www.w3.org/2000/svg">
<g clip-path="url(#clip0_211_3461)">
<path d="M37.4472 36.8871L20.1113 19.5512L34.9725 7.16797L49.8321 22.0276L37.4472 36.8871Z" fill="#BE1931"/>
<path d="M54.783 22.0271C54.133 22.6779 53.3611 23.1943 52.5114 23.5466C51.6618 23.8988 50.751 24.0802 49.8311 24.0802C48.9113 24.0802 48.0005 23.8988 47.1508 23.5466C46.3011 23.1943 45.5292 22.6779 44.8793 22.0271L34.9723 12.1218C33.7101 10.7975 33.0158 9.03224 33.0376 7.20296C33.0595 5.37367 33.7958 3.62545 35.0893 2.33175C36.3828 1.03806 38.1309 0.301461 39.9601 0.279322C41.7894 0.257184 43.5548 0.951256 44.8793 2.21327L54.783 12.1218C55.4335 12.7721 55.9496 13.5442 56.3016 14.394C56.6537 15.2438 56.8349 16.1546 56.8349 17.0744C56.8349 17.9943 56.6537 18.9051 56.3016 19.7549C55.9496 20.6047 55.4335 21.3768 54.783 22.0271Z" fill="#DD2E44"/>
<path d="M22.1669 28.2197C22.1669 28.2197 -0.938661 55.4626 0.297922 56.7039C1.53451 57.9452 28.7805 34.8333 28.7805 34.8333L22.1669 28.2197Z" fill="#99AAB5"/>
<path d="M39.924 44.3191C39.2736 44.9701 38.5013 45.4865 37.6512 45.8388C36.8011 46.1912 35.8899 46.3725 34.9697 46.3725C34.0495 46.3725 33.1383 46.1912 32.2882 45.8388C31.4381 45.4865 30.6658 44.9701 30.0155 44.3191L12.6811 26.9816C11.4041 25.6602 10.6973 23.8899 10.7132 22.0523C10.729 20.2147 11.4661 18.4569 12.7658 17.1577C14.0654 15.8585 15.8234 15.1219 17.661 15.1067C19.4986 15.0914 21.2686 15.7988 22.5896 17.0762L39.924 34.4121C40.5745 35.0626 41.0906 35.8348 41.4427 36.6848C41.7948 37.5347 41.976 38.4456 41.976 39.3656C41.976 40.2856 41.7948 41.1965 41.4427 42.0464C41.0906 42.8964 40.5745 43.6686 39.924 44.3191Z" fill="#DD2E44"/>
</g>
<defs>
<clipPath id="clip0_211_3461">
<rect width="57" height="57" fill="white"/>
</clipPath>
</defs>
</svg>
