<svg width="25" height="22" viewBox="0 0 25 22" fill="none" xmlns="http://www.w3.org/2000/svg">
<path d="M16.6667 2.34598L8.33333 0L0 2.34598V21.1139L8.33333 18.7679L16.6667 21.1139L25 18.7679V0L16.6667 2.34598Z" fill="#FFECB3"/>
<path d="M8.33301 0V18.7679L16.6663 21.1139V2.34598L8.33301 0Z" fill="#FFE082"/>
<path d="M16.2419 4C13.3461 4 11 6.39625 11 9.34918C11 12.3021 16.2419 19.2813 16.2419 19.2813C16.2419 19.2813 21.4839 12.3014 21.4839 9.34918C21.4839 6.39698 19.1377 4 16.2419 4Z" fill="#F44336"/>
<path d="M13.9961 9.09369C13.9961 9.67267 14.2328 10.2279 14.6541 10.6373C15.0754 11.0467 15.6468 11.2767 16.2426 11.2767C16.8385 11.2767 17.4099 11.0467 17.8312 10.6373C18.2525 10.2279 18.4892 9.67267 18.4892 9.09369C18.4892 8.51471 18.2525 7.95944 17.8312 7.55004C17.4099 7.14064 16.8385 6.91064 16.2426 6.91064C15.6468 6.91064 15.0754 7.14064 14.6541 7.55004C14.2328 7.95944 13.9961 8.51471 13.9961 9.09369Z" fill="#FFEBEE"/>
</svg>
