<svg width="23" height="23" viewBox="0 0 23 23" fill="none" xmlns="http://www.w3.org/2000/svg">
<path d="M21.3546 11.1627C21.9565 12.7235 23.1671 16.2438 22.8407 18.5023C22.8407 18.5023 20.986 17.4686 20.701 13.8071C20.4659 10.7845 19.958 9.08252 19.958 9.08252C19.958 9.08252 20.9227 10.0415 21.3546 11.1627Z" fill="#D99E82"/>
<path d="M6.59435 14.0142C6.59435 14.0142 7.24346 15.5169 7.02624 19.2799C6.98727 19.9552 6.89271 20.6446 6.87163 21.2107C5.71396 21.2107 5.81619 22.5293 6.06152 22.5293H7.91557C8.35194 22.5293 9.12499 20.3328 9.3288 17.2847C9.5326 14.2359 6.59435 14.0142 6.59435 14.0142ZM14.1907 13.8027C14.1907 13.8027 14.5581 16.0567 16.5233 17.8999C16.6875 18.643 17.0146 20.6037 17.1296 21.219C15.9228 21.219 16.3106 22.5268 16.6626 22.5268H18.3531C18.9607 22.5268 19.0508 20.3277 18.4847 17.6112C17.9193 14.8952 14.1907 13.8027 14.1907 13.8027Z" fill="#C1694F"/>
<path d="M20.5736 10.0013C19.7731 7.60422 15.9646 7.68344 11.6311 8.2348C9.67925 8.48333 9.3055 5.38983 9.3055 4.85763C9.3055 2.54102 7.23295 1.37249 5.15528 2.15577C4.65759 2.34297 4.25956 3.00549 4.03467 3.35177C2.77159 5.29208 1.05872 3.36135 0.893252 5.15472C0.69328 7.32374 1.99278 8.05144 4.12028 8.2348C5.32906 8.33894 5.66958 8.91777 5.93345 11.4407C6.03183 12.3812 6.40558 15.0632 8.11908 15.9781C8.61742 17.8686 9.29208 20.2044 9.55658 21.3927C8.11781 21.6968 8.69983 22.7849 8.69983 22.7849C8.69983 22.7849 10.713 22.7574 11.1506 22.7574C11.6707 22.7574 11.2726 18.9394 10.5533 16.5046C13.5969 16.532 15.5545 15.6504 16.1748 15.3789C16.8316 17.27 18.8275 17.6999 19.2741 18.5043C19.5507 19.0026 20.4739 20.6657 20.5525 21.3767C19.529 21.709 19.8555 22.4833 19.9718 22.7325C20.6637 22.705 22.029 22.705 22.2066 22.705C22.9158 22.705 21.4802 18.2941 20.8758 17.1384C20.1845 15.8152 21.3748 12.3984 20.5736 10.0013Z" fill="#D99E82"/>
<path d="M10.3921 15.6296C10.4202 15.8666 10.4822 16.1989 10.5537 16.5043C13.5974 16.5317 15.555 15.6501 16.1753 15.3785C16.038 14.8802 16.0284 14.5671 16.0661 14.3959C13.8977 14.7518 13.1604 15.8047 10.3921 15.6296ZM4.12012 8.23447C5.32889 8.33861 5.66942 8.91744 5.93328 11.4404C6.03167 12.3809 6.40542 15.0629 8.11892 15.9778C7.65892 14.1966 6.86734 8.06325 4.12012 8.23447Z" fill="#F4C7B5"/>
<path d="M1.59935 5.31948C1.52972 5.80632 1.28374 6.08104 1.03777 6.04335C0.552215 5.9686 0.148438 5.34887 0.148438 4.85757C0.148438 4.36626 0.547104 4.24232 1.03777 4.26468C1.70413 4.29535 1.67794 4.76812 1.59935 5.31948Z" fill="#272B2B"/>
<path d="M9.69048 6.06608C9.91282 7.67288 8.95129 7.91758 8.16801 7.91758C7.38473 7.91758 6.21684 7.11897 6.41234 5.50897C6.49795 4.80172 6.76693 4.10788 6.9292 3.48049C7.14387 2.64802 7.69523 2.37394 8.13926 2.60713C9.20301 3.16488 9.54673 5.03236 9.69048 6.06608Z" fill="#662113"/>
<path d="M5.15539 4.85765C5.48283 4.85765 5.74828 4.59221 5.74828 4.26476C5.74828 3.93732 5.48283 3.67188 5.15539 3.67188C4.82795 3.67188 4.5625 3.93732 4.5625 4.26476C4.5625 4.59221 4.82795 4.85765 5.15539 4.85765Z" fill="#292F33"/>
<path d="M1.95045 7.02199C2.12264 7.02199 2.26223 6.88241 2.26223 6.71022C2.26223 6.53803 2.12264 6.39844 1.95045 6.39844C1.77826 6.39844 1.63867 6.53803 1.63867 6.71022C1.63867 6.88241 1.77826 7.02199 1.95045 7.02199Z" fill="#C1694F"/>
<path d="M2.36034 6.43552C2.45525 6.43552 2.5322 6.35857 2.5322 6.26366C2.5322 6.16874 2.45525 6.0918 2.36034 6.0918C2.26542 6.0918 2.18848 6.16874 2.18848 6.26366C2.18848 6.35857 2.26542 6.43552 2.36034 6.43552Z" fill="#C1694F"/>
<path d="M2.61913 6.8823C2.71404 6.8823 2.79099 6.80535 2.79099 6.71044C2.79099 6.61552 2.71404 6.53857 2.61913 6.53857C2.52421 6.53857 2.44727 6.61552 2.44727 6.71044C2.44727 6.80535 2.52421 6.8823 2.61913 6.8823Z" fill="#C1694F"/>
<path d="M5.9996 11.8386C6.55671 11.9057 7.66391 11.7486 8.1616 11.638C8.6593 11.5275 14.001 9.94434 14.001 9.94434L14.2687 10.8356C14.2687 10.8356 8.7596 12.5421 8.20696 12.7075C7.65432 12.873 6.33502 13.5323 6.33502 13.5323C6.33502 13.5323 6.11013 13.1707 5.9996 12.7523C5.88844 12.3287 5.9996 11.8386 5.9996 11.8386ZM11.9068 12.1472L12.9322 11.8354C12.9322 11.8354 13.8682 14.6434 13.5564 16.293L12.4415 16.4303C12.4415 16.4303 12.522 15.4337 12.3527 14.3763C12.1738 13.2614 11.9068 12.1472 11.9068 12.1472Z" fill="#377700"/>
<path d="M5.35372 9.05308C6.02136 8.80263 8.45744 8.84224 10.0783 7.62644C10.4348 7.35874 10.9996 8.18035 10.7472 8.33944C8.69703 9.63191 6.24817 9.7878 5.71022 9.85488C5.35372 9.8996 4.99722 9.1866 5.35372 9.05308Z" fill="#292F33"/>
<path d="M11.6313 8.23455C11.6313 8.23455 12.0389 9.40883 11.5489 9.94422C11.0589 10.479 10.167 10.5237 10.167 11.2814C10.167 12.0391 10.7017 12.6633 11.103 12.5739C11.5042 12.4844 13.5991 12.3062 14.3568 11.7714C15.1145 11.2367 14.1339 7.93811 14.1339 7.93811C14.1339 7.93811 13.4649 7.75986 12.7519 7.93811C12.0389 8.11636 11.6313 8.23455 11.6313 8.23455Z" fill="#489C00"/>
<path d="M13.2202 10.7678C13.1454 10.7873 13.0675 10.7912 12.9912 10.7792C12.9149 10.7672 12.8419 10.7395 12.7768 10.6979C12.7117 10.6564 12.6559 10.6018 12.6129 10.5376C12.5699 10.4734 12.5407 10.4011 12.527 10.3251C12.3979 9.598 12.2759 8.33236 12.8739 7.87875C13.7319 7.22772 18.3792 5.06764 18.8245 4.88875C19.2577 4.71497 19.1925 4.23261 19.3918 3.56306C19.5567 3.00786 20.6594 2.97975 20.3904 3.87036C20.094 4.85106 20.0109 5.35131 19.5522 5.54681C18.5332 5.97997 14.5478 7.99567 13.7818 8.38922C13.4911 8.53872 13.5722 9.54114 13.6514 10.1526C13.6685 10.2873 13.6357 10.4236 13.5594 10.536C13.483 10.6483 13.3683 10.7289 13.2368 10.7627C13.2308 10.7653 13.2253 10.767 13.2202 10.7678Z" fill="#377700"/>
</svg>
