<svg width="17" height="17" viewBox="0 0 17 17" fill="none" xmlns="http://www.w3.org/2000/svg">
<path d="M10.1068 16.4916H7.89844V0.53125H9.48687C9.57825 0.53125 9.6675 0.570031 9.72966 0.6375L10.0548 0.989719C10.0882 1.02522 10.1069 1.07216 10.1068 1.12094V16.4916Z" fill="#A3673E"/>
<path d="M9.63277 16.4916H7.42383V0.711875C7.42383 0.66397 7.44286 0.618028 7.47673 0.584154C7.51061 0.55028 7.55655 0.53125 7.60445 0.53125H9.45214C9.50004 0.53125 9.54599 0.55028 9.57986 0.584154C9.61374 0.618028 9.63277 0.66397 9.63277 0.711875V16.4916Z" fill="#BF855E"/>
<path d="M10.1066 11.0234L7.42383 11.0261V13.0183L10.1066 13.0156V11.0234Z" fill="url(#paint0_linear_1469_423)"/>
<path d="M7.42383 2.92453L10.1066 2.92188V0.929688L7.42383 0.932344V2.92453Z" fill="url(#paint1_linear_1469_423)"/>
<path d="M14.4156 11.9043H2.95497C2.90893 11.9041 2.86371 11.892 2.82375 11.8692L2.29622 11.5733C2.26216 11.5539 2.23382 11.5258 2.21404 11.492C2.19427 11.4581 2.18377 11.4196 2.18359 11.3804V1.85778C2.18359 1.78606 2.24203 1.72656 2.31481 1.72656H14.1489C14.2127 1.72656 14.2764 1.74781 14.3269 1.78606L14.5777 1.97891C14.6104 2.00381 14.6368 2.03597 14.655 2.07284C14.6731 2.10972 14.6825 2.1503 14.6823 2.19141V11.6344C14.6829 11.6697 14.6764 11.7048 14.6632 11.7376C14.6501 11.7704 14.6305 11.8002 14.6057 11.8253C14.5808 11.8505 14.5512 11.8704 14.5186 11.8839C14.486 11.8975 14.451 11.9044 14.4156 11.9043Z" fill="url(#paint2_linear_1469_423)"/>
<path d="M14.114 11.5111H2.3165C2.29884 11.5113 2.28132 11.5079 2.26498 11.5012C2.24864 11.4945 2.2338 11.4846 2.22133 11.472C2.20886 11.4595 2.19902 11.4446 2.19237 11.4283C2.18573 11.4119 2.18241 11.3944 2.18263 11.3767V1.86097C2.18263 1.78659 2.24213 1.72656 2.3165 1.72656H14.1129C14.1873 1.72656 14.2473 1.78606 14.2473 1.86044V11.3767C14.2473 11.4511 14.1873 11.5111 14.1129 11.5111" fill="#F5F5F5"/>
<path d="M5.34375 5.08057H11.06M5.4075 8.06832H11.1238" stroke="#616161" stroke-width="1.125" stroke-miterlimit="10" stroke-linecap="round"/>
<path d="M14.1197 3.5275H2.31216C2.2781 3.52736 2.24548 3.51377 2.2214 3.48969C2.19732 3.46561 2.18373 3.43299 2.18359 3.39894V1.85566C2.18359 1.78394 2.24203 1.72656 2.31216 1.72656H14.1181C14.1898 1.72656 14.2467 1.785 14.2467 1.85566V3.39894C14.2468 3.41577 14.2436 3.43246 14.2373 3.44806C14.2309 3.46365 14.2216 3.47783 14.2097 3.48978C14.1979 3.50173 14.1838 3.51122 14.1682 3.51769C14.1527 3.52417 14.1366 3.5275 14.1197 3.5275Z" fill="url(#paint3_linear_1469_423)"/>
<path d="M3.98559 1.85831V11.3794C3.98559 11.4522 3.92716 11.5106 3.85438 11.5106H2.31481C2.29756 11.5107 2.28047 11.5073 2.26452 11.5007C2.24856 11.4942 2.23407 11.4845 2.22187 11.4723C2.20967 11.4601 2.20001 11.4456 2.19344 11.4297C2.18687 11.4137 2.18352 11.3966 2.18359 11.3794V1.85778C2.18359 1.785 2.24203 1.72656 2.31481 1.72656H3.85438C3.92609 1.72656 3.98559 1.785 3.98559 1.85831Z" fill="url(#paint4_linear_1469_423)"/>
<defs>
<linearGradient id="paint0_linear_1469_423" x1="8.76523" y1="10.8412" x2="8.76523" y2="12.8361" gradientUnits="userSpaceOnUse">
<stop offset="0.167" stop-color="#424242"/>
<stop offset="0.944" stop-color="#424242" stop-opacity="0"/>
</linearGradient>
<linearGradient id="paint1_linear_1469_423" x1="8.76523" y1="3.05628" x2="8.76523" y2="1.26756" gradientUnits="userSpaceOnUse">
<stop offset="0.232" stop-color="#424242"/>
<stop offset="0.943" stop-color="#424242" stop-opacity="0"/>
</linearGradient>
<linearGradient id="paint2_linear_1469_423" x1="8.43375" y1="11.9978" x2="8.43375" y2="3.75966" gradientUnits="userSpaceOnUse">
<stop offset="0.373" stop-color="#9E9E9E"/>
<stop offset="1" stop-color="#BDBDBD"/>
</linearGradient>
<linearGradient id="paint3_linear_1469_423" x1="8.21594" y1="3.08337" x2="8.21594" y2="-0.799531" gradientUnits="userSpaceOnUse">
<stop offset="0.202" stop-color="#F5F5F5"/>
<stop offset="1" stop-color="#BDBDBD"/>
</linearGradient>
<linearGradient id="paint4_linear_1469_423" x1="4.61088" y1="6.61884" x2="0.72797" y2="6.61884" gradientUnits="userSpaceOnUse">
<stop offset="0.507" stop-color="#BDBDBD" stop-opacity="0"/>
<stop offset="1" stop-color="#BDBDBD"/>
</linearGradient>
</defs>
</svg>
