<svg width="24" height="21" viewBox="0 0 24 21" fill="none" xmlns="http://www.w3.org/2000/svg">
<path d="M12 19.8332C18.6274 19.8332 24 17.2215 24 13.9998C24 10.7782 18.6274 8.1665 12 8.1665C5.37258 8.1665 0 10.7782 0 13.9998C0 17.2215 5.37258 19.8332 12 19.8332Z" fill="#939598"/>
<path d="M12 18.6667C18.6274 18.6667 24 16.055 24 12.8333C24 9.61167 18.6274 7 12 7C5.37258 7 0 9.61167 0 12.8333C0 16.055 5.37258 18.6667 12 18.6667Z" fill="#F1F2F2"/>
<path d="M12.0005 17.046C17.4497 17.046 21.8671 15.0583 21.8671 12.6063C21.8671 10.1542 17.4497 8.1665 12.0005 8.1665C6.55125 8.1665 2.13379 10.1542 2.13379 12.6063C2.13379 15.0583 6.55125 17.046 12.0005 17.046Z" fill="#FFCC4D"/>
<path d="M7.33381 15.7502C7.157 15.7502 6.98743 15.6887 6.86241 15.5793C6.73739 15.4699 6.66715 15.3215 6.66715 15.1668C6.66715 15.0121 6.73739 14.8637 6.86241 14.7544C6.98743 14.645 7.157 14.5835 7.33381 14.5835C8.59915 14.5835 9.38848 13.9506 9.44981 13.5131C9.51048 13.0837 8.80981 12.8825 8.50515 12.816C7.90115 12.6847 7.45181 12.8352 6.93315 13.0114C6.22115 13.2529 5.24581 13.5819 4.19581 12.6626C3.73648 12.2612 3.61715 11.7269 3.86781 11.1967C4.35648 10.1647 6.16381 9.3335 7.33381 9.3335C7.51063 9.3335 7.68019 9.39495 7.80522 9.50435C7.93024 9.61375 8.00048 9.76212 8.00048 9.91683C8.00048 10.0715 7.93024 10.2199 7.80522 10.3293C7.68019 10.4387 7.51063 10.5002 7.33381 10.5002C6.59048 10.5002 5.33715 11.1412 5.09981 11.6435C5.05048 11.7473 5.07048 11.7777 5.13848 11.8377C5.55781 12.2041 5.75715 12.1574 6.45248 11.9235C7.02715 11.7287 7.81381 11.4627 8.82848 11.6849C10.4178 12.0326 10.8751 12.9309 10.7731 13.656C10.6285 14.685 9.30248 15.7502 7.33381 15.7502ZM11.3338 16.3335C11.157 16.3335 10.9874 16.272 10.8624 16.1626C10.7374 16.0532 10.6671 15.9049 10.6671 15.7502C10.6671 15.5955 10.7374 15.4471 10.8624 15.3377C10.9874 15.2283 11.157 15.1668 11.3338 15.1668C15.1318 15.1668 17.8891 14.4394 19.5291 13.0044C19.6542 12.895 19.8237 12.8336 20.0005 12.8336C20.1773 12.8336 20.3468 12.895 20.4718 13.0044C20.5968 13.1138 20.667 13.2621 20.667 13.4168C20.667 13.5715 20.5968 13.7199 20.4718 13.8292C18.5725 15.4912 15.4985 16.3335 11.3338 16.3335Z" fill="#FFE8B6"/>
<path d="M14.2322 14.0933C13.8742 14.0933 13.5196 14.0583 13.1716 13.9819C12.8096 13.9032 11.7089 13.6622 11.6742 12.8835C11.6489 12.3002 12.1149 11.6165 15.6329 10.5752C15.2496 10.3017 14.3276 9.91667 13.3329 9.91667C11.6576 9.91667 10.8016 10.0398 10.4709 10.3291C10.409 10.3832 10.3355 10.4262 10.2547 10.4555C10.1738 10.4848 10.0871 10.4999 9.99957 10.4999C9.91204 10.4999 9.82536 10.4848 9.74449 10.4555C9.66362 10.4262 9.59014 10.3832 9.52824 10.3291C9.46634 10.2749 9.41725 10.2106 9.38375 10.1399C9.35025 10.0691 9.33301 9.99326 9.33301 9.91667C9.33301 9.84007 9.35025 9.76423 9.38375 9.69347C9.41725 9.62271 9.46634 9.55841 9.52824 9.50425C10.1649 8.94717 11.1602 8.75 13.3329 8.75C14.9302 8.75 16.9302 9.52758 17.1169 10.5309C17.1882 10.9171 16.9882 11.4094 16.2109 11.6363C14.4889 12.1386 13.5969 12.5399 13.2102 12.7779C13.2845 12.8009 13.3794 12.8252 13.4949 12.8508C15.6489 13.3198 18.3762 11.4707 18.6736 10.9958C18.6985 10.8501 18.7855 10.7181 18.9171 10.6262C19.0487 10.5343 19.2151 10.4893 19.383 10.5004C19.5509 10.5115 19.7078 10.5778 19.8222 10.6859C19.9366 10.794 19.9999 10.936 19.9996 11.0833C19.9996 11.4952 19.5762 11.9933 18.7416 12.5632C17.5796 13.3572 15.8822 14.0927 14.2322 14.0933Z" fill="#FFE8B6"/>
<path d="M17.9998 11.9585C17.9998 13.4081 16.6471 15.1668 13.3331 15.1668C10.0191 15.1668 10.6665 14.0002 5.33313 12.2502C3.08247 11.5117 8.6858 9.3335 11.9998 9.3335C15.3138 9.3335 17.9998 10.5089 17.9998 11.9585Z" fill="#DD2E44"/>
<path d="M10.6665 14.0001C10.5345 14.0003 10.4054 13.9663 10.2956 13.9022C10.1858 13.8382 10.1002 13.747 10.0497 13.6403C9.99919 13.5336 9.98606 13.4162 10.012 13.303C10.0379 13.1897 10.1016 13.0858 10.1951 13.0043C10.3825 12.8264 10.2698 12.7278 10.1951 12.6625C9.82314 12.337 8.70314 12.3032 7.63114 12.7722C7.55283 12.8064 7.46757 12.8269 7.38023 12.8323C7.29288 12.8378 7.20517 12.8281 7.12209 12.8039C7.03902 12.7797 6.9622 12.7414 6.89604 12.6912C6.82987 12.641 6.77566 12.5799 6.73648 12.5114C6.6973 12.4429 6.67393 12.3683 6.6677 12.2919C6.66148 12.2154 6.67251 12.1387 6.70019 12.066C6.72786 11.9933 6.77162 11.9261 6.82898 11.8682C6.88634 11.8103 6.95617 11.7629 7.03448 11.7286C8.35248 11.1522 10.1851 11.0041 11.1371 11.8382C11.9718 12.5686 11.5945 13.4296 11.1371 13.8297C11.0122 13.9388 10.8429 14 10.6665 14.0001ZM13.3331 11.6667C11.7238 11.6667 10.8765 10.9253 10.1951 10.3292C10.1332 10.275 10.0841 10.2107 10.0507 10.1399C10.0172 10.0692 9.99991 9.99333 9.99991 9.91674C9.99991 9.84015 10.0172 9.76431 10.0507 9.69354C10.0841 9.62278 10.1332 9.55848 10.1951 9.50432C10.257 9.45017 10.3305 9.4072 10.4114 9.37789C10.4923 9.34858 10.5789 9.3335 10.6665 9.3335C10.754 9.3335 10.8407 9.34858 10.9216 9.37789C11.0024 9.4072 11.0759 9.45017 11.1378 9.50432C11.7738 10.0608 12.2758 10.5001 13.3331 10.5001C13.8485 10.5001 15.0571 10.5001 15.5285 10.0877C15.5904 10.0335 15.6639 9.99054 15.7447 9.96123C15.8256 9.93192 15.9123 9.91683 15.9998 9.91683C16.0873 9.91683 16.174 9.93192 16.2549 9.96123C16.3358 9.99054 16.4092 10.0335 16.4711 10.0877C16.533 10.1418 16.5821 10.2061 16.6156 10.2769C16.6491 10.3476 16.6664 10.4235 16.6664 10.5001C16.6664 10.5767 16.6491 10.6525 16.6156 10.7233C16.5821 10.794 16.533 10.8583 16.4711 10.9125C15.6091 11.6667 14.0718 11.6667 13.3331 11.6667ZM13.3331 14.0001C13.1563 14.0001 12.9868 13.9386 12.8617 13.8292C12.7367 13.7198 12.6665 13.5715 12.6665 13.4167C12.6665 13.262 12.7367 13.1137 12.8617 13.0043C12.9868 12.8949 13.1563 12.8334 13.3331 12.8334C14.5645 12.8334 16.3651 12.2722 16.8618 11.8377C16.9237 11.7835 16.9972 11.7405 17.0781 11.7112C17.1589 11.6819 17.2456 11.6668 17.3331 11.6668C17.4207 11.6668 17.5074 11.6819 17.5882 11.7112C17.6691 11.7405 17.7426 11.7835 17.8045 11.8377C17.8664 11.8918 17.9155 11.9561 17.949 12.0269C17.9825 12.0976 17.9997 12.1735 17.9997 12.2501C17.9997 12.3267 17.9825 12.4025 17.949 12.4733C17.9155 12.544 17.8664 12.6083 17.8045 12.6625C16.9438 13.4156 14.6938 14.0001 13.3331 14.0001Z" fill="#EA596E"/>
<path d="M11.3337 11.6669C11.2097 11.667 11.0881 11.6369 10.9826 11.5799C10.8771 11.5229 10.7918 11.4413 10.7364 11.3443C10.0704 10.1794 8.68503 7.75502 8.00436 2.98919C7.99125 2.91227 7.99585 2.83384 8.01789 2.7585C8.03993 2.68317 8.07897 2.61244 8.1327 2.5505C8.18643 2.48855 8.25377 2.43663 8.33077 2.39779C8.40776 2.35895 8.49286 2.33397 8.58105 2.32433C8.66924 2.31468 8.75874 2.32056 8.84429 2.34163C8.92985 2.36269 9.00973 2.39851 9.07923 2.44697C9.14873 2.49544 9.20646 2.55558 9.24901 2.62385C9.29157 2.69212 9.31809 2.76715 9.32703 2.84452C9.97969 7.41202 11.2957 9.7156 11.9284 10.8228C11.9791 10.9116 12.0031 11.0103 11.998 11.1095C11.993 11.2087 11.9591 11.3051 11.8995 11.3896C11.84 11.4742 11.7567 11.544 11.6577 11.5925C11.5587 11.641 11.4472 11.6666 11.3337 11.6669Z" fill="#FFAC33"/>
<path d="M23.4164 6.44124L13.2564 3.81449C11.0224 0.717575 8.21242 1.21574 6.66642 1.16674C6.49975 1.16149 6.12042 1.29507 6.11109 1.53132C6.10109 1.75999 6.79509 1.72791 6.90175 1.73141C8.03842 1.76757 9.53175 1.83407 10.9898 3.18157C9.21775 2.64141 6.49575 2.29432 5.99975 2.33341C5.69442 2.35791 5.66642 2.55216 6.02775 2.69799C6.32442 2.81816 9.07575 3.65874 10.5878 4.06299C9.64175 4.34824 8.39709 4.48007 6.29842 3.56132C5.96709 3.41666 5.49775 3.21191 5.33309 3.50007C5.16842 3.78824 5.67042 3.93932 5.99975 4.08341C7.43975 4.71341 8.28642 5.44374 9.21509 5.44374C10.3191 5.44374 11.1178 5.14916 11.7431 4.91932C11.9651 4.83766 12.1658 4.76591 12.3451 4.71924C12.3558 4.72508 12.3638 4.73324 12.3744 4.73849L22.2444 8.58383C22.5678 8.73841 23.2924 8.12241 23.4691 7.84008C23.6458 7.55657 23.6558 6.57132 23.4164 6.44124Z" fill="#99AAB5"/>
<path d="M8.66687 11.0835C8.49007 11.0835 8.32053 11.022 8.19553 10.9126C7.31887 10.1455 5.23153 5.74022 8.1462 2.5523C8.20087 2.49251 8.26847 2.44273 8.34513 2.4058C8.42179 2.36887 8.50602 2.34551 8.59299 2.33706C8.67997 2.32861 8.768 2.33523 8.85205 2.35655C8.9361 2.37786 9.01453 2.41346 9.08287 2.4613C9.1512 2.50914 9.20809 2.56829 9.2503 2.63536C9.2925 2.70244 9.3192 2.77614 9.32886 2.85224C9.33851 2.92835 9.33094 3.00537 9.30658 3.07892C9.28222 3.15247 9.24154 3.22109 9.18687 3.28088C6.75487 5.94147 8.6682 9.67597 9.13753 10.0872C9.23126 10.1686 9.2952 10.2726 9.32125 10.3858C9.3473 10.4991 9.33428 10.6166 9.28383 10.7234C9.23339 10.8302 9.1478 10.9215 9.03794 10.9856C8.92809 11.0497 8.79892 11.0838 8.66687 11.0835Z" fill="#FFAC33"/>
</svg>
