<svg width="55" height="54" viewBox="0 0 55 54" fill="none" xmlns="http://www.w3.org/2000/svg">
<path d="M54.5 27C54.5 41.6269 42.4204 53.5 27.5 53.5C12.5796 53.5 0.5 41.6269 0.5 27C0.5 12.3731 12.5796 0.5 27.5 0.5C42.4204 0.5 54.5 12.3731 54.5 27Z" fill="white" stroke="#DFDEDE"/>
<path d="M20.8467 29.2315L26.9957 23.1795C27.1299 23.0468 27.311 22.9723 27.4997 22.9723C27.6885 22.9723 27.8696 23.0468 28.0037 23.1795L34.1528 29.2301C34.2878 29.3628 34.4695 29.4371 34.6588 29.4371C34.848 29.4371 35.0297 29.3628 35.1647 29.2301C35.2312 29.1653 35.284 29.0879 35.3201 29.0023C35.3562 28.9168 35.3748 28.8249 35.3748 28.7321C35.3748 28.6392 35.3562 28.5473 35.3201 28.4618C35.284 28.3762 35.2312 28.2988 35.1647 28.234L29.017 22.1833C28.612 21.7857 28.0672 21.563 27.4997 21.563C26.9322 21.563 26.3874 21.7857 25.9825 22.1833L19.8347 28.234C19.7681 28.2988 19.7151 28.3763 19.6789 28.462C19.6427 28.5477 19.624 28.6397 19.624 28.7327C19.624 28.8257 19.6427 28.9178 19.6789 29.0034C19.7151 29.0891 19.7681 29.1666 19.8347 29.2315C19.9697 29.3641 20.1514 29.4385 20.3407 29.4385C20.53 29.4385 20.7117 29.3641 20.8467 29.2315Z" fill="black"/>
</svg>
