<svg width="10" height="10" viewBox="0 0 10 10" fill="none" xmlns="http://www.w3.org/2000/svg">
<g clip-path="url(#clip0_172_2277)">
<path fill-rule="evenodd" clip-rule="evenodd" d="M5.37867 0.6586C5.34532 0.586323 5.29196 0.525112 5.22492 0.482208C5.15787 0.439305 5.07993 0.416504 5.00033 0.416504C4.92073 0.416504 4.8428 0.439305 4.77575 0.482208C4.70871 0.525112 4.65535 0.586323 4.622 0.6586L3.42617 3.25027L0.592418 3.58652C0.513356 3.59585 0.438623 3.62764 0.377064 3.67812C0.315504 3.72861 0.269696 3.79567 0.245061 3.87137C0.220425 3.94708 0.217993 4.02825 0.238053 4.1053C0.258113 4.18234 0.299825 4.25202 0.358251 4.3061L2.45408 6.2436L1.89783 9.0436C1.88238 9.12165 1.88961 9.2025 1.91865 9.27658C1.94768 9.35065 1.99733 9.41487 2.0617 9.46163C2.12608 9.50839 2.2025 9.53574 2.28193 9.54044C2.36136 9.54515 2.44047 9.52701 2.50992 9.48818L5.00033 8.09402L7.49075 9.48818C7.56024 9.52718 7.63946 9.54543 7.71901 9.54078C7.79856 9.53612 7.8751 9.50875 7.93957 9.46191C8.00403 9.41508 8.05372 9.35073 8.08273 9.27652C8.11174 9.2023 8.11886 9.12132 8.10325 9.04318L7.547 6.24402L9.64242 4.3061C9.70084 4.25202 9.74256 4.18234 9.76262 4.1053C9.78267 4.02825 9.78024 3.94708 9.75561 3.87137C9.73097 3.79567 9.68516 3.72861 9.62361 3.67812C9.56205 3.62764 9.48731 3.59585 9.40825 3.58652L6.57408 3.24985L5.37867 0.6586Z" fill="#FFCD29"/>
</g>
<defs>
<clipPath id="clip0_172_2277">
<rect width="10" height="10" fill="white"/>
</clipPath>
</defs>
</svg>
