<svg width="20" height="20" viewBox="0 0 20 20" fill="none" xmlns="http://www.w3.org/2000/svg">
<path d="M14.4444 10V11.1111H7.38493C6.90326 11.1111 6.36548 11.6089 6.18437 12.2222L4.21659 18.8889C4.03548 19.5022 4.38659 20 4.99993 20H14.9999C15.2946 20 15.5772 19.8829 15.7856 19.6746C15.994 19.4662 16.111 19.1836 16.111 18.8889V13.3333C16.1119 12.8419 16.2761 12.3646 16.5778 11.9766C16.8795 11.5887 17.3016 11.3119 17.7777 11.19V10H14.4444Z" fill="#AAB8C2"/>
<path d="M12.2224 12.1528C12.2224 14.1089 9.73466 16.1111 6.66688 16.1111C3.59911 16.1111 1.11133 14.1089 1.11133 12.1528C1.11133 11.1111 1.57411 11.1111 6.66688 11.1111C11.7597 11.1111 12.2224 11.1111 12.2224 12.1528ZM13.8891 10.5556C13.8891 10.8628 13.6035 11.1111 13.2502 11.1111H1.75022C1.39744 11.1111 1.11133 10.8628 1.11133 10.5556C1.11133 10.2483 1.39744 10 1.75022 10H13.2502C13.6035 10 13.8891 10.2483 13.8891 10.5556Z" fill="#E1E8ED"/>
<path d="M10.0004 8.88889H3.33377C3.03908 8.88889 2.75647 9.00595 2.54809 9.21433C2.33972 9.4227 2.22266 9.70532 2.22266 10H11.1115C11.1115 9.70532 10.9945 9.4227 10.7861 9.21433C10.5777 9.00595 10.2951 8.88889 10.0004 8.88889ZM11.1115 0V10C11.7249 10 12.2227 9.44056 12.2227 8.75V1.25C12.2227 0.559444 11.7249 0 11.1115 0Z" fill="#99AAB5"/>
<path d="M18.8893 2.22244C18.8893 1.92775 18.7723 1.64514 18.5639 1.43676C18.3555 1.22839 18.0729 1.11133 17.7782 1.11133H13.3338C13.0391 1.11133 12.7565 1.22839 12.5481 1.43676C12.3397 1.64514 12.2227 1.92775 12.2227 2.22244V10.0002C12.2227 10.2949 12.3397 10.5775 12.5481 10.7859C12.7565 10.9943 13.0391 11.1113 13.3338 11.1113H17.7782C18.0729 11.1113 18.3555 10.9943 18.5639 10.7859C18.7723 10.5775 18.8893 10.2949 18.8893 10.0002V2.22244Z" fill="#E1E8ED"/>
<path d="M11.1111 10.0001C11.7248 10.0001 12.2222 9.50259 12.2222 8.88894C12.2222 8.27529 11.7248 7.77783 11.1111 7.77783C10.4975 7.77783 10 8.27529 10 8.88894C10 9.50259 10.4975 10.0001 11.1111 10.0001Z" fill="#CCD6DD"/>
<path d="M12.2227 2.22217H18.8893V3.33328H12.2227V2.22217Z" fill="#CCD6DD"/>
<path d="M13.8891 11.6669C13.8891 11.8142 13.8306 11.9555 13.7264 12.0597C13.6222 12.1639 13.4809 12.2224 13.3335 12.2224H1.66688C1.51954 12.2224 1.37823 12.1639 1.27405 12.0597C1.16986 11.9555 1.11133 11.8142 1.11133 11.6669C1.11133 11.5195 1.16986 11.3782 1.27405 11.274C1.37823 11.1699 1.51954 11.1113 1.66688 11.1113H13.3335C13.4809 11.1113 13.6222 11.1699 13.7264 11.274C13.8306 11.3782 13.8891 11.5195 13.8891 11.6669Z" fill="#AAB8C2"/>
</svg>
