<svg width="18" height="18" viewBox="0 0 18 18" fill="none" xmlns="http://www.w3.org/2000/svg">
<path d="M15.0005 11.9138C14.9541 11.9604 14.8991 11.9974 14.8384 12.0226C14.7777 12.0479 14.7127 12.0609 14.647 12.0609C14.5813 12.0609 14.5162 12.0479 14.4555 12.0226C14.3949 11.9974 14.3398 11.9604 14.2935 11.9138L13.5865 11.2068C13.5399 11.1605 13.5029 11.1054 13.4777 11.0448C13.4524 10.9841 13.4395 10.9191 13.4395 10.8533C13.4395 10.7876 13.4524 10.7226 13.4777 10.6619C13.5029 10.6013 13.5399 10.5462 13.5865 10.4998L15.0005 9.08585C15.0942 8.99211 15.2214 8.93945 15.354 8.93945C15.4866 8.93945 15.6137 8.99211 15.7075 9.08585L16.4145 9.79285C16.4611 9.83917 16.498 9.89425 16.5233 9.95492C16.5485 10.0156 16.5615 10.0806 16.5615 10.1463C16.5615 10.2121 16.5485 10.2771 16.5233 10.3378C16.498 10.3984 16.4611 10.4535 16.4145 10.4998L15.0005 11.9138ZM7.50047 4.41385C7.45414 4.46044 7.39906 4.49741 7.3384 4.52264C7.27773 4.54788 7.21267 4.56086 7.14697 4.56086C7.08127 4.56086 7.01621 4.54788 6.95554 4.52264C6.89488 4.49741 6.8398 4.46044 6.79347 4.41385L6.08647 3.70685C6.03988 3.66052 6.0029 3.60544 5.97767 3.54477C5.95244 3.48411 5.93945 3.41905 5.93945 3.35335C5.93945 3.28764 5.95244 3.22259 5.97767 3.16192C6.0029 3.10125 6.03988 3.04617 6.08647 2.99985L7.50047 1.58585C7.59423 1.49211 7.72139 1.43945 7.85397 1.43945C7.98655 1.43945 8.11371 1.49211 8.20747 1.58585L8.91447 2.29285C8.96106 2.33917 8.99804 2.39425 9.02327 2.45492C9.0485 2.51559 9.06149 2.58064 9.06149 2.64635C9.06149 2.71205 9.0485 2.77711 9.02327 2.83777C8.99804 2.89844 8.96106 2.95352 8.91447 2.99985L7.50047 4.41385Z" fill="#66757F"/>
<path d="M1.0003 11.0001C2.0003 11.0001 6.5003 11.5001 6.5003 11.5001C6.5003 11.5001 7.0003 16.0001 7.0003 17.0001C7.0003 18.0001 6.0003 18.0001 5.5003 17.5001C5.0003 17.0001 3.5003 14.5001 3.5003 14.5001C3.5003 14.5001 1.0003 13.0001 0.500302 12.5001C0.000302136 12.0001 0.000302136 11.0001 1.0003 11.0001ZM2.0003 3.0196C3.5003 3.0001 14.5003 3.5001 14.5003 3.5001C14.5003 3.5001 14.9623 14.5001 14.9813 16.0001C15.0003 17.5001 13.5998 18.0011 13.0503 16.0006C12.5008 14.0001 10.5003 7.5001 10.5003 7.5001C10.5003 7.5001 3.5228 5.2916 1.9978 4.9491C0.000302076 4.5001 0.499802 3.0386 2.0003 3.0196Z" fill="#55ACEE"/>
<path d="M13.4997 1.49986C14.4997 0.499863 16.9997 -0.000136644 17.4997 0.499863C17.9997 0.999863 17.4997 3.49986 16.4997 4.49986C15.4997 5.49986 6.99974 13.4999 6.99974 13.4999C6.99974 13.4999 3.74974 15.7499 2.99974 14.9999C2.24974 14.2499 4.49974 10.9999 4.49974 10.9999C4.49974 10.9999 12.4997 2.49986 13.4997 1.49986Z" fill="#CCD6DD"/>
<path d="M7.00045 11C7.00045 11 7.25045 11.25 5.00045 13.5C2.75045 15.75 2.50045 15.5 2.50045 15.5C2.50045 15.5 2.25045 15.25 4.50045 13C6.75045 10.75 7.00045 11 7.00045 11ZM14.5005 2C14.8983 2 15.2798 2.15804 15.5611 2.43934C15.8424 2.72064 16.0005 3.10218 16.0005 3.5H16.403C16.46 3.3425 16.5005 3.1775 16.5005 3C16.5005 2.60218 16.3424 2.22064 16.0611 1.93934C15.7798 1.65804 15.3983 1.5 15.0005 1.5C14.823 1.5 14.658 1.5405 14.5005 1.5975V2Z" fill="#66757F"/>
</svg>
