<svg width="26" height="24" viewBox="0 0 26 24" fill="none" xmlns="http://www.w3.org/2000/svg">
<mask id="mask0_1661_243" style="mask-type:luminance" maskUnits="userSpaceOnUse" x="3" y="2" width="22" height="21">
<path d="M4.40004 18.2567L14.6381 21.4929L21.1221 12.613L15.5895 13.4664L14.7931 5.92842L9.07431 11.407L5.29963 7.61165L4.40004 18.2567Z" fill="#555555" stroke="white" stroke-width="2" stroke-linecap="round" stroke-linejoin="round"/>
<path d="M5.05834 7.51902C5.82779 7.76224 6.68719 7.33627 6.97787 6.56757C7.26855 5.79888 6.88043 4.97855 6.11098 4.73532C5.34154 4.4921 4.48213 4.91807 4.19145 5.68677C3.90077 6.45546 4.28889 7.27579 5.05834 7.51902Z" fill="#555555" stroke="white" stroke-width="2"/>
<path d="M14.5847 6.07517C15.3542 6.3184 16.2136 5.89242 16.5042 5.12372C16.7949 4.35503 16.4068 3.5347 15.6374 3.29148C14.8679 3.04825 14.0085 3.47423 13.7178 4.24292C13.4271 5.01162 13.8153 5.83194 14.5847 6.07517Z" fill="#555555" stroke="white" stroke-width="2"/>
<path d="M21.156 12.8496C21.9254 13.0928 22.7849 12.6668 23.0755 11.8981C23.3662 11.1294 22.9781 10.3091 22.2086 10.0659C21.4392 9.82266 20.5798 10.2486 20.2891 11.0173C19.9984 11.786 20.3865 12.6064 21.156 12.8496Z" fill="#555555" stroke="white" stroke-width="2"/>
</mask>
<g mask="url(#mask0_1661_243)">
<path d="M5.4707 -3.15723L27.9799 4.11989L19.8272 26.2203L-2.68195 18.9432L5.4707 -3.15723Z" fill="#FFCD29"/>
</g>
</svg>
