<svg width="18" height="18" viewBox="0 0 18 18" fill="none" xmlns="http://www.w3.org/2000/svg">
<path d="M14.873 12.849C13.7972 15.009 11.5725 16.501 8.99906 16.501C6.38625 16.501 4.13344 14.964 3.07875 12.7477C2.67234 11.8941 2.4375 10.9449 2.4375 9.93803C2.4375 6.31975 5.38078 3.37646 8.99906 3.37646C12.6173 3.37646 15.5606 6.31975 15.5606 9.93803C15.562 10.9857 15.3103 11.9715 14.873 12.849Z" fill="white"/>
<path d="M9.47516 2.38219V1.305H10.1263V0.246094H7.86922V1.305H8.52172V2.38219C4.56734 2.62969 1.42578 5.92312 1.42578 9.93797C1.42578 11.4792 1.88984 12.915 2.68437 14.1117L2.18516 16.5178C2.18516 16.5178 1.87156 17.9269 3.26094 17.9269C4.48438 17.9269 8.91266 17.8847 8.91266 17.8847C8.91266 17.8847 13.3423 17.9269 14.5644 17.9269C15.9538 17.9269 15.6402 16.5178 15.6402 16.5178L15.1803 14.303C16.055 13.0683 16.5711 11.5622 16.5711 9.93797C16.5725 5.92312 13.4295 2.62969 9.47516 2.38219ZM14.8723 12.8489C13.7966 15.0089 11.5719 16.5009 8.99844 16.5009C6.38563 16.5009 4.13281 14.9639 3.07812 12.7477C2.67172 11.8941 2.43687 10.9448 2.43687 9.93797C2.43687 6.31969 5.38016 3.37641 8.99844 3.37641C12.6167 3.37641 15.56 6.31969 15.56 9.93797C15.5614 10.9856 15.3097 11.9714 14.8723 12.8489Z" fill="#006CA2"/>
<path d="M9.53953 9.00287C9.53109 8.99725 9.51844 8.99443 9.50859 8.98881V4.36084H8.47219V9.00287C8.30369 9.09633 8.16334 9.23328 8.06578 9.39943C7.86469 9.74818 7.88297 10.1588 8.07281 10.4822L6.855 12.5776L7.08 12.7083L7.75078 13.0993L7.97859 12.7083L8.96438 11.0124C9.34828 11.0251 9.72797 10.8352 9.93469 10.478C10.2328 9.96334 10.057 9.3024 9.53953 9.00287ZM8.84906 10.3163C8.77374 10.2861 8.70916 10.2341 8.66356 10.1669C8.61797 10.0998 8.59344 10.0206 8.59313 9.93943C8.59313 9.71584 8.77594 9.53303 8.99953 9.53303C9.02766 9.53303 9.05297 9.54287 9.07828 9.5485C9.17109 9.56678 9.25125 9.61318 9.30891 9.6835C9.36656 9.75381 9.40594 9.841 9.40594 9.93943C9.40594 10.111 9.30047 10.2558 9.15 10.3163C9.10219 10.3346 9.05297 10.3472 8.99812 10.3472C8.94609 10.3472 8.89547 10.3346 8.84906 10.3163ZM14.8594 9.74396C14.7891 9.62021 14.6625 9.53303 14.5106 9.53303C14.2856 9.53303 14.1042 9.71584 14.1042 9.93943C14.1042 10.0473 14.147 10.1509 14.2232 10.2273C14.2993 10.3037 14.4027 10.3469 14.5106 10.3472C14.6625 10.3472 14.7905 10.2601 14.8594 10.1363C14.8931 10.0772 14.917 10.0126 14.917 9.93943C14.917 9.86631 14.8931 9.80303 14.8594 9.74396ZM11.9597 4.81506C11.8992 4.7799 11.8331 4.76725 11.767 4.76584C11.6236 4.76162 11.4816 4.82912 11.4042 4.96271C11.3772 5.00889 11.3596 5.05997 11.3525 5.11299C11.3454 5.16601 11.3489 5.21991 11.3627 5.27158C11.3766 5.32324 11.4006 5.37165 11.4333 5.41398C11.466 5.45631 11.5068 5.49173 11.5533 5.51818C11.7488 5.62928 11.9963 5.56459 12.1088 5.37053C12.1833 5.23975 12.172 5.08646 12.1017 4.96412C12.0666 4.90506 12.023 4.85162 11.9597 4.81506ZM6.23203 4.76584C6.16594 4.76725 6.10125 4.7785 6.04078 4.81506C5.9775 4.85162 5.9325 4.90506 5.89734 4.96693C5.82703 5.08787 5.81578 5.23975 5.89172 5.37053C5.91822 5.41697 5.9537 5.45769 5.99607 5.49031C6.03845 5.52293 6.08689 5.5468 6.13857 5.56054C6.19025 5.57428 6.24415 5.57761 6.29713 5.57034C6.35011 5.56307 6.40112 5.54534 6.44719 5.51818C6.64125 5.40709 6.70594 5.15818 6.59484 4.96271C6.51891 4.82912 6.37687 4.76162 6.23203 4.76584ZM13.9763 7.53756C14.1098 7.46021 14.1773 7.31678 14.1731 7.17334C14.1717 7.10725 14.1605 7.04256 14.1253 6.98209C14.0873 6.91881 14.0339 6.87381 13.9748 6.84006C13.8525 6.76975 13.7006 6.7585 13.5713 6.83443C13.5248 6.86077 13.4841 6.89604 13.4514 6.93821C13.4186 6.98038 13.3946 7.02861 13.3806 7.08012C13.3666 7.13163 13.363 7.1854 13.3698 7.23833C13.3767 7.29125 13.3941 7.34229 13.4208 7.3885C13.5333 7.58256 13.7822 7.64865 13.9763 7.53756ZM4.42922 6.83162C4.29844 6.75709 4.14656 6.76693 4.02562 6.83725C3.96656 6.871 3.91172 6.916 3.87375 6.97928C3.83859 7.03975 3.82734 7.10584 3.82453 7.17193C3.82031 7.31537 3.88922 7.4574 4.02141 7.53475C4.21547 7.64725 4.46578 7.57975 4.57828 7.38568C4.69078 7.19162 4.62328 6.94412 4.42922 6.83162ZM3.48703 9.53303C3.33656 9.53303 3.21 9.61881 3.13969 9.74115C3.10734 9.80021 3.08203 9.8649 3.08203 9.93803C3.08203 10.0112 3.10734 10.0758 3.13969 10.1349C3.21 10.2572 3.33656 10.343 3.48703 10.343C3.71203 10.3444 3.89484 10.1616 3.89484 9.93662C3.89484 9.71443 3.71203 9.53303 3.48703 9.53303ZM4.02281 12.3427C3.88922 12.4201 3.82172 12.5621 3.82594 12.7055V12.7097C3.82734 12.7744 3.84141 12.8391 3.87516 12.8982C3.91172 12.9629 3.96656 13.0065 4.02703 13.0416C4.14797 13.1119 4.30125 13.1218 4.43063 13.0472C4.55578 12.9741 4.62188 12.8447 4.62609 12.7097C4.62891 12.6366 4.61906 12.5607 4.57969 12.4918C4.46578 12.2977 4.21688 12.2302 4.02281 12.3427ZM6.44719 14.3593C6.35356 14.3056 6.24247 14.2913 6.13831 14.3195C6.03415 14.3478 5.94546 14.4162 5.89172 14.5097C5.81719 14.6391 5.82844 14.791 5.89875 14.9147C5.9325 14.9738 5.9775 15.0287 6.04078 15.0652C6.10125 15.1004 6.16734 15.113 6.23344 15.1144C6.37828 15.1172 6.52031 15.0497 6.59625 14.9176C6.70734 14.7221 6.64125 14.4718 6.44719 14.3593ZM8.99953 15.0441C8.77453 15.0441 8.59313 15.2255 8.59313 15.4505C8.59313 15.6024 8.68031 15.729 8.80266 15.7993C8.86172 15.8316 8.92641 15.8569 8.99953 15.8569C9.07266 15.8569 9.13594 15.8316 9.19641 15.7993C9.32016 15.729 9.40453 15.601 9.40453 15.4505C9.40466 15.3972 9.39428 15.3444 9.37399 15.2952C9.3537 15.2459 9.3239 15.2011 9.28628 15.1634C9.24867 15.1256 9.20398 15.0957 9.15478 15.0752C9.10557 15.0547 9.05282 15.0442 8.99953 15.0441ZM11.5505 14.3607C11.3564 14.4732 11.2903 14.7193 11.4028 14.9162C11.4802 15.0497 11.6236 15.1172 11.767 15.113C11.8331 15.1116 11.8978 15.099 11.9583 15.0638C12.023 15.0272 12.0666 14.9738 12.1017 14.9133C12.172 14.7924 12.1833 14.6391 12.1073 14.5083C12.0529 14.4151 11.9638 14.3472 11.8594 14.3195C11.755 14.2918 11.6439 14.3066 11.5505 14.3607ZM13.9763 12.3427C13.7808 12.2302 13.5319 12.2977 13.4194 12.4918C13.38 12.5607 13.3702 12.6352 13.373 12.7083C13.3786 12.8433 13.4433 12.9727 13.5698 13.0458C13.7006 13.1204 13.8525 13.1105 13.9748 13.0388C14.0339 13.0051 14.0887 12.9601 14.1253 12.8968C14.1591 12.8377 14.1717 12.773 14.1745 12.7083V12.7055C14.1773 12.5635 14.1098 12.4201 13.9763 12.3427Z" fill="#2F2F2F"/>
<path d="M1.64394 4.97115C1.66486 4.9751 1.68636 4.97477 1.70715 4.97018C1.72793 4.96559 1.74757 4.95683 1.76488 4.94443L6.71066 1.53287C6.78238 1.48225 6.80066 1.38381 6.75144 1.31209C6.20019 0.511934 5.40285 0.0717773 4.50847 0.0717773C4.043 0.0717773 3.5691 0.191309 3.098 0.424746C2.98507 0.320911 2.84021 0.258516 2.68717 0.247786C2.53413 0.237055 2.38198 0.278625 2.25566 0.365684C2.12933 0.452817 2.03641 0.580352 1.9922 0.727311C1.94798 0.87427 1.9551 1.0319 2.01238 1.17428C1.50472 1.64818 1.17847 2.19662 1.06035 2.78443C0.918316 3.49459 1.08988 4.24693 1.54269 4.90365C1.56519 4.93881 1.60316 4.96271 1.64394 4.97115ZM16.2366 4.94443C16.2633 4.96272 16.2943 4.97396 16.3266 4.97396C16.3364 4.97396 16.3449 4.97256 16.3547 4.97115C16.3955 4.96271 16.4335 4.94021 16.4574 4.90365C16.9102 4.24693 17.0818 3.49318 16.9397 2.78443C16.823 2.19662 16.4953 1.64818 15.9877 1.17428C16.0447 1.03207 16.0517 0.874708 16.0076 0.72799C15.9634 0.581272 15.8708 0.453908 15.7447 0.366781C15.6187 0.279655 15.4668 0.237937 15.314 0.248469C15.1611 0.259001 15.0164 0.321157 14.9035 0.424746C14.431 0.191309 13.9585 0.0717773 13.4916 0.0717773C12.5958 0.0717773 11.7999 0.511934 11.25 1.31209C11.1994 1.38381 11.2177 1.48225 11.2908 1.53287L16.2366 4.94443Z" fill="#FCC21B"/>
</svg>
