<svg width="25" height="25" viewBox="0 0 25 25" fill="none" xmlns="http://www.w3.org/2000/svg">
<path d="M12.4997 22.9168C18.2528 22.9168 22.9163 18.2533 22.9163 12.5002C22.9163 6.74704 18.2528 2.0835 12.4997 2.0835C6.74655 2.0835 2.08301 6.74704 2.08301 12.5002C2.08301 18.2533 6.74655 22.9168 12.4997 22.9168Z" fill="url(#paint0_linear_142_1098)"/>
<path d="M12.4997 22.9168C18.2528 22.9168 22.9163 18.2533 22.9163 12.5002C22.9163 6.74704 18.2528 2.0835 12.4997 2.0835C6.74655 2.0835 2.08301 6.74704 2.08301 12.5002C2.08301 18.2533 6.74655 22.9168 12.4997 22.9168Z" fill="url(#paint1_radial_142_1098)" fill-opacity="0.7"/>
<path d="M12.4997 22.9168C18.2528 22.9168 22.9163 18.2533 22.9163 12.5002C22.9163 6.74704 18.2528 2.0835 12.4997 2.0835C6.74655 2.0835 2.08301 6.74704 2.08301 12.5002C2.08301 18.2533 6.74655 22.9168 12.4997 22.9168Z" fill="url(#paint2_radial_142_1098)" fill-opacity="0.2"/>
<path fill-rule="evenodd" clip-rule="evenodd" d="M9.36667 2.34011C8.95312 2.8974 8.58229 3.57501 8.26042 4.33699C7.78958 5.45157 7.40938 6.77969 7.15625 8.25001H2.46771C2.28312 8.67319 2.12687 9.10818 2 9.55209H6.97031C6.86299 10.5032 6.80926 11.4595 6.80937 12.4167C6.80937 13.4974 6.87708 14.5458 7.00208 15.5417H2.0776C2.21858 15.9899 2.38802 16.424 2.58594 16.8438H7.2026C7.45469 18.2104 7.81719 19.4479 8.2599 20.4964C8.58281 21.2583 8.95312 21.9354 9.36667 22.4932C10.2321 22.72 11.1231 22.8343 12.0177 22.8333C12.9123 22.8343 13.8033 22.72 14.6687 22.4932C15.0818 21.9359 15.4531 21.2583 15.775 20.4964C16.2177 19.4479 16.5807 18.2099 16.8323 16.8438H21.4495C21.6474 16.424 21.8167 15.9899 21.9573 15.5417H17.0333C17.1583 14.5458 17.226 13.4974 17.226 12.4167C17.226 11.4297 17.1698 10.4698 17.0646 9.55209H22.0354C21.9085 9.10818 21.7523 8.67319 21.5677 8.25001H16.8792C16.626 6.78021 16.2458 5.45157 15.775 4.33699C15.4531 3.57501 15.0823 2.89792 14.6687 2.34011C13.8033 2.11337 12.9123 1.99906 12.0177 2.00001C11.1016 2.00001 10.213 2.11823 9.36667 2.34011ZM8.47865 8.25001C8.7151 6.95938 9.05417 5.80417 9.4599 4.84376C9.86406 3.88751 10.3224 3.15365 10.7865 2.66928C11.2536 2.1823 11.674 2.00001 12.0177 2.00001C12.3615 2.00001 12.7812 2.1823 13.2484 2.66928C13.713 3.15365 14.1714 3.88803 14.5755 4.84428C14.9818 5.80417 15.3203 6.95886 15.5562 8.25001H8.47865ZM12.0177 22.8333C12.362 22.8333 12.7812 22.651 13.2484 22.1641C13.713 21.6797 14.1714 20.9453 14.5755 19.9891C14.9536 19.0943 15.2734 18.0297 15.5068 16.8438H8.52812C8.76146 18.0297 9.08177 19.0938 9.4599 19.9896C9.86406 20.9458 10.3224 21.6797 10.7865 22.1641C11.2536 22.651 11.674 22.8333 12.0177 22.8333ZM8.11146 12.4167C8.11146 13.5068 8.18385 14.5557 8.31458 15.5417H15.7208C15.8516 14.5557 15.924 13.5068 15.924 12.4167C15.924 11.4219 15.8635 10.4615 15.7536 9.55209H8.28177C8.16781 10.5027 8.11094 11.4593 8.11146 12.4167Z" fill="url(#paint3_radial_142_1098)"/>
<path d="M14.5837 21.074C14.3967 20.8085 14.2326 20.5276 14.0931 20.2344C13.725 19.458 13.541 18.5986 13.541 17.6563V14.6484C13.5417 14.534 13.5878 14.4245 13.6691 14.3439C13.7504 14.2633 13.8604 14.2183 13.9749 14.2188C14.7849 14.2188 15.5846 14.0689 16.3738 13.7693C16.8345 13.5915 17.2784 13.3731 17.7004 13.1167C17.9716 12.9525 18.2347 12.7754 18.4889 12.5859C18.5643 12.5301 18.6556 12.5 18.7493 12.5C18.8431 12.5 18.9344 12.5301 19.0098 12.5859C19.4028 12.8776 19.7983 13.1302 20.1962 13.3438C20.675 13.6007 21.1573 13.8009 21.6431 13.9443C22.0153 14.0542 22.3962 14.1319 22.7816 14.1766C23.0282 14.2047 23.2756 14.2188 23.5238 14.2188C23.7634 14.2188 23.9577 14.4115 23.9577 14.6484V17.6563C23.9577 20.5214 22.2462 22.6266 18.9082 23.9287C18.806 23.9685 18.6927 23.9685 18.5905 23.9287C17.4874 23.4981 16.5632 22.9807 15.8181 22.3766C15.706 22.2861 15.5965 22.1923 15.49 22.0953C15.3386 21.9564 15.1957 21.8135 15.0613 21.6667C14.8874 21.4761 14.7282 21.2785 14.5837 21.074Z" fill="url(#paint4_linear_142_1098)"/>
<defs>
<linearGradient id="paint0_linear_142_1098" x1="6.71269" y1="5.55589" x2="21.759" y2="19.4444" gradientUnits="userSpaceOnUse">
<stop stop-color="#29C3FF"/>
<stop offset="1" stop-color="#2052CB"/>
</linearGradient>
<radialGradient id="paint1_radial_142_1098" cx="0" cy="0" r="1" gradientUnits="userSpaceOnUse" gradientTransform="translate(18.9288 17.871) rotate(180) scale(8.75151)">
<stop stop-color="#003580"/>
<stop offset="1" stop-color="#003580" stop-opacity="0"/>
</radialGradient>
<radialGradient id="paint2_radial_142_1098" cx="0" cy="0" r="1" gradientUnits="userSpaceOnUse" gradientTransform="translate(19.3356 17.7085) rotate(37.2782) scale(13.7048 14.8667)">
<stop offset="0.412" stop-color="#1B44B1"/>
<stop offset="1" stop-color="#1B44B1" stop-opacity="0"/>
</radialGradient>
<radialGradient id="paint3_radial_142_1098" cx="0" cy="0" r="1" gradientUnits="userSpaceOnUse" gradientTransform="translate(19.0521 19.1875) rotate(42.3971) scale(14.111 15.073)">
<stop offset="0.445" stop-color="#3BD5FF" stop-opacity="0"/>
<stop offset="0.815" stop-color="#3BD5FF"/>
</radialGradient>
<linearGradient id="paint4_linear_142_1098" x1="15.4941" y1="12.5" x2="23.9712" y2="23.5573" gradientUnits="userSpaceOnUse">
<stop stop-color="#62BE55"/>
<stop offset="1" stop-color="#1E794A"/>
</linearGradient>
</defs>
</svg>
