<svg width="23" height="24" viewBox="0 0 23 24" fill="none" xmlns="http://www.w3.org/2000/svg">
<g clip-path="url(#clip0_471_200)">
<path d="M18.6869 2.00049H4.31193C2.99093 2.00049 1.91602 3.12181 1.91602 4.50025V21.5005C1.91602 22.8789 2.99097 24.0002 4.31193 24.0002H18.6869C20.0079 24.0002 21.0832 22.8789 21.0832 21.5005V4.5002C21.0832 3.12181 20.0079 2.00049 18.6869 2.00049Z" fill="#4A89DC"/>
<g opacity="0.1">
<path d="M17.2492 22.4999C16.9846 22.4999 16.7705 22.2758 16.7705 21.9997V21.5002C16.7705 21.2241 16.9846 21 17.2492 21C17.5138 21 17.7279 21.2241 17.7279 21.5002V21.9997C17.7279 22.2758 17.5138 22.4999 17.2492 22.4999Z" fill="#080808"/>
<path d="M15.3337 22.4999C15.0683 22.4999 14.8535 22.2758 14.8535 21.9997V21.5002C14.8535 21.2241 15.0683 21 15.3337 21C15.5975 21 15.8123 21.2241 15.8123 21.5002V21.9997C15.8123 22.2758 15.5975 22.4999 15.3337 22.4999Z" fill="#080808"/>
<path d="M13.4152 22.4999C13.1513 22.4999 12.9365 22.2758 12.9365 21.9997V21.5002C12.9365 21.2241 13.1513 21 13.4152 21C13.6805 21 13.8954 21.2241 13.8954 21.5002V21.9997C13.8953 22.2758 13.6806 22.4999 13.4152 22.4999Z" fill="#080808"/>
<path d="M11.4996 22.4999C11.2349 22.4999 11.0205 22.2758 11.0205 21.9997V21.5002C11.0205 21.2241 11.2349 21 11.4996 21C11.7642 21 11.9786 21.2241 11.9786 21.5002V21.9997C11.9785 22.2758 11.7641 22.4999 11.4996 22.4999Z" fill="#080808"/>
<path d="M9.58293 22.4999C9.31829 22.4999 9.10352 22.2758 9.10352 21.9997V21.5002C9.10352 21.2241 9.31829 21 9.58293 21C9.84753 21 10.062 21.2241 10.062 21.5002V21.9997C10.062 22.2758 9.84757 22.4999 9.58293 22.4999Z" fill="#080808"/>
<path d="M7.66558 22.4999C7.40094 22.4999 7.18652 22.2758 7.18652 21.9997V21.5002C7.18652 21.2241 7.40094 21 7.66558 21C7.93054 21 8.14495 21.2241 8.14495 21.5002V21.9997C8.14491 22.2758 7.93049 22.4999 7.66558 22.4999Z" fill="#080808"/>
<path d="M5.74956 22.4999C5.48492 22.4999 5.27051 22.2758 5.27051 21.9997V21.5002C5.27051 21.2241 5.48492 21 5.74956 21C6.01416 21 6.22862 21.2241 6.22862 21.5002V21.9997C6.22858 22.2758 6.01416 22.4999 5.74956 22.4999Z" fill="#080808"/>
<path d="M3.83293 22.4999C3.56829 22.4999 3.35352 22.2758 3.35352 21.9997V21.5002C3.35352 21.2241 3.56829 21 3.83293 21C4.09753 21 4.31199 21.2241 4.31199 21.5002V21.9997C4.31199 22.2758 4.09753 22.4999 3.83293 22.4999Z" fill="#080808"/>
<path d="M19.1652 22.4999C18.9013 22.4999 18.6865 22.2758 18.6865 21.9997V21.5002C18.6865 21.2241 18.9013 21 19.1652 21C19.4305 21 19.6453 21.2241 19.6453 21.5002V21.9997C19.6453 22.2758 19.4305 22.4999 19.1652 22.4999Z" fill="#080808"/>
</g>
<path d="M18.7709 0H4.39587C3.07491 0 2 1.12132 2 2.49976V19.5C2 20.8784 3.07496 21.9998 4.39592 21.9998H18.7709C20.0919 21.9998 21.1672 20.8784 21.1672 19.5V2.49976C21.1671 1.12132 20.0918 0 18.7709 0Z" fill="#5D9CEC"/>
<path d="M7.51509 8.28586C8.16328 6.65551 9.70292 5.50925 11.4994 5.50925C13.2963 5.50925 14.8356 6.65551 15.4834 8.28586L18.1409 7.13739C17.0599 4.42013 14.4937 2.50928 11.4995 2.50928C8.50515 2.50928 5.93861 4.42018 4.8584 7.13744L7.51509 8.28586Z" fill="#E6E9ED"/>
<path d="M11.4996 6.00953C11.2349 6.00953 11.0205 5.78541 11.0205 5.50927V4.90939C11.0205 4.63329 11.2349 4.40918 11.4996 4.40918C11.7642 4.40918 11.9786 4.63329 11.9786 4.90939V5.50927C11.9785 5.78541 11.7641 6.00953 11.4996 6.00953Z" fill="#4A89DC"/>
<path d="M9.84871 6.35088C9.66057 6.35088 9.48232 6.23515 9.40581 6.04253L9.1861 5.48883C9.08466 5.23392 9.20083 4.9417 9.44544 4.83548C9.69004 4.73001 9.97009 4.85085 10.0715 5.10647L10.2912 5.65946C10.3927 5.91508 10.2765 6.2073 10.0319 6.31277C9.97193 6.33917 9.9098 6.35088 9.84871 6.35088Z" fill="#4A89DC"/>
<path d="M8.45051 7.32802C8.32769 7.32802 8.20519 7.27894 8.11148 7.18154L7.70475 6.75674C7.51769 6.56193 7.51769 6.24481 7.70475 6.05C7.89181 5.85443 8.19535 5.85443 8.38241 6.05L8.78914 6.47404C8.9762 6.6696 8.9762 6.98597 8.78914 7.18154C8.69574 7.27894 8.57293 7.32802 8.45051 7.32802Z" fill="#4A89DC"/>
<path d="M14.5484 7.32802C14.4263 7.32802 14.3028 7.27894 14.2102 7.18154C14.022 6.98597 14.0228 6.6696 14.2102 6.47404L14.6165 6.05C14.804 5.85443 15.1072 5.85443 15.2939 6.05C15.4813 6.24481 15.4813 6.56193 15.2939 6.75674L14.8875 7.18154C14.7942 7.27894 14.6713 7.32802 14.5484 7.32802Z" fill="#4A89DC"/>
<path d="M13.1507 6.35084C13.0889 6.35084 13.0271 6.33912 12.9667 6.31277C12.7225 6.2073 12.606 5.91508 12.7077 5.65946L12.9274 5.10647C13.0285 4.85085 13.3093 4.73001 13.5536 4.83548C13.7979 4.9417 13.9143 5.23392 13.8133 5.48883L13.5929 6.04253C13.5171 6.2351 13.3388 6.35084 13.1507 6.35084Z" fill="#4A89DC"/>
<path d="M11.4996 3.99975C11.2349 3.99975 11.0205 3.77633 11.0205 3.50024V2.50928C11.0205 2.23313 11.2349 2.00977 11.4996 2.00977C11.7642 2.00977 11.9786 2.23313 11.9786 2.50928V3.50024C11.9785 3.77633 11.7641 3.99975 11.4996 3.99975Z" fill="#434A54"/>
<path d="M17.258 18.9997H5.75774C5.4931 18.9997 5.27832 18.7763 5.27832 18.5002C5.27832 18.2241 5.4931 18 5.75774 18H17.2581C17.522 18 17.7368 18.2241 17.7368 18.5002C17.7368 18.7764 17.522 18.9997 17.258 18.9997Z" fill="#4A89DC"/>
<path d="M15.3343 17H7.68316C7.41852 17 7.2041 16.7759 7.2041 16.4998C7.2041 16.2236 7.41852 15.9995 7.68316 15.9995H15.3342C15.5981 15.9995 15.8129 16.2236 15.8129 16.4998C15.8129 16.7759 15.5982 17 15.3343 17Z" fill="#4A89DC"/>
<path d="M15.4847 8.78537C15.2966 8.78537 15.1184 8.66968 15.0419 8.47702C14.4453 6.97773 13.0555 6.00951 11.5001 6.00951C9.94463 6.00951 8.55454 6.97773 7.95828 8.47702C7.85684 8.73188 7.57643 8.85273 7.33219 8.74726L4.6755 7.59959C4.55829 7.54831 4.4649 7.4509 4.41616 7.3286C4.36773 7.2063 4.36773 7.06788 4.41652 6.94553C4.99032 5.50269 5.95018 4.27294 7.19221 3.39111C8.4651 2.48729 9.95456 2.00977 11.5001 2.00977C13.0457 2.00977 14.5352 2.48729 15.8084 3.39111C17.0501 4.27294 18.0096 5.50194 18.5837 6.94553C18.6328 7.06783 18.6328 7.20555 18.5837 7.3286C18.5353 7.4509 18.4419 7.54835 18.3247 7.59889L15.6679 8.7473C15.6076 8.77365 15.5458 8.78537 15.4847 8.78537ZM5.50091 6.87376L7.27846 7.64211C8.10774 6.02784 9.71723 5.00978 11.5001 5.00978C13.2829 5.00978 14.8917 6.02788 15.7213 7.64211L17.4993 6.87376C16.9869 5.80663 16.2232 4.8955 15.2693 4.218C14.1561 3.42697 12.8519 3.00949 11.5001 3.00949C10.1479 3.00949 8.84443 3.42697 7.73119 4.218C6.7769 4.89545 6.0133 5.80663 5.50091 6.87376Z" fill="#4A89DC"/>
</g>
<defs>
<clipPath id="clip0_471_200">
<rect width="23" height="24" fill="white"/>
</clipPath>
</defs>
</svg>
