<svg width="130" height="130" viewBox="0 0 130 130" fill="none" xmlns="http://www.w3.org/2000/svg">
<path d="M0 20C0 8.9543 8.95431 0 20 0H110C121.046 0 130 8.95431 130 20V110C130 121.046 121.046 130 110 130H20C8.9543 130 0 121.046 0 110V20Z" fill="#FF4B98"/>
<path d="M63.8124 76.46C63.7224 77.6 63.4524 78.56 63.0024 79.34C62.5524 80.15 61.9524 80.795 61.2024 81.275C60.4824 81.785 59.6274 82.145 58.6374 82.355C57.6474 82.595 56.5824 82.73 55.4424 82.76C53.4624 82.82 51.6024 82.85 49.8624 82.85C48.1224 82.88 46.3974 82.895 44.6874 82.895C43.0074 82.895 41.2974 82.88 39.5574 82.85C37.8174 82.85 35.9574 82.82 33.9774 82.76C32.8374 82.73 31.7724 82.595 30.7824 82.355C29.8224 82.145 28.9674 81.785 28.2174 81.275C27.4974 80.795 26.9124 80.15 26.4624 79.34C26.0124 78.56 25.7424 77.6 25.6524 76.46C25.5624 75.47 25.5174 74.585 25.5174 73.805C25.5174 73.025 25.5624 72.14 25.6524 71.15C25.7424 70.01 26.0124 69.05 26.4624 68.27C26.9124 67.46 27.4974 66.815 28.2174 66.335C28.9674 65.825 29.8224 65.465 30.7824 65.255C31.7724 65.015 32.8374 64.88 33.9774 64.85C35.9574 64.82 37.8174 64.79 39.5574 64.76C41.2974 64.73 43.0074 64.715 44.6874 64.715C46.3974 64.715 48.1224 64.73 49.8624 64.76C51.6024 64.79 53.4624 64.82 55.4424 64.85C56.5824 64.88 57.6474 65.015 58.6374 65.255C59.6274 65.465 60.4824 65.825 61.2024 66.335C61.9524 66.815 62.5524 67.46 63.0024 68.27C63.4524 69.05 63.7224 70.01 63.8124 71.15C63.8724 72.14 63.9024 73.025 63.9024 73.805C63.9024 74.585 63.8724 75.47 63.8124 76.46ZM63.5874 60.62C63.5874 61.58 63.3324 62.345 62.8224 62.915C62.3124 63.485 61.6224 63.77 60.7524 63.77H56.2974C55.4574 63.77 54.7674 63.485 54.2274 62.915C53.7174 62.345 53.4624 61.58 53.4624 60.62V58.46H52.4724V60.62C52.4724 61.58 52.2174 62.345 51.7074 62.915C51.1974 63.485 50.5074 63.77 49.6374 63.77H45.1824C44.3124 63.77 43.6224 63.485 43.1124 62.915C42.6024 62.345 42.3474 61.58 42.3474 60.62V45.95C42.3474 44.99 42.6024 44.225 43.1124 43.655C43.6224 43.085 44.3124 42.8 45.1824 42.8H49.6374C50.5074 42.8 51.1974 43.085 51.7074 43.655C52.2174 44.225 52.4724 44.99 52.4724 45.95V47.57H53.4624V45.95C53.4624 44.99 53.7174 44.225 54.2274 43.655C54.7674 43.085 55.4574 42.8 56.2974 42.8H60.7524C61.6224 42.8 62.3124 43.085 62.8224 43.655C63.3324 44.225 63.5874 44.99 63.5874 45.95V60.62ZM41.3124 60.62C41.3124 61.58 41.0574 62.345 40.5474 62.915C40.0374 63.485 39.3474 63.77 38.4774 63.77H28.7124C27.8424 63.77 27.1524 63.485 26.6424 62.915C26.1324 62.345 25.8774 61.58 25.8774 60.62V45.95C25.8774 44.99 26.1324 44.225 26.6424 43.655C27.1524 43.085 27.8424 42.8 28.7124 42.8H38.4774C39.3474 42.8 40.0374 43.085 40.5474 43.655C41.0574 44.225 41.3124 44.99 41.3124 45.95V49.415C41.3124 50.375 41.0424 51.17 40.5024 51.8C39.9924 52.43 39.3174 52.745 38.4774 52.745C38.1174 52.745 37.7424 52.73 37.3524 52.7C36.9624 52.67 36.5574 52.625 36.1374 52.565V53.96C36.5574 54.02 36.9624 54.065 37.3524 54.095C37.7424 54.125 38.1174 54.14 38.4774 54.14C39.3774 54.14 40.0674 54.41 40.5474 54.95C41.0574 55.46 41.3124 56.18 41.3124 57.11V60.62ZM51.3924 73.265C49.2324 72.815 47.0124 72.59 44.7324 72.59C42.4524 72.59 40.2324 72.815 38.0724 73.265V74.345C40.2324 73.895 42.4524 73.67 44.7324 73.67C47.0124 73.67 49.2324 73.895 51.3924 74.345V73.265ZM104.33 76.46C104.24 77.6 103.97 78.56 103.52 79.34C103.07 80.15 102.47 80.795 101.72 81.275C101 81.785 100.145 82.145 99.155 82.355C98.165 82.595 97.1 82.73 95.96 82.76C93.98 82.82 92.12 82.85 90.38 82.85C88.64 82.88 86.915 82.895 85.205 82.895C83.525 82.895 81.815 82.88 80.075 82.85C78.335 82.85 76.475 82.82 74.495 82.76C73.355 82.73 72.29 82.595 71.3 82.355C70.34 82.145 69.485 81.785 68.735 81.275C68.015 80.795 67.43 80.15 66.98 79.34C66.53 78.56 66.26 77.6 66.17 76.46C66.08 75.47 66.035 74.585 66.035 73.805C66.035 73.025 66.08 72.14 66.17 71.15C66.26 70.01 66.53 69.05 66.98 68.27C67.43 67.46 68.015 66.815 68.735 66.335C69.485 65.825 70.34 65.465 71.3 65.255C72.29 65.015 73.355 64.88 74.495 64.85C76.475 64.82 78.335 64.79 80.075 64.76C81.815 64.73 83.525 64.715 85.205 64.715C86.915 64.715 88.64 64.73 90.38 64.76C92.12 64.79 93.98 64.82 95.96 64.85C97.1 64.88 98.165 65.015 99.155 65.255C100.145 65.465 101 65.825 101.72 66.335C102.47 66.815 103.07 67.46 103.52 68.27C103.97 69.05 104.24 70.01 104.33 71.15C104.39 72.14 104.42 73.025 104.42 73.805C104.42 74.585 104.39 75.47 104.33 76.46ZM104.105 60.62C104.105 61.58 103.85 62.345 103.34 62.915C102.83 63.485 102.14 63.77 101.27 63.77H96.815C95.975 63.77 95.285 63.485 94.745 62.915C94.235 62.345 93.98 61.58 93.98 60.62V58.46H92.99V60.62C92.99 61.58 92.735 62.345 92.225 62.915C91.715 63.485 91.025 63.77 90.155 63.77H85.7C84.83 63.77 84.14 63.485 83.63 62.915C83.12 62.345 82.865 61.58 82.865 60.62V45.95C82.865 44.99 83.12 44.225 83.63 43.655C84.14 43.085 84.83 42.8 85.7 42.8H90.155C91.025 42.8 91.715 43.085 92.225 43.655C92.735 44.225 92.99 44.99 92.99 45.95V47.57H93.98V45.95C93.98 44.99 94.235 44.225 94.745 43.655C95.285 43.085 95.975 42.8 96.815 42.8H101.27C102.14 42.8 102.83 43.085 103.34 43.655C103.85 44.225 104.105 44.99 104.105 45.95V60.62ZM81.83 60.62C81.83 61.58 81.575 62.345 81.065 62.915C80.555 63.485 79.865 63.77 78.995 63.77H69.23C68.36 63.77 67.67 63.485 67.16 62.915C66.65 62.345 66.395 61.58 66.395 60.62V45.95C66.395 44.99 66.65 44.225 67.16 43.655C67.67 43.085 68.36 42.8 69.23 42.8H78.995C79.865 42.8 80.555 43.085 81.065 43.655C81.575 44.225 81.83 44.99 81.83 45.95V49.415C81.83 50.375 81.56 51.17 81.02 51.8C80.51 52.43 79.835 52.745 78.995 52.745C78.635 52.745 78.26 52.73 77.87 52.7C77.48 52.67 77.075 52.625 76.655 52.565V53.96C77.075 54.02 77.48 54.065 77.87 54.095C78.26 54.125 78.635 54.14 78.995 54.14C79.895 54.14 80.585 54.41 81.065 54.95C81.575 55.46 81.83 56.18 81.83 57.11V60.62ZM91.91 73.265C89.75 72.815 87.53 72.59 85.25 72.59C82.97 72.59 80.75 72.815 78.59 73.265V74.345C80.75 73.895 82.97 73.67 85.25 73.67C87.53 73.67 89.75 73.895 91.91 74.345V73.265Z" fill="white"/>
</svg>
